%TF.GenerationSoftware,KiCad,Pcbnew,5.1.10-6.fc33*%
%TF.CreationDate,2021-09-12T19:05:30+02:00*%
%TF.ProjectId,xecar524,78656361-7235-4323-942e-6b696361645f,rev?*%
%TF.SameCoordinates,Original*%
%TF.FileFunction,Copper,L2,Bot*%
%TF.FilePolarity,Positive*%
%FSLAX46Y46*%
G04 Gerber Fmt 4.6, Leading zero omitted, Abs format (unit mm)*
G04 Created by KiCad (PCBNEW 5.1.10-6.fc33) date 2021-09-12 19:05:30*
%MOMM*%
%LPD*%
G01*
G04 APERTURE LIST*
%TA.AperFunction,ComponentPad*%
%ADD10O,1.700000X1.700000*%
%TD*%
%TA.AperFunction,ComponentPad*%
%ADD11R,1.700000X1.700000*%
%TD*%
%TA.AperFunction,SMDPad,CuDef*%
%ADD12R,0.450000X1.500000*%
%TD*%
%TA.AperFunction,SMDPad,CuDef*%
%ADD13R,3.000000X3.600000*%
%TD*%
%TA.AperFunction,ViaPad*%
%ADD14C,1.500000*%
%TD*%
%TA.AperFunction,ViaPad*%
%ADD15C,1.000000*%
%TD*%
%TA.AperFunction,Conductor*%
%ADD16C,1.000000*%
%TD*%
%TA.AperFunction,Conductor*%
%ADD17C,0.254000*%
%TD*%
%TA.AperFunction,Conductor*%
%ADD18C,0.500000*%
%TD*%
%TA.AperFunction,Conductor*%
%ADD19C,0.800000*%
%TD*%
%TA.AperFunction,Conductor*%
%ADD20C,0.100000*%
%TD*%
G04 APERTURE END LIST*
D10*
%TO.P,J4,4*%
%TO.N,TEST2*%
X142367000Y-131064000D03*
%TO.P,J4,3*%
%TO.N,TEST1*%
X139827000Y-131064000D03*
%TO.P,J4,2*%
%TO.N,TEST0*%
X137287000Y-131064000D03*
D11*
%TO.P,J4,1*%
%TO.N,GND*%
X134747000Y-131064000D03*
%TD*%
D10*
%TO.P,J3,6*%
%TO.N,GND*%
X129730500Y-80708500D03*
%TO.P,J3,5*%
%TO.N,CFG0*%
X132270500Y-80708500D03*
%TO.P,J3,4*%
%TO.N,GND*%
X129730500Y-83248500D03*
%TO.P,J3,3*%
%TO.N,CFG1*%
X132270500Y-83248500D03*
%TO.P,J3,2*%
%TO.N,GND*%
X129730500Y-85788500D03*
D11*
%TO.P,J3,1*%
%TO.N,CFG2*%
X132270500Y-85788500D03*
%TD*%
D10*
%TO.P,JP1,2*%
%TO.N,Net-(D4-Pad2)*%
X127127000Y-108966000D03*
D11*
%TO.P,JP1,1*%
%TO.N,Net-(BT1-Pad1)*%
X127127000Y-111506000D03*
%TD*%
D10*
%TO.P,J2,6*%
%TO.N,MCLR*%
X127000000Y-116586000D03*
%TO.P,J2,5*%
%TO.N,VDD*%
X127000000Y-119126000D03*
%TO.P,J2,4*%
%TO.N,GND*%
X127000000Y-121666000D03*
%TO.P,J2,3*%
%TO.N,PGD*%
X127000000Y-124206000D03*
%TO.P,J2,2*%
%TO.N,PGC*%
X127000000Y-126746000D03*
D11*
%TO.P,J2,1*%
%TO.N,Net-(J2-Pad1)*%
X127000000Y-129286000D03*
%TD*%
D12*
%TO.P,D4,3*%
%TO.N,VDD*%
X123126500Y-111629500D03*
%TO.P,D4,2*%
%TO.N,Net-(D4-Pad2)*%
X123776500Y-108969500D03*
%TO.P,D4,1*%
%TO.N,+3V3*%
X122476500Y-108969500D03*
%TD*%
D13*
%TO.P,BT1,1*%
%TO.N,Net-(BT1-Pad1)*%
X131318000Y-111506000D03*
%TO.P,BT1,2*%
%TO.N,GND*%
X160618000Y-111506000D03*
%TD*%
%TO.P,C10,2*%
%TO.N,GND*%
%TA.AperFunction,SMDPad,CuDef*%
G36*
G01*
X149906000Y-84372500D02*
X150856000Y-84372500D01*
G75*
G02*
X151106000Y-84622500I0J-250000D01*
G01*
X151106000Y-85297500D01*
G75*
G02*
X150856000Y-85547500I-250000J0D01*
G01*
X149906000Y-85547500D01*
G75*
G02*
X149656000Y-85297500I0J250000D01*
G01*
X149656000Y-84622500D01*
G75*
G02*
X149906000Y-84372500I250000J0D01*
G01*
G37*
%TD.AperFunction*%
%TO.P,C10,1*%
%TO.N,+3V3*%
%TA.AperFunction,SMDPad,CuDef*%
G36*
G01*
X149906000Y-82297500D02*
X150856000Y-82297500D01*
G75*
G02*
X151106000Y-82547500I0J-250000D01*
G01*
X151106000Y-83222500D01*
G75*
G02*
X150856000Y-83472500I-250000J0D01*
G01*
X149906000Y-83472500D01*
G75*
G02*
X149656000Y-83222500I0J250000D01*
G01*
X149656000Y-82547500D01*
G75*
G02*
X149906000Y-82297500I250000J0D01*
G01*
G37*
%TD.AperFunction*%
%TD*%
%TO.P,C9,2*%
%TO.N,GND*%
%TA.AperFunction,SMDPad,CuDef*%
G36*
G01*
X168819500Y-96172000D02*
X168819500Y-97122000D01*
G75*
G02*
X168569500Y-97372000I-250000J0D01*
G01*
X167894500Y-97372000D01*
G75*
G02*
X167644500Y-97122000I0J250000D01*
G01*
X167644500Y-96172000D01*
G75*
G02*
X167894500Y-95922000I250000J0D01*
G01*
X168569500Y-95922000D01*
G75*
G02*
X168819500Y-96172000I0J-250000D01*
G01*
G37*
%TD.AperFunction*%
%TO.P,C9,1*%
%TO.N,+3V3*%
%TA.AperFunction,SMDPad,CuDef*%
G36*
G01*
X170894500Y-96172000D02*
X170894500Y-97122000D01*
G75*
G02*
X170644500Y-97372000I-250000J0D01*
G01*
X169969500Y-97372000D01*
G75*
G02*
X169719500Y-97122000I0J250000D01*
G01*
X169719500Y-96172000D01*
G75*
G02*
X169969500Y-95922000I250000J0D01*
G01*
X170644500Y-95922000D01*
G75*
G02*
X170894500Y-96172000I0J-250000D01*
G01*
G37*
%TD.AperFunction*%
%TD*%
%TO.P,C8,2*%
%TO.N,GND*%
%TA.AperFunction,SMDPad,CuDef*%
G36*
G01*
X139873000Y-75228500D02*
X140823000Y-75228500D01*
G75*
G02*
X141073000Y-75478500I0J-250000D01*
G01*
X141073000Y-76153500D01*
G75*
G02*
X140823000Y-76403500I-250000J0D01*
G01*
X139873000Y-76403500D01*
G75*
G02*
X139623000Y-76153500I0J250000D01*
G01*
X139623000Y-75478500D01*
G75*
G02*
X139873000Y-75228500I250000J0D01*
G01*
G37*
%TD.AperFunction*%
%TO.P,C8,1*%
%TO.N,+3V3*%
%TA.AperFunction,SMDPad,CuDef*%
G36*
G01*
X139873000Y-73153500D02*
X140823000Y-73153500D01*
G75*
G02*
X141073000Y-73403500I0J-250000D01*
G01*
X141073000Y-74078500D01*
G75*
G02*
X140823000Y-74328500I-250000J0D01*
G01*
X139873000Y-74328500D01*
G75*
G02*
X139623000Y-74078500I0J250000D01*
G01*
X139623000Y-73403500D01*
G75*
G02*
X139873000Y-73153500I250000J0D01*
G01*
G37*
%TD.AperFunction*%
%TD*%
%TO.P,C7,2*%
%TO.N,GND*%
%TA.AperFunction,SMDPad,CuDef*%
G36*
G01*
X153015000Y-63998500D02*
X152065000Y-63998500D01*
G75*
G02*
X151815000Y-63748500I0J250000D01*
G01*
X151815000Y-63073500D01*
G75*
G02*
X152065000Y-62823500I250000J0D01*
G01*
X153015000Y-62823500D01*
G75*
G02*
X153265000Y-63073500I0J-250000D01*
G01*
X153265000Y-63748500D01*
G75*
G02*
X153015000Y-63998500I-250000J0D01*
G01*
G37*
%TD.AperFunction*%
%TO.P,C7,1*%
%TO.N,+3V3*%
%TA.AperFunction,SMDPad,CuDef*%
G36*
G01*
X153015000Y-66073500D02*
X152065000Y-66073500D01*
G75*
G02*
X151815000Y-65823500I0J250000D01*
G01*
X151815000Y-65148500D01*
G75*
G02*
X152065000Y-64898500I250000J0D01*
G01*
X153015000Y-64898500D01*
G75*
G02*
X153265000Y-65148500I0J-250000D01*
G01*
X153265000Y-65823500D01*
G75*
G02*
X153015000Y-66073500I-250000J0D01*
G01*
G37*
%TD.AperFunction*%
%TD*%
D11*
%TO.P,J1,1*%
%TO.N,+3V3*%
X126936500Y-103220000D03*
D10*
%TO.P,J1,2*%
%TO.N,GND*%
X126936500Y-100680000D03*
%TO.P,J1,3*%
%TO.N,Net-(J1-Pad3)*%
X126936500Y-98140000D03*
%TO.P,J1,4*%
%TO.N,Net-(J1-Pad4)*%
X126936500Y-95600000D03*
%TO.P,J1,5*%
%TO.N,Net-(J1-Pad5)*%
X126936500Y-93060000D03*
%TO.P,J1,6*%
%TO.N,Net-(J1-Pad6)*%
X126936500Y-90520000D03*
%TD*%
%TO.P,U2,15*%
%TO.N,CCTL#*%
%TA.AperFunction,SMDPad,CuDef*%
G36*
G01*
X166930000Y-54855000D02*
X166930000Y-46145000D01*
G75*
G02*
X167355000Y-45720000I425000J0D01*
G01*
X168205000Y-45720000D01*
G75*
G02*
X168630000Y-46145000I0J-425000D01*
G01*
X168630000Y-54855000D01*
G75*
G02*
X168205000Y-55280000I-425000J0D01*
G01*
X167355000Y-55280000D01*
G75*
G02*
X166930000Y-54855000I0J425000D01*
G01*
G37*
%TD.AperFunction*%
%TO.P,U2,14*%
%TO.N,RD5*%
%TA.AperFunction,SMDPad,CuDef*%
G36*
G01*
X164390000Y-54855000D02*
X164390000Y-46145000D01*
G75*
G02*
X164815000Y-45720000I425000J0D01*
G01*
X165665000Y-45720000D01*
G75*
G02*
X166090000Y-46145000I0J-425000D01*
G01*
X166090000Y-54855000D01*
G75*
G02*
X165665000Y-55280000I-425000J0D01*
G01*
X164815000Y-55280000D01*
G75*
G02*
X164390000Y-54855000I0J425000D01*
G01*
G37*
%TD.AperFunction*%
%TO.P,U2,13*%
%TO.N,+5V*%
%TA.AperFunction,SMDPad,CuDef*%
G36*
G01*
X161850000Y-54855000D02*
X161850000Y-46145000D01*
G75*
G02*
X162275000Y-45720000I425000J0D01*
G01*
X163125000Y-45720000D01*
G75*
G02*
X163550000Y-46145000I0J-425000D01*
G01*
X163550000Y-54855000D01*
G75*
G02*
X163125000Y-55280000I-425000J0D01*
G01*
X162275000Y-55280000D01*
G75*
G02*
X161850000Y-54855000I0J425000D01*
G01*
G37*
%TD.AperFunction*%
%TO.P,U2,12*%
%TO.N,S5#*%
%TA.AperFunction,SMDPad,CuDef*%
G36*
G01*
X159310000Y-54855000D02*
X159310000Y-46145000D01*
G75*
G02*
X159735000Y-45720000I425000J0D01*
G01*
X160585000Y-45720000D01*
G75*
G02*
X161010000Y-46145000I0J-425000D01*
G01*
X161010000Y-54855000D01*
G75*
G02*
X160585000Y-55280000I-425000J0D01*
G01*
X159735000Y-55280000D01*
G75*
G02*
X159310000Y-54855000I0J425000D01*
G01*
G37*
%TD.AperFunction*%
%TO.P,U2,11*%
%TO.N,CART_D6*%
%TA.AperFunction,SMDPad,CuDef*%
G36*
G01*
X156770000Y-54855000D02*
X156770000Y-46145000D01*
G75*
G02*
X157195000Y-45720000I425000J0D01*
G01*
X158045000Y-45720000D01*
G75*
G02*
X158470000Y-46145000I0J-425000D01*
G01*
X158470000Y-54855000D01*
G75*
G02*
X158045000Y-55280000I-425000J0D01*
G01*
X157195000Y-55280000D01*
G75*
G02*
X156770000Y-54855000I0J425000D01*
G01*
G37*
%TD.AperFunction*%
%TO.P,U2,10*%
%TO.N,CART_D0*%
%TA.AperFunction,SMDPad,CuDef*%
G36*
G01*
X154230000Y-54855000D02*
X154230000Y-46145000D01*
G75*
G02*
X154655000Y-45720000I425000J0D01*
G01*
X155505000Y-45720000D01*
G75*
G02*
X155930000Y-46145000I0J-425000D01*
G01*
X155930000Y-54855000D01*
G75*
G02*
X155505000Y-55280000I-425000J0D01*
G01*
X154655000Y-55280000D01*
G75*
G02*
X154230000Y-54855000I0J425000D01*
G01*
G37*
%TD.AperFunction*%
%TO.P,U2,9*%
%TO.N,CART_D1*%
%TA.AperFunction,SMDPad,CuDef*%
G36*
G01*
X151690000Y-54855000D02*
X151690000Y-46145000D01*
G75*
G02*
X152115000Y-45720000I425000J0D01*
G01*
X152965000Y-45720000D01*
G75*
G02*
X153390000Y-46145000I0J-425000D01*
G01*
X153390000Y-54855000D01*
G75*
G02*
X152965000Y-55280000I-425000J0D01*
G01*
X152115000Y-55280000D01*
G75*
G02*
X151690000Y-54855000I0J425000D01*
G01*
G37*
%TD.AperFunction*%
%TO.P,U2,8*%
%TO.N,CART_D2*%
%TA.AperFunction,SMDPad,CuDef*%
G36*
G01*
X149150000Y-54855000D02*
X149150000Y-46145000D01*
G75*
G02*
X149575000Y-45720000I425000J0D01*
G01*
X150425000Y-45720000D01*
G75*
G02*
X150850000Y-46145000I0J-425000D01*
G01*
X150850000Y-54855000D01*
G75*
G02*
X150425000Y-55280000I-425000J0D01*
G01*
X149575000Y-55280000D01*
G75*
G02*
X149150000Y-54855000I0J425000D01*
G01*
G37*
%TD.AperFunction*%
%TO.P,U2,7*%
%TO.N,CART_D5*%
%TA.AperFunction,SMDPad,CuDef*%
G36*
G01*
X146610000Y-54855000D02*
X146610000Y-46145000D01*
G75*
G02*
X147035000Y-45720000I425000J0D01*
G01*
X147885000Y-45720000D01*
G75*
G02*
X148310000Y-46145000I0J-425000D01*
G01*
X148310000Y-54855000D01*
G75*
G02*
X147885000Y-55280000I-425000J0D01*
G01*
X147035000Y-55280000D01*
G75*
G02*
X146610000Y-54855000I0J425000D01*
G01*
G37*
%TD.AperFunction*%
%TO.P,U2,6*%
%TO.N,CART_D4*%
%TA.AperFunction,SMDPad,CuDef*%
G36*
G01*
X144070000Y-54855000D02*
X144070000Y-46145000D01*
G75*
G02*
X144495000Y-45720000I425000J0D01*
G01*
X145345000Y-45720000D01*
G75*
G02*
X145770000Y-46145000I0J-425000D01*
G01*
X145770000Y-54855000D01*
G75*
G02*
X145345000Y-55280000I-425000J0D01*
G01*
X144495000Y-55280000D01*
G75*
G02*
X144070000Y-54855000I0J425000D01*
G01*
G37*
%TD.AperFunction*%
%TO.P,U2,5*%
%TO.N,CART_A0*%
%TA.AperFunction,SMDPad,CuDef*%
G36*
G01*
X141530000Y-54855000D02*
X141530000Y-46145000D01*
G75*
G02*
X141955000Y-45720000I425000J0D01*
G01*
X142805000Y-45720000D01*
G75*
G02*
X143230000Y-46145000I0J-425000D01*
G01*
X143230000Y-54855000D01*
G75*
G02*
X142805000Y-55280000I-425000J0D01*
G01*
X141955000Y-55280000D01*
G75*
G02*
X141530000Y-54855000I0J425000D01*
G01*
G37*
%TD.AperFunction*%
%TO.P,U2,4*%
%TO.N,CART_A1*%
%TA.AperFunction,SMDPad,CuDef*%
G36*
G01*
X138990000Y-54855000D02*
X138990000Y-46145000D01*
G75*
G02*
X139415000Y-45720000I425000J0D01*
G01*
X140265000Y-45720000D01*
G75*
G02*
X140690000Y-46145000I0J-425000D01*
G01*
X140690000Y-54855000D01*
G75*
G02*
X140265000Y-55280000I-425000J0D01*
G01*
X139415000Y-55280000D01*
G75*
G02*
X138990000Y-54855000I0J425000D01*
G01*
G37*
%TD.AperFunction*%
%TO.P,U2,3*%
%TO.N,CART_A2*%
%TA.AperFunction,SMDPad,CuDef*%
G36*
G01*
X136450000Y-54855000D02*
X136450000Y-46145000D01*
G75*
G02*
X136875000Y-45720000I425000J0D01*
G01*
X137725000Y-45720000D01*
G75*
G02*
X138150000Y-46145000I0J-425000D01*
G01*
X138150000Y-54855000D01*
G75*
G02*
X137725000Y-55280000I-425000J0D01*
G01*
X136875000Y-55280000D01*
G75*
G02*
X136450000Y-54855000I0J425000D01*
G01*
G37*
%TD.AperFunction*%
%TO.P,U2,2*%
%TO.N,CART_A3*%
%TA.AperFunction,SMDPad,CuDef*%
G36*
G01*
X133910000Y-54855000D02*
X133910000Y-46145000D01*
G75*
G02*
X134335000Y-45720000I425000J0D01*
G01*
X135185000Y-45720000D01*
G75*
G02*
X135610000Y-46145000I0J-425000D01*
G01*
X135610000Y-54855000D01*
G75*
G02*
X135185000Y-55280000I-425000J0D01*
G01*
X134335000Y-55280000D01*
G75*
G02*
X133910000Y-54855000I0J425000D01*
G01*
G37*
%TD.AperFunction*%
%TO.P,U2,1*%
%TO.N,S4#*%
%TA.AperFunction,SMDPad,CuDef*%
G36*
G01*
X131370000Y-54855000D02*
X131370000Y-46145000D01*
G75*
G02*
X131795000Y-45720000I425000J0D01*
G01*
X132645000Y-45720000D01*
G75*
G02*
X133070000Y-46145000I0J-425000D01*
G01*
X133070000Y-54855000D01*
G75*
G02*
X132645000Y-55280000I-425000J0D01*
G01*
X131795000Y-55280000D01*
G75*
G02*
X131370000Y-54855000I0J425000D01*
G01*
G37*
%TD.AperFunction*%
%TD*%
%TO.P,C6,2*%
%TO.N,GND*%
%TA.AperFunction,SMDPad,CuDef*%
G36*
G01*
X153335000Y-81324500D02*
X154285000Y-81324500D01*
G75*
G02*
X154535000Y-81574500I0J-250000D01*
G01*
X154535000Y-82249500D01*
G75*
G02*
X154285000Y-82499500I-250000J0D01*
G01*
X153335000Y-82499500D01*
G75*
G02*
X153085000Y-82249500I0J250000D01*
G01*
X153085000Y-81574500D01*
G75*
G02*
X153335000Y-81324500I250000J0D01*
G01*
G37*
%TD.AperFunction*%
%TO.P,C6,1*%
%TO.N,+3V3*%
%TA.AperFunction,SMDPad,CuDef*%
G36*
G01*
X153335000Y-79249500D02*
X154285000Y-79249500D01*
G75*
G02*
X154535000Y-79499500I0J-250000D01*
G01*
X154535000Y-80174500D01*
G75*
G02*
X154285000Y-80424500I-250000J0D01*
G01*
X153335000Y-80424500D01*
G75*
G02*
X153085000Y-80174500I0J250000D01*
G01*
X153085000Y-79499500D01*
G75*
G02*
X153335000Y-79249500I250000J0D01*
G01*
G37*
%TD.AperFunction*%
%TD*%
%TO.P,C5,2*%
%TO.N,GND*%
%TA.AperFunction,SMDPad,CuDef*%
G36*
G01*
X146604000Y-79292500D02*
X147554000Y-79292500D01*
G75*
G02*
X147804000Y-79542500I0J-250000D01*
G01*
X147804000Y-80217500D01*
G75*
G02*
X147554000Y-80467500I-250000J0D01*
G01*
X146604000Y-80467500D01*
G75*
G02*
X146354000Y-80217500I0J250000D01*
G01*
X146354000Y-79542500D01*
G75*
G02*
X146604000Y-79292500I250000J0D01*
G01*
G37*
%TD.AperFunction*%
%TO.P,C5,1*%
%TO.N,+3V3*%
%TA.AperFunction,SMDPad,CuDef*%
G36*
G01*
X146604000Y-77217500D02*
X147554000Y-77217500D01*
G75*
G02*
X147804000Y-77467500I0J-250000D01*
G01*
X147804000Y-78142500D01*
G75*
G02*
X147554000Y-78392500I-250000J0D01*
G01*
X146604000Y-78392500D01*
G75*
G02*
X146354000Y-78142500I0J250000D01*
G01*
X146354000Y-77467500D01*
G75*
G02*
X146604000Y-77217500I250000J0D01*
G01*
G37*
%TD.AperFunction*%
%TD*%
%TO.P,C4,2*%
%TO.N,GND*%
%TA.AperFunction,SMDPad,CuDef*%
G36*
G01*
X147300000Y-64506500D02*
X146350000Y-64506500D01*
G75*
G02*
X146100000Y-64256500I0J250000D01*
G01*
X146100000Y-63581500D01*
G75*
G02*
X146350000Y-63331500I250000J0D01*
G01*
X147300000Y-63331500D01*
G75*
G02*
X147550000Y-63581500I0J-250000D01*
G01*
X147550000Y-64256500D01*
G75*
G02*
X147300000Y-64506500I-250000J0D01*
G01*
G37*
%TD.AperFunction*%
%TO.P,C4,1*%
%TO.N,+3V3*%
%TA.AperFunction,SMDPad,CuDef*%
G36*
G01*
X147300000Y-66581500D02*
X146350000Y-66581500D01*
G75*
G02*
X146100000Y-66331500I0J250000D01*
G01*
X146100000Y-65656500D01*
G75*
G02*
X146350000Y-65406500I250000J0D01*
G01*
X147300000Y-65406500D01*
G75*
G02*
X147550000Y-65656500I0J-250000D01*
G01*
X147550000Y-66331500D01*
G75*
G02*
X147300000Y-66581500I-250000J0D01*
G01*
G37*
%TD.AperFunction*%
%TD*%
%TO.P,C3,2*%
%TO.N,GND*%
%TA.AperFunction,SMDPad,CuDef*%
G36*
G01*
X151684000Y-70148500D02*
X152634000Y-70148500D01*
G75*
G02*
X152884000Y-70398500I0J-250000D01*
G01*
X152884000Y-71073500D01*
G75*
G02*
X152634000Y-71323500I-250000J0D01*
G01*
X151684000Y-71323500D01*
G75*
G02*
X151434000Y-71073500I0J250000D01*
G01*
X151434000Y-70398500D01*
G75*
G02*
X151684000Y-70148500I250000J0D01*
G01*
G37*
%TD.AperFunction*%
%TO.P,C3,1*%
%TO.N,+3V3*%
%TA.AperFunction,SMDPad,CuDef*%
G36*
G01*
X151684000Y-68073500D02*
X152634000Y-68073500D01*
G75*
G02*
X152884000Y-68323500I0J-250000D01*
G01*
X152884000Y-68998500D01*
G75*
G02*
X152634000Y-69248500I-250000J0D01*
G01*
X151684000Y-69248500D01*
G75*
G02*
X151434000Y-68998500I0J250000D01*
G01*
X151434000Y-68323500D01*
G75*
G02*
X151684000Y-68073500I250000J0D01*
G01*
G37*
%TD.AperFunction*%
%TD*%
D14*
%TO.N,+5V*%
X137554000Y-67010000D03*
%TO.N,GND*%
X124000000Y-65500000D03*
X120790000Y-71455000D03*
D15*
X150338206Y-62861795D03*
X161074400Y-75239600D03*
X158458200Y-68153000D03*
X154038600Y-78135200D03*
X156477000Y-75646000D03*
X145148600Y-81767400D03*
X140348000Y-69931000D03*
X179070000Y-76200000D03*
X179070000Y-69850000D03*
X175895000Y-66675000D03*
X170180000Y-67945000D03*
X167005000Y-64135000D03*
X149860000Y-73025000D03*
X153670000Y-73025000D03*
X137795000Y-73025000D03*
X129349500Y-73088500D03*
X128905000Y-69215000D03*
X120396000Y-122809000D03*
X179324000Y-125349000D03*
X179324000Y-115189000D03*
D14*
X143510000Y-107315000D03*
X163195000Y-94107000D03*
D15*
X143404500Y-124841000D03*
X179451000Y-104521000D03*
X169926000Y-105664000D03*
X161417000Y-105664000D03*
X157480000Y-114554000D03*
X149987000Y-101981000D03*
X161925000Y-124206000D03*
X121793000Y-132334000D03*
X151638000Y-131445000D03*
X145161000Y-132207000D03*
X120396000Y-114173000D03*
X120967500Y-102044500D03*
X121158000Y-91948000D03*
X123952000Y-79565500D03*
X142875000Y-101473000D03*
X149479000Y-122555000D03*
X139700000Y-112776000D03*
X144653000Y-112903000D03*
X153797000Y-97790000D03*
X143192500Y-75247500D03*
X147701000Y-88011000D03*
X137668000Y-96774000D03*
X131445000Y-114363500D03*
D14*
X152146000Y-115591500D03*
D15*
X139319000Y-117983000D03*
X148082000Y-107188000D03*
X136398000Y-105410000D03*
%TO.N,+3V3*%
X152286000Y-79837000D03*
X145555000Y-77805000D03*
X141901045Y-73650113D03*
X153937000Y-68661000D03*
X148349000Y-66052146D03*
X150381000Y-81488000D03*
X150762000Y-65486000D03*
D14*
X141110000Y-68280000D03*
X144285000Y-71455000D03*
X154762500Y-70629500D03*
X161417000Y-73279000D03*
X176276000Y-85090000D03*
X172212000Y-96647000D03*
D15*
%TO.N,TCK*%
X146812000Y-84201000D03*
X145732500Y-87693500D03*
X144843500Y-97155000D03*
X136652000Y-99314000D03*
%TO.N,TDO*%
X147079000Y-75011000D03*
X138366500Y-78041500D03*
%TO.N,TDI*%
X144589500Y-83058000D03*
X137731500Y-89535000D03*
%TO.N,TMS*%
X136842500Y-91503500D03*
X145859500Y-85471000D03*
%TO.N,S4#*%
X136665000Y-61803000D03*
%TO.N,RD4*%
X132855000Y-58755000D03*
X136665000Y-60152000D03*
%TO.N,S5#*%
X161430000Y-58120000D03*
%TO.N,RD5*%
X164605000Y-58120000D03*
%TO.N,CCTL#*%
X167780000Y-58120000D03*
%TO.N,CART_D6*%
X158890000Y-58120000D03*
%TO.N,CART_D0*%
X156350000Y-58120000D03*
%TO.N,CART_D1*%
X153810000Y-58120000D03*
%TO.N,CART_D2*%
X151270000Y-58755000D03*
%TO.N,CART_D5*%
X148730000Y-58755000D03*
%TO.N,CART_D4*%
X146190000Y-58755000D03*
%TO.N,CART_A0*%
X143650000Y-58755000D03*
%TO.N,CART_A1*%
X141110000Y-58755000D03*
%TO.N,CART_A2*%
X138316000Y-58755000D03*
%TO.N,CART_A3*%
X136665000Y-58755000D03*
%TO.N,MCLR*%
X128524000Y-121158000D03*
%TO.N,PMCS1*%
X149479000Y-117856000D03*
X145796000Y-117856000D03*
%TD*%
D16*
%TO.N,+5V*%
X162700000Y-59390000D02*
X161430000Y-60660000D01*
X162700000Y-50500000D02*
X162700000Y-59390000D01*
X137554000Y-63327000D02*
X140221000Y-60660000D01*
X161430000Y-60660000D02*
X140221000Y-60660000D01*
X137554000Y-67010000D02*
X137554000Y-63327000D01*
D17*
%TO.N,+3V3*%
X141810158Y-73741000D02*
X141901045Y-73650113D01*
D18*
X140348000Y-73741000D02*
X141810158Y-73741000D01*
X152159000Y-68661000D02*
X153937000Y-68661000D01*
X145555000Y-77805000D02*
X147079000Y-77805000D01*
D17*
X146883146Y-66052146D02*
X146825000Y-65994000D01*
D18*
X148349000Y-66052146D02*
X146883146Y-66052146D01*
X153810000Y-79837000D02*
X152286000Y-79837000D01*
X150381000Y-82885000D02*
X150381000Y-81488000D01*
D17*
X152286000Y-65486000D02*
X152540000Y-65359000D01*
D18*
X150762000Y-65486000D02*
X152286000Y-65486000D01*
D19*
X150762000Y-65486000D02*
X149746000Y-65486000D01*
X149179854Y-66052146D02*
X148349000Y-66052146D01*
X149746000Y-65486000D02*
X149179854Y-66052146D01*
D16*
X141110000Y-68280000D02*
X144285000Y-71455000D01*
D19*
X143207158Y-72344000D02*
X141901045Y-73650113D01*
X143396000Y-72344000D02*
X143207158Y-72344000D01*
X144285000Y-71455000D02*
X143396000Y-72344000D01*
D16*
X157412000Y-73279000D02*
X154762500Y-70629500D01*
X161417000Y-73279000D02*
X157412000Y-73279000D01*
X176276000Y-85090000D02*
X176276000Y-88392000D01*
X176276000Y-88392000D02*
X172212000Y-92456000D01*
X172212000Y-92456000D02*
X172212000Y-96647000D01*
X172212000Y-96647000D02*
X170307000Y-96647000D01*
X126936500Y-103220000D02*
X126936500Y-104648000D01*
X126936500Y-104648000D02*
X125603000Y-105981500D01*
X125603000Y-105981500D02*
X123253500Y-105981500D01*
X122476500Y-106758500D02*
X122476500Y-108969500D01*
X123253500Y-105981500D02*
X122476500Y-106758500D01*
D17*
%TO.N,TCK*%
X146812000Y-85344000D02*
X146812000Y-84201000D01*
X146812000Y-84201000D02*
X146812000Y-86614000D01*
X146812000Y-86614000D02*
X145732500Y-87693500D01*
X136652000Y-99314000D02*
X142684500Y-99314000D01*
X142684500Y-99314000D02*
X144843500Y-97155000D01*
%TO.N,TDO*%
X144048500Y-78041500D02*
X147079000Y-75011000D01*
X138366500Y-78041500D02*
X144048500Y-78041500D01*
%TO.N,TDI*%
X143446500Y-83820000D02*
X143827500Y-83820000D01*
X137731500Y-89535000D02*
X143446500Y-83820000D01*
X143827500Y-83820000D02*
X144589500Y-83058000D01*
%TO.N,TMS*%
X138112500Y-91503500D02*
X136842500Y-91503500D01*
X144145000Y-85471000D02*
X138112500Y-91503500D01*
X145859500Y-85471000D02*
X144145000Y-85471000D01*
%TO.N,S4#*%
X133998000Y-61803000D02*
X131370000Y-59175000D01*
X136665000Y-61803000D02*
X133998000Y-61803000D01*
X131370000Y-59175000D02*
X131370000Y-58114000D01*
X132220000Y-57264000D02*
X131370000Y-58114000D01*
X132220000Y-50500000D02*
X132220000Y-57264000D01*
%TO.N,RD4*%
X135268000Y-58755000D02*
X136665000Y-60152000D01*
X132855000Y-58755000D02*
X135268000Y-58755000D01*
%TO.N,S5#*%
X160160000Y-50500000D02*
X160160000Y-56850000D01*
X160160000Y-56850000D02*
X161430000Y-58120000D01*
%TO.N,RD5*%
X165240000Y-57485000D02*
X164605000Y-58120000D01*
X165240000Y-50500000D02*
X165240000Y-57485000D01*
%TO.N,CCTL#*%
X167780000Y-56850000D02*
X167780000Y-50500000D01*
X167780000Y-58120000D02*
X167780000Y-56850000D01*
%TO.N,CART_D6*%
X157620000Y-50500000D02*
X157620000Y-56850000D01*
X157620000Y-56850000D02*
X158890000Y-58120000D01*
%TO.N,CART_D0*%
X155080000Y-50500000D02*
X155080000Y-56850000D01*
X155080000Y-56850000D02*
X156350000Y-58120000D01*
%TO.N,CART_D1*%
X153810000Y-58120000D02*
X152540000Y-56850000D01*
X152540000Y-56850000D02*
X152540000Y-50500000D01*
%TO.N,CART_D2*%
X150000000Y-50500000D02*
X150000000Y-57485000D01*
X150000000Y-57485000D02*
X151270000Y-58755000D01*
%TO.N,CART_D5*%
X147460000Y-57485000D02*
X147460000Y-50500000D01*
X148730000Y-58755000D02*
X147460000Y-57485000D01*
%TO.N,CART_D4*%
X144920000Y-57485000D02*
X144920000Y-50500000D01*
X146190000Y-58755000D02*
X144920000Y-57485000D01*
%TO.N,CART_A0*%
X142380000Y-57485000D02*
X142380000Y-50500000D01*
X143650000Y-58755000D02*
X142380000Y-57485000D01*
%TO.N,CART_A1*%
X139840000Y-57485000D02*
X139840000Y-50500000D01*
X141110000Y-58755000D02*
X139840000Y-57485000D01*
%TO.N,CART_A2*%
X137300000Y-57739000D02*
X138316000Y-58755000D01*
X137300000Y-50500000D02*
X137300000Y-57739000D01*
%TO.N,CART_A3*%
X136665000Y-57993000D02*
X134760000Y-56088000D01*
X136665000Y-58755000D02*
X136665000Y-57993000D01*
X134760000Y-56088000D02*
X134760000Y-50500000D01*
D19*
%TO.N,VDD*%
X123126500Y-111629500D02*
X123126500Y-116332000D01*
X125920500Y-119126000D02*
X127000000Y-119126000D01*
X123126500Y-116332000D02*
X125920500Y-119126000D01*
D17*
%TO.N,MCLR*%
X127000000Y-116586000D02*
X128524000Y-118110000D01*
X128524000Y-118110000D02*
X128524000Y-121158000D01*
%TO.N,PMCS1*%
X149479000Y-117856000D02*
X145796000Y-117856000D01*
D18*
%TO.N,Net-(BT1-Pad1)*%
X127127000Y-111506000D02*
X131318000Y-111506000D01*
%TO.N,Net-(D4-Pad2)*%
X127127000Y-108966000D02*
X123780000Y-108966000D01*
%TD*%
D17*
%TO.N,GND*%
X130857649Y-57548721D02*
X130828579Y-57572578D01*
X130804722Y-57601648D01*
X130804721Y-57601649D01*
X130733355Y-57688608D01*
X130662599Y-57820985D01*
X130619027Y-57964622D01*
X130604314Y-58114000D01*
X130608001Y-58151433D01*
X130608000Y-59137576D01*
X130604314Y-59175000D01*
X130608000Y-59212423D01*
X130608000Y-59212425D01*
X130619026Y-59324377D01*
X130662598Y-59468014D01*
X130662599Y-59468015D01*
X130733355Y-59600392D01*
X130763080Y-59636612D01*
X130828578Y-59716422D01*
X130857654Y-59740284D01*
X133432721Y-62315352D01*
X133456578Y-62344422D01*
X133572608Y-62439645D01*
X133704985Y-62510402D01*
X133848622Y-62553974D01*
X133960574Y-62565000D01*
X133960576Y-62565000D01*
X133997999Y-62568686D01*
X134035422Y-62565000D01*
X135821868Y-62565000D01*
X135941480Y-62684612D01*
X136127376Y-62808824D01*
X136333933Y-62894383D01*
X136489760Y-62925379D01*
X136435423Y-63104502D01*
X136413509Y-63327000D01*
X136419001Y-63382761D01*
X136419000Y-66215714D01*
X136326629Y-66353957D01*
X136222225Y-66606011D01*
X136169000Y-66873589D01*
X136169000Y-67146411D01*
X136222225Y-67413989D01*
X136326629Y-67666043D01*
X136478201Y-67892886D01*
X136671114Y-68085799D01*
X136897957Y-68237371D01*
X137150011Y-68341775D01*
X137417589Y-68395000D01*
X137690411Y-68395000D01*
X137957989Y-68341775D01*
X138210043Y-68237371D01*
X138436886Y-68085799D01*
X138629799Y-67892886D01*
X138781371Y-67666043D01*
X138885775Y-67413989D01*
X138939000Y-67146411D01*
X138939000Y-66873589D01*
X138885775Y-66606011D01*
X138781371Y-66353957D01*
X138689000Y-66215714D01*
X138689000Y-64506500D01*
X145461928Y-64506500D01*
X145474188Y-64630982D01*
X145510498Y-64750680D01*
X145569463Y-64860994D01*
X145648815Y-64957685D01*
X145728594Y-65023158D01*
X145722038Y-65028538D01*
X145611595Y-65163114D01*
X145529528Y-65316650D01*
X145478992Y-65483246D01*
X145461928Y-65656500D01*
X145461928Y-66331500D01*
X145478992Y-66504754D01*
X145529528Y-66671350D01*
X145611595Y-66824886D01*
X145722038Y-66959462D01*
X145856614Y-67069905D01*
X146010150Y-67151972D01*
X146176746Y-67202508D01*
X146350000Y-67219572D01*
X147300000Y-67219572D01*
X147473254Y-67202508D01*
X147639850Y-67151972D01*
X147793386Y-67069905D01*
X147809476Y-67056700D01*
X147811376Y-67057970D01*
X148017933Y-67143529D01*
X148237212Y-67187146D01*
X148460788Y-67187146D01*
X148680067Y-67143529D01*
X148816187Y-67087146D01*
X149129026Y-67087146D01*
X149179854Y-67092152D01*
X149230682Y-67087146D01*
X149230692Y-67087146D01*
X149382749Y-67072170D01*
X149577847Y-67012987D01*
X149757651Y-66916880D01*
X149915250Y-66787542D01*
X149947661Y-66748049D01*
X150174710Y-66521000D01*
X150294813Y-66521000D01*
X150430933Y-66577383D01*
X150650212Y-66621000D01*
X150873788Y-66621000D01*
X151093067Y-66577383D01*
X151299624Y-66491824D01*
X151409765Y-66418230D01*
X151437038Y-66451462D01*
X151571614Y-66561905D01*
X151725150Y-66643972D01*
X151891746Y-66694508D01*
X152065000Y-66711572D01*
X153015000Y-66711572D01*
X153188254Y-66694508D01*
X153354850Y-66643972D01*
X153508386Y-66561905D01*
X153642962Y-66451462D01*
X153753405Y-66316886D01*
X153835472Y-66163350D01*
X153886008Y-65996754D01*
X153903072Y-65823500D01*
X153903072Y-65148500D01*
X153886008Y-64975246D01*
X153835472Y-64808650D01*
X153753405Y-64655114D01*
X153642962Y-64520538D01*
X153636406Y-64515158D01*
X153716185Y-64449685D01*
X153795537Y-64352994D01*
X153854502Y-64242680D01*
X153890812Y-64122982D01*
X153903072Y-63998500D01*
X153900000Y-63696750D01*
X153741250Y-63538000D01*
X152667000Y-63538000D01*
X152667000Y-63558000D01*
X152413000Y-63558000D01*
X152413000Y-63538000D01*
X151338750Y-63538000D01*
X151180000Y-63696750D01*
X151176928Y-63998500D01*
X151189188Y-64122982D01*
X151225498Y-64242680D01*
X151284463Y-64352994D01*
X151363815Y-64449685D01*
X151443594Y-64515158D01*
X151437038Y-64520538D01*
X151409765Y-64553770D01*
X151299624Y-64480176D01*
X151093067Y-64394617D01*
X150873788Y-64351000D01*
X150650212Y-64351000D01*
X150430933Y-64394617D01*
X150294813Y-64451000D01*
X149796827Y-64451000D01*
X149745999Y-64445994D01*
X149695171Y-64451000D01*
X149695162Y-64451000D01*
X149543105Y-64465976D01*
X149348007Y-64525159D01*
X149168203Y-64621266D01*
X149010604Y-64750604D01*
X148978193Y-64790097D01*
X148770195Y-64998095D01*
X148680067Y-64960763D01*
X148460788Y-64917146D01*
X148237212Y-64917146D01*
X148017933Y-64960763D01*
X147976545Y-64977907D01*
X148001185Y-64957685D01*
X148080537Y-64860994D01*
X148139502Y-64750680D01*
X148175812Y-64630982D01*
X148188072Y-64506500D01*
X148185000Y-64204750D01*
X148026250Y-64046000D01*
X146952000Y-64046000D01*
X146952000Y-64066000D01*
X146698000Y-64066000D01*
X146698000Y-64046000D01*
X145623750Y-64046000D01*
X145465000Y-64204750D01*
X145461928Y-64506500D01*
X138689000Y-64506500D01*
X138689000Y-63797131D01*
X139154631Y-63331500D01*
X145461928Y-63331500D01*
X145465000Y-63633250D01*
X145623750Y-63792000D01*
X146698000Y-63792000D01*
X146698000Y-62855250D01*
X146952000Y-62855250D01*
X146952000Y-63792000D01*
X148026250Y-63792000D01*
X148185000Y-63633250D01*
X148188072Y-63331500D01*
X148175812Y-63207018D01*
X148139502Y-63087320D01*
X148080537Y-62977006D01*
X148001185Y-62880315D01*
X147931956Y-62823500D01*
X151176928Y-62823500D01*
X151180000Y-63125250D01*
X151338750Y-63284000D01*
X152413000Y-63284000D01*
X152413000Y-62347250D01*
X152667000Y-62347250D01*
X152667000Y-63284000D01*
X153741250Y-63284000D01*
X153900000Y-63125250D01*
X153903072Y-62823500D01*
X153890812Y-62699018D01*
X153854502Y-62579320D01*
X153795537Y-62469006D01*
X153716185Y-62372315D01*
X153619494Y-62292963D01*
X153509180Y-62233998D01*
X153389482Y-62197688D01*
X153265000Y-62185428D01*
X152825750Y-62188500D01*
X152667000Y-62347250D01*
X152413000Y-62347250D01*
X152254250Y-62188500D01*
X151815000Y-62185428D01*
X151690518Y-62197688D01*
X151570820Y-62233998D01*
X151460506Y-62292963D01*
X151363815Y-62372315D01*
X151284463Y-62469006D01*
X151225498Y-62579320D01*
X151189188Y-62699018D01*
X151176928Y-62823500D01*
X147931956Y-62823500D01*
X147904494Y-62800963D01*
X147794180Y-62741998D01*
X147674482Y-62705688D01*
X147550000Y-62693428D01*
X147110750Y-62696500D01*
X146952000Y-62855250D01*
X146698000Y-62855250D01*
X146539250Y-62696500D01*
X146100000Y-62693428D01*
X145975518Y-62705688D01*
X145855820Y-62741998D01*
X145745506Y-62800963D01*
X145648815Y-62880315D01*
X145569463Y-62977006D01*
X145510498Y-63087320D01*
X145474188Y-63207018D01*
X145461928Y-63331500D01*
X139154631Y-63331500D01*
X140691133Y-61795000D01*
X161374249Y-61795000D01*
X161430000Y-61800491D01*
X161485751Y-61795000D01*
X161485752Y-61795000D01*
X161652499Y-61778577D01*
X161866447Y-61713676D01*
X162063623Y-61608284D01*
X162236449Y-61466449D01*
X162271996Y-61423135D01*
X163463140Y-60231992D01*
X163506449Y-60196449D01*
X163648284Y-60023623D01*
X163753676Y-59826447D01*
X163803471Y-59662295D01*
X163818577Y-59612500D01*
X163827195Y-59525000D01*
X163835000Y-59445752D01*
X163835000Y-59445745D01*
X163840490Y-59390001D01*
X163835000Y-59334257D01*
X163835000Y-58955132D01*
X163881480Y-59001612D01*
X164067376Y-59125824D01*
X164273933Y-59211383D01*
X164493212Y-59255000D01*
X164716788Y-59255000D01*
X164936067Y-59211383D01*
X165142624Y-59125824D01*
X165328520Y-59001612D01*
X165486612Y-58843520D01*
X165610824Y-58657624D01*
X165696383Y-58451067D01*
X165740000Y-58231788D01*
X165740000Y-58062630D01*
X165752346Y-58050284D01*
X165781422Y-58026422D01*
X165841857Y-57952781D01*
X165876645Y-57910393D01*
X165924434Y-57820985D01*
X165947402Y-57778015D01*
X165990974Y-57634378D01*
X166002000Y-57522426D01*
X166002000Y-57522423D01*
X166005686Y-57485000D01*
X166002000Y-57447577D01*
X166002000Y-56977000D01*
X167018001Y-56977000D01*
X167018001Y-57276867D01*
X166898388Y-57396480D01*
X166774176Y-57582376D01*
X166688617Y-57788933D01*
X166645000Y-58008212D01*
X166645000Y-58231788D01*
X166688617Y-58451067D01*
X166774176Y-58657624D01*
X166898388Y-58843520D01*
X167056480Y-59001612D01*
X167242376Y-59125824D01*
X167448933Y-59211383D01*
X167668212Y-59255000D01*
X167891788Y-59255000D01*
X168111067Y-59211383D01*
X168317624Y-59125824D01*
X168503520Y-59001612D01*
X168661612Y-58843520D01*
X168785824Y-58657624D01*
X168871383Y-58451067D01*
X168915000Y-58231788D01*
X168915000Y-58008212D01*
X168871383Y-57788933D01*
X168785824Y-57582376D01*
X168661612Y-57396480D01*
X168542000Y-57276868D01*
X168542000Y-56977000D01*
X169275008Y-56977000D01*
X169368871Y-56991866D01*
X169444533Y-57030418D01*
X169504582Y-57090467D01*
X169543134Y-57166129D01*
X169558000Y-57259992D01*
X169558000Y-64070000D01*
X169559564Y-64089867D01*
X169579141Y-64213474D01*
X169585427Y-64237563D01*
X169591419Y-64251264D01*
X169648235Y-64362771D01*
X169661658Y-64383739D01*
X169671590Y-64394917D01*
X169760083Y-64483410D01*
X169779329Y-64499204D01*
X169792229Y-64506765D01*
X169903736Y-64563581D01*
X169926920Y-64572655D01*
X169941526Y-64575859D01*
X170065133Y-64595436D01*
X170085000Y-64597000D01*
X180340008Y-64597000D01*
X180433871Y-64611866D01*
X180509533Y-64650418D01*
X180569582Y-64710467D01*
X180608134Y-64786129D01*
X180623000Y-64879992D01*
X180623000Y-133090008D01*
X180608134Y-133183871D01*
X180569582Y-133259533D01*
X180509533Y-133319582D01*
X180433871Y-133358134D01*
X180340008Y-133373000D01*
X119659992Y-133373000D01*
X119566129Y-133358134D01*
X119490467Y-133319582D01*
X119430418Y-133259533D01*
X119391866Y-133183871D01*
X119377000Y-133090008D01*
X119377000Y-131914000D01*
X133258928Y-131914000D01*
X133271188Y-132038482D01*
X133307498Y-132158180D01*
X133366463Y-132268494D01*
X133445815Y-132365185D01*
X133542506Y-132444537D01*
X133652820Y-132503502D01*
X133772518Y-132539812D01*
X133897000Y-132552072D01*
X134461250Y-132549000D01*
X134620000Y-132390250D01*
X134620000Y-131191000D01*
X133420750Y-131191000D01*
X133262000Y-131349750D01*
X133258928Y-131914000D01*
X119377000Y-131914000D01*
X119377000Y-106758500D01*
X121336009Y-106758500D01*
X121341500Y-106814252D01*
X121341501Y-109025252D01*
X121357924Y-109191999D01*
X121422825Y-109405947D01*
X121528217Y-109603123D01*
X121613428Y-109706953D01*
X121613428Y-109719500D01*
X121625688Y-109843982D01*
X121661998Y-109963680D01*
X121720963Y-110073994D01*
X121800315Y-110170685D01*
X121897006Y-110250037D01*
X122007320Y-110309002D01*
X122127018Y-110345312D01*
X122251500Y-110357572D01*
X122536516Y-110357572D01*
X122450315Y-110428315D01*
X122370963Y-110525006D01*
X122311998Y-110635320D01*
X122275688Y-110755018D01*
X122263428Y-110879500D01*
X122263428Y-111049678D01*
X122261766Y-111051703D01*
X122165659Y-111231508D01*
X122106476Y-111426606D01*
X122091500Y-111578663D01*
X122091501Y-116281162D01*
X122086494Y-116332000D01*
X122106477Y-116534895D01*
X122165660Y-116729993D01*
X122261766Y-116909797D01*
X122351517Y-117019158D01*
X122391105Y-117067396D01*
X122430592Y-117099802D01*
X125152697Y-119821908D01*
X125185104Y-119861396D01*
X125224592Y-119893803D01*
X125342702Y-119990734D01*
X125438809Y-120042104D01*
X125522507Y-120086841D01*
X125717605Y-120146024D01*
X125869662Y-120161000D01*
X125869665Y-120161000D01*
X125920500Y-120166007D01*
X125938161Y-120164268D01*
X126053368Y-120279475D01*
X126235534Y-120401195D01*
X126118645Y-120470822D01*
X125902412Y-120665731D01*
X125728359Y-120899080D01*
X125603175Y-121161901D01*
X125558524Y-121309110D01*
X125679845Y-121539000D01*
X126873000Y-121539000D01*
X126873000Y-121519000D01*
X127127000Y-121519000D01*
X127127000Y-121539000D01*
X127147000Y-121539000D01*
X127147000Y-121793000D01*
X127127000Y-121793000D01*
X127127000Y-121813000D01*
X126873000Y-121813000D01*
X126873000Y-121793000D01*
X125679845Y-121793000D01*
X125558524Y-122022890D01*
X125603175Y-122170099D01*
X125728359Y-122432920D01*
X125902412Y-122666269D01*
X126118645Y-122861178D01*
X126235534Y-122930805D01*
X126053368Y-123052525D01*
X125846525Y-123259368D01*
X125684010Y-123502589D01*
X125572068Y-123772842D01*
X125515000Y-124059740D01*
X125515000Y-124352260D01*
X125572068Y-124639158D01*
X125684010Y-124909411D01*
X125846525Y-125152632D01*
X126053368Y-125359475D01*
X126227760Y-125476000D01*
X126053368Y-125592525D01*
X125846525Y-125799368D01*
X125684010Y-126042589D01*
X125572068Y-126312842D01*
X125515000Y-126599740D01*
X125515000Y-126892260D01*
X125572068Y-127179158D01*
X125684010Y-127449411D01*
X125846525Y-127692632D01*
X125978380Y-127824487D01*
X125905820Y-127846498D01*
X125795506Y-127905463D01*
X125698815Y-127984815D01*
X125619463Y-128081506D01*
X125560498Y-128191820D01*
X125524188Y-128311518D01*
X125511928Y-128436000D01*
X125511928Y-130136000D01*
X125524188Y-130260482D01*
X125560498Y-130380180D01*
X125619463Y-130490494D01*
X125698815Y-130587185D01*
X125795506Y-130666537D01*
X125905820Y-130725502D01*
X126025518Y-130761812D01*
X126150000Y-130774072D01*
X127850000Y-130774072D01*
X127974482Y-130761812D01*
X128094180Y-130725502D01*
X128204494Y-130666537D01*
X128301185Y-130587185D01*
X128380537Y-130490494D01*
X128439502Y-130380180D01*
X128475812Y-130260482D01*
X128480389Y-130214000D01*
X133258928Y-130214000D01*
X133262000Y-130778250D01*
X133420750Y-130937000D01*
X134620000Y-130937000D01*
X134620000Y-129737750D01*
X134874000Y-129737750D01*
X134874000Y-130937000D01*
X134894000Y-130937000D01*
X134894000Y-131191000D01*
X134874000Y-131191000D01*
X134874000Y-132390250D01*
X135032750Y-132549000D01*
X135597000Y-132552072D01*
X135721482Y-132539812D01*
X135841180Y-132503502D01*
X135951494Y-132444537D01*
X136048185Y-132365185D01*
X136127537Y-132268494D01*
X136186502Y-132158180D01*
X136208513Y-132085620D01*
X136340368Y-132217475D01*
X136583589Y-132379990D01*
X136853842Y-132491932D01*
X137140740Y-132549000D01*
X137433260Y-132549000D01*
X137720158Y-132491932D01*
X137990411Y-132379990D01*
X138233632Y-132217475D01*
X138440475Y-132010632D01*
X138557000Y-131836240D01*
X138673525Y-132010632D01*
X138880368Y-132217475D01*
X139123589Y-132379990D01*
X139393842Y-132491932D01*
X139680740Y-132549000D01*
X139973260Y-132549000D01*
X140260158Y-132491932D01*
X140530411Y-132379990D01*
X140773632Y-132217475D01*
X140980475Y-132010632D01*
X141097000Y-131836240D01*
X141213525Y-132010632D01*
X141420368Y-132217475D01*
X141663589Y-132379990D01*
X141933842Y-132491932D01*
X142220740Y-132549000D01*
X142513260Y-132549000D01*
X142800158Y-132491932D01*
X143070411Y-132379990D01*
X143313632Y-132217475D01*
X143520475Y-132010632D01*
X143682990Y-131767411D01*
X143794932Y-131497158D01*
X143852000Y-131210260D01*
X143852000Y-130917740D01*
X143794932Y-130630842D01*
X143682990Y-130360589D01*
X143520475Y-130117368D01*
X143313632Y-129910525D01*
X143070411Y-129748010D01*
X142800158Y-129636068D01*
X142513260Y-129579000D01*
X142220740Y-129579000D01*
X141933842Y-129636068D01*
X141663589Y-129748010D01*
X141420368Y-129910525D01*
X141213525Y-130117368D01*
X141097000Y-130291760D01*
X140980475Y-130117368D01*
X140773632Y-129910525D01*
X140530411Y-129748010D01*
X140260158Y-129636068D01*
X139973260Y-129579000D01*
X139680740Y-129579000D01*
X139393842Y-129636068D01*
X139123589Y-129748010D01*
X138880368Y-129910525D01*
X138673525Y-130117368D01*
X138557000Y-130291760D01*
X138440475Y-130117368D01*
X138233632Y-129910525D01*
X137990411Y-129748010D01*
X137720158Y-129636068D01*
X137433260Y-129579000D01*
X137140740Y-129579000D01*
X136853842Y-129636068D01*
X136583589Y-129748010D01*
X136340368Y-129910525D01*
X136208513Y-130042380D01*
X136186502Y-129969820D01*
X136127537Y-129859506D01*
X136048185Y-129762815D01*
X135951494Y-129683463D01*
X135841180Y-129624498D01*
X135721482Y-129588188D01*
X135597000Y-129575928D01*
X135032750Y-129579000D01*
X134874000Y-129737750D01*
X134620000Y-129737750D01*
X134461250Y-129579000D01*
X133897000Y-129575928D01*
X133772518Y-129588188D01*
X133652820Y-129624498D01*
X133542506Y-129683463D01*
X133445815Y-129762815D01*
X133366463Y-129859506D01*
X133307498Y-129969820D01*
X133271188Y-130089518D01*
X133258928Y-130214000D01*
X128480389Y-130214000D01*
X128488072Y-130136000D01*
X128488072Y-128436000D01*
X128475812Y-128311518D01*
X128439502Y-128191820D01*
X128380537Y-128081506D01*
X128301185Y-127984815D01*
X128204494Y-127905463D01*
X128094180Y-127846498D01*
X128021620Y-127824487D01*
X128153475Y-127692632D01*
X128315990Y-127449411D01*
X128427932Y-127179158D01*
X128485000Y-126892260D01*
X128485000Y-126599740D01*
X128427932Y-126312842D01*
X128315990Y-126042589D01*
X128153475Y-125799368D01*
X127946632Y-125592525D01*
X127772240Y-125476000D01*
X127946632Y-125359475D01*
X128153475Y-125152632D01*
X128315990Y-124909411D01*
X128427932Y-124639158D01*
X128485000Y-124352260D01*
X128485000Y-124059740D01*
X128427932Y-123772842D01*
X128315990Y-123502589D01*
X128153475Y-123259368D01*
X127946632Y-123052525D01*
X127764466Y-122930805D01*
X127881355Y-122861178D01*
X128097588Y-122666269D01*
X128271641Y-122432920D01*
X128344684Y-122279568D01*
X128412212Y-122293000D01*
X128635788Y-122293000D01*
X128855067Y-122249383D01*
X129061624Y-122163824D01*
X129247520Y-122039612D01*
X129405612Y-121881520D01*
X129529824Y-121695624D01*
X129615383Y-121489067D01*
X129659000Y-121269788D01*
X129659000Y-121046212D01*
X129615383Y-120826933D01*
X129529824Y-120620376D01*
X129405612Y-120434480D01*
X129286000Y-120314868D01*
X129286000Y-118147422D01*
X129289686Y-118109999D01*
X129280224Y-118013932D01*
X129274974Y-117960622D01*
X129231402Y-117816985D01*
X129192505Y-117744212D01*
X144661000Y-117744212D01*
X144661000Y-117967788D01*
X144704617Y-118187067D01*
X144790176Y-118393624D01*
X144914388Y-118579520D01*
X145072480Y-118737612D01*
X145258376Y-118861824D01*
X145464933Y-118947383D01*
X145684212Y-118991000D01*
X145907788Y-118991000D01*
X146127067Y-118947383D01*
X146333624Y-118861824D01*
X146519520Y-118737612D01*
X146639132Y-118618000D01*
X148635868Y-118618000D01*
X148755480Y-118737612D01*
X148941376Y-118861824D01*
X149147933Y-118947383D01*
X149367212Y-118991000D01*
X149590788Y-118991000D01*
X149810067Y-118947383D01*
X150016624Y-118861824D01*
X150202520Y-118737612D01*
X150360612Y-118579520D01*
X150484824Y-118393624D01*
X150570383Y-118187067D01*
X150614000Y-117967788D01*
X150614000Y-117744212D01*
X150570383Y-117524933D01*
X150484824Y-117318376D01*
X150360612Y-117132480D01*
X150202520Y-116974388D01*
X150016624Y-116850176D01*
X149810067Y-116764617D01*
X149590788Y-116721000D01*
X149367212Y-116721000D01*
X149147933Y-116764617D01*
X148941376Y-116850176D01*
X148755480Y-116974388D01*
X148635868Y-117094000D01*
X146639132Y-117094000D01*
X146519520Y-116974388D01*
X146333624Y-116850176D01*
X146127067Y-116764617D01*
X145907788Y-116721000D01*
X145684212Y-116721000D01*
X145464933Y-116764617D01*
X145258376Y-116850176D01*
X145072480Y-116974388D01*
X144914388Y-117132480D01*
X144790176Y-117318376D01*
X144704617Y-117524933D01*
X144661000Y-117744212D01*
X129192505Y-117744212D01*
X129160645Y-117684608D01*
X129065422Y-117568578D01*
X129036353Y-117544722D01*
X128441679Y-116950048D01*
X128485000Y-116732260D01*
X128485000Y-116439740D01*
X128427932Y-116152842D01*
X128315990Y-115882589D01*
X128153475Y-115639368D01*
X127946632Y-115432525D01*
X127703411Y-115270010D01*
X127433158Y-115158068D01*
X127146260Y-115101000D01*
X126853740Y-115101000D01*
X126566842Y-115158068D01*
X126296589Y-115270010D01*
X126053368Y-115432525D01*
X125846525Y-115639368D01*
X125684010Y-115882589D01*
X125572068Y-116152842D01*
X125515000Y-116439740D01*
X125515000Y-116732260D01*
X125572068Y-117019158D01*
X125684010Y-117289411D01*
X125846525Y-117532632D01*
X126053368Y-117739475D01*
X126227760Y-117856000D01*
X126159692Y-117901481D01*
X124161500Y-115903290D01*
X124161500Y-111578662D01*
X124146524Y-111426605D01*
X124087341Y-111231507D01*
X123991234Y-111051703D01*
X123989572Y-111049678D01*
X123989572Y-110879500D01*
X123977312Y-110755018D01*
X123941002Y-110635320D01*
X123882037Y-110525006D01*
X123802685Y-110428315D01*
X123716484Y-110357572D01*
X124001500Y-110357572D01*
X124125982Y-110345312D01*
X124245680Y-110309002D01*
X124355994Y-110250037D01*
X124452685Y-110170685D01*
X124532037Y-110073994D01*
X124591002Y-109963680D01*
X124625183Y-109851000D01*
X125932344Y-109851000D01*
X125973525Y-109912632D01*
X126105380Y-110044487D01*
X126032820Y-110066498D01*
X125922506Y-110125463D01*
X125825815Y-110204815D01*
X125746463Y-110301506D01*
X125687498Y-110411820D01*
X125651188Y-110531518D01*
X125638928Y-110656000D01*
X125638928Y-112356000D01*
X125651188Y-112480482D01*
X125687498Y-112600180D01*
X125746463Y-112710494D01*
X125825815Y-112807185D01*
X125922506Y-112886537D01*
X126032820Y-112945502D01*
X126152518Y-112981812D01*
X126277000Y-112994072D01*
X127977000Y-112994072D01*
X128101482Y-112981812D01*
X128221180Y-112945502D01*
X128331494Y-112886537D01*
X128428185Y-112807185D01*
X128507537Y-112710494D01*
X128566502Y-112600180D01*
X128602812Y-112480482D01*
X128611625Y-112391000D01*
X129179928Y-112391000D01*
X129179928Y-113306000D01*
X129192188Y-113430482D01*
X129228498Y-113550180D01*
X129287463Y-113660494D01*
X129366815Y-113757185D01*
X129463506Y-113836537D01*
X129573820Y-113895502D01*
X129693518Y-113931812D01*
X129818000Y-113944072D01*
X132818000Y-113944072D01*
X132942482Y-113931812D01*
X133062180Y-113895502D01*
X133172494Y-113836537D01*
X133269185Y-113757185D01*
X133348537Y-113660494D01*
X133407502Y-113550180D01*
X133443812Y-113430482D01*
X133456072Y-113306000D01*
X158479928Y-113306000D01*
X158492188Y-113430482D01*
X158528498Y-113550180D01*
X158587463Y-113660494D01*
X158666815Y-113757185D01*
X158763506Y-113836537D01*
X158873820Y-113895502D01*
X158993518Y-113931812D01*
X159118000Y-113944072D01*
X160332250Y-113941000D01*
X160491000Y-113782250D01*
X160491000Y-111633000D01*
X160745000Y-111633000D01*
X160745000Y-113782250D01*
X160903750Y-113941000D01*
X162118000Y-113944072D01*
X162242482Y-113931812D01*
X162362180Y-113895502D01*
X162472494Y-113836537D01*
X162569185Y-113757185D01*
X162648537Y-113660494D01*
X162707502Y-113550180D01*
X162743812Y-113430482D01*
X162756072Y-113306000D01*
X162753000Y-111791750D01*
X162594250Y-111633000D01*
X160745000Y-111633000D01*
X160491000Y-111633000D01*
X158641750Y-111633000D01*
X158483000Y-111791750D01*
X158479928Y-113306000D01*
X133456072Y-113306000D01*
X133456072Y-109706000D01*
X158479928Y-109706000D01*
X158483000Y-111220250D01*
X158641750Y-111379000D01*
X160491000Y-111379000D01*
X160491000Y-109229750D01*
X160745000Y-109229750D01*
X160745000Y-111379000D01*
X162594250Y-111379000D01*
X162753000Y-111220250D01*
X162756072Y-109706000D01*
X162743812Y-109581518D01*
X162707502Y-109461820D01*
X162648537Y-109351506D01*
X162569185Y-109254815D01*
X162472494Y-109175463D01*
X162362180Y-109116498D01*
X162242482Y-109080188D01*
X162118000Y-109067928D01*
X160903750Y-109071000D01*
X160745000Y-109229750D01*
X160491000Y-109229750D01*
X160332250Y-109071000D01*
X159118000Y-109067928D01*
X158993518Y-109080188D01*
X158873820Y-109116498D01*
X158763506Y-109175463D01*
X158666815Y-109254815D01*
X158587463Y-109351506D01*
X158528498Y-109461820D01*
X158492188Y-109581518D01*
X158479928Y-109706000D01*
X133456072Y-109706000D01*
X133443812Y-109581518D01*
X133407502Y-109461820D01*
X133348537Y-109351506D01*
X133269185Y-109254815D01*
X133172494Y-109175463D01*
X133062180Y-109116498D01*
X132942482Y-109080188D01*
X132818000Y-109067928D01*
X129818000Y-109067928D01*
X129693518Y-109080188D01*
X129573820Y-109116498D01*
X129463506Y-109175463D01*
X129366815Y-109254815D01*
X129287463Y-109351506D01*
X129228498Y-109461820D01*
X129192188Y-109581518D01*
X129179928Y-109706000D01*
X129179928Y-110621000D01*
X128611625Y-110621000D01*
X128602812Y-110531518D01*
X128566502Y-110411820D01*
X128507537Y-110301506D01*
X128428185Y-110204815D01*
X128331494Y-110125463D01*
X128221180Y-110066498D01*
X128148620Y-110044487D01*
X128280475Y-109912632D01*
X128442990Y-109669411D01*
X128554932Y-109399158D01*
X128612000Y-109112260D01*
X128612000Y-108819740D01*
X128554932Y-108532842D01*
X128442990Y-108262589D01*
X128280475Y-108019368D01*
X128073632Y-107812525D01*
X127830411Y-107650010D01*
X127560158Y-107538068D01*
X127273260Y-107481000D01*
X126980740Y-107481000D01*
X126693842Y-107538068D01*
X126423589Y-107650010D01*
X126180368Y-107812525D01*
X125973525Y-108019368D01*
X125932344Y-108081000D01*
X124623060Y-108081000D01*
X124591002Y-107975320D01*
X124532037Y-107865006D01*
X124452685Y-107768315D01*
X124355994Y-107688963D01*
X124245680Y-107629998D01*
X124125982Y-107593688D01*
X124001500Y-107581428D01*
X123611500Y-107581428D01*
X123611500Y-107228631D01*
X123723632Y-107116500D01*
X125547249Y-107116500D01*
X125603000Y-107121991D01*
X125658751Y-107116500D01*
X125658752Y-107116500D01*
X125825499Y-107100077D01*
X126039447Y-107035176D01*
X126236623Y-106929784D01*
X126409449Y-106787949D01*
X126444996Y-106744635D01*
X127699640Y-105489992D01*
X127742949Y-105454449D01*
X127884784Y-105281623D01*
X127990176Y-105084447D01*
X128055077Y-104870499D01*
X128071500Y-104703752D01*
X128076991Y-104648000D01*
X128075751Y-104635411D01*
X128140994Y-104600537D01*
X128237685Y-104521185D01*
X128317037Y-104424494D01*
X128376002Y-104314180D01*
X128412312Y-104194482D01*
X128424572Y-104070000D01*
X128424572Y-102370000D01*
X128412312Y-102245518D01*
X128376002Y-102125820D01*
X128317037Y-102015506D01*
X128237685Y-101918815D01*
X128140994Y-101839463D01*
X128030680Y-101780498D01*
X127950034Y-101756034D01*
X128034088Y-101680269D01*
X128208141Y-101446920D01*
X128333325Y-101184099D01*
X128377976Y-101036890D01*
X128256655Y-100807000D01*
X127063500Y-100807000D01*
X127063500Y-100827000D01*
X126809500Y-100827000D01*
X126809500Y-100807000D01*
X125616345Y-100807000D01*
X125495024Y-101036890D01*
X125539675Y-101184099D01*
X125664859Y-101446920D01*
X125838912Y-101680269D01*
X125922966Y-101756034D01*
X125842320Y-101780498D01*
X125732006Y-101839463D01*
X125635315Y-101918815D01*
X125555963Y-102015506D01*
X125496998Y-102125820D01*
X125460688Y-102245518D01*
X125448428Y-102370000D01*
X125448428Y-104070000D01*
X125460688Y-104194482D01*
X125496998Y-104314180D01*
X125555584Y-104423785D01*
X125132869Y-104846500D01*
X123309251Y-104846500D01*
X123253500Y-104841009D01*
X123197748Y-104846500D01*
X123031001Y-104862923D01*
X122817053Y-104927824D01*
X122619877Y-105033216D01*
X122447051Y-105175051D01*
X122411511Y-105218357D01*
X121713364Y-105916505D01*
X121670051Y-105952051D01*
X121528216Y-106124877D01*
X121422825Y-106322053D01*
X121422824Y-106322054D01*
X121357923Y-106536002D01*
X121336009Y-106758500D01*
X119377000Y-106758500D01*
X119377000Y-90373740D01*
X125451500Y-90373740D01*
X125451500Y-90666260D01*
X125508568Y-90953158D01*
X125620510Y-91223411D01*
X125783025Y-91466632D01*
X125989868Y-91673475D01*
X126164260Y-91790000D01*
X125989868Y-91906525D01*
X125783025Y-92113368D01*
X125620510Y-92356589D01*
X125508568Y-92626842D01*
X125451500Y-92913740D01*
X125451500Y-93206260D01*
X125508568Y-93493158D01*
X125620510Y-93763411D01*
X125783025Y-94006632D01*
X125989868Y-94213475D01*
X126164260Y-94330000D01*
X125989868Y-94446525D01*
X125783025Y-94653368D01*
X125620510Y-94896589D01*
X125508568Y-95166842D01*
X125451500Y-95453740D01*
X125451500Y-95746260D01*
X125508568Y-96033158D01*
X125620510Y-96303411D01*
X125783025Y-96546632D01*
X125989868Y-96753475D01*
X126164260Y-96870000D01*
X125989868Y-96986525D01*
X125783025Y-97193368D01*
X125620510Y-97436589D01*
X125508568Y-97706842D01*
X125451500Y-97993740D01*
X125451500Y-98286260D01*
X125508568Y-98573158D01*
X125620510Y-98843411D01*
X125783025Y-99086632D01*
X125989868Y-99293475D01*
X126172034Y-99415195D01*
X126055145Y-99484822D01*
X125838912Y-99679731D01*
X125664859Y-99913080D01*
X125539675Y-100175901D01*
X125495024Y-100323110D01*
X125616345Y-100553000D01*
X126809500Y-100553000D01*
X126809500Y-100533000D01*
X127063500Y-100533000D01*
X127063500Y-100553000D01*
X128256655Y-100553000D01*
X128377976Y-100323110D01*
X128333325Y-100175901D01*
X128208141Y-99913080D01*
X128034088Y-99679731D01*
X127817855Y-99484822D01*
X127700966Y-99415195D01*
X127883132Y-99293475D01*
X127974395Y-99202212D01*
X135517000Y-99202212D01*
X135517000Y-99425788D01*
X135560617Y-99645067D01*
X135646176Y-99851624D01*
X135770388Y-100037520D01*
X135928480Y-100195612D01*
X136114376Y-100319824D01*
X136320933Y-100405383D01*
X136540212Y-100449000D01*
X136763788Y-100449000D01*
X136983067Y-100405383D01*
X137189624Y-100319824D01*
X137375520Y-100195612D01*
X137495132Y-100076000D01*
X142647077Y-100076000D01*
X142684500Y-100079686D01*
X142721923Y-100076000D01*
X142721926Y-100076000D01*
X142833878Y-100064974D01*
X142977515Y-100021402D01*
X143109892Y-99950645D01*
X143225922Y-99855422D01*
X143249784Y-99826346D01*
X144786131Y-98290000D01*
X144955288Y-98290000D01*
X145174567Y-98246383D01*
X145381124Y-98160824D01*
X145567020Y-98036612D01*
X145725112Y-97878520D01*
X145849324Y-97692624D01*
X145934883Y-97486067D01*
X145957572Y-97372000D01*
X167006428Y-97372000D01*
X167018688Y-97496482D01*
X167054998Y-97616180D01*
X167113963Y-97726494D01*
X167193315Y-97823185D01*
X167290006Y-97902537D01*
X167400320Y-97961502D01*
X167520018Y-97997812D01*
X167644500Y-98010072D01*
X167946250Y-98007000D01*
X168105000Y-97848250D01*
X168105000Y-96774000D01*
X167168250Y-96774000D01*
X167009500Y-96932750D01*
X167006428Y-97372000D01*
X145957572Y-97372000D01*
X145978500Y-97266788D01*
X145978500Y-97043212D01*
X145934883Y-96823933D01*
X145849324Y-96617376D01*
X145725112Y-96431480D01*
X145567020Y-96273388D01*
X145381124Y-96149176D01*
X145174567Y-96063617D01*
X144955288Y-96020000D01*
X144731712Y-96020000D01*
X144512433Y-96063617D01*
X144305876Y-96149176D01*
X144119980Y-96273388D01*
X143961888Y-96431480D01*
X143837676Y-96617376D01*
X143752117Y-96823933D01*
X143708500Y-97043212D01*
X143708500Y-97212369D01*
X142368870Y-98552000D01*
X137495132Y-98552000D01*
X137375520Y-98432388D01*
X137189624Y-98308176D01*
X136983067Y-98222617D01*
X136763788Y-98179000D01*
X136540212Y-98179000D01*
X136320933Y-98222617D01*
X136114376Y-98308176D01*
X135928480Y-98432388D01*
X135770388Y-98590480D01*
X135646176Y-98776376D01*
X135560617Y-98982933D01*
X135517000Y-99202212D01*
X127974395Y-99202212D01*
X128089975Y-99086632D01*
X128252490Y-98843411D01*
X128364432Y-98573158D01*
X128421500Y-98286260D01*
X128421500Y-97993740D01*
X128364432Y-97706842D01*
X128252490Y-97436589D01*
X128089975Y-97193368D01*
X127883132Y-96986525D01*
X127708740Y-96870000D01*
X127883132Y-96753475D01*
X128089975Y-96546632D01*
X128252490Y-96303411D01*
X128364432Y-96033158D01*
X128386542Y-95922000D01*
X167006428Y-95922000D01*
X167009500Y-96361250D01*
X167168250Y-96520000D01*
X168105000Y-96520000D01*
X168105000Y-95445750D01*
X168359000Y-95445750D01*
X168359000Y-96520000D01*
X168379000Y-96520000D01*
X168379000Y-96774000D01*
X168359000Y-96774000D01*
X168359000Y-97848250D01*
X168517750Y-98007000D01*
X168819500Y-98010072D01*
X168943982Y-97997812D01*
X169063680Y-97961502D01*
X169173994Y-97902537D01*
X169270685Y-97823185D01*
X169336158Y-97743406D01*
X169341538Y-97749962D01*
X169476114Y-97860405D01*
X169629650Y-97942472D01*
X169796246Y-97993008D01*
X169969500Y-98010072D01*
X170644500Y-98010072D01*
X170817754Y-97993008D01*
X170984350Y-97942472D01*
X171137886Y-97860405D01*
X171233423Y-97782000D01*
X171417714Y-97782000D01*
X171555957Y-97874371D01*
X171808011Y-97978775D01*
X172075589Y-98032000D01*
X172348411Y-98032000D01*
X172615989Y-97978775D01*
X172868043Y-97874371D01*
X173094886Y-97722799D01*
X173287799Y-97529886D01*
X173439371Y-97303043D01*
X173543775Y-97050989D01*
X173597000Y-96783411D01*
X173597000Y-96510589D01*
X173543775Y-96243011D01*
X173439371Y-95990957D01*
X173347000Y-95852714D01*
X173347000Y-92926131D01*
X177039141Y-89233991D01*
X177082449Y-89198449D01*
X177224284Y-89025623D01*
X177329676Y-88828447D01*
X177394577Y-88614499D01*
X177411000Y-88447752D01*
X177416491Y-88392000D01*
X177411000Y-88336249D01*
X177411000Y-85884286D01*
X177503371Y-85746043D01*
X177607775Y-85493989D01*
X177661000Y-85226411D01*
X177661000Y-84953589D01*
X177607775Y-84686011D01*
X177503371Y-84433957D01*
X177351799Y-84207114D01*
X177158886Y-84014201D01*
X176932043Y-83862629D01*
X176679989Y-83758225D01*
X176412411Y-83705000D01*
X176139589Y-83705000D01*
X175872011Y-83758225D01*
X175619957Y-83862629D01*
X175393114Y-84014201D01*
X175200201Y-84207114D01*
X175048629Y-84433957D01*
X174944225Y-84686011D01*
X174891000Y-84953589D01*
X174891000Y-85226411D01*
X174944225Y-85493989D01*
X175048629Y-85746043D01*
X175141000Y-85884286D01*
X175141001Y-87921867D01*
X171448865Y-91614004D01*
X171405551Y-91649551D01*
X171263716Y-91822377D01*
X171166103Y-92005000D01*
X171158324Y-92019554D01*
X171093423Y-92233502D01*
X171071509Y-92456000D01*
X171077000Y-92511752D01*
X171077001Y-95401051D01*
X170984350Y-95351528D01*
X170817754Y-95300992D01*
X170644500Y-95283928D01*
X169969500Y-95283928D01*
X169796246Y-95300992D01*
X169629650Y-95351528D01*
X169476114Y-95433595D01*
X169341538Y-95544038D01*
X169336158Y-95550594D01*
X169270685Y-95470815D01*
X169173994Y-95391463D01*
X169063680Y-95332498D01*
X168943982Y-95296188D01*
X168819500Y-95283928D01*
X168517750Y-95287000D01*
X168359000Y-95445750D01*
X168105000Y-95445750D01*
X167946250Y-95287000D01*
X167644500Y-95283928D01*
X167520018Y-95296188D01*
X167400320Y-95332498D01*
X167290006Y-95391463D01*
X167193315Y-95470815D01*
X167113963Y-95567506D01*
X167054998Y-95677820D01*
X167018688Y-95797518D01*
X167006428Y-95922000D01*
X128386542Y-95922000D01*
X128421500Y-95746260D01*
X128421500Y-95453740D01*
X128364432Y-95166842D01*
X128252490Y-94896589D01*
X128089975Y-94653368D01*
X127883132Y-94446525D01*
X127708740Y-94330000D01*
X127883132Y-94213475D01*
X128089975Y-94006632D01*
X128252490Y-93763411D01*
X128364432Y-93493158D01*
X128421500Y-93206260D01*
X128421500Y-92913740D01*
X128364432Y-92626842D01*
X128252490Y-92356589D01*
X128089975Y-92113368D01*
X127883132Y-91906525D01*
X127708740Y-91790000D01*
X127883132Y-91673475D01*
X128089975Y-91466632D01*
X128140034Y-91391712D01*
X135707500Y-91391712D01*
X135707500Y-91615288D01*
X135751117Y-91834567D01*
X135836676Y-92041124D01*
X135960888Y-92227020D01*
X136118980Y-92385112D01*
X136304876Y-92509324D01*
X136511433Y-92594883D01*
X136730712Y-92638500D01*
X136954288Y-92638500D01*
X137173567Y-92594883D01*
X137380124Y-92509324D01*
X137566020Y-92385112D01*
X137685632Y-92265500D01*
X138075077Y-92265500D01*
X138112500Y-92269186D01*
X138149923Y-92265500D01*
X138149926Y-92265500D01*
X138261878Y-92254474D01*
X138405515Y-92210902D01*
X138537892Y-92140145D01*
X138653922Y-92044922D01*
X138677784Y-92015846D01*
X138828401Y-91865229D01*
X146865000Y-91865229D01*
X146865000Y-92482771D01*
X146985476Y-93088446D01*
X147221799Y-93658979D01*
X147564886Y-94172446D01*
X148001554Y-94609114D01*
X148515021Y-94952201D01*
X149085554Y-95188524D01*
X149691229Y-95309000D01*
X150308771Y-95309000D01*
X150914446Y-95188524D01*
X151484979Y-94952201D01*
X151998446Y-94609114D01*
X152435114Y-94172446D01*
X152778201Y-93658979D01*
X153014524Y-93088446D01*
X153135000Y-92482771D01*
X153135000Y-91865229D01*
X153014524Y-91259554D01*
X152778201Y-90689021D01*
X152435114Y-90175554D01*
X151998446Y-89738886D01*
X151484979Y-89395799D01*
X150914446Y-89159476D01*
X150308771Y-89039000D01*
X149691229Y-89039000D01*
X149085554Y-89159476D01*
X148515021Y-89395799D01*
X148001554Y-89738886D01*
X147564886Y-90175554D01*
X147221799Y-90689021D01*
X146985476Y-91259554D01*
X146865000Y-91865229D01*
X138828401Y-91865229D01*
X144460631Y-86233000D01*
X145016368Y-86233000D01*
X145135980Y-86352612D01*
X145321876Y-86476824D01*
X145528433Y-86562383D01*
X145564812Y-86569619D01*
X145401433Y-86602117D01*
X145194876Y-86687676D01*
X145008980Y-86811888D01*
X144850888Y-86969980D01*
X144726676Y-87155876D01*
X144641117Y-87362433D01*
X144597500Y-87581712D01*
X144597500Y-87805288D01*
X144641117Y-88024567D01*
X144726676Y-88231124D01*
X144850888Y-88417020D01*
X145008980Y-88575112D01*
X145194876Y-88699324D01*
X145401433Y-88784883D01*
X145620712Y-88828500D01*
X145844288Y-88828500D01*
X146063567Y-88784883D01*
X146270124Y-88699324D01*
X146456020Y-88575112D01*
X146614112Y-88417020D01*
X146738324Y-88231124D01*
X146823883Y-88024567D01*
X146867500Y-87805288D01*
X146867500Y-87636130D01*
X147324346Y-87179284D01*
X147353422Y-87155422D01*
X147413857Y-87081781D01*
X147448645Y-87039393D01*
X147519401Y-86907016D01*
X147519402Y-86907015D01*
X147562974Y-86763378D01*
X147574000Y-86651426D01*
X147574000Y-86651423D01*
X147577686Y-86614000D01*
X147574000Y-86576577D01*
X147574000Y-85547500D01*
X149017928Y-85547500D01*
X149030188Y-85671982D01*
X149066498Y-85791680D01*
X149125463Y-85901994D01*
X149204815Y-85998685D01*
X149301506Y-86078037D01*
X149411820Y-86137002D01*
X149531518Y-86173312D01*
X149656000Y-86185572D01*
X150095250Y-86182500D01*
X150254000Y-86023750D01*
X150254000Y-85087000D01*
X150508000Y-85087000D01*
X150508000Y-86023750D01*
X150666750Y-86182500D01*
X151106000Y-86185572D01*
X151230482Y-86173312D01*
X151350180Y-86137002D01*
X151460494Y-86078037D01*
X151557185Y-85998685D01*
X151636537Y-85901994D01*
X151695502Y-85791680D01*
X151731812Y-85671982D01*
X151744072Y-85547500D01*
X151741000Y-85245750D01*
X151582250Y-85087000D01*
X150508000Y-85087000D01*
X150254000Y-85087000D01*
X149179750Y-85087000D01*
X149021000Y-85245750D01*
X149017928Y-85547500D01*
X147574000Y-85547500D01*
X147574000Y-85044132D01*
X147693612Y-84924520D01*
X147817824Y-84738624D01*
X147903383Y-84532067D01*
X147947000Y-84312788D01*
X147947000Y-84089212D01*
X147903383Y-83869933D01*
X147817824Y-83663376D01*
X147693612Y-83477480D01*
X147535520Y-83319388D01*
X147349624Y-83195176D01*
X147143067Y-83109617D01*
X146923788Y-83066000D01*
X146700212Y-83066000D01*
X146480933Y-83109617D01*
X146274376Y-83195176D01*
X146088480Y-83319388D01*
X145930388Y-83477480D01*
X145806176Y-83663376D01*
X145720617Y-83869933D01*
X145677000Y-84089212D01*
X145677000Y-84312788D01*
X145684133Y-84348647D01*
X145528433Y-84379617D01*
X145321876Y-84465176D01*
X145135980Y-84589388D01*
X145016368Y-84709000D01*
X144182422Y-84709000D01*
X144144999Y-84705314D01*
X144107576Y-84709000D01*
X144107574Y-84709000D01*
X143995622Y-84720026D01*
X143851985Y-84763598D01*
X143719608Y-84834355D01*
X143603578Y-84929578D01*
X143579721Y-84958648D01*
X138860272Y-89678098D01*
X138866500Y-89646788D01*
X138866500Y-89477630D01*
X143762130Y-84582000D01*
X143790077Y-84582000D01*
X143827500Y-84585686D01*
X143864923Y-84582000D01*
X143864926Y-84582000D01*
X143976878Y-84570974D01*
X144120515Y-84527402D01*
X144252892Y-84456645D01*
X144368922Y-84361422D01*
X144392784Y-84332347D01*
X144532130Y-84193000D01*
X144701288Y-84193000D01*
X144920567Y-84149383D01*
X145127124Y-84063824D01*
X145313020Y-83939612D01*
X145471112Y-83781520D01*
X145595324Y-83595624D01*
X145680883Y-83389067D01*
X145724500Y-83169788D01*
X145724500Y-82946212D01*
X145680883Y-82726933D01*
X145606560Y-82547500D01*
X149017928Y-82547500D01*
X149017928Y-83222500D01*
X149034992Y-83395754D01*
X149085528Y-83562350D01*
X149167595Y-83715886D01*
X149278038Y-83850462D01*
X149284594Y-83855842D01*
X149204815Y-83921315D01*
X149125463Y-84018006D01*
X149066498Y-84128320D01*
X149030188Y-84248018D01*
X149017928Y-84372500D01*
X149021000Y-84674250D01*
X149179750Y-84833000D01*
X150254000Y-84833000D01*
X150254000Y-84813000D01*
X150508000Y-84813000D01*
X150508000Y-84833000D01*
X151582250Y-84833000D01*
X151741000Y-84674250D01*
X151744072Y-84372500D01*
X151731812Y-84248018D01*
X151695502Y-84128320D01*
X151636537Y-84018006D01*
X151557185Y-83921315D01*
X151477406Y-83855842D01*
X151483962Y-83850462D01*
X151594405Y-83715886D01*
X151676472Y-83562350D01*
X151727008Y-83395754D01*
X151744072Y-83222500D01*
X151744072Y-82547500D01*
X151739345Y-82499500D01*
X152446928Y-82499500D01*
X152459188Y-82623982D01*
X152495498Y-82743680D01*
X152554463Y-82853994D01*
X152633815Y-82950685D01*
X152730506Y-83030037D01*
X152840820Y-83089002D01*
X152960518Y-83125312D01*
X153085000Y-83137572D01*
X153524250Y-83134500D01*
X153683000Y-82975750D01*
X153683000Y-82039000D01*
X153937000Y-82039000D01*
X153937000Y-82975750D01*
X154095750Y-83134500D01*
X154535000Y-83137572D01*
X154659482Y-83125312D01*
X154779180Y-83089002D01*
X154889494Y-83030037D01*
X154986185Y-82950685D01*
X155065537Y-82853994D01*
X155124502Y-82743680D01*
X155160812Y-82623982D01*
X155173072Y-82499500D01*
X155170000Y-82197750D01*
X155011250Y-82039000D01*
X153937000Y-82039000D01*
X153683000Y-82039000D01*
X152608750Y-82039000D01*
X152450000Y-82197750D01*
X152446928Y-82499500D01*
X151739345Y-82499500D01*
X151727008Y-82374246D01*
X151676472Y-82207650D01*
X151594405Y-82054114D01*
X151483962Y-81919538D01*
X151444262Y-81886957D01*
X151472383Y-81819067D01*
X151516000Y-81599788D01*
X151516000Y-81376212D01*
X151472383Y-81156933D01*
X151386824Y-80950376D01*
X151262612Y-80764480D01*
X151104520Y-80606388D01*
X150918624Y-80482176D01*
X150712067Y-80396617D01*
X150492788Y-80353000D01*
X150269212Y-80353000D01*
X150049933Y-80396617D01*
X149843376Y-80482176D01*
X149657480Y-80606388D01*
X149499388Y-80764480D01*
X149375176Y-80950376D01*
X149289617Y-81156933D01*
X149246000Y-81376212D01*
X149246000Y-81599788D01*
X149289617Y-81819067D01*
X149317738Y-81886957D01*
X149278038Y-81919538D01*
X149167595Y-82054114D01*
X149085528Y-82207650D01*
X149034992Y-82374246D01*
X149017928Y-82547500D01*
X145606560Y-82547500D01*
X145595324Y-82520376D01*
X145471112Y-82334480D01*
X145313020Y-82176388D01*
X145127124Y-82052176D01*
X144920567Y-81966617D01*
X144701288Y-81923000D01*
X144477712Y-81923000D01*
X144258433Y-81966617D01*
X144051876Y-82052176D01*
X143865980Y-82176388D01*
X143707888Y-82334480D01*
X143583676Y-82520376D01*
X143498117Y-82726933D01*
X143454500Y-82946212D01*
X143454500Y-83055102D01*
X143446500Y-83054314D01*
X143409077Y-83058000D01*
X143409074Y-83058000D01*
X143297122Y-83069026D01*
X143153485Y-83112598D01*
X143106762Y-83137572D01*
X143021107Y-83183355D01*
X142978719Y-83218143D01*
X142905078Y-83278578D01*
X142881216Y-83307654D01*
X137788870Y-88400000D01*
X137619712Y-88400000D01*
X137400433Y-88443617D01*
X137193876Y-88529176D01*
X137007980Y-88653388D01*
X136849888Y-88811480D01*
X136725676Y-88997376D01*
X136640117Y-89203933D01*
X136596500Y-89423212D01*
X136596500Y-89646788D01*
X136640117Y-89866067D01*
X136725676Y-90072624D01*
X136849888Y-90258520D01*
X136961254Y-90369886D01*
X136954288Y-90368500D01*
X136730712Y-90368500D01*
X136511433Y-90412117D01*
X136304876Y-90497676D01*
X136118980Y-90621888D01*
X135960888Y-90779980D01*
X135836676Y-90965876D01*
X135751117Y-91172433D01*
X135707500Y-91391712D01*
X128140034Y-91391712D01*
X128252490Y-91223411D01*
X128364432Y-90953158D01*
X128421500Y-90666260D01*
X128421500Y-90373740D01*
X128364432Y-90086842D01*
X128252490Y-89816589D01*
X128089975Y-89573368D01*
X127883132Y-89366525D01*
X127639911Y-89204010D01*
X127369658Y-89092068D01*
X127082760Y-89035000D01*
X126790240Y-89035000D01*
X126503342Y-89092068D01*
X126233089Y-89204010D01*
X125989868Y-89366525D01*
X125783025Y-89573368D01*
X125620510Y-89816589D01*
X125508568Y-90086842D01*
X125451500Y-90373740D01*
X119377000Y-90373740D01*
X119377000Y-86145390D01*
X128289024Y-86145390D01*
X128333675Y-86292599D01*
X128458859Y-86555420D01*
X128632912Y-86788769D01*
X128849145Y-86983678D01*
X129099248Y-87132657D01*
X129373609Y-87229981D01*
X129603500Y-87109314D01*
X129603500Y-85915500D01*
X128410345Y-85915500D01*
X128289024Y-86145390D01*
X119377000Y-86145390D01*
X119377000Y-83605390D01*
X128289024Y-83605390D01*
X128333675Y-83752599D01*
X128458859Y-84015420D01*
X128632912Y-84248769D01*
X128849145Y-84443678D01*
X128974755Y-84518500D01*
X128849145Y-84593322D01*
X128632912Y-84788231D01*
X128458859Y-85021580D01*
X128333675Y-85284401D01*
X128289024Y-85431610D01*
X128410345Y-85661500D01*
X129603500Y-85661500D01*
X129603500Y-83375500D01*
X128410345Y-83375500D01*
X128289024Y-83605390D01*
X119377000Y-83605390D01*
X119377000Y-81065390D01*
X128289024Y-81065390D01*
X128333675Y-81212599D01*
X128458859Y-81475420D01*
X128632912Y-81708769D01*
X128849145Y-81903678D01*
X128974755Y-81978500D01*
X128849145Y-82053322D01*
X128632912Y-82248231D01*
X128458859Y-82481580D01*
X128333675Y-82744401D01*
X128289024Y-82891610D01*
X128410345Y-83121500D01*
X129603500Y-83121500D01*
X129603500Y-80835500D01*
X128410345Y-80835500D01*
X128289024Y-81065390D01*
X119377000Y-81065390D01*
X119377000Y-80351610D01*
X128289024Y-80351610D01*
X128410345Y-80581500D01*
X129603500Y-80581500D01*
X129603500Y-79387686D01*
X129857500Y-79387686D01*
X129857500Y-80581500D01*
X129877500Y-80581500D01*
X129877500Y-80835500D01*
X129857500Y-80835500D01*
X129857500Y-83121500D01*
X129877500Y-83121500D01*
X129877500Y-83375500D01*
X129857500Y-83375500D01*
X129857500Y-85661500D01*
X129877500Y-85661500D01*
X129877500Y-85915500D01*
X129857500Y-85915500D01*
X129857500Y-87109314D01*
X130087391Y-87229981D01*
X130361752Y-87132657D01*
X130611855Y-86983678D01*
X130808002Y-86806874D01*
X130830998Y-86882680D01*
X130889963Y-86992994D01*
X130969315Y-87089685D01*
X131066006Y-87169037D01*
X131176320Y-87228002D01*
X131296018Y-87264312D01*
X131420500Y-87276572D01*
X133120500Y-87276572D01*
X133244982Y-87264312D01*
X133364680Y-87228002D01*
X133474994Y-87169037D01*
X133571685Y-87089685D01*
X133651037Y-86992994D01*
X133710002Y-86882680D01*
X133746312Y-86762982D01*
X133758572Y-86638500D01*
X133758572Y-84938500D01*
X133746312Y-84814018D01*
X133710002Y-84694320D01*
X133651037Y-84584006D01*
X133571685Y-84487315D01*
X133474994Y-84407963D01*
X133364680Y-84348998D01*
X133292120Y-84326987D01*
X133423975Y-84195132D01*
X133586490Y-83951911D01*
X133698432Y-83681658D01*
X133755500Y-83394760D01*
X133755500Y-83102240D01*
X133698432Y-82815342D01*
X133586490Y-82545089D01*
X133423975Y-82301868D01*
X133217132Y-82095025D01*
X133042740Y-81978500D01*
X133217132Y-81861975D01*
X133423975Y-81655132D01*
X133586490Y-81411911D01*
X133698432Y-81141658D01*
X133755500Y-80854760D01*
X133755500Y-80562240D01*
X133736655Y-80467500D01*
X145715928Y-80467500D01*
X145728188Y-80591982D01*
X145764498Y-80711680D01*
X145823463Y-80821994D01*
X145902815Y-80918685D01*
X145999506Y-80998037D01*
X146109820Y-81057002D01*
X146229518Y-81093312D01*
X146354000Y-81105572D01*
X146793250Y-81102500D01*
X146952000Y-80943750D01*
X146952000Y-80007000D01*
X147206000Y-80007000D01*
X147206000Y-80943750D01*
X147364750Y-81102500D01*
X147804000Y-81105572D01*
X147928482Y-81093312D01*
X148048180Y-81057002D01*
X148158494Y-80998037D01*
X148255185Y-80918685D01*
X148334537Y-80821994D01*
X148393502Y-80711680D01*
X148429812Y-80591982D01*
X148442072Y-80467500D01*
X148439000Y-80165750D01*
X148280250Y-80007000D01*
X147206000Y-80007000D01*
X146952000Y-80007000D01*
X145877750Y-80007000D01*
X145719000Y-80165750D01*
X145715928Y-80467500D01*
X133736655Y-80467500D01*
X133698432Y-80275342D01*
X133586490Y-80005089D01*
X133423975Y-79761868D01*
X133217132Y-79555025D01*
X132973911Y-79392510D01*
X132703658Y-79280568D01*
X132416760Y-79223500D01*
X132124240Y-79223500D01*
X131837342Y-79280568D01*
X131567089Y-79392510D01*
X131323868Y-79555025D01*
X131117025Y-79761868D01*
X130999400Y-79937906D01*
X130828088Y-79708231D01*
X130611855Y-79513322D01*
X130361752Y-79364343D01*
X130087391Y-79267019D01*
X129857500Y-79387686D01*
X129603500Y-79387686D01*
X129373609Y-79267019D01*
X129099248Y-79364343D01*
X128849145Y-79513322D01*
X128632912Y-79708231D01*
X128458859Y-79941580D01*
X128333675Y-80204401D01*
X128289024Y-80351610D01*
X119377000Y-80351610D01*
X119377000Y-77929712D01*
X137231500Y-77929712D01*
X137231500Y-78153288D01*
X137275117Y-78372567D01*
X137360676Y-78579124D01*
X137484888Y-78765020D01*
X137642980Y-78923112D01*
X137828876Y-79047324D01*
X138035433Y-79132883D01*
X138254712Y-79176500D01*
X138478288Y-79176500D01*
X138697567Y-79132883D01*
X138904124Y-79047324D01*
X139090020Y-78923112D01*
X139209632Y-78803500D01*
X144011077Y-78803500D01*
X144048500Y-78807186D01*
X144085923Y-78803500D01*
X144085926Y-78803500D01*
X144197878Y-78792474D01*
X144341515Y-78748902D01*
X144473892Y-78678145D01*
X144589922Y-78582922D01*
X144613784Y-78553846D01*
X144659658Y-78507972D01*
X144673388Y-78528520D01*
X144831480Y-78686612D01*
X145017376Y-78810824D01*
X145223933Y-78896383D01*
X145443212Y-78940000D01*
X145666788Y-78940000D01*
X145852073Y-78903145D01*
X145823463Y-78938006D01*
X145764498Y-79048320D01*
X145728188Y-79168018D01*
X145715928Y-79292500D01*
X145719000Y-79594250D01*
X145877750Y-79753000D01*
X146952000Y-79753000D01*
X146952000Y-79733000D01*
X147206000Y-79733000D01*
X147206000Y-79753000D01*
X148280250Y-79753000D01*
X148308038Y-79725212D01*
X151151000Y-79725212D01*
X151151000Y-79948788D01*
X151194617Y-80168067D01*
X151280176Y-80374624D01*
X151404388Y-80560520D01*
X151562480Y-80718612D01*
X151748376Y-80842824D01*
X151954933Y-80928383D01*
X152174212Y-80972000D01*
X152397788Y-80972000D01*
X152583073Y-80935145D01*
X152554463Y-80970006D01*
X152495498Y-81080320D01*
X152459188Y-81200018D01*
X152446928Y-81324500D01*
X152450000Y-81626250D01*
X152608750Y-81785000D01*
X153683000Y-81785000D01*
X153683000Y-81765000D01*
X153937000Y-81765000D01*
X153937000Y-81785000D01*
X155011250Y-81785000D01*
X155170000Y-81626250D01*
X155173072Y-81324500D01*
X155160812Y-81200018D01*
X155124502Y-81080320D01*
X155065537Y-80970006D01*
X154986185Y-80873315D01*
X154906406Y-80807842D01*
X154912962Y-80802462D01*
X155023405Y-80667886D01*
X155105472Y-80514350D01*
X155156008Y-80347754D01*
X155173072Y-80174500D01*
X155173072Y-79499500D01*
X155156008Y-79326246D01*
X155105472Y-79159650D01*
X155023405Y-79006114D01*
X154912962Y-78871538D01*
X154778386Y-78761095D01*
X154624850Y-78679028D01*
X154458254Y-78628492D01*
X154285000Y-78611428D01*
X153335000Y-78611428D01*
X153161746Y-78628492D01*
X152995150Y-78679028D01*
X152841614Y-78761095D01*
X152778829Y-78812621D01*
X152617067Y-78745617D01*
X152397788Y-78702000D01*
X152174212Y-78702000D01*
X151954933Y-78745617D01*
X151748376Y-78831176D01*
X151562480Y-78955388D01*
X151404388Y-79113480D01*
X151280176Y-79299376D01*
X151194617Y-79505933D01*
X151151000Y-79725212D01*
X148308038Y-79725212D01*
X148439000Y-79594250D01*
X148442072Y-79292500D01*
X148429812Y-79168018D01*
X148393502Y-79048320D01*
X148334537Y-78938006D01*
X148255185Y-78841315D01*
X148175406Y-78775842D01*
X148181962Y-78770462D01*
X148292405Y-78635886D01*
X148374472Y-78482350D01*
X148425008Y-78315754D01*
X148442072Y-78142500D01*
X148442072Y-77467500D01*
X148425008Y-77294246D01*
X148374472Y-77127650D01*
X148292405Y-76974114D01*
X148181962Y-76839538D01*
X148047386Y-76729095D01*
X147893850Y-76647028D01*
X147727254Y-76596492D01*
X147554000Y-76579428D01*
X146604000Y-76579428D01*
X146586477Y-76581154D01*
X147021631Y-76146000D01*
X147190788Y-76146000D01*
X147410067Y-76102383D01*
X147616624Y-76016824D01*
X147802520Y-75892612D01*
X147960612Y-75734520D01*
X148084824Y-75548624D01*
X148170383Y-75342067D01*
X148214000Y-75122788D01*
X148214000Y-74899212D01*
X148170383Y-74679933D01*
X148084824Y-74473376D01*
X147960612Y-74287480D01*
X147802520Y-74129388D01*
X147616624Y-74005176D01*
X147410067Y-73919617D01*
X147190788Y-73876000D01*
X146967212Y-73876000D01*
X146747933Y-73919617D01*
X146541376Y-74005176D01*
X146355480Y-74129388D01*
X146197388Y-74287480D01*
X146073176Y-74473376D01*
X145987617Y-74679933D01*
X145944000Y-74899212D01*
X145944000Y-75068369D01*
X143732870Y-77279500D01*
X139209632Y-77279500D01*
X139090020Y-77159888D01*
X138904124Y-77035676D01*
X138697567Y-76950117D01*
X138478288Y-76906500D01*
X138254712Y-76906500D01*
X138035433Y-76950117D01*
X137828876Y-77035676D01*
X137642980Y-77159888D01*
X137484888Y-77317980D01*
X137360676Y-77503876D01*
X137275117Y-77710433D01*
X137231500Y-77929712D01*
X119377000Y-77929712D01*
X119377000Y-76403500D01*
X138984928Y-76403500D01*
X138997188Y-76527982D01*
X139033498Y-76647680D01*
X139092463Y-76757994D01*
X139171815Y-76854685D01*
X139268506Y-76934037D01*
X139378820Y-76993002D01*
X139498518Y-77029312D01*
X139623000Y-77041572D01*
X140062250Y-77038500D01*
X140221000Y-76879750D01*
X140221000Y-75943000D01*
X140475000Y-75943000D01*
X140475000Y-76879750D01*
X140633750Y-77038500D01*
X141073000Y-77041572D01*
X141197482Y-77029312D01*
X141317180Y-76993002D01*
X141427494Y-76934037D01*
X141524185Y-76854685D01*
X141603537Y-76757994D01*
X141662502Y-76647680D01*
X141698812Y-76527982D01*
X141711072Y-76403500D01*
X141708000Y-76101750D01*
X141549250Y-75943000D01*
X140475000Y-75943000D01*
X140221000Y-75943000D01*
X139146750Y-75943000D01*
X138988000Y-76101750D01*
X138984928Y-76403500D01*
X119377000Y-76403500D01*
X119377000Y-73403500D01*
X138984928Y-73403500D01*
X138984928Y-74078500D01*
X139001992Y-74251754D01*
X139052528Y-74418350D01*
X139134595Y-74571886D01*
X139245038Y-74706462D01*
X139251594Y-74711842D01*
X139171815Y-74777315D01*
X139092463Y-74874006D01*
X139033498Y-74984320D01*
X138997188Y-75104018D01*
X138984928Y-75228500D01*
X138988000Y-75530250D01*
X139146750Y-75689000D01*
X140221000Y-75689000D01*
X140221000Y-75669000D01*
X140475000Y-75669000D01*
X140475000Y-75689000D01*
X141549250Y-75689000D01*
X141708000Y-75530250D01*
X141711072Y-75228500D01*
X141698812Y-75104018D01*
X141662502Y-74984320D01*
X141603537Y-74874006D01*
X141524185Y-74777315D01*
X141444406Y-74711842D01*
X141450962Y-74706462D01*
X141459698Y-74695817D01*
X141569978Y-74741496D01*
X141789257Y-74785113D01*
X142012833Y-74785113D01*
X142232112Y-74741496D01*
X142438669Y-74655937D01*
X142624565Y-74531725D01*
X142782657Y-74373633D01*
X142906869Y-74187737D01*
X142963252Y-74051616D01*
X143673466Y-73341403D01*
X143793993Y-73304841D01*
X143973797Y-73208734D01*
X144131396Y-73079396D01*
X144163807Y-73039903D01*
X144363710Y-72840000D01*
X144421411Y-72840000D01*
X144688989Y-72786775D01*
X144941043Y-72682371D01*
X145167886Y-72530799D01*
X145360799Y-72337886D01*
X145512371Y-72111043D01*
X145616775Y-71858989D01*
X145670000Y-71591411D01*
X145670000Y-71323500D01*
X150795928Y-71323500D01*
X150808188Y-71447982D01*
X150844498Y-71567680D01*
X150903463Y-71677994D01*
X150982815Y-71774685D01*
X151079506Y-71854037D01*
X151189820Y-71913002D01*
X151309518Y-71949312D01*
X151434000Y-71961572D01*
X151873250Y-71958500D01*
X152032000Y-71799750D01*
X152032000Y-70863000D01*
X150957750Y-70863000D01*
X150799000Y-71021750D01*
X150795928Y-71323500D01*
X145670000Y-71323500D01*
X145670000Y-71318589D01*
X145616775Y-71051011D01*
X145512371Y-70798957D01*
X145360799Y-70572114D01*
X145167886Y-70379201D01*
X144941043Y-70227629D01*
X144688989Y-70123225D01*
X144525920Y-70090788D01*
X142758632Y-68323500D01*
X150795928Y-68323500D01*
X150795928Y-68998500D01*
X150812992Y-69171754D01*
X150863528Y-69338350D01*
X150945595Y-69491886D01*
X151056038Y-69626462D01*
X151062594Y-69631842D01*
X150982815Y-69697315D01*
X150903463Y-69794006D01*
X150844498Y-69904320D01*
X150808188Y-70024018D01*
X150795928Y-70148500D01*
X150799000Y-70450250D01*
X150957750Y-70609000D01*
X152032000Y-70609000D01*
X152032000Y-70589000D01*
X152286000Y-70589000D01*
X152286000Y-70609000D01*
X152306000Y-70609000D01*
X152306000Y-70863000D01*
X152286000Y-70863000D01*
X152286000Y-71799750D01*
X152444750Y-71958500D01*
X152884000Y-71961572D01*
X153008482Y-71949312D01*
X153128180Y-71913002D01*
X153238494Y-71854037D01*
X153335185Y-71774685D01*
X153414537Y-71677994D01*
X153473502Y-71567680D01*
X153509812Y-71447982D01*
X153522072Y-71323500D01*
X153521347Y-71252270D01*
X153535129Y-71285543D01*
X153686701Y-71512386D01*
X153879614Y-71705299D01*
X154106457Y-71856871D01*
X154358511Y-71961275D01*
X154521581Y-71993712D01*
X156570009Y-74042141D01*
X156605551Y-74085449D01*
X156659091Y-74129388D01*
X156778377Y-74227284D01*
X156975553Y-74332676D01*
X157189501Y-74397577D01*
X157412000Y-74419491D01*
X157467752Y-74414000D01*
X160622714Y-74414000D01*
X160760957Y-74506371D01*
X161013011Y-74610775D01*
X161280589Y-74664000D01*
X161553411Y-74664000D01*
X161820989Y-74610775D01*
X162073043Y-74506371D01*
X162299886Y-74354799D01*
X162492799Y-74161886D01*
X162644371Y-73935043D01*
X162748775Y-73682989D01*
X162802000Y-73415411D01*
X162802000Y-73142589D01*
X162748775Y-72875011D01*
X162644371Y-72622957D01*
X162492799Y-72396114D01*
X162299886Y-72203201D01*
X162073043Y-72051629D01*
X161820989Y-71947225D01*
X161553411Y-71894000D01*
X161280589Y-71894000D01*
X161013011Y-71947225D01*
X160760957Y-72051629D01*
X160622714Y-72144000D01*
X157882132Y-72144000D01*
X156126712Y-70388581D01*
X156094275Y-70225511D01*
X155989871Y-69973457D01*
X155838299Y-69746614D01*
X155645386Y-69553701D01*
X155418543Y-69402129D01*
X155166489Y-69297725D01*
X154910615Y-69246828D01*
X154942824Y-69198624D01*
X155028383Y-68992067D01*
X155072000Y-68772788D01*
X155072000Y-68549212D01*
X155028383Y-68329933D01*
X154942824Y-68123376D01*
X154818612Y-67937480D01*
X154660520Y-67779388D01*
X154474624Y-67655176D01*
X154268067Y-67569617D01*
X154048788Y-67526000D01*
X153825212Y-67526000D01*
X153605933Y-67569617D01*
X153399376Y-67655176D01*
X153289235Y-67728770D01*
X153261962Y-67695538D01*
X153127386Y-67585095D01*
X152973850Y-67503028D01*
X152807254Y-67452492D01*
X152634000Y-67435428D01*
X151684000Y-67435428D01*
X151510746Y-67452492D01*
X151344150Y-67503028D01*
X151190614Y-67585095D01*
X151056038Y-67695538D01*
X150945595Y-67830114D01*
X150863528Y-67983650D01*
X150812992Y-68150246D01*
X150795928Y-68323500D01*
X142758632Y-68323500D01*
X142474212Y-68039081D01*
X142441775Y-67876011D01*
X142337371Y-67623957D01*
X142185799Y-67397114D01*
X141992886Y-67204201D01*
X141766043Y-67052629D01*
X141513989Y-66948225D01*
X141246411Y-66895000D01*
X140973589Y-66895000D01*
X140706011Y-66948225D01*
X140453957Y-67052629D01*
X140227114Y-67204201D01*
X140034201Y-67397114D01*
X139882629Y-67623957D01*
X139778225Y-67876011D01*
X139725000Y-68143589D01*
X139725000Y-68416411D01*
X139778225Y-68683989D01*
X139882629Y-68936043D01*
X140034201Y-69162886D01*
X140227114Y-69355799D01*
X140453957Y-69507371D01*
X140706011Y-69611775D01*
X140869081Y-69644212D01*
X142678089Y-71453220D01*
X142629360Y-71479266D01*
X142521628Y-71567680D01*
X142471762Y-71608604D01*
X142439355Y-71648092D01*
X141499542Y-72587906D01*
X141363421Y-72644289D01*
X141323520Y-72670950D01*
X141316386Y-72665095D01*
X141162850Y-72583028D01*
X140996254Y-72532492D01*
X140823000Y-72515428D01*
X139873000Y-72515428D01*
X139699746Y-72532492D01*
X139533150Y-72583028D01*
X139379614Y-72665095D01*
X139245038Y-72775538D01*
X139134595Y-72910114D01*
X139052528Y-73063650D01*
X139001992Y-73230246D01*
X138984928Y-73403500D01*
X119377000Y-73403500D01*
X119377000Y-64879992D01*
X119391866Y-64786129D01*
X119430418Y-64710467D01*
X119490467Y-64650418D01*
X119566129Y-64611866D01*
X119659992Y-64597000D01*
X129915000Y-64597000D01*
X129934867Y-64595436D01*
X130058474Y-64575859D01*
X130082563Y-64569573D01*
X130096264Y-64563581D01*
X130207771Y-64506765D01*
X130228739Y-64493342D01*
X130239917Y-64483410D01*
X130328410Y-64394917D01*
X130344204Y-64375671D01*
X130351765Y-64362771D01*
X130408581Y-64251264D01*
X130417655Y-64228080D01*
X130420859Y-64213474D01*
X130440436Y-64089867D01*
X130442000Y-64070000D01*
X130442000Y-57259992D01*
X130456866Y-57166129D01*
X130495418Y-57090467D01*
X130555467Y-57030418D01*
X130631129Y-56991866D01*
X130724992Y-56977000D01*
X131429370Y-56977000D01*
X130857649Y-57548721D01*
%TA.AperFunction,Conductor*%
D20*
G36*
X130857649Y-57548721D02*
G01*
X130828579Y-57572578D01*
X130804722Y-57601648D01*
X130804721Y-57601649D01*
X130733355Y-57688608D01*
X130662599Y-57820985D01*
X130619027Y-57964622D01*
X130604314Y-58114000D01*
X130608001Y-58151433D01*
X130608000Y-59137576D01*
X130604314Y-59175000D01*
X130608000Y-59212423D01*
X130608000Y-59212425D01*
X130619026Y-59324377D01*
X130662598Y-59468014D01*
X130662599Y-59468015D01*
X130733355Y-59600392D01*
X130763080Y-59636612D01*
X130828578Y-59716422D01*
X130857654Y-59740284D01*
X133432721Y-62315352D01*
X133456578Y-62344422D01*
X133572608Y-62439645D01*
X133704985Y-62510402D01*
X133848622Y-62553974D01*
X133960574Y-62565000D01*
X133960576Y-62565000D01*
X133997999Y-62568686D01*
X134035422Y-62565000D01*
X135821868Y-62565000D01*
X135941480Y-62684612D01*
X136127376Y-62808824D01*
X136333933Y-62894383D01*
X136489760Y-62925379D01*
X136435423Y-63104502D01*
X136413509Y-63327000D01*
X136419001Y-63382761D01*
X136419000Y-66215714D01*
X136326629Y-66353957D01*
X136222225Y-66606011D01*
X136169000Y-66873589D01*
X136169000Y-67146411D01*
X136222225Y-67413989D01*
X136326629Y-67666043D01*
X136478201Y-67892886D01*
X136671114Y-68085799D01*
X136897957Y-68237371D01*
X137150011Y-68341775D01*
X137417589Y-68395000D01*
X137690411Y-68395000D01*
X137957989Y-68341775D01*
X138210043Y-68237371D01*
X138436886Y-68085799D01*
X138629799Y-67892886D01*
X138781371Y-67666043D01*
X138885775Y-67413989D01*
X138939000Y-67146411D01*
X138939000Y-66873589D01*
X138885775Y-66606011D01*
X138781371Y-66353957D01*
X138689000Y-66215714D01*
X138689000Y-64506500D01*
X145461928Y-64506500D01*
X145474188Y-64630982D01*
X145510498Y-64750680D01*
X145569463Y-64860994D01*
X145648815Y-64957685D01*
X145728594Y-65023158D01*
X145722038Y-65028538D01*
X145611595Y-65163114D01*
X145529528Y-65316650D01*
X145478992Y-65483246D01*
X145461928Y-65656500D01*
X145461928Y-66331500D01*
X145478992Y-66504754D01*
X145529528Y-66671350D01*
X145611595Y-66824886D01*
X145722038Y-66959462D01*
X145856614Y-67069905D01*
X146010150Y-67151972D01*
X146176746Y-67202508D01*
X146350000Y-67219572D01*
X147300000Y-67219572D01*
X147473254Y-67202508D01*
X147639850Y-67151972D01*
X147793386Y-67069905D01*
X147809476Y-67056700D01*
X147811376Y-67057970D01*
X148017933Y-67143529D01*
X148237212Y-67187146D01*
X148460788Y-67187146D01*
X148680067Y-67143529D01*
X148816187Y-67087146D01*
X149129026Y-67087146D01*
X149179854Y-67092152D01*
X149230682Y-67087146D01*
X149230692Y-67087146D01*
X149382749Y-67072170D01*
X149577847Y-67012987D01*
X149757651Y-66916880D01*
X149915250Y-66787542D01*
X149947661Y-66748049D01*
X150174710Y-66521000D01*
X150294813Y-66521000D01*
X150430933Y-66577383D01*
X150650212Y-66621000D01*
X150873788Y-66621000D01*
X151093067Y-66577383D01*
X151299624Y-66491824D01*
X151409765Y-66418230D01*
X151437038Y-66451462D01*
X151571614Y-66561905D01*
X151725150Y-66643972D01*
X151891746Y-66694508D01*
X152065000Y-66711572D01*
X153015000Y-66711572D01*
X153188254Y-66694508D01*
X153354850Y-66643972D01*
X153508386Y-66561905D01*
X153642962Y-66451462D01*
X153753405Y-66316886D01*
X153835472Y-66163350D01*
X153886008Y-65996754D01*
X153903072Y-65823500D01*
X153903072Y-65148500D01*
X153886008Y-64975246D01*
X153835472Y-64808650D01*
X153753405Y-64655114D01*
X153642962Y-64520538D01*
X153636406Y-64515158D01*
X153716185Y-64449685D01*
X153795537Y-64352994D01*
X153854502Y-64242680D01*
X153890812Y-64122982D01*
X153903072Y-63998500D01*
X153900000Y-63696750D01*
X153741250Y-63538000D01*
X152667000Y-63538000D01*
X152667000Y-63558000D01*
X152413000Y-63558000D01*
X152413000Y-63538000D01*
X151338750Y-63538000D01*
X151180000Y-63696750D01*
X151176928Y-63998500D01*
X151189188Y-64122982D01*
X151225498Y-64242680D01*
X151284463Y-64352994D01*
X151363815Y-64449685D01*
X151443594Y-64515158D01*
X151437038Y-64520538D01*
X151409765Y-64553770D01*
X151299624Y-64480176D01*
X151093067Y-64394617D01*
X150873788Y-64351000D01*
X150650212Y-64351000D01*
X150430933Y-64394617D01*
X150294813Y-64451000D01*
X149796827Y-64451000D01*
X149745999Y-64445994D01*
X149695171Y-64451000D01*
X149695162Y-64451000D01*
X149543105Y-64465976D01*
X149348007Y-64525159D01*
X149168203Y-64621266D01*
X149010604Y-64750604D01*
X148978193Y-64790097D01*
X148770195Y-64998095D01*
X148680067Y-64960763D01*
X148460788Y-64917146D01*
X148237212Y-64917146D01*
X148017933Y-64960763D01*
X147976545Y-64977907D01*
X148001185Y-64957685D01*
X148080537Y-64860994D01*
X148139502Y-64750680D01*
X148175812Y-64630982D01*
X148188072Y-64506500D01*
X148185000Y-64204750D01*
X148026250Y-64046000D01*
X146952000Y-64046000D01*
X146952000Y-64066000D01*
X146698000Y-64066000D01*
X146698000Y-64046000D01*
X145623750Y-64046000D01*
X145465000Y-64204750D01*
X145461928Y-64506500D01*
X138689000Y-64506500D01*
X138689000Y-63797131D01*
X139154631Y-63331500D01*
X145461928Y-63331500D01*
X145465000Y-63633250D01*
X145623750Y-63792000D01*
X146698000Y-63792000D01*
X146698000Y-62855250D01*
X146952000Y-62855250D01*
X146952000Y-63792000D01*
X148026250Y-63792000D01*
X148185000Y-63633250D01*
X148188072Y-63331500D01*
X148175812Y-63207018D01*
X148139502Y-63087320D01*
X148080537Y-62977006D01*
X148001185Y-62880315D01*
X147931956Y-62823500D01*
X151176928Y-62823500D01*
X151180000Y-63125250D01*
X151338750Y-63284000D01*
X152413000Y-63284000D01*
X152413000Y-62347250D01*
X152667000Y-62347250D01*
X152667000Y-63284000D01*
X153741250Y-63284000D01*
X153900000Y-63125250D01*
X153903072Y-62823500D01*
X153890812Y-62699018D01*
X153854502Y-62579320D01*
X153795537Y-62469006D01*
X153716185Y-62372315D01*
X153619494Y-62292963D01*
X153509180Y-62233998D01*
X153389482Y-62197688D01*
X153265000Y-62185428D01*
X152825750Y-62188500D01*
X152667000Y-62347250D01*
X152413000Y-62347250D01*
X152254250Y-62188500D01*
X151815000Y-62185428D01*
X151690518Y-62197688D01*
X151570820Y-62233998D01*
X151460506Y-62292963D01*
X151363815Y-62372315D01*
X151284463Y-62469006D01*
X151225498Y-62579320D01*
X151189188Y-62699018D01*
X151176928Y-62823500D01*
X147931956Y-62823500D01*
X147904494Y-62800963D01*
X147794180Y-62741998D01*
X147674482Y-62705688D01*
X147550000Y-62693428D01*
X147110750Y-62696500D01*
X146952000Y-62855250D01*
X146698000Y-62855250D01*
X146539250Y-62696500D01*
X146100000Y-62693428D01*
X145975518Y-62705688D01*
X145855820Y-62741998D01*
X145745506Y-62800963D01*
X145648815Y-62880315D01*
X145569463Y-62977006D01*
X145510498Y-63087320D01*
X145474188Y-63207018D01*
X145461928Y-63331500D01*
X139154631Y-63331500D01*
X140691133Y-61795000D01*
X161374249Y-61795000D01*
X161430000Y-61800491D01*
X161485751Y-61795000D01*
X161485752Y-61795000D01*
X161652499Y-61778577D01*
X161866447Y-61713676D01*
X162063623Y-61608284D01*
X162236449Y-61466449D01*
X162271996Y-61423135D01*
X163463140Y-60231992D01*
X163506449Y-60196449D01*
X163648284Y-60023623D01*
X163753676Y-59826447D01*
X163803471Y-59662295D01*
X163818577Y-59612500D01*
X163827195Y-59525000D01*
X163835000Y-59445752D01*
X163835000Y-59445745D01*
X163840490Y-59390001D01*
X163835000Y-59334257D01*
X163835000Y-58955132D01*
X163881480Y-59001612D01*
X164067376Y-59125824D01*
X164273933Y-59211383D01*
X164493212Y-59255000D01*
X164716788Y-59255000D01*
X164936067Y-59211383D01*
X165142624Y-59125824D01*
X165328520Y-59001612D01*
X165486612Y-58843520D01*
X165610824Y-58657624D01*
X165696383Y-58451067D01*
X165740000Y-58231788D01*
X165740000Y-58062630D01*
X165752346Y-58050284D01*
X165781422Y-58026422D01*
X165841857Y-57952781D01*
X165876645Y-57910393D01*
X165924434Y-57820985D01*
X165947402Y-57778015D01*
X165990974Y-57634378D01*
X166002000Y-57522426D01*
X166002000Y-57522423D01*
X166005686Y-57485000D01*
X166002000Y-57447577D01*
X166002000Y-56977000D01*
X167018001Y-56977000D01*
X167018001Y-57276867D01*
X166898388Y-57396480D01*
X166774176Y-57582376D01*
X166688617Y-57788933D01*
X166645000Y-58008212D01*
X166645000Y-58231788D01*
X166688617Y-58451067D01*
X166774176Y-58657624D01*
X166898388Y-58843520D01*
X167056480Y-59001612D01*
X167242376Y-59125824D01*
X167448933Y-59211383D01*
X167668212Y-59255000D01*
X167891788Y-59255000D01*
X168111067Y-59211383D01*
X168317624Y-59125824D01*
X168503520Y-59001612D01*
X168661612Y-58843520D01*
X168785824Y-58657624D01*
X168871383Y-58451067D01*
X168915000Y-58231788D01*
X168915000Y-58008212D01*
X168871383Y-57788933D01*
X168785824Y-57582376D01*
X168661612Y-57396480D01*
X168542000Y-57276868D01*
X168542000Y-56977000D01*
X169275008Y-56977000D01*
X169368871Y-56991866D01*
X169444533Y-57030418D01*
X169504582Y-57090467D01*
X169543134Y-57166129D01*
X169558000Y-57259992D01*
X169558000Y-64070000D01*
X169559564Y-64089867D01*
X169579141Y-64213474D01*
X169585427Y-64237563D01*
X169591419Y-64251264D01*
X169648235Y-64362771D01*
X169661658Y-64383739D01*
X169671590Y-64394917D01*
X169760083Y-64483410D01*
X169779329Y-64499204D01*
X169792229Y-64506765D01*
X169903736Y-64563581D01*
X169926920Y-64572655D01*
X169941526Y-64575859D01*
X170065133Y-64595436D01*
X170085000Y-64597000D01*
X180340008Y-64597000D01*
X180433871Y-64611866D01*
X180509533Y-64650418D01*
X180569582Y-64710467D01*
X180608134Y-64786129D01*
X180623000Y-64879992D01*
X180623000Y-133090008D01*
X180608134Y-133183871D01*
X180569582Y-133259533D01*
X180509533Y-133319582D01*
X180433871Y-133358134D01*
X180340008Y-133373000D01*
X119659992Y-133373000D01*
X119566129Y-133358134D01*
X119490467Y-133319582D01*
X119430418Y-133259533D01*
X119391866Y-133183871D01*
X119377000Y-133090008D01*
X119377000Y-131914000D01*
X133258928Y-131914000D01*
X133271188Y-132038482D01*
X133307498Y-132158180D01*
X133366463Y-132268494D01*
X133445815Y-132365185D01*
X133542506Y-132444537D01*
X133652820Y-132503502D01*
X133772518Y-132539812D01*
X133897000Y-132552072D01*
X134461250Y-132549000D01*
X134620000Y-132390250D01*
X134620000Y-131191000D01*
X133420750Y-131191000D01*
X133262000Y-131349750D01*
X133258928Y-131914000D01*
X119377000Y-131914000D01*
X119377000Y-106758500D01*
X121336009Y-106758500D01*
X121341500Y-106814252D01*
X121341501Y-109025252D01*
X121357924Y-109191999D01*
X121422825Y-109405947D01*
X121528217Y-109603123D01*
X121613428Y-109706953D01*
X121613428Y-109719500D01*
X121625688Y-109843982D01*
X121661998Y-109963680D01*
X121720963Y-110073994D01*
X121800315Y-110170685D01*
X121897006Y-110250037D01*
X122007320Y-110309002D01*
X122127018Y-110345312D01*
X122251500Y-110357572D01*
X122536516Y-110357572D01*
X122450315Y-110428315D01*
X122370963Y-110525006D01*
X122311998Y-110635320D01*
X122275688Y-110755018D01*
X122263428Y-110879500D01*
X122263428Y-111049678D01*
X122261766Y-111051703D01*
X122165659Y-111231508D01*
X122106476Y-111426606D01*
X122091500Y-111578663D01*
X122091501Y-116281162D01*
X122086494Y-116332000D01*
X122106477Y-116534895D01*
X122165660Y-116729993D01*
X122261766Y-116909797D01*
X122351517Y-117019158D01*
X122391105Y-117067396D01*
X122430592Y-117099802D01*
X125152697Y-119821908D01*
X125185104Y-119861396D01*
X125224592Y-119893803D01*
X125342702Y-119990734D01*
X125438809Y-120042104D01*
X125522507Y-120086841D01*
X125717605Y-120146024D01*
X125869662Y-120161000D01*
X125869665Y-120161000D01*
X125920500Y-120166007D01*
X125938161Y-120164268D01*
X126053368Y-120279475D01*
X126235534Y-120401195D01*
X126118645Y-120470822D01*
X125902412Y-120665731D01*
X125728359Y-120899080D01*
X125603175Y-121161901D01*
X125558524Y-121309110D01*
X125679845Y-121539000D01*
X126873000Y-121539000D01*
X126873000Y-121519000D01*
X127127000Y-121519000D01*
X127127000Y-121539000D01*
X127147000Y-121539000D01*
X127147000Y-121793000D01*
X127127000Y-121793000D01*
X127127000Y-121813000D01*
X126873000Y-121813000D01*
X126873000Y-121793000D01*
X125679845Y-121793000D01*
X125558524Y-122022890D01*
X125603175Y-122170099D01*
X125728359Y-122432920D01*
X125902412Y-122666269D01*
X126118645Y-122861178D01*
X126235534Y-122930805D01*
X126053368Y-123052525D01*
X125846525Y-123259368D01*
X125684010Y-123502589D01*
X125572068Y-123772842D01*
X125515000Y-124059740D01*
X125515000Y-124352260D01*
X125572068Y-124639158D01*
X125684010Y-124909411D01*
X125846525Y-125152632D01*
X126053368Y-125359475D01*
X126227760Y-125476000D01*
X126053368Y-125592525D01*
X125846525Y-125799368D01*
X125684010Y-126042589D01*
X125572068Y-126312842D01*
X125515000Y-126599740D01*
X125515000Y-126892260D01*
X125572068Y-127179158D01*
X125684010Y-127449411D01*
X125846525Y-127692632D01*
X125978380Y-127824487D01*
X125905820Y-127846498D01*
X125795506Y-127905463D01*
X125698815Y-127984815D01*
X125619463Y-128081506D01*
X125560498Y-128191820D01*
X125524188Y-128311518D01*
X125511928Y-128436000D01*
X125511928Y-130136000D01*
X125524188Y-130260482D01*
X125560498Y-130380180D01*
X125619463Y-130490494D01*
X125698815Y-130587185D01*
X125795506Y-130666537D01*
X125905820Y-130725502D01*
X126025518Y-130761812D01*
X126150000Y-130774072D01*
X127850000Y-130774072D01*
X127974482Y-130761812D01*
X128094180Y-130725502D01*
X128204494Y-130666537D01*
X128301185Y-130587185D01*
X128380537Y-130490494D01*
X128439502Y-130380180D01*
X128475812Y-130260482D01*
X128480389Y-130214000D01*
X133258928Y-130214000D01*
X133262000Y-130778250D01*
X133420750Y-130937000D01*
X134620000Y-130937000D01*
X134620000Y-129737750D01*
X134874000Y-129737750D01*
X134874000Y-130937000D01*
X134894000Y-130937000D01*
X134894000Y-131191000D01*
X134874000Y-131191000D01*
X134874000Y-132390250D01*
X135032750Y-132549000D01*
X135597000Y-132552072D01*
X135721482Y-132539812D01*
X135841180Y-132503502D01*
X135951494Y-132444537D01*
X136048185Y-132365185D01*
X136127537Y-132268494D01*
X136186502Y-132158180D01*
X136208513Y-132085620D01*
X136340368Y-132217475D01*
X136583589Y-132379990D01*
X136853842Y-132491932D01*
X137140740Y-132549000D01*
X137433260Y-132549000D01*
X137720158Y-132491932D01*
X137990411Y-132379990D01*
X138233632Y-132217475D01*
X138440475Y-132010632D01*
X138557000Y-131836240D01*
X138673525Y-132010632D01*
X138880368Y-132217475D01*
X139123589Y-132379990D01*
X139393842Y-132491932D01*
X139680740Y-132549000D01*
X139973260Y-132549000D01*
X140260158Y-132491932D01*
X140530411Y-132379990D01*
X140773632Y-132217475D01*
X140980475Y-132010632D01*
X141097000Y-131836240D01*
X141213525Y-132010632D01*
X141420368Y-132217475D01*
X141663589Y-132379990D01*
X141933842Y-132491932D01*
X142220740Y-132549000D01*
X142513260Y-132549000D01*
X142800158Y-132491932D01*
X143070411Y-132379990D01*
X143313632Y-132217475D01*
X143520475Y-132010632D01*
X143682990Y-131767411D01*
X143794932Y-131497158D01*
X143852000Y-131210260D01*
X143852000Y-130917740D01*
X143794932Y-130630842D01*
X143682990Y-130360589D01*
X143520475Y-130117368D01*
X143313632Y-129910525D01*
X143070411Y-129748010D01*
X142800158Y-129636068D01*
X142513260Y-129579000D01*
X142220740Y-129579000D01*
X141933842Y-129636068D01*
X141663589Y-129748010D01*
X141420368Y-129910525D01*
X141213525Y-130117368D01*
X141097000Y-130291760D01*
X140980475Y-130117368D01*
X140773632Y-129910525D01*
X140530411Y-129748010D01*
X140260158Y-129636068D01*
X139973260Y-129579000D01*
X139680740Y-129579000D01*
X139393842Y-129636068D01*
X139123589Y-129748010D01*
X138880368Y-129910525D01*
X138673525Y-130117368D01*
X138557000Y-130291760D01*
X138440475Y-130117368D01*
X138233632Y-129910525D01*
X137990411Y-129748010D01*
X137720158Y-129636068D01*
X137433260Y-129579000D01*
X137140740Y-129579000D01*
X136853842Y-129636068D01*
X136583589Y-129748010D01*
X136340368Y-129910525D01*
X136208513Y-130042380D01*
X136186502Y-129969820D01*
X136127537Y-129859506D01*
X136048185Y-129762815D01*
X135951494Y-129683463D01*
X135841180Y-129624498D01*
X135721482Y-129588188D01*
X135597000Y-129575928D01*
X135032750Y-129579000D01*
X134874000Y-129737750D01*
X134620000Y-129737750D01*
X134461250Y-129579000D01*
X133897000Y-129575928D01*
X133772518Y-129588188D01*
X133652820Y-129624498D01*
X133542506Y-129683463D01*
X133445815Y-129762815D01*
X133366463Y-129859506D01*
X133307498Y-129969820D01*
X133271188Y-130089518D01*
X133258928Y-130214000D01*
X128480389Y-130214000D01*
X128488072Y-130136000D01*
X128488072Y-128436000D01*
X128475812Y-128311518D01*
X128439502Y-128191820D01*
X128380537Y-128081506D01*
X128301185Y-127984815D01*
X128204494Y-127905463D01*
X128094180Y-127846498D01*
X128021620Y-127824487D01*
X128153475Y-127692632D01*
X128315990Y-127449411D01*
X128427932Y-127179158D01*
X128485000Y-126892260D01*
X128485000Y-126599740D01*
X128427932Y-126312842D01*
X128315990Y-126042589D01*
X128153475Y-125799368D01*
X127946632Y-125592525D01*
X127772240Y-125476000D01*
X127946632Y-125359475D01*
X128153475Y-125152632D01*
X128315990Y-124909411D01*
X128427932Y-124639158D01*
X128485000Y-124352260D01*
X128485000Y-124059740D01*
X128427932Y-123772842D01*
X128315990Y-123502589D01*
X128153475Y-123259368D01*
X127946632Y-123052525D01*
X127764466Y-122930805D01*
X127881355Y-122861178D01*
X128097588Y-122666269D01*
X128271641Y-122432920D01*
X128344684Y-122279568D01*
X128412212Y-122293000D01*
X128635788Y-122293000D01*
X128855067Y-122249383D01*
X129061624Y-122163824D01*
X129247520Y-122039612D01*
X129405612Y-121881520D01*
X129529824Y-121695624D01*
X129615383Y-121489067D01*
X129659000Y-121269788D01*
X129659000Y-121046212D01*
X129615383Y-120826933D01*
X129529824Y-120620376D01*
X129405612Y-120434480D01*
X129286000Y-120314868D01*
X129286000Y-118147422D01*
X129289686Y-118109999D01*
X129280224Y-118013932D01*
X129274974Y-117960622D01*
X129231402Y-117816985D01*
X129192505Y-117744212D01*
X144661000Y-117744212D01*
X144661000Y-117967788D01*
X144704617Y-118187067D01*
X144790176Y-118393624D01*
X144914388Y-118579520D01*
X145072480Y-118737612D01*
X145258376Y-118861824D01*
X145464933Y-118947383D01*
X145684212Y-118991000D01*
X145907788Y-118991000D01*
X146127067Y-118947383D01*
X146333624Y-118861824D01*
X146519520Y-118737612D01*
X146639132Y-118618000D01*
X148635868Y-118618000D01*
X148755480Y-118737612D01*
X148941376Y-118861824D01*
X149147933Y-118947383D01*
X149367212Y-118991000D01*
X149590788Y-118991000D01*
X149810067Y-118947383D01*
X150016624Y-118861824D01*
X150202520Y-118737612D01*
X150360612Y-118579520D01*
X150484824Y-118393624D01*
X150570383Y-118187067D01*
X150614000Y-117967788D01*
X150614000Y-117744212D01*
X150570383Y-117524933D01*
X150484824Y-117318376D01*
X150360612Y-117132480D01*
X150202520Y-116974388D01*
X150016624Y-116850176D01*
X149810067Y-116764617D01*
X149590788Y-116721000D01*
X149367212Y-116721000D01*
X149147933Y-116764617D01*
X148941376Y-116850176D01*
X148755480Y-116974388D01*
X148635868Y-117094000D01*
X146639132Y-117094000D01*
X146519520Y-116974388D01*
X146333624Y-116850176D01*
X146127067Y-116764617D01*
X145907788Y-116721000D01*
X145684212Y-116721000D01*
X145464933Y-116764617D01*
X145258376Y-116850176D01*
X145072480Y-116974388D01*
X144914388Y-117132480D01*
X144790176Y-117318376D01*
X144704617Y-117524933D01*
X144661000Y-117744212D01*
X129192505Y-117744212D01*
X129160645Y-117684608D01*
X129065422Y-117568578D01*
X129036353Y-117544722D01*
X128441679Y-116950048D01*
X128485000Y-116732260D01*
X128485000Y-116439740D01*
X128427932Y-116152842D01*
X128315990Y-115882589D01*
X128153475Y-115639368D01*
X127946632Y-115432525D01*
X127703411Y-115270010D01*
X127433158Y-115158068D01*
X127146260Y-115101000D01*
X126853740Y-115101000D01*
X126566842Y-115158068D01*
X126296589Y-115270010D01*
X126053368Y-115432525D01*
X125846525Y-115639368D01*
X125684010Y-115882589D01*
X125572068Y-116152842D01*
X125515000Y-116439740D01*
X125515000Y-116732260D01*
X125572068Y-117019158D01*
X125684010Y-117289411D01*
X125846525Y-117532632D01*
X126053368Y-117739475D01*
X126227760Y-117856000D01*
X126159692Y-117901481D01*
X124161500Y-115903290D01*
X124161500Y-111578662D01*
X124146524Y-111426605D01*
X124087341Y-111231507D01*
X123991234Y-111051703D01*
X123989572Y-111049678D01*
X123989572Y-110879500D01*
X123977312Y-110755018D01*
X123941002Y-110635320D01*
X123882037Y-110525006D01*
X123802685Y-110428315D01*
X123716484Y-110357572D01*
X124001500Y-110357572D01*
X124125982Y-110345312D01*
X124245680Y-110309002D01*
X124355994Y-110250037D01*
X124452685Y-110170685D01*
X124532037Y-110073994D01*
X124591002Y-109963680D01*
X124625183Y-109851000D01*
X125932344Y-109851000D01*
X125973525Y-109912632D01*
X126105380Y-110044487D01*
X126032820Y-110066498D01*
X125922506Y-110125463D01*
X125825815Y-110204815D01*
X125746463Y-110301506D01*
X125687498Y-110411820D01*
X125651188Y-110531518D01*
X125638928Y-110656000D01*
X125638928Y-112356000D01*
X125651188Y-112480482D01*
X125687498Y-112600180D01*
X125746463Y-112710494D01*
X125825815Y-112807185D01*
X125922506Y-112886537D01*
X126032820Y-112945502D01*
X126152518Y-112981812D01*
X126277000Y-112994072D01*
X127977000Y-112994072D01*
X128101482Y-112981812D01*
X128221180Y-112945502D01*
X128331494Y-112886537D01*
X128428185Y-112807185D01*
X128507537Y-112710494D01*
X128566502Y-112600180D01*
X128602812Y-112480482D01*
X128611625Y-112391000D01*
X129179928Y-112391000D01*
X129179928Y-113306000D01*
X129192188Y-113430482D01*
X129228498Y-113550180D01*
X129287463Y-113660494D01*
X129366815Y-113757185D01*
X129463506Y-113836537D01*
X129573820Y-113895502D01*
X129693518Y-113931812D01*
X129818000Y-113944072D01*
X132818000Y-113944072D01*
X132942482Y-113931812D01*
X133062180Y-113895502D01*
X133172494Y-113836537D01*
X133269185Y-113757185D01*
X133348537Y-113660494D01*
X133407502Y-113550180D01*
X133443812Y-113430482D01*
X133456072Y-113306000D01*
X158479928Y-113306000D01*
X158492188Y-113430482D01*
X158528498Y-113550180D01*
X158587463Y-113660494D01*
X158666815Y-113757185D01*
X158763506Y-113836537D01*
X158873820Y-113895502D01*
X158993518Y-113931812D01*
X159118000Y-113944072D01*
X160332250Y-113941000D01*
X160491000Y-113782250D01*
X160491000Y-111633000D01*
X160745000Y-111633000D01*
X160745000Y-113782250D01*
X160903750Y-113941000D01*
X162118000Y-113944072D01*
X162242482Y-113931812D01*
X162362180Y-113895502D01*
X162472494Y-113836537D01*
X162569185Y-113757185D01*
X162648537Y-113660494D01*
X162707502Y-113550180D01*
X162743812Y-113430482D01*
X162756072Y-113306000D01*
X162753000Y-111791750D01*
X162594250Y-111633000D01*
X160745000Y-111633000D01*
X160491000Y-111633000D01*
X158641750Y-111633000D01*
X158483000Y-111791750D01*
X158479928Y-113306000D01*
X133456072Y-113306000D01*
X133456072Y-109706000D01*
X158479928Y-109706000D01*
X158483000Y-111220250D01*
X158641750Y-111379000D01*
X160491000Y-111379000D01*
X160491000Y-109229750D01*
X160745000Y-109229750D01*
X160745000Y-111379000D01*
X162594250Y-111379000D01*
X162753000Y-111220250D01*
X162756072Y-109706000D01*
X162743812Y-109581518D01*
X162707502Y-109461820D01*
X162648537Y-109351506D01*
X162569185Y-109254815D01*
X162472494Y-109175463D01*
X162362180Y-109116498D01*
X162242482Y-109080188D01*
X162118000Y-109067928D01*
X160903750Y-109071000D01*
X160745000Y-109229750D01*
X160491000Y-109229750D01*
X160332250Y-109071000D01*
X159118000Y-109067928D01*
X158993518Y-109080188D01*
X158873820Y-109116498D01*
X158763506Y-109175463D01*
X158666815Y-109254815D01*
X158587463Y-109351506D01*
X158528498Y-109461820D01*
X158492188Y-109581518D01*
X158479928Y-109706000D01*
X133456072Y-109706000D01*
X133443812Y-109581518D01*
X133407502Y-109461820D01*
X133348537Y-109351506D01*
X133269185Y-109254815D01*
X133172494Y-109175463D01*
X133062180Y-109116498D01*
X132942482Y-109080188D01*
X132818000Y-109067928D01*
X129818000Y-109067928D01*
X129693518Y-109080188D01*
X129573820Y-109116498D01*
X129463506Y-109175463D01*
X129366815Y-109254815D01*
X129287463Y-109351506D01*
X129228498Y-109461820D01*
X129192188Y-109581518D01*
X129179928Y-109706000D01*
X129179928Y-110621000D01*
X128611625Y-110621000D01*
X128602812Y-110531518D01*
X128566502Y-110411820D01*
X128507537Y-110301506D01*
X128428185Y-110204815D01*
X128331494Y-110125463D01*
X128221180Y-110066498D01*
X128148620Y-110044487D01*
X128280475Y-109912632D01*
X128442990Y-109669411D01*
X128554932Y-109399158D01*
X128612000Y-109112260D01*
X128612000Y-108819740D01*
X128554932Y-108532842D01*
X128442990Y-108262589D01*
X128280475Y-108019368D01*
X128073632Y-107812525D01*
X127830411Y-107650010D01*
X127560158Y-107538068D01*
X127273260Y-107481000D01*
X126980740Y-107481000D01*
X126693842Y-107538068D01*
X126423589Y-107650010D01*
X126180368Y-107812525D01*
X125973525Y-108019368D01*
X125932344Y-108081000D01*
X124623060Y-108081000D01*
X124591002Y-107975320D01*
X124532037Y-107865006D01*
X124452685Y-107768315D01*
X124355994Y-107688963D01*
X124245680Y-107629998D01*
X124125982Y-107593688D01*
X124001500Y-107581428D01*
X123611500Y-107581428D01*
X123611500Y-107228631D01*
X123723632Y-107116500D01*
X125547249Y-107116500D01*
X125603000Y-107121991D01*
X125658751Y-107116500D01*
X125658752Y-107116500D01*
X125825499Y-107100077D01*
X126039447Y-107035176D01*
X126236623Y-106929784D01*
X126409449Y-106787949D01*
X126444996Y-106744635D01*
X127699640Y-105489992D01*
X127742949Y-105454449D01*
X127884784Y-105281623D01*
X127990176Y-105084447D01*
X128055077Y-104870499D01*
X128071500Y-104703752D01*
X128076991Y-104648000D01*
X128075751Y-104635411D01*
X128140994Y-104600537D01*
X128237685Y-104521185D01*
X128317037Y-104424494D01*
X128376002Y-104314180D01*
X128412312Y-104194482D01*
X128424572Y-104070000D01*
X128424572Y-102370000D01*
X128412312Y-102245518D01*
X128376002Y-102125820D01*
X128317037Y-102015506D01*
X128237685Y-101918815D01*
X128140994Y-101839463D01*
X128030680Y-101780498D01*
X127950034Y-101756034D01*
X128034088Y-101680269D01*
X128208141Y-101446920D01*
X128333325Y-101184099D01*
X128377976Y-101036890D01*
X128256655Y-100807000D01*
X127063500Y-100807000D01*
X127063500Y-100827000D01*
X126809500Y-100827000D01*
X126809500Y-100807000D01*
X125616345Y-100807000D01*
X125495024Y-101036890D01*
X125539675Y-101184099D01*
X125664859Y-101446920D01*
X125838912Y-101680269D01*
X125922966Y-101756034D01*
X125842320Y-101780498D01*
X125732006Y-101839463D01*
X125635315Y-101918815D01*
X125555963Y-102015506D01*
X125496998Y-102125820D01*
X125460688Y-102245518D01*
X125448428Y-102370000D01*
X125448428Y-104070000D01*
X125460688Y-104194482D01*
X125496998Y-104314180D01*
X125555584Y-104423785D01*
X125132869Y-104846500D01*
X123309251Y-104846500D01*
X123253500Y-104841009D01*
X123197748Y-104846500D01*
X123031001Y-104862923D01*
X122817053Y-104927824D01*
X122619877Y-105033216D01*
X122447051Y-105175051D01*
X122411511Y-105218357D01*
X121713364Y-105916505D01*
X121670051Y-105952051D01*
X121528216Y-106124877D01*
X121422825Y-106322053D01*
X121422824Y-106322054D01*
X121357923Y-106536002D01*
X121336009Y-106758500D01*
X119377000Y-106758500D01*
X119377000Y-90373740D01*
X125451500Y-90373740D01*
X125451500Y-90666260D01*
X125508568Y-90953158D01*
X125620510Y-91223411D01*
X125783025Y-91466632D01*
X125989868Y-91673475D01*
X126164260Y-91790000D01*
X125989868Y-91906525D01*
X125783025Y-92113368D01*
X125620510Y-92356589D01*
X125508568Y-92626842D01*
X125451500Y-92913740D01*
X125451500Y-93206260D01*
X125508568Y-93493158D01*
X125620510Y-93763411D01*
X125783025Y-94006632D01*
X125989868Y-94213475D01*
X126164260Y-94330000D01*
X125989868Y-94446525D01*
X125783025Y-94653368D01*
X125620510Y-94896589D01*
X125508568Y-95166842D01*
X125451500Y-95453740D01*
X125451500Y-95746260D01*
X125508568Y-96033158D01*
X125620510Y-96303411D01*
X125783025Y-96546632D01*
X125989868Y-96753475D01*
X126164260Y-96870000D01*
X125989868Y-96986525D01*
X125783025Y-97193368D01*
X125620510Y-97436589D01*
X125508568Y-97706842D01*
X125451500Y-97993740D01*
X125451500Y-98286260D01*
X125508568Y-98573158D01*
X125620510Y-98843411D01*
X125783025Y-99086632D01*
X125989868Y-99293475D01*
X126172034Y-99415195D01*
X126055145Y-99484822D01*
X125838912Y-99679731D01*
X125664859Y-99913080D01*
X125539675Y-100175901D01*
X125495024Y-100323110D01*
X125616345Y-100553000D01*
X126809500Y-100553000D01*
X126809500Y-100533000D01*
X127063500Y-100533000D01*
X127063500Y-100553000D01*
X128256655Y-100553000D01*
X128377976Y-100323110D01*
X128333325Y-100175901D01*
X128208141Y-99913080D01*
X128034088Y-99679731D01*
X127817855Y-99484822D01*
X127700966Y-99415195D01*
X127883132Y-99293475D01*
X127974395Y-99202212D01*
X135517000Y-99202212D01*
X135517000Y-99425788D01*
X135560617Y-99645067D01*
X135646176Y-99851624D01*
X135770388Y-100037520D01*
X135928480Y-100195612D01*
X136114376Y-100319824D01*
X136320933Y-100405383D01*
X136540212Y-100449000D01*
X136763788Y-100449000D01*
X136983067Y-100405383D01*
X137189624Y-100319824D01*
X137375520Y-100195612D01*
X137495132Y-100076000D01*
X142647077Y-100076000D01*
X142684500Y-100079686D01*
X142721923Y-100076000D01*
X142721926Y-100076000D01*
X142833878Y-100064974D01*
X142977515Y-100021402D01*
X143109892Y-99950645D01*
X143225922Y-99855422D01*
X143249784Y-99826346D01*
X144786131Y-98290000D01*
X144955288Y-98290000D01*
X145174567Y-98246383D01*
X145381124Y-98160824D01*
X145567020Y-98036612D01*
X145725112Y-97878520D01*
X145849324Y-97692624D01*
X145934883Y-97486067D01*
X145957572Y-97372000D01*
X167006428Y-97372000D01*
X167018688Y-97496482D01*
X167054998Y-97616180D01*
X167113963Y-97726494D01*
X167193315Y-97823185D01*
X167290006Y-97902537D01*
X167400320Y-97961502D01*
X167520018Y-97997812D01*
X167644500Y-98010072D01*
X167946250Y-98007000D01*
X168105000Y-97848250D01*
X168105000Y-96774000D01*
X167168250Y-96774000D01*
X167009500Y-96932750D01*
X167006428Y-97372000D01*
X145957572Y-97372000D01*
X145978500Y-97266788D01*
X145978500Y-97043212D01*
X145934883Y-96823933D01*
X145849324Y-96617376D01*
X145725112Y-96431480D01*
X145567020Y-96273388D01*
X145381124Y-96149176D01*
X145174567Y-96063617D01*
X144955288Y-96020000D01*
X144731712Y-96020000D01*
X144512433Y-96063617D01*
X144305876Y-96149176D01*
X144119980Y-96273388D01*
X143961888Y-96431480D01*
X143837676Y-96617376D01*
X143752117Y-96823933D01*
X143708500Y-97043212D01*
X143708500Y-97212369D01*
X142368870Y-98552000D01*
X137495132Y-98552000D01*
X137375520Y-98432388D01*
X137189624Y-98308176D01*
X136983067Y-98222617D01*
X136763788Y-98179000D01*
X136540212Y-98179000D01*
X136320933Y-98222617D01*
X136114376Y-98308176D01*
X135928480Y-98432388D01*
X135770388Y-98590480D01*
X135646176Y-98776376D01*
X135560617Y-98982933D01*
X135517000Y-99202212D01*
X127974395Y-99202212D01*
X128089975Y-99086632D01*
X128252490Y-98843411D01*
X128364432Y-98573158D01*
X128421500Y-98286260D01*
X128421500Y-97993740D01*
X128364432Y-97706842D01*
X128252490Y-97436589D01*
X128089975Y-97193368D01*
X127883132Y-96986525D01*
X127708740Y-96870000D01*
X127883132Y-96753475D01*
X128089975Y-96546632D01*
X128252490Y-96303411D01*
X128364432Y-96033158D01*
X128386542Y-95922000D01*
X167006428Y-95922000D01*
X167009500Y-96361250D01*
X167168250Y-96520000D01*
X168105000Y-96520000D01*
X168105000Y-95445750D01*
X168359000Y-95445750D01*
X168359000Y-96520000D01*
X168379000Y-96520000D01*
X168379000Y-96774000D01*
X168359000Y-96774000D01*
X168359000Y-97848250D01*
X168517750Y-98007000D01*
X168819500Y-98010072D01*
X168943982Y-97997812D01*
X169063680Y-97961502D01*
X169173994Y-97902537D01*
X169270685Y-97823185D01*
X169336158Y-97743406D01*
X169341538Y-97749962D01*
X169476114Y-97860405D01*
X169629650Y-97942472D01*
X169796246Y-97993008D01*
X169969500Y-98010072D01*
X170644500Y-98010072D01*
X170817754Y-97993008D01*
X170984350Y-97942472D01*
X171137886Y-97860405D01*
X171233423Y-97782000D01*
X171417714Y-97782000D01*
X171555957Y-97874371D01*
X171808011Y-97978775D01*
X172075589Y-98032000D01*
X172348411Y-98032000D01*
X172615989Y-97978775D01*
X172868043Y-97874371D01*
X173094886Y-97722799D01*
X173287799Y-97529886D01*
X173439371Y-97303043D01*
X173543775Y-97050989D01*
X173597000Y-96783411D01*
X173597000Y-96510589D01*
X173543775Y-96243011D01*
X173439371Y-95990957D01*
X173347000Y-95852714D01*
X173347000Y-92926131D01*
X177039141Y-89233991D01*
X177082449Y-89198449D01*
X177224284Y-89025623D01*
X177329676Y-88828447D01*
X177394577Y-88614499D01*
X177411000Y-88447752D01*
X177416491Y-88392000D01*
X177411000Y-88336249D01*
X177411000Y-85884286D01*
X177503371Y-85746043D01*
X177607775Y-85493989D01*
X177661000Y-85226411D01*
X177661000Y-84953589D01*
X177607775Y-84686011D01*
X177503371Y-84433957D01*
X177351799Y-84207114D01*
X177158886Y-84014201D01*
X176932043Y-83862629D01*
X176679989Y-83758225D01*
X176412411Y-83705000D01*
X176139589Y-83705000D01*
X175872011Y-83758225D01*
X175619957Y-83862629D01*
X175393114Y-84014201D01*
X175200201Y-84207114D01*
X175048629Y-84433957D01*
X174944225Y-84686011D01*
X174891000Y-84953589D01*
X174891000Y-85226411D01*
X174944225Y-85493989D01*
X175048629Y-85746043D01*
X175141000Y-85884286D01*
X175141001Y-87921867D01*
X171448865Y-91614004D01*
X171405551Y-91649551D01*
X171263716Y-91822377D01*
X171166103Y-92005000D01*
X171158324Y-92019554D01*
X171093423Y-92233502D01*
X171071509Y-92456000D01*
X171077000Y-92511752D01*
X171077001Y-95401051D01*
X170984350Y-95351528D01*
X170817754Y-95300992D01*
X170644500Y-95283928D01*
X169969500Y-95283928D01*
X169796246Y-95300992D01*
X169629650Y-95351528D01*
X169476114Y-95433595D01*
X169341538Y-95544038D01*
X169336158Y-95550594D01*
X169270685Y-95470815D01*
X169173994Y-95391463D01*
X169063680Y-95332498D01*
X168943982Y-95296188D01*
X168819500Y-95283928D01*
X168517750Y-95287000D01*
X168359000Y-95445750D01*
X168105000Y-95445750D01*
X167946250Y-95287000D01*
X167644500Y-95283928D01*
X167520018Y-95296188D01*
X167400320Y-95332498D01*
X167290006Y-95391463D01*
X167193315Y-95470815D01*
X167113963Y-95567506D01*
X167054998Y-95677820D01*
X167018688Y-95797518D01*
X167006428Y-95922000D01*
X128386542Y-95922000D01*
X128421500Y-95746260D01*
X128421500Y-95453740D01*
X128364432Y-95166842D01*
X128252490Y-94896589D01*
X128089975Y-94653368D01*
X127883132Y-94446525D01*
X127708740Y-94330000D01*
X127883132Y-94213475D01*
X128089975Y-94006632D01*
X128252490Y-93763411D01*
X128364432Y-93493158D01*
X128421500Y-93206260D01*
X128421500Y-92913740D01*
X128364432Y-92626842D01*
X128252490Y-92356589D01*
X128089975Y-92113368D01*
X127883132Y-91906525D01*
X127708740Y-91790000D01*
X127883132Y-91673475D01*
X128089975Y-91466632D01*
X128140034Y-91391712D01*
X135707500Y-91391712D01*
X135707500Y-91615288D01*
X135751117Y-91834567D01*
X135836676Y-92041124D01*
X135960888Y-92227020D01*
X136118980Y-92385112D01*
X136304876Y-92509324D01*
X136511433Y-92594883D01*
X136730712Y-92638500D01*
X136954288Y-92638500D01*
X137173567Y-92594883D01*
X137380124Y-92509324D01*
X137566020Y-92385112D01*
X137685632Y-92265500D01*
X138075077Y-92265500D01*
X138112500Y-92269186D01*
X138149923Y-92265500D01*
X138149926Y-92265500D01*
X138261878Y-92254474D01*
X138405515Y-92210902D01*
X138537892Y-92140145D01*
X138653922Y-92044922D01*
X138677784Y-92015846D01*
X138828401Y-91865229D01*
X146865000Y-91865229D01*
X146865000Y-92482771D01*
X146985476Y-93088446D01*
X147221799Y-93658979D01*
X147564886Y-94172446D01*
X148001554Y-94609114D01*
X148515021Y-94952201D01*
X149085554Y-95188524D01*
X149691229Y-95309000D01*
X150308771Y-95309000D01*
X150914446Y-95188524D01*
X151484979Y-94952201D01*
X151998446Y-94609114D01*
X152435114Y-94172446D01*
X152778201Y-93658979D01*
X153014524Y-93088446D01*
X153135000Y-92482771D01*
X153135000Y-91865229D01*
X153014524Y-91259554D01*
X152778201Y-90689021D01*
X152435114Y-90175554D01*
X151998446Y-89738886D01*
X151484979Y-89395799D01*
X150914446Y-89159476D01*
X150308771Y-89039000D01*
X149691229Y-89039000D01*
X149085554Y-89159476D01*
X148515021Y-89395799D01*
X148001554Y-89738886D01*
X147564886Y-90175554D01*
X147221799Y-90689021D01*
X146985476Y-91259554D01*
X146865000Y-91865229D01*
X138828401Y-91865229D01*
X144460631Y-86233000D01*
X145016368Y-86233000D01*
X145135980Y-86352612D01*
X145321876Y-86476824D01*
X145528433Y-86562383D01*
X145564812Y-86569619D01*
X145401433Y-86602117D01*
X145194876Y-86687676D01*
X145008980Y-86811888D01*
X144850888Y-86969980D01*
X144726676Y-87155876D01*
X144641117Y-87362433D01*
X144597500Y-87581712D01*
X144597500Y-87805288D01*
X144641117Y-88024567D01*
X144726676Y-88231124D01*
X144850888Y-88417020D01*
X145008980Y-88575112D01*
X145194876Y-88699324D01*
X145401433Y-88784883D01*
X145620712Y-88828500D01*
X145844288Y-88828500D01*
X146063567Y-88784883D01*
X146270124Y-88699324D01*
X146456020Y-88575112D01*
X146614112Y-88417020D01*
X146738324Y-88231124D01*
X146823883Y-88024567D01*
X146867500Y-87805288D01*
X146867500Y-87636130D01*
X147324346Y-87179284D01*
X147353422Y-87155422D01*
X147413857Y-87081781D01*
X147448645Y-87039393D01*
X147519401Y-86907016D01*
X147519402Y-86907015D01*
X147562974Y-86763378D01*
X147574000Y-86651426D01*
X147574000Y-86651423D01*
X147577686Y-86614000D01*
X147574000Y-86576577D01*
X147574000Y-85547500D01*
X149017928Y-85547500D01*
X149030188Y-85671982D01*
X149066498Y-85791680D01*
X149125463Y-85901994D01*
X149204815Y-85998685D01*
X149301506Y-86078037D01*
X149411820Y-86137002D01*
X149531518Y-86173312D01*
X149656000Y-86185572D01*
X150095250Y-86182500D01*
X150254000Y-86023750D01*
X150254000Y-85087000D01*
X150508000Y-85087000D01*
X150508000Y-86023750D01*
X150666750Y-86182500D01*
X151106000Y-86185572D01*
X151230482Y-86173312D01*
X151350180Y-86137002D01*
X151460494Y-86078037D01*
X151557185Y-85998685D01*
X151636537Y-85901994D01*
X151695502Y-85791680D01*
X151731812Y-85671982D01*
X151744072Y-85547500D01*
X151741000Y-85245750D01*
X151582250Y-85087000D01*
X150508000Y-85087000D01*
X150254000Y-85087000D01*
X149179750Y-85087000D01*
X149021000Y-85245750D01*
X149017928Y-85547500D01*
X147574000Y-85547500D01*
X147574000Y-85044132D01*
X147693612Y-84924520D01*
X147817824Y-84738624D01*
X147903383Y-84532067D01*
X147947000Y-84312788D01*
X147947000Y-84089212D01*
X147903383Y-83869933D01*
X147817824Y-83663376D01*
X147693612Y-83477480D01*
X147535520Y-83319388D01*
X147349624Y-83195176D01*
X147143067Y-83109617D01*
X146923788Y-83066000D01*
X146700212Y-83066000D01*
X146480933Y-83109617D01*
X146274376Y-83195176D01*
X146088480Y-83319388D01*
X145930388Y-83477480D01*
X145806176Y-83663376D01*
X145720617Y-83869933D01*
X145677000Y-84089212D01*
X145677000Y-84312788D01*
X145684133Y-84348647D01*
X145528433Y-84379617D01*
X145321876Y-84465176D01*
X145135980Y-84589388D01*
X145016368Y-84709000D01*
X144182422Y-84709000D01*
X144144999Y-84705314D01*
X144107576Y-84709000D01*
X144107574Y-84709000D01*
X143995622Y-84720026D01*
X143851985Y-84763598D01*
X143719608Y-84834355D01*
X143603578Y-84929578D01*
X143579721Y-84958648D01*
X138860272Y-89678098D01*
X138866500Y-89646788D01*
X138866500Y-89477630D01*
X143762130Y-84582000D01*
X143790077Y-84582000D01*
X143827500Y-84585686D01*
X143864923Y-84582000D01*
X143864926Y-84582000D01*
X143976878Y-84570974D01*
X144120515Y-84527402D01*
X144252892Y-84456645D01*
X144368922Y-84361422D01*
X144392784Y-84332347D01*
X144532130Y-84193000D01*
X144701288Y-84193000D01*
X144920567Y-84149383D01*
X145127124Y-84063824D01*
X145313020Y-83939612D01*
X145471112Y-83781520D01*
X145595324Y-83595624D01*
X145680883Y-83389067D01*
X145724500Y-83169788D01*
X145724500Y-82946212D01*
X145680883Y-82726933D01*
X145606560Y-82547500D01*
X149017928Y-82547500D01*
X149017928Y-83222500D01*
X149034992Y-83395754D01*
X149085528Y-83562350D01*
X149167595Y-83715886D01*
X149278038Y-83850462D01*
X149284594Y-83855842D01*
X149204815Y-83921315D01*
X149125463Y-84018006D01*
X149066498Y-84128320D01*
X149030188Y-84248018D01*
X149017928Y-84372500D01*
X149021000Y-84674250D01*
X149179750Y-84833000D01*
X150254000Y-84833000D01*
X150254000Y-84813000D01*
X150508000Y-84813000D01*
X150508000Y-84833000D01*
X151582250Y-84833000D01*
X151741000Y-84674250D01*
X151744072Y-84372500D01*
X151731812Y-84248018D01*
X151695502Y-84128320D01*
X151636537Y-84018006D01*
X151557185Y-83921315D01*
X151477406Y-83855842D01*
X151483962Y-83850462D01*
X151594405Y-83715886D01*
X151676472Y-83562350D01*
X151727008Y-83395754D01*
X151744072Y-83222500D01*
X151744072Y-82547500D01*
X151739345Y-82499500D01*
X152446928Y-82499500D01*
X152459188Y-82623982D01*
X152495498Y-82743680D01*
X152554463Y-82853994D01*
X152633815Y-82950685D01*
X152730506Y-83030037D01*
X152840820Y-83089002D01*
X152960518Y-83125312D01*
X153085000Y-83137572D01*
X153524250Y-83134500D01*
X153683000Y-82975750D01*
X153683000Y-82039000D01*
X153937000Y-82039000D01*
X153937000Y-82975750D01*
X154095750Y-83134500D01*
X154535000Y-83137572D01*
X154659482Y-83125312D01*
X154779180Y-83089002D01*
X154889494Y-83030037D01*
X154986185Y-82950685D01*
X155065537Y-82853994D01*
X155124502Y-82743680D01*
X155160812Y-82623982D01*
X155173072Y-82499500D01*
X155170000Y-82197750D01*
X155011250Y-82039000D01*
X153937000Y-82039000D01*
X153683000Y-82039000D01*
X152608750Y-82039000D01*
X152450000Y-82197750D01*
X152446928Y-82499500D01*
X151739345Y-82499500D01*
X151727008Y-82374246D01*
X151676472Y-82207650D01*
X151594405Y-82054114D01*
X151483962Y-81919538D01*
X151444262Y-81886957D01*
X151472383Y-81819067D01*
X151516000Y-81599788D01*
X151516000Y-81376212D01*
X151472383Y-81156933D01*
X151386824Y-80950376D01*
X151262612Y-80764480D01*
X151104520Y-80606388D01*
X150918624Y-80482176D01*
X150712067Y-80396617D01*
X150492788Y-80353000D01*
X150269212Y-80353000D01*
X150049933Y-80396617D01*
X149843376Y-80482176D01*
X149657480Y-80606388D01*
X149499388Y-80764480D01*
X149375176Y-80950376D01*
X149289617Y-81156933D01*
X149246000Y-81376212D01*
X149246000Y-81599788D01*
X149289617Y-81819067D01*
X149317738Y-81886957D01*
X149278038Y-81919538D01*
X149167595Y-82054114D01*
X149085528Y-82207650D01*
X149034992Y-82374246D01*
X149017928Y-82547500D01*
X145606560Y-82547500D01*
X145595324Y-82520376D01*
X145471112Y-82334480D01*
X145313020Y-82176388D01*
X145127124Y-82052176D01*
X144920567Y-81966617D01*
X144701288Y-81923000D01*
X144477712Y-81923000D01*
X144258433Y-81966617D01*
X144051876Y-82052176D01*
X143865980Y-82176388D01*
X143707888Y-82334480D01*
X143583676Y-82520376D01*
X143498117Y-82726933D01*
X143454500Y-82946212D01*
X143454500Y-83055102D01*
X143446500Y-83054314D01*
X143409077Y-83058000D01*
X143409074Y-83058000D01*
X143297122Y-83069026D01*
X143153485Y-83112598D01*
X143106762Y-83137572D01*
X143021107Y-83183355D01*
X142978719Y-83218143D01*
X142905078Y-83278578D01*
X142881216Y-83307654D01*
X137788870Y-88400000D01*
X137619712Y-88400000D01*
X137400433Y-88443617D01*
X137193876Y-88529176D01*
X137007980Y-88653388D01*
X136849888Y-88811480D01*
X136725676Y-88997376D01*
X136640117Y-89203933D01*
X136596500Y-89423212D01*
X136596500Y-89646788D01*
X136640117Y-89866067D01*
X136725676Y-90072624D01*
X136849888Y-90258520D01*
X136961254Y-90369886D01*
X136954288Y-90368500D01*
X136730712Y-90368500D01*
X136511433Y-90412117D01*
X136304876Y-90497676D01*
X136118980Y-90621888D01*
X135960888Y-90779980D01*
X135836676Y-90965876D01*
X135751117Y-91172433D01*
X135707500Y-91391712D01*
X128140034Y-91391712D01*
X128252490Y-91223411D01*
X128364432Y-90953158D01*
X128421500Y-90666260D01*
X128421500Y-90373740D01*
X128364432Y-90086842D01*
X128252490Y-89816589D01*
X128089975Y-89573368D01*
X127883132Y-89366525D01*
X127639911Y-89204010D01*
X127369658Y-89092068D01*
X127082760Y-89035000D01*
X126790240Y-89035000D01*
X126503342Y-89092068D01*
X126233089Y-89204010D01*
X125989868Y-89366525D01*
X125783025Y-89573368D01*
X125620510Y-89816589D01*
X125508568Y-90086842D01*
X125451500Y-90373740D01*
X119377000Y-90373740D01*
X119377000Y-86145390D01*
X128289024Y-86145390D01*
X128333675Y-86292599D01*
X128458859Y-86555420D01*
X128632912Y-86788769D01*
X128849145Y-86983678D01*
X129099248Y-87132657D01*
X129373609Y-87229981D01*
X129603500Y-87109314D01*
X129603500Y-85915500D01*
X128410345Y-85915500D01*
X128289024Y-86145390D01*
X119377000Y-86145390D01*
X119377000Y-83605390D01*
X128289024Y-83605390D01*
X128333675Y-83752599D01*
X128458859Y-84015420D01*
X128632912Y-84248769D01*
X128849145Y-84443678D01*
X128974755Y-84518500D01*
X128849145Y-84593322D01*
X128632912Y-84788231D01*
X128458859Y-85021580D01*
X128333675Y-85284401D01*
X128289024Y-85431610D01*
X128410345Y-85661500D01*
X129603500Y-85661500D01*
X129603500Y-83375500D01*
X128410345Y-83375500D01*
X128289024Y-83605390D01*
X119377000Y-83605390D01*
X119377000Y-81065390D01*
X128289024Y-81065390D01*
X128333675Y-81212599D01*
X128458859Y-81475420D01*
X128632912Y-81708769D01*
X128849145Y-81903678D01*
X128974755Y-81978500D01*
X128849145Y-82053322D01*
X128632912Y-82248231D01*
X128458859Y-82481580D01*
X128333675Y-82744401D01*
X128289024Y-82891610D01*
X128410345Y-83121500D01*
X129603500Y-83121500D01*
X129603500Y-80835500D01*
X128410345Y-80835500D01*
X128289024Y-81065390D01*
X119377000Y-81065390D01*
X119377000Y-80351610D01*
X128289024Y-80351610D01*
X128410345Y-80581500D01*
X129603500Y-80581500D01*
X129603500Y-79387686D01*
X129857500Y-79387686D01*
X129857500Y-80581500D01*
X129877500Y-80581500D01*
X129877500Y-80835500D01*
X129857500Y-80835500D01*
X129857500Y-83121500D01*
X129877500Y-83121500D01*
X129877500Y-83375500D01*
X129857500Y-83375500D01*
X129857500Y-85661500D01*
X129877500Y-85661500D01*
X129877500Y-85915500D01*
X129857500Y-85915500D01*
X129857500Y-87109314D01*
X130087391Y-87229981D01*
X130361752Y-87132657D01*
X130611855Y-86983678D01*
X130808002Y-86806874D01*
X130830998Y-86882680D01*
X130889963Y-86992994D01*
X130969315Y-87089685D01*
X131066006Y-87169037D01*
X131176320Y-87228002D01*
X131296018Y-87264312D01*
X131420500Y-87276572D01*
X133120500Y-87276572D01*
X133244982Y-87264312D01*
X133364680Y-87228002D01*
X133474994Y-87169037D01*
X133571685Y-87089685D01*
X133651037Y-86992994D01*
X133710002Y-86882680D01*
X133746312Y-86762982D01*
X133758572Y-86638500D01*
X133758572Y-84938500D01*
X133746312Y-84814018D01*
X133710002Y-84694320D01*
X133651037Y-84584006D01*
X133571685Y-84487315D01*
X133474994Y-84407963D01*
X133364680Y-84348998D01*
X133292120Y-84326987D01*
X133423975Y-84195132D01*
X133586490Y-83951911D01*
X133698432Y-83681658D01*
X133755500Y-83394760D01*
X133755500Y-83102240D01*
X133698432Y-82815342D01*
X133586490Y-82545089D01*
X133423975Y-82301868D01*
X133217132Y-82095025D01*
X133042740Y-81978500D01*
X133217132Y-81861975D01*
X133423975Y-81655132D01*
X133586490Y-81411911D01*
X133698432Y-81141658D01*
X133755500Y-80854760D01*
X133755500Y-80562240D01*
X133736655Y-80467500D01*
X145715928Y-80467500D01*
X145728188Y-80591982D01*
X145764498Y-80711680D01*
X145823463Y-80821994D01*
X145902815Y-80918685D01*
X145999506Y-80998037D01*
X146109820Y-81057002D01*
X146229518Y-81093312D01*
X146354000Y-81105572D01*
X146793250Y-81102500D01*
X146952000Y-80943750D01*
X146952000Y-80007000D01*
X147206000Y-80007000D01*
X147206000Y-80943750D01*
X147364750Y-81102500D01*
X147804000Y-81105572D01*
X147928482Y-81093312D01*
X148048180Y-81057002D01*
X148158494Y-80998037D01*
X148255185Y-80918685D01*
X148334537Y-80821994D01*
X148393502Y-80711680D01*
X148429812Y-80591982D01*
X148442072Y-80467500D01*
X148439000Y-80165750D01*
X148280250Y-80007000D01*
X147206000Y-80007000D01*
X146952000Y-80007000D01*
X145877750Y-80007000D01*
X145719000Y-80165750D01*
X145715928Y-80467500D01*
X133736655Y-80467500D01*
X133698432Y-80275342D01*
X133586490Y-80005089D01*
X133423975Y-79761868D01*
X133217132Y-79555025D01*
X132973911Y-79392510D01*
X132703658Y-79280568D01*
X132416760Y-79223500D01*
X132124240Y-79223500D01*
X131837342Y-79280568D01*
X131567089Y-79392510D01*
X131323868Y-79555025D01*
X131117025Y-79761868D01*
X130999400Y-79937906D01*
X130828088Y-79708231D01*
X130611855Y-79513322D01*
X130361752Y-79364343D01*
X130087391Y-79267019D01*
X129857500Y-79387686D01*
X129603500Y-79387686D01*
X129373609Y-79267019D01*
X129099248Y-79364343D01*
X128849145Y-79513322D01*
X128632912Y-79708231D01*
X128458859Y-79941580D01*
X128333675Y-80204401D01*
X128289024Y-80351610D01*
X119377000Y-80351610D01*
X119377000Y-77929712D01*
X137231500Y-77929712D01*
X137231500Y-78153288D01*
X137275117Y-78372567D01*
X137360676Y-78579124D01*
X137484888Y-78765020D01*
X137642980Y-78923112D01*
X137828876Y-79047324D01*
X138035433Y-79132883D01*
X138254712Y-79176500D01*
X138478288Y-79176500D01*
X138697567Y-79132883D01*
X138904124Y-79047324D01*
X139090020Y-78923112D01*
X139209632Y-78803500D01*
X144011077Y-78803500D01*
X144048500Y-78807186D01*
X144085923Y-78803500D01*
X144085926Y-78803500D01*
X144197878Y-78792474D01*
X144341515Y-78748902D01*
X144473892Y-78678145D01*
X144589922Y-78582922D01*
X144613784Y-78553846D01*
X144659658Y-78507972D01*
X144673388Y-78528520D01*
X144831480Y-78686612D01*
X145017376Y-78810824D01*
X145223933Y-78896383D01*
X145443212Y-78940000D01*
X145666788Y-78940000D01*
X145852073Y-78903145D01*
X145823463Y-78938006D01*
X145764498Y-79048320D01*
X145728188Y-79168018D01*
X145715928Y-79292500D01*
X145719000Y-79594250D01*
X145877750Y-79753000D01*
X146952000Y-79753000D01*
X146952000Y-79733000D01*
X147206000Y-79733000D01*
X147206000Y-79753000D01*
X148280250Y-79753000D01*
X148308038Y-79725212D01*
X151151000Y-79725212D01*
X151151000Y-79948788D01*
X151194617Y-80168067D01*
X151280176Y-80374624D01*
X151404388Y-80560520D01*
X151562480Y-80718612D01*
X151748376Y-80842824D01*
X151954933Y-80928383D01*
X152174212Y-80972000D01*
X152397788Y-80972000D01*
X152583073Y-80935145D01*
X152554463Y-80970006D01*
X152495498Y-81080320D01*
X152459188Y-81200018D01*
X152446928Y-81324500D01*
X152450000Y-81626250D01*
X152608750Y-81785000D01*
X153683000Y-81785000D01*
X153683000Y-81765000D01*
X153937000Y-81765000D01*
X153937000Y-81785000D01*
X155011250Y-81785000D01*
X155170000Y-81626250D01*
X155173072Y-81324500D01*
X155160812Y-81200018D01*
X155124502Y-81080320D01*
X155065537Y-80970006D01*
X154986185Y-80873315D01*
X154906406Y-80807842D01*
X154912962Y-80802462D01*
X155023405Y-80667886D01*
X155105472Y-80514350D01*
X155156008Y-80347754D01*
X155173072Y-80174500D01*
X155173072Y-79499500D01*
X155156008Y-79326246D01*
X155105472Y-79159650D01*
X155023405Y-79006114D01*
X154912962Y-78871538D01*
X154778386Y-78761095D01*
X154624850Y-78679028D01*
X154458254Y-78628492D01*
X154285000Y-78611428D01*
X153335000Y-78611428D01*
X153161746Y-78628492D01*
X152995150Y-78679028D01*
X152841614Y-78761095D01*
X152778829Y-78812621D01*
X152617067Y-78745617D01*
X152397788Y-78702000D01*
X152174212Y-78702000D01*
X151954933Y-78745617D01*
X151748376Y-78831176D01*
X151562480Y-78955388D01*
X151404388Y-79113480D01*
X151280176Y-79299376D01*
X151194617Y-79505933D01*
X151151000Y-79725212D01*
X148308038Y-79725212D01*
X148439000Y-79594250D01*
X148442072Y-79292500D01*
X148429812Y-79168018D01*
X148393502Y-79048320D01*
X148334537Y-78938006D01*
X148255185Y-78841315D01*
X148175406Y-78775842D01*
X148181962Y-78770462D01*
X148292405Y-78635886D01*
X148374472Y-78482350D01*
X148425008Y-78315754D01*
X148442072Y-78142500D01*
X148442072Y-77467500D01*
X148425008Y-77294246D01*
X148374472Y-77127650D01*
X148292405Y-76974114D01*
X148181962Y-76839538D01*
X148047386Y-76729095D01*
X147893850Y-76647028D01*
X147727254Y-76596492D01*
X147554000Y-76579428D01*
X146604000Y-76579428D01*
X146586477Y-76581154D01*
X147021631Y-76146000D01*
X147190788Y-76146000D01*
X147410067Y-76102383D01*
X147616624Y-76016824D01*
X147802520Y-75892612D01*
X147960612Y-75734520D01*
X148084824Y-75548624D01*
X148170383Y-75342067D01*
X148214000Y-75122788D01*
X148214000Y-74899212D01*
X148170383Y-74679933D01*
X148084824Y-74473376D01*
X147960612Y-74287480D01*
X147802520Y-74129388D01*
X147616624Y-74005176D01*
X147410067Y-73919617D01*
X147190788Y-73876000D01*
X146967212Y-73876000D01*
X146747933Y-73919617D01*
X146541376Y-74005176D01*
X146355480Y-74129388D01*
X146197388Y-74287480D01*
X146073176Y-74473376D01*
X145987617Y-74679933D01*
X145944000Y-74899212D01*
X145944000Y-75068369D01*
X143732870Y-77279500D01*
X139209632Y-77279500D01*
X139090020Y-77159888D01*
X138904124Y-77035676D01*
X138697567Y-76950117D01*
X138478288Y-76906500D01*
X138254712Y-76906500D01*
X138035433Y-76950117D01*
X137828876Y-77035676D01*
X137642980Y-77159888D01*
X137484888Y-77317980D01*
X137360676Y-77503876D01*
X137275117Y-77710433D01*
X137231500Y-77929712D01*
X119377000Y-77929712D01*
X119377000Y-76403500D01*
X138984928Y-76403500D01*
X138997188Y-76527982D01*
X139033498Y-76647680D01*
X139092463Y-76757994D01*
X139171815Y-76854685D01*
X139268506Y-76934037D01*
X139378820Y-76993002D01*
X139498518Y-77029312D01*
X139623000Y-77041572D01*
X140062250Y-77038500D01*
X140221000Y-76879750D01*
X140221000Y-75943000D01*
X140475000Y-75943000D01*
X140475000Y-76879750D01*
X140633750Y-77038500D01*
X141073000Y-77041572D01*
X141197482Y-77029312D01*
X141317180Y-76993002D01*
X141427494Y-76934037D01*
X141524185Y-76854685D01*
X141603537Y-76757994D01*
X141662502Y-76647680D01*
X141698812Y-76527982D01*
X141711072Y-76403500D01*
X141708000Y-76101750D01*
X141549250Y-75943000D01*
X140475000Y-75943000D01*
X140221000Y-75943000D01*
X139146750Y-75943000D01*
X138988000Y-76101750D01*
X138984928Y-76403500D01*
X119377000Y-76403500D01*
X119377000Y-73403500D01*
X138984928Y-73403500D01*
X138984928Y-74078500D01*
X139001992Y-74251754D01*
X139052528Y-74418350D01*
X139134595Y-74571886D01*
X139245038Y-74706462D01*
X139251594Y-74711842D01*
X139171815Y-74777315D01*
X139092463Y-74874006D01*
X139033498Y-74984320D01*
X138997188Y-75104018D01*
X138984928Y-75228500D01*
X138988000Y-75530250D01*
X139146750Y-75689000D01*
X140221000Y-75689000D01*
X140221000Y-75669000D01*
X140475000Y-75669000D01*
X140475000Y-75689000D01*
X141549250Y-75689000D01*
X141708000Y-75530250D01*
X141711072Y-75228500D01*
X141698812Y-75104018D01*
X141662502Y-74984320D01*
X141603537Y-74874006D01*
X141524185Y-74777315D01*
X141444406Y-74711842D01*
X141450962Y-74706462D01*
X141459698Y-74695817D01*
X141569978Y-74741496D01*
X141789257Y-74785113D01*
X142012833Y-74785113D01*
X142232112Y-74741496D01*
X142438669Y-74655937D01*
X142624565Y-74531725D01*
X142782657Y-74373633D01*
X142906869Y-74187737D01*
X142963252Y-74051616D01*
X143673466Y-73341403D01*
X143793993Y-73304841D01*
X143973797Y-73208734D01*
X144131396Y-73079396D01*
X144163807Y-73039903D01*
X144363710Y-72840000D01*
X144421411Y-72840000D01*
X144688989Y-72786775D01*
X144941043Y-72682371D01*
X145167886Y-72530799D01*
X145360799Y-72337886D01*
X145512371Y-72111043D01*
X145616775Y-71858989D01*
X145670000Y-71591411D01*
X145670000Y-71323500D01*
X150795928Y-71323500D01*
X150808188Y-71447982D01*
X150844498Y-71567680D01*
X150903463Y-71677994D01*
X150982815Y-71774685D01*
X151079506Y-71854037D01*
X151189820Y-71913002D01*
X151309518Y-71949312D01*
X151434000Y-71961572D01*
X151873250Y-71958500D01*
X152032000Y-71799750D01*
X152032000Y-70863000D01*
X150957750Y-70863000D01*
X150799000Y-71021750D01*
X150795928Y-71323500D01*
X145670000Y-71323500D01*
X145670000Y-71318589D01*
X145616775Y-71051011D01*
X145512371Y-70798957D01*
X145360799Y-70572114D01*
X145167886Y-70379201D01*
X144941043Y-70227629D01*
X144688989Y-70123225D01*
X144525920Y-70090788D01*
X142758632Y-68323500D01*
X150795928Y-68323500D01*
X150795928Y-68998500D01*
X150812992Y-69171754D01*
X150863528Y-69338350D01*
X150945595Y-69491886D01*
X151056038Y-69626462D01*
X151062594Y-69631842D01*
X150982815Y-69697315D01*
X150903463Y-69794006D01*
X150844498Y-69904320D01*
X150808188Y-70024018D01*
X150795928Y-70148500D01*
X150799000Y-70450250D01*
X150957750Y-70609000D01*
X152032000Y-70609000D01*
X152032000Y-70589000D01*
X152286000Y-70589000D01*
X152286000Y-70609000D01*
X152306000Y-70609000D01*
X152306000Y-70863000D01*
X152286000Y-70863000D01*
X152286000Y-71799750D01*
X152444750Y-71958500D01*
X152884000Y-71961572D01*
X153008482Y-71949312D01*
X153128180Y-71913002D01*
X153238494Y-71854037D01*
X153335185Y-71774685D01*
X153414537Y-71677994D01*
X153473502Y-71567680D01*
X153509812Y-71447982D01*
X153522072Y-71323500D01*
X153521347Y-71252270D01*
X153535129Y-71285543D01*
X153686701Y-71512386D01*
X153879614Y-71705299D01*
X154106457Y-71856871D01*
X154358511Y-71961275D01*
X154521581Y-71993712D01*
X156570009Y-74042141D01*
X156605551Y-74085449D01*
X156659091Y-74129388D01*
X156778377Y-74227284D01*
X156975553Y-74332676D01*
X157189501Y-74397577D01*
X157412000Y-74419491D01*
X157467752Y-74414000D01*
X160622714Y-74414000D01*
X160760957Y-74506371D01*
X161013011Y-74610775D01*
X161280589Y-74664000D01*
X161553411Y-74664000D01*
X161820989Y-74610775D01*
X162073043Y-74506371D01*
X162299886Y-74354799D01*
X162492799Y-74161886D01*
X162644371Y-73935043D01*
X162748775Y-73682989D01*
X162802000Y-73415411D01*
X162802000Y-73142589D01*
X162748775Y-72875011D01*
X162644371Y-72622957D01*
X162492799Y-72396114D01*
X162299886Y-72203201D01*
X162073043Y-72051629D01*
X161820989Y-71947225D01*
X161553411Y-71894000D01*
X161280589Y-71894000D01*
X161013011Y-71947225D01*
X160760957Y-72051629D01*
X160622714Y-72144000D01*
X157882132Y-72144000D01*
X156126712Y-70388581D01*
X156094275Y-70225511D01*
X155989871Y-69973457D01*
X155838299Y-69746614D01*
X155645386Y-69553701D01*
X155418543Y-69402129D01*
X155166489Y-69297725D01*
X154910615Y-69246828D01*
X154942824Y-69198624D01*
X155028383Y-68992067D01*
X155072000Y-68772788D01*
X155072000Y-68549212D01*
X155028383Y-68329933D01*
X154942824Y-68123376D01*
X154818612Y-67937480D01*
X154660520Y-67779388D01*
X154474624Y-67655176D01*
X154268067Y-67569617D01*
X154048788Y-67526000D01*
X153825212Y-67526000D01*
X153605933Y-67569617D01*
X153399376Y-67655176D01*
X153289235Y-67728770D01*
X153261962Y-67695538D01*
X153127386Y-67585095D01*
X152973850Y-67503028D01*
X152807254Y-67452492D01*
X152634000Y-67435428D01*
X151684000Y-67435428D01*
X151510746Y-67452492D01*
X151344150Y-67503028D01*
X151190614Y-67585095D01*
X151056038Y-67695538D01*
X150945595Y-67830114D01*
X150863528Y-67983650D01*
X150812992Y-68150246D01*
X150795928Y-68323500D01*
X142758632Y-68323500D01*
X142474212Y-68039081D01*
X142441775Y-67876011D01*
X142337371Y-67623957D01*
X142185799Y-67397114D01*
X141992886Y-67204201D01*
X141766043Y-67052629D01*
X141513989Y-66948225D01*
X141246411Y-66895000D01*
X140973589Y-66895000D01*
X140706011Y-66948225D01*
X140453957Y-67052629D01*
X140227114Y-67204201D01*
X140034201Y-67397114D01*
X139882629Y-67623957D01*
X139778225Y-67876011D01*
X139725000Y-68143589D01*
X139725000Y-68416411D01*
X139778225Y-68683989D01*
X139882629Y-68936043D01*
X140034201Y-69162886D01*
X140227114Y-69355799D01*
X140453957Y-69507371D01*
X140706011Y-69611775D01*
X140869081Y-69644212D01*
X142678089Y-71453220D01*
X142629360Y-71479266D01*
X142521628Y-71567680D01*
X142471762Y-71608604D01*
X142439355Y-71648092D01*
X141499542Y-72587906D01*
X141363421Y-72644289D01*
X141323520Y-72670950D01*
X141316386Y-72665095D01*
X141162850Y-72583028D01*
X140996254Y-72532492D01*
X140823000Y-72515428D01*
X139873000Y-72515428D01*
X139699746Y-72532492D01*
X139533150Y-72583028D01*
X139379614Y-72665095D01*
X139245038Y-72775538D01*
X139134595Y-72910114D01*
X139052528Y-73063650D01*
X139001992Y-73230246D01*
X138984928Y-73403500D01*
X119377000Y-73403500D01*
X119377000Y-64879992D01*
X119391866Y-64786129D01*
X119430418Y-64710467D01*
X119490467Y-64650418D01*
X119566129Y-64611866D01*
X119659992Y-64597000D01*
X129915000Y-64597000D01*
X129934867Y-64595436D01*
X130058474Y-64575859D01*
X130082563Y-64569573D01*
X130096264Y-64563581D01*
X130207771Y-64506765D01*
X130228739Y-64493342D01*
X130239917Y-64483410D01*
X130328410Y-64394917D01*
X130344204Y-64375671D01*
X130351765Y-64362771D01*
X130408581Y-64251264D01*
X130417655Y-64228080D01*
X130420859Y-64213474D01*
X130440436Y-64089867D01*
X130442000Y-64070000D01*
X130442000Y-57259992D01*
X130456866Y-57166129D01*
X130495418Y-57090467D01*
X130555467Y-57030418D01*
X130631129Y-56991866D01*
X130724992Y-56977000D01*
X131429370Y-56977000D01*
X130857649Y-57548721D01*
G37*
%TD.AperFunction*%
%TD*%
M02*
