M48
; DRILL file {KiCad 5.1.10-1.fc33} date Mon Jun 14 19:52:58 2021
; FORMAT={-:-/ absolute / inch / decimal}
; #@! TF.CreationDate,2021-06-14T19:52:58+02:00
; #@! TF.GenerationSoftware,Kicad,Pcbnew,5.1.10-1.fc33
; #@! TF.FileFunction,Plated,1,2,PTH
FMAT,2
INCH
T1C0.0197
T2C0.0315
T3C0.0394
%
G90
G05
T1
X4.75Y-3.4
X4.75Y-3.7
X4.75Y-4.675
X4.75Y-4.95
X4.75Y-5.125
X4.775Y-4.025
X4.875Y-3.125
X4.95Y-5.125
X5.05Y-2.875
X5.075Y-2.725
X5.125Y-4.025
X5.2Y-5.125
X5.205Y-3.835
X5.205Y-4.515
X5.2305Y-2.3132
X5.275Y-3.675
X5.375Y-3.525
X5.375Y-3.85
X5.3805Y-2.3132
X5.3805Y-2.3682
X5.3805Y-2.4332
X5.415Y-4.52
X5.425Y-2.875
X5.445Y-3.35
X5.4455Y-2.3132
X5.45Y-5.125
X5.49Y-4.615
X5.5205Y-3.2632
X5.5255Y-2.7532
X5.5355Y-3.1132
X5.545Y-4.3625
X5.55Y-3.2
X5.55Y-3.4
X5.5555Y-2.3132
X5.5605Y-3.0632
X5.5755Y-3.1482
X5.5867Y-2.8996
X5.6555Y-2.3132
X5.6712Y-3.2632
X5.6905Y-2.8882
X5.7Y-5.125
X5.7145Y-3.2192
X5.725Y-3.475
X5.7305Y-3.0632
X5.7305Y-3.35
X5.7405Y-2.9232
X5.75Y-3.85
X5.7555Y-2.3132
X5.775Y-4.325
X5.7805Y-3.4
X5.7905Y-2.9532
X5.8Y-4.55
X5.8Y-4.85
X5.8405Y-2.6005
X5.8555Y-2.3132
X5.875Y-4.025
X5.9Y-2.875
X5.9188Y-2.4749
X5.9205Y-3.2082
X5.925Y-5.125
X5.9355Y-2.5782
X5.9555Y-2.3132
X5.9955Y-3.1432
X6.0Y-3.95
X6.025Y-4.2
X6.05Y-2.875
X6.0555Y-2.2882
X6.0605Y-2.7032
X6.0645Y-3.0762
X6.125Y-4.55
X6.125Y-5.125
X6.1555Y-2.2882
X6.1605Y-2.9782
X6.2385Y-2.6832
X6.2555Y-2.2882
X6.3415Y-2.9622
X6.3555Y-2.2882
X6.375Y-5.125
X6.4Y-4.55
X6.4805Y-2.2882
X6.525Y-3.05
X6.575Y-2.525
X6.6055Y-2.2882
X6.625Y-5.125
X6.7Y-2.675
X6.775Y-3.3
X6.825Y-2.8
X6.9Y-5.125
X6.925Y-2.625
X7.05Y-2.75
X7.05Y-3.0
X7.075Y-4.4
X7.075Y-4.7
X7.075Y-4.975
T2
X4.7555Y-2.8132
X4.8555Y-2.5787
X5.4155Y-2.6382
X5.5555Y-2.6882
X5.6805Y-2.8132
X6.093Y-2.7807
X6.2555Y-3.8882
X6.2555Y-3.9882
X6.2555Y-4.0882
X6.2555Y-4.1882
X6.3555Y-3.7882
X6.3555Y-3.8882
X6.3555Y-3.9882
X6.3555Y-4.0882
X6.3555Y-4.1882
X6.3555Y-4.2882
X6.3855Y-2.8132
X6.4555Y-3.7882
X6.4555Y-3.8882
X6.4555Y-4.1882
X6.4555Y-4.2882
X6.5555Y-3.7882
X6.5555Y-3.8882
X6.5555Y-4.1882
X6.5555Y-4.2882
X6.6555Y-3.7882
X6.6555Y-3.8882
X6.6555Y-4.1882
X6.6555Y-4.2882
X6.7555Y-3.7882
X6.7555Y-3.8882
X6.7555Y-3.9882
X6.7555Y-4.0882
X6.7555Y-4.1882
X6.7555Y-4.2882
X6.8555Y-3.8882
X6.8555Y-3.9882
X6.8555Y-4.0882
X6.8555Y-4.1882
X6.9405Y-3.5432
T3
X4.9805Y-3.2388
X4.9805Y-3.3388
X4.9805Y-3.4388
X4.9805Y-3.5388
X4.9805Y-3.6388
X4.9805Y-3.7388
X4.9805Y-3.8388
X4.9805Y-3.9388
X4.9805Y-4.1138
X4.9805Y-4.2138
X4.9805Y-4.3138
X4.9805Y-4.4138
X4.9805Y-4.5138
X4.9805Y-4.6138
X5.1Y-4.8
X5.1Y-4.9
X5.2Y-4.8
X5.2Y-4.9
T0
M30
