%TF.GenerationSoftware,KiCad,Pcbnew,5.1.10-1.fc33*%
%TF.CreationDate,2021-06-14T19:53:07+02:00*%
%TF.ProjectId,xecar524,78656361-7235-4323-942e-6b696361645f,rev?*%
%TF.SameCoordinates,Original*%
%TF.FileFunction,Soldermask,Top*%
%TF.FilePolarity,Negative*%
%FSLAX46Y46*%
G04 Gerber Fmt 4.6, Leading zero omitted, Abs format (unit mm)*
G04 Created by KiCad (PCBNEW 5.1.10-1.fc33) date 2021-06-14 19:53:07*
%MOMM*%
%LPD*%
G01*
G04 APERTURE LIST*
%ADD10O,1.700000X1.700000*%
%ADD11R,1.700000X1.700000*%
%ADD12C,1.422400*%
%ADD13R,1.422400X1.422400*%
%ADD14C,5.000000*%
%ADD15R,1.300000X0.900000*%
%ADD16C,0.100000*%
G04 APERTURE END LIST*
D10*
%TO.C,J3*%
X129540000Y-121920000D03*
X132080000Y-121920000D03*
X129540000Y-124460000D03*
D11*
X132080000Y-124460000D03*
%TD*%
%TO.C,R17*%
G36*
G01*
X139665000Y-121469999D02*
X139665000Y-122370001D01*
G75*
G02*
X139415001Y-122620000I-249999J0D01*
G01*
X138714999Y-122620000D01*
G75*
G02*
X138465000Y-122370001I0J249999D01*
G01*
X138465000Y-121469999D01*
G75*
G02*
X138714999Y-121220000I249999J0D01*
G01*
X139415001Y-121220000D01*
G75*
G02*
X139665000Y-121469999I0J-249999D01*
G01*
G37*
G36*
G01*
X141665000Y-121469999D02*
X141665000Y-122370001D01*
G75*
G02*
X141415001Y-122620000I-249999J0D01*
G01*
X140714999Y-122620000D01*
G75*
G02*
X140465000Y-122370001I0J249999D01*
G01*
X140465000Y-121469999D01*
G75*
G02*
X140714999Y-121220000I249999J0D01*
G01*
X141415001Y-121220000D01*
G75*
G02*
X141665000Y-121469999I0J-249999D01*
G01*
G37*
%TD*%
%TO.C,R16*%
G36*
G01*
X139665000Y-124009999D02*
X139665000Y-124910001D01*
G75*
G02*
X139415001Y-125160000I-249999J0D01*
G01*
X138714999Y-125160000D01*
G75*
G02*
X138465000Y-124910001I0J249999D01*
G01*
X138465000Y-124009999D01*
G75*
G02*
X138714999Y-123760000I249999J0D01*
G01*
X139415001Y-123760000D01*
G75*
G02*
X139665000Y-124009999I0J-249999D01*
G01*
G37*
G36*
G01*
X141665000Y-124009999D02*
X141665000Y-124910001D01*
G75*
G02*
X141415001Y-125160000I-249999J0D01*
G01*
X140714999Y-125160000D01*
G75*
G02*
X140465000Y-124910001I0J249999D01*
G01*
X140465000Y-124009999D01*
G75*
G02*
X140714999Y-123760000I249999J0D01*
G01*
X141415001Y-123760000D01*
G75*
G02*
X141665000Y-124009999I0J-249999D01*
G01*
G37*
%TD*%
%TO.C,R15*%
G36*
G01*
X124057000Y-76592999D02*
X124057000Y-77493001D01*
G75*
G02*
X123807001Y-77743000I-249999J0D01*
G01*
X123106999Y-77743000D01*
G75*
G02*
X122857000Y-77493001I0J249999D01*
G01*
X122857000Y-76592999D01*
G75*
G02*
X123106999Y-76343000I249999J0D01*
G01*
X123807001Y-76343000D01*
G75*
G02*
X124057000Y-76592999I0J-249999D01*
G01*
G37*
G36*
G01*
X126057000Y-76592999D02*
X126057000Y-77493001D01*
G75*
G02*
X125807001Y-77743000I-249999J0D01*
G01*
X125106999Y-77743000D01*
G75*
G02*
X124857000Y-77493001I0J249999D01*
G01*
X124857000Y-76592999D01*
G75*
G02*
X125106999Y-76343000I249999J0D01*
G01*
X125807001Y-76343000D01*
G75*
G02*
X126057000Y-76592999I0J-249999D01*
G01*
G37*
%TD*%
%TO.C,R14*%
G36*
G01*
X124057000Y-74433999D02*
X124057000Y-75334001D01*
G75*
G02*
X123807001Y-75584000I-249999J0D01*
G01*
X123106999Y-75584000D01*
G75*
G02*
X122857000Y-75334001I0J249999D01*
G01*
X122857000Y-74433999D01*
G75*
G02*
X123106999Y-74184000I249999J0D01*
G01*
X123807001Y-74184000D01*
G75*
G02*
X124057000Y-74433999I0J-249999D01*
G01*
G37*
G36*
G01*
X126057000Y-74433999D02*
X126057000Y-75334001D01*
G75*
G02*
X125807001Y-75584000I-249999J0D01*
G01*
X125106999Y-75584000D01*
G75*
G02*
X124857000Y-75334001I0J249999D01*
G01*
X124857000Y-74433999D01*
G75*
G02*
X125106999Y-74184000I249999J0D01*
G01*
X125807001Y-74184000D01*
G75*
G02*
X126057000Y-74433999I0J-249999D01*
G01*
G37*
%TD*%
%TO.C,D3*%
G36*
G01*
X120095000Y-76592999D02*
X120095000Y-77493001D01*
G75*
G02*
X119845001Y-77743000I-249999J0D01*
G01*
X119194999Y-77743000D01*
G75*
G02*
X118945000Y-77493001I0J249999D01*
G01*
X118945000Y-76592999D01*
G75*
G02*
X119194999Y-76343000I249999J0D01*
G01*
X119845001Y-76343000D01*
G75*
G02*
X120095000Y-76592999I0J-249999D01*
G01*
G37*
G36*
G01*
X122145000Y-76592999D02*
X122145000Y-77493001D01*
G75*
G02*
X121895001Y-77743000I-249999J0D01*
G01*
X121244999Y-77743000D01*
G75*
G02*
X120995000Y-77493001I0J249999D01*
G01*
X120995000Y-76592999D01*
G75*
G02*
X121244999Y-76343000I249999J0D01*
G01*
X121895001Y-76343000D01*
G75*
G02*
X122145000Y-76592999I0J-249999D01*
G01*
G37*
%TD*%
%TO.C,D2*%
G36*
G01*
X120095000Y-74433999D02*
X120095000Y-75334001D01*
G75*
G02*
X119845001Y-75584000I-249999J0D01*
G01*
X119194999Y-75584000D01*
G75*
G02*
X118945000Y-75334001I0J249999D01*
G01*
X118945000Y-74433999D01*
G75*
G02*
X119194999Y-74184000I249999J0D01*
G01*
X119845001Y-74184000D01*
G75*
G02*
X120095000Y-74433999I0J-249999D01*
G01*
G37*
G36*
G01*
X122145000Y-74433999D02*
X122145000Y-75334001D01*
G75*
G02*
X121895001Y-75584000I-249999J0D01*
G01*
X121244999Y-75584000D01*
G75*
G02*
X120995000Y-75334001I0J249999D01*
G01*
X120995000Y-74433999D01*
G75*
G02*
X121244999Y-74184000I249999J0D01*
G01*
X121895001Y-74184000D01*
G75*
G02*
X122145000Y-74433999I0J-249999D01*
G01*
G37*
%TD*%
%TO.C,C11*%
G36*
G01*
X136193000Y-64510000D02*
X134343000Y-64510000D01*
G75*
G02*
X134093000Y-64260000I0J250000D01*
G01*
X134093000Y-63260000D01*
G75*
G02*
X134343000Y-63010000I250000J0D01*
G01*
X136193000Y-63010000D01*
G75*
G02*
X136443000Y-63260000I0J-250000D01*
G01*
X136443000Y-64260000D01*
G75*
G02*
X136193000Y-64510000I-250000J0D01*
G01*
G37*
G36*
G01*
X136193000Y-67760000D02*
X134343000Y-67760000D01*
G75*
G02*
X134093000Y-67510000I0J250000D01*
G01*
X134093000Y-66510000D01*
G75*
G02*
X134343000Y-66260000I250000J0D01*
G01*
X136193000Y-66260000D01*
G75*
G02*
X136443000Y-66510000I0J-250000D01*
G01*
X136443000Y-67510000D01*
G75*
G02*
X136193000Y-67760000I-250000J0D01*
G01*
G37*
%TD*%
D12*
%TO.C,U4*%
X171590000Y-108920000D03*
X169050000Y-108920000D03*
X166510000Y-108920000D03*
X163970000Y-108920000D03*
X169050000Y-106380000D03*
X166510000Y-106380000D03*
X163970000Y-106380000D03*
X161430000Y-106380000D03*
X158890000Y-106380000D03*
X158890000Y-103840000D03*
X158890000Y-101300000D03*
X158890000Y-98760000D03*
X161430000Y-108920000D03*
X161430000Y-103840000D03*
X161430000Y-101300000D03*
X161430000Y-98760000D03*
X161430000Y-96220000D03*
X163970000Y-96220000D03*
X166510000Y-96220000D03*
X169050000Y-96220000D03*
X171590000Y-96220000D03*
X163970000Y-98760000D03*
X166510000Y-98760000D03*
X169050000Y-98760000D03*
X171590000Y-98760000D03*
X174130000Y-106380000D03*
X174130000Y-103840000D03*
X174130000Y-98760000D03*
X174130000Y-101300000D03*
X171590000Y-106380000D03*
X171590000Y-101300000D03*
D13*
X171590000Y-103840000D03*
%TD*%
%TO.C,R13*%
G36*
G01*
X134090000Y-75449999D02*
X134090000Y-76350001D01*
G75*
G02*
X133840001Y-76600000I-249999J0D01*
G01*
X133139999Y-76600000D01*
G75*
G02*
X132890000Y-76350001I0J249999D01*
G01*
X132890000Y-75449999D01*
G75*
G02*
X133139999Y-75200000I249999J0D01*
G01*
X133840001Y-75200000D01*
G75*
G02*
X134090000Y-75449999I0J-249999D01*
G01*
G37*
G36*
G01*
X136090000Y-75449999D02*
X136090000Y-76350001D01*
G75*
G02*
X135840001Y-76600000I-249999J0D01*
G01*
X135139999Y-76600000D01*
G75*
G02*
X134890000Y-76350001I0J249999D01*
G01*
X134890000Y-75449999D01*
G75*
G02*
X135139999Y-75200000I249999J0D01*
G01*
X135840001Y-75200000D01*
G75*
G02*
X136090000Y-75449999I0J-249999D01*
G01*
G37*
%TD*%
%TO.C,R12*%
G36*
G01*
X134090000Y-77481999D02*
X134090000Y-78382001D01*
G75*
G02*
X133840001Y-78632000I-249999J0D01*
G01*
X133139999Y-78632000D01*
G75*
G02*
X132890000Y-78382001I0J249999D01*
G01*
X132890000Y-77481999D01*
G75*
G02*
X133139999Y-77232000I249999J0D01*
G01*
X133840001Y-77232000D01*
G75*
G02*
X134090000Y-77481999I0J-249999D01*
G01*
G37*
G36*
G01*
X136090000Y-77481999D02*
X136090000Y-78382001D01*
G75*
G02*
X135840001Y-78632000I-249999J0D01*
G01*
X135139999Y-78632000D01*
G75*
G02*
X134890000Y-78382001I0J249999D01*
G01*
X134890000Y-77481999D01*
G75*
G02*
X135139999Y-77232000I249999J0D01*
G01*
X135840001Y-77232000D01*
G75*
G02*
X136090000Y-77481999I0J-249999D01*
G01*
G37*
%TD*%
%TO.C,R11*%
G36*
G01*
X134122000Y-79513999D02*
X134122000Y-80414001D01*
G75*
G02*
X133872001Y-80664000I-249999J0D01*
G01*
X133171999Y-80664000D01*
G75*
G02*
X132922000Y-80414001I0J249999D01*
G01*
X132922000Y-79513999D01*
G75*
G02*
X133171999Y-79264000I249999J0D01*
G01*
X133872001Y-79264000D01*
G75*
G02*
X134122000Y-79513999I0J-249999D01*
G01*
G37*
G36*
G01*
X136122000Y-79513999D02*
X136122000Y-80414001D01*
G75*
G02*
X135872001Y-80664000I-249999J0D01*
G01*
X135171999Y-80664000D01*
G75*
G02*
X134922000Y-80414001I0J249999D01*
G01*
X134922000Y-79513999D01*
G75*
G02*
X135171999Y-79264000I249999J0D01*
G01*
X135872001Y-79264000D01*
G75*
G02*
X136122000Y-79513999I0J-249999D01*
G01*
G37*
%TD*%
%TO.C,R10*%
G36*
G01*
X134090000Y-81545999D02*
X134090000Y-82446001D01*
G75*
G02*
X133840001Y-82696000I-249999J0D01*
G01*
X133139999Y-82696000D01*
G75*
G02*
X132890000Y-82446001I0J249999D01*
G01*
X132890000Y-81545999D01*
G75*
G02*
X133139999Y-81296000I249999J0D01*
G01*
X133840001Y-81296000D01*
G75*
G02*
X134090000Y-81545999I0J-249999D01*
G01*
G37*
G36*
G01*
X136090000Y-81545999D02*
X136090000Y-82446001D01*
G75*
G02*
X135840001Y-82696000I-249999J0D01*
G01*
X135139999Y-82696000D01*
G75*
G02*
X134890000Y-82446001I0J249999D01*
G01*
X134890000Y-81545999D01*
G75*
G02*
X135139999Y-81296000I249999J0D01*
G01*
X135840001Y-81296000D01*
G75*
G02*
X136090000Y-81545999I0J-249999D01*
G01*
G37*
%TD*%
%TO.C,R9*%
G36*
G01*
X134090000Y-83577999D02*
X134090000Y-84478001D01*
G75*
G02*
X133840001Y-84728000I-249999J0D01*
G01*
X133139999Y-84728000D01*
G75*
G02*
X132890000Y-84478001I0J249999D01*
G01*
X132890000Y-83577999D01*
G75*
G02*
X133139999Y-83328000I249999J0D01*
G01*
X133840001Y-83328000D01*
G75*
G02*
X134090000Y-83577999I0J-249999D01*
G01*
G37*
G36*
G01*
X136090000Y-83577999D02*
X136090000Y-84478001D01*
G75*
G02*
X135840001Y-84728000I-249999J0D01*
G01*
X135139999Y-84728000D01*
G75*
G02*
X134890000Y-84478001I0J249999D01*
G01*
X134890000Y-83577999D01*
G75*
G02*
X135139999Y-83328000I249999J0D01*
G01*
X135840001Y-83328000D01*
G75*
G02*
X136090000Y-83577999I0J-249999D01*
G01*
G37*
%TD*%
%TO.C,R8*%
G36*
G01*
X134090000Y-85609999D02*
X134090000Y-86510001D01*
G75*
G02*
X133840001Y-86760000I-249999J0D01*
G01*
X133139999Y-86760000D01*
G75*
G02*
X132890000Y-86510001I0J249999D01*
G01*
X132890000Y-85609999D01*
G75*
G02*
X133139999Y-85360000I249999J0D01*
G01*
X133840001Y-85360000D01*
G75*
G02*
X134090000Y-85609999I0J-249999D01*
G01*
G37*
G36*
G01*
X136090000Y-85609999D02*
X136090000Y-86510001D01*
G75*
G02*
X135840001Y-86760000I-249999J0D01*
G01*
X135139999Y-86760000D01*
G75*
G02*
X134890000Y-86510001I0J249999D01*
G01*
X134890000Y-85609999D01*
G75*
G02*
X135139999Y-85360000I249999J0D01*
G01*
X135840001Y-85360000D01*
G75*
G02*
X136090000Y-85609999I0J-249999D01*
G01*
G37*
%TD*%
%TO.C,R7*%
G36*
G01*
X134090000Y-99594999D02*
X134090000Y-100495001D01*
G75*
G02*
X133840001Y-100745000I-249999J0D01*
G01*
X133139999Y-100745000D01*
G75*
G02*
X132890000Y-100495001I0J249999D01*
G01*
X132890000Y-99594999D01*
G75*
G02*
X133139999Y-99345000I249999J0D01*
G01*
X133840001Y-99345000D01*
G75*
G02*
X134090000Y-99594999I0J-249999D01*
G01*
G37*
G36*
G01*
X136090000Y-99594999D02*
X136090000Y-100495001D01*
G75*
G02*
X135840001Y-100745000I-249999J0D01*
G01*
X135139999Y-100745000D01*
G75*
G02*
X134890000Y-100495001I0J249999D01*
G01*
X134890000Y-99594999D01*
G75*
G02*
X135139999Y-99345000I249999J0D01*
G01*
X135840001Y-99345000D01*
G75*
G02*
X136090000Y-99594999I0J-249999D01*
G01*
G37*
%TD*%
%TO.C,R6*%
G36*
G01*
X132820000Y-104039999D02*
X132820000Y-104940001D01*
G75*
G02*
X132570001Y-105190000I-249999J0D01*
G01*
X131869999Y-105190000D01*
G75*
G02*
X131620000Y-104940001I0J249999D01*
G01*
X131620000Y-104039999D01*
G75*
G02*
X131869999Y-103790000I249999J0D01*
G01*
X132570001Y-103790000D01*
G75*
G02*
X132820000Y-104039999I0J-249999D01*
G01*
G37*
G36*
G01*
X134820000Y-104039999D02*
X134820000Y-104940001D01*
G75*
G02*
X134570001Y-105190000I-249999J0D01*
G01*
X133869999Y-105190000D01*
G75*
G02*
X133620000Y-104940001I0J249999D01*
G01*
X133620000Y-104039999D01*
G75*
G02*
X133869999Y-103790000I249999J0D01*
G01*
X134570001Y-103790000D01*
G75*
G02*
X134820000Y-104039999I0J-249999D01*
G01*
G37*
%TD*%
%TO.C,R5*%
G36*
G01*
X132820000Y-106579999D02*
X132820000Y-107480001D01*
G75*
G02*
X132570001Y-107730000I-249999J0D01*
G01*
X131869999Y-107730000D01*
G75*
G02*
X131620000Y-107480001I0J249999D01*
G01*
X131620000Y-106579999D01*
G75*
G02*
X131869999Y-106330000I249999J0D01*
G01*
X132570001Y-106330000D01*
G75*
G02*
X132820000Y-106579999I0J-249999D01*
G01*
G37*
G36*
G01*
X134820000Y-106579999D02*
X134820000Y-107480001D01*
G75*
G02*
X134570001Y-107730000I-249999J0D01*
G01*
X133869999Y-107730000D01*
G75*
G02*
X133620000Y-107480001I0J249999D01*
G01*
X133620000Y-106579999D01*
G75*
G02*
X133869999Y-106330000I249999J0D01*
G01*
X134570001Y-106330000D01*
G75*
G02*
X134820000Y-106579999I0J-249999D01*
G01*
G37*
%TD*%
%TO.C,R4*%
G36*
G01*
X132820000Y-109119999D02*
X132820000Y-110020001D01*
G75*
G02*
X132570001Y-110270000I-249999J0D01*
G01*
X131869999Y-110270000D01*
G75*
G02*
X131620000Y-110020001I0J249999D01*
G01*
X131620000Y-109119999D01*
G75*
G02*
X131869999Y-108870000I249999J0D01*
G01*
X132570001Y-108870000D01*
G75*
G02*
X132820000Y-109119999I0J-249999D01*
G01*
G37*
G36*
G01*
X134820000Y-109119999D02*
X134820000Y-110020001D01*
G75*
G02*
X134570001Y-110270000I-249999J0D01*
G01*
X133869999Y-110270000D01*
G75*
G02*
X133620000Y-110020001I0J249999D01*
G01*
X133620000Y-109119999D01*
G75*
G02*
X133869999Y-108870000I249999J0D01*
G01*
X134570001Y-108870000D01*
G75*
G02*
X134820000Y-109119999I0J-249999D01*
G01*
G37*
%TD*%
%TO.C,R3*%
G36*
G01*
X132820000Y-111659999D02*
X132820000Y-112560001D01*
G75*
G02*
X132570001Y-112810000I-249999J0D01*
G01*
X131869999Y-112810000D01*
G75*
G02*
X131620000Y-112560001I0J249999D01*
G01*
X131620000Y-111659999D01*
G75*
G02*
X131869999Y-111410000I249999J0D01*
G01*
X132570001Y-111410000D01*
G75*
G02*
X132820000Y-111659999I0J-249999D01*
G01*
G37*
G36*
G01*
X134820000Y-111659999D02*
X134820000Y-112560001D01*
G75*
G02*
X134570001Y-112810000I-249999J0D01*
G01*
X133869999Y-112810000D01*
G75*
G02*
X133620000Y-112560001I0J249999D01*
G01*
X133620000Y-111659999D01*
G75*
G02*
X133869999Y-111410000I249999J0D01*
G01*
X134570001Y-111410000D01*
G75*
G02*
X134820000Y-111659999I0J-249999D01*
G01*
G37*
%TD*%
%TO.C,R2*%
G36*
G01*
X132820000Y-116739999D02*
X132820000Y-117640001D01*
G75*
G02*
X132570001Y-117890000I-249999J0D01*
G01*
X131869999Y-117890000D01*
G75*
G02*
X131620000Y-117640001I0J249999D01*
G01*
X131620000Y-116739999D01*
G75*
G02*
X131869999Y-116490000I249999J0D01*
G01*
X132570001Y-116490000D01*
G75*
G02*
X132820000Y-116739999I0J-249999D01*
G01*
G37*
G36*
G01*
X134820000Y-116739999D02*
X134820000Y-117640001D01*
G75*
G02*
X134570001Y-117890000I-249999J0D01*
G01*
X133869999Y-117890000D01*
G75*
G02*
X133620000Y-117640001I0J249999D01*
G01*
X133620000Y-116739999D01*
G75*
G02*
X133869999Y-116490000I249999J0D01*
G01*
X134570001Y-116490000D01*
G75*
G02*
X134820000Y-116739999I0J-249999D01*
G01*
G37*
%TD*%
D10*
%TO.C,J2*%
X126505000Y-82265000D03*
X126505000Y-84805000D03*
X126505000Y-87345000D03*
X126505000Y-89885000D03*
X126505000Y-92425000D03*
X126505000Y-94965000D03*
X126505000Y-97505000D03*
D11*
X126505000Y-100045000D03*
%TD*%
D10*
%TO.C,J1*%
X126505000Y-104490000D03*
X126505000Y-107030000D03*
X126505000Y-109570000D03*
X126505000Y-112110000D03*
X126505000Y-114650000D03*
D11*
X126505000Y-117190000D03*
%TD*%
%TO.C,U3*%
G36*
G01*
X150601041Y-64061546D02*
X151537957Y-63124630D01*
G75*
G02*
X151644023Y-63124630I53033J-53033D01*
G01*
X151750089Y-63230696D01*
G75*
G02*
X151750089Y-63336762I-53033J-53033D01*
G01*
X150813173Y-64273678D01*
G75*
G02*
X150707107Y-64273678I-53033J53033D01*
G01*
X150601041Y-64167612D01*
G75*
G02*
X150601041Y-64061546I53033J53033D01*
G01*
G37*
G36*
G01*
X150954594Y-64415099D02*
X151891510Y-63478183D01*
G75*
G02*
X151997576Y-63478183I53033J-53033D01*
G01*
X152103642Y-63584249D01*
G75*
G02*
X152103642Y-63690315I-53033J-53033D01*
G01*
X151166726Y-64627231D01*
G75*
G02*
X151060660Y-64627231I-53033J53033D01*
G01*
X150954594Y-64521165D01*
G75*
G02*
X150954594Y-64415099I53033J53033D01*
G01*
G37*
G36*
G01*
X151308148Y-64768652D02*
X152245064Y-63831736D01*
G75*
G02*
X152351130Y-63831736I53033J-53033D01*
G01*
X152457196Y-63937802D01*
G75*
G02*
X152457196Y-64043868I-53033J-53033D01*
G01*
X151520280Y-64980784D01*
G75*
G02*
X151414214Y-64980784I-53033J53033D01*
G01*
X151308148Y-64874718D01*
G75*
G02*
X151308148Y-64768652I53033J53033D01*
G01*
G37*
G36*
G01*
X151661701Y-65122206D02*
X152598617Y-64185290D01*
G75*
G02*
X152704683Y-64185290I53033J-53033D01*
G01*
X152810749Y-64291356D01*
G75*
G02*
X152810749Y-64397422I-53033J-53033D01*
G01*
X151873833Y-65334338D01*
G75*
G02*
X151767767Y-65334338I-53033J53033D01*
G01*
X151661701Y-65228272D01*
G75*
G02*
X151661701Y-65122206I53033J53033D01*
G01*
G37*
G36*
G01*
X152015255Y-65475759D02*
X152952171Y-64538843D01*
G75*
G02*
X153058237Y-64538843I53033J-53033D01*
G01*
X153164303Y-64644909D01*
G75*
G02*
X153164303Y-64750975I-53033J-53033D01*
G01*
X152227387Y-65687891D01*
G75*
G02*
X152121321Y-65687891I-53033J53033D01*
G01*
X152015255Y-65581825D01*
G75*
G02*
X152015255Y-65475759I53033J53033D01*
G01*
G37*
G36*
G01*
X152368808Y-65829313D02*
X153305724Y-64892397D01*
G75*
G02*
X153411790Y-64892397I53033J-53033D01*
G01*
X153517856Y-64998463D01*
G75*
G02*
X153517856Y-65104529I-53033J-53033D01*
G01*
X152580940Y-66041445D01*
G75*
G02*
X152474874Y-66041445I-53033J53033D01*
G01*
X152368808Y-65935379D01*
G75*
G02*
X152368808Y-65829313I53033J53033D01*
G01*
G37*
G36*
G01*
X152722361Y-66182866D02*
X153659277Y-65245950D01*
G75*
G02*
X153765343Y-65245950I53033J-53033D01*
G01*
X153871409Y-65352016D01*
G75*
G02*
X153871409Y-65458082I-53033J-53033D01*
G01*
X152934493Y-66394998D01*
G75*
G02*
X152828427Y-66394998I-53033J53033D01*
G01*
X152722361Y-66288932D01*
G75*
G02*
X152722361Y-66182866I53033J53033D01*
G01*
G37*
G36*
G01*
X153075915Y-66536419D02*
X154012831Y-65599503D01*
G75*
G02*
X154118897Y-65599503I53033J-53033D01*
G01*
X154224963Y-65705569D01*
G75*
G02*
X154224963Y-65811635I-53033J-53033D01*
G01*
X153288047Y-66748551D01*
G75*
G02*
X153181981Y-66748551I-53033J53033D01*
G01*
X153075915Y-66642485D01*
G75*
G02*
X153075915Y-66536419I53033J53033D01*
G01*
G37*
G36*
G01*
X153429468Y-66889973D02*
X154366384Y-65953057D01*
G75*
G02*
X154472450Y-65953057I53033J-53033D01*
G01*
X154578516Y-66059123D01*
G75*
G02*
X154578516Y-66165189I-53033J-53033D01*
G01*
X153641600Y-67102105D01*
G75*
G02*
X153535534Y-67102105I-53033J53033D01*
G01*
X153429468Y-66996039D01*
G75*
G02*
X153429468Y-66889973I53033J53033D01*
G01*
G37*
G36*
G01*
X153783022Y-67243526D02*
X154719938Y-66306610D01*
G75*
G02*
X154826004Y-66306610I53033J-53033D01*
G01*
X154932070Y-66412676D01*
G75*
G02*
X154932070Y-66518742I-53033J-53033D01*
G01*
X153995154Y-67455658D01*
G75*
G02*
X153889088Y-67455658I-53033J53033D01*
G01*
X153783022Y-67349592D01*
G75*
G02*
X153783022Y-67243526I53033J53033D01*
G01*
G37*
G36*
G01*
X154136575Y-67597080D02*
X155073491Y-66660164D01*
G75*
G02*
X155179557Y-66660164I53033J-53033D01*
G01*
X155285623Y-66766230D01*
G75*
G02*
X155285623Y-66872296I-53033J-53033D01*
G01*
X154348707Y-67809212D01*
G75*
G02*
X154242641Y-67809212I-53033J53033D01*
G01*
X154136575Y-67703146D01*
G75*
G02*
X154136575Y-67597080I53033J53033D01*
G01*
G37*
G36*
G01*
X154490128Y-67950633D02*
X155427044Y-67013717D01*
G75*
G02*
X155533110Y-67013717I53033J-53033D01*
G01*
X155639176Y-67119783D01*
G75*
G02*
X155639176Y-67225849I-53033J-53033D01*
G01*
X154702260Y-68162765D01*
G75*
G02*
X154596194Y-68162765I-53033J53033D01*
G01*
X154490128Y-68056699D01*
G75*
G02*
X154490128Y-67950633I53033J53033D01*
G01*
G37*
G36*
G01*
X154843682Y-68304186D02*
X155780598Y-67367270D01*
G75*
G02*
X155886664Y-67367270I53033J-53033D01*
G01*
X155992730Y-67473336D01*
G75*
G02*
X155992730Y-67579402I-53033J-53033D01*
G01*
X155055814Y-68516318D01*
G75*
G02*
X154949748Y-68516318I-53033J53033D01*
G01*
X154843682Y-68410252D01*
G75*
G02*
X154843682Y-68304186I53033J53033D01*
G01*
G37*
G36*
G01*
X155197235Y-68657740D02*
X156134151Y-67720824D01*
G75*
G02*
X156240217Y-67720824I53033J-53033D01*
G01*
X156346283Y-67826890D01*
G75*
G02*
X156346283Y-67932956I-53033J-53033D01*
G01*
X155409367Y-68869872D01*
G75*
G02*
X155303301Y-68869872I-53033J53033D01*
G01*
X155197235Y-68763806D01*
G75*
G02*
X155197235Y-68657740I53033J53033D01*
G01*
G37*
G36*
G01*
X155550788Y-69011293D02*
X156487704Y-68074377D01*
G75*
G02*
X156593770Y-68074377I53033J-53033D01*
G01*
X156699836Y-68180443D01*
G75*
G02*
X156699836Y-68286509I-53033J-53033D01*
G01*
X155762920Y-69223425D01*
G75*
G02*
X155656854Y-69223425I-53033J53033D01*
G01*
X155550788Y-69117359D01*
G75*
G02*
X155550788Y-69011293I53033J53033D01*
G01*
G37*
G36*
G01*
X155904342Y-69364846D02*
X156841258Y-68427930D01*
G75*
G02*
X156947324Y-68427930I53033J-53033D01*
G01*
X157053390Y-68533996D01*
G75*
G02*
X157053390Y-68640062I-53033J-53033D01*
G01*
X156116474Y-69576978D01*
G75*
G02*
X156010408Y-69576978I-53033J53033D01*
G01*
X155904342Y-69470912D01*
G75*
G02*
X155904342Y-69364846I53033J53033D01*
G01*
G37*
G36*
G01*
X156257895Y-69718400D02*
X157194811Y-68781484D01*
G75*
G02*
X157300877Y-68781484I53033J-53033D01*
G01*
X157406943Y-68887550D01*
G75*
G02*
X157406943Y-68993616I-53033J-53033D01*
G01*
X156470027Y-69930532D01*
G75*
G02*
X156363961Y-69930532I-53033J53033D01*
G01*
X156257895Y-69824466D01*
G75*
G02*
X156257895Y-69718400I53033J53033D01*
G01*
G37*
G36*
G01*
X156611449Y-70071953D02*
X157548365Y-69135037D01*
G75*
G02*
X157654431Y-69135037I53033J-53033D01*
G01*
X157760497Y-69241103D01*
G75*
G02*
X157760497Y-69347169I-53033J-53033D01*
G01*
X156823581Y-70284085D01*
G75*
G02*
X156717515Y-70284085I-53033J53033D01*
G01*
X156611449Y-70178019D01*
G75*
G02*
X156611449Y-70071953I53033J53033D01*
G01*
G37*
G36*
G01*
X156965002Y-70425507D02*
X157901918Y-69488591D01*
G75*
G02*
X158007984Y-69488591I53033J-53033D01*
G01*
X158114050Y-69594657D01*
G75*
G02*
X158114050Y-69700723I-53033J-53033D01*
G01*
X157177134Y-70637639D01*
G75*
G02*
X157071068Y-70637639I-53033J53033D01*
G01*
X156965002Y-70531573D01*
G75*
G02*
X156965002Y-70425507I53033J53033D01*
G01*
G37*
G36*
G01*
X157318555Y-70779060D02*
X158255471Y-69842144D01*
G75*
G02*
X158361537Y-69842144I53033J-53033D01*
G01*
X158467603Y-69948210D01*
G75*
G02*
X158467603Y-70054276I-53033J-53033D01*
G01*
X157530687Y-70991192D01*
G75*
G02*
X157424621Y-70991192I-53033J53033D01*
G01*
X157318555Y-70885126D01*
G75*
G02*
X157318555Y-70779060I53033J53033D01*
G01*
G37*
G36*
G01*
X157672109Y-71132613D02*
X158609025Y-70195697D01*
G75*
G02*
X158715091Y-70195697I53033J-53033D01*
G01*
X158821157Y-70301763D01*
G75*
G02*
X158821157Y-70407829I-53033J-53033D01*
G01*
X157884241Y-71344745D01*
G75*
G02*
X157778175Y-71344745I-53033J53033D01*
G01*
X157672109Y-71238679D01*
G75*
G02*
X157672109Y-71132613I53033J53033D01*
G01*
G37*
G36*
G01*
X158025662Y-71486167D02*
X158962578Y-70549251D01*
G75*
G02*
X159068644Y-70549251I53033J-53033D01*
G01*
X159174710Y-70655317D01*
G75*
G02*
X159174710Y-70761383I-53033J-53033D01*
G01*
X158237794Y-71698299D01*
G75*
G02*
X158131728Y-71698299I-53033J53033D01*
G01*
X158025662Y-71592233D01*
G75*
G02*
X158025662Y-71486167I53033J53033D01*
G01*
G37*
G36*
G01*
X158379216Y-71839720D02*
X159316132Y-70902804D01*
G75*
G02*
X159422198Y-70902804I53033J-53033D01*
G01*
X159528264Y-71008870D01*
G75*
G02*
X159528264Y-71114936I-53033J-53033D01*
G01*
X158591348Y-72051852D01*
G75*
G02*
X158485282Y-72051852I-53033J53033D01*
G01*
X158379216Y-71945786D01*
G75*
G02*
X158379216Y-71839720I53033J53033D01*
G01*
G37*
G36*
G01*
X158732769Y-72193274D02*
X159669685Y-71256358D01*
G75*
G02*
X159775751Y-71256358I53033J-53033D01*
G01*
X159881817Y-71362424D01*
G75*
G02*
X159881817Y-71468490I-53033J-53033D01*
G01*
X158944901Y-72405406D01*
G75*
G02*
X158838835Y-72405406I-53033J53033D01*
G01*
X158732769Y-72299340D01*
G75*
G02*
X158732769Y-72193274I53033J53033D01*
G01*
G37*
G36*
G01*
X159086322Y-72546827D02*
X160023238Y-71609911D01*
G75*
G02*
X160129304Y-71609911I53033J-53033D01*
G01*
X160235370Y-71715977D01*
G75*
G02*
X160235370Y-71822043I-53033J-53033D01*
G01*
X159298454Y-72758959D01*
G75*
G02*
X159192388Y-72758959I-53033J53033D01*
G01*
X159086322Y-72652893D01*
G75*
G02*
X159086322Y-72546827I53033J53033D01*
G01*
G37*
G36*
G01*
X159086322Y-74067107D02*
X159192388Y-73961041D01*
G75*
G02*
X159298454Y-73961041I53033J-53033D01*
G01*
X160235370Y-74897957D01*
G75*
G02*
X160235370Y-75004023I-53033J-53033D01*
G01*
X160129304Y-75110089D01*
G75*
G02*
X160023238Y-75110089I-53033J53033D01*
G01*
X159086322Y-74173173D01*
G75*
G02*
X159086322Y-74067107I53033J53033D01*
G01*
G37*
G36*
G01*
X158732769Y-74420660D02*
X158838835Y-74314594D01*
G75*
G02*
X158944901Y-74314594I53033J-53033D01*
G01*
X159881817Y-75251510D01*
G75*
G02*
X159881817Y-75357576I-53033J-53033D01*
G01*
X159775751Y-75463642D01*
G75*
G02*
X159669685Y-75463642I-53033J53033D01*
G01*
X158732769Y-74526726D01*
G75*
G02*
X158732769Y-74420660I53033J53033D01*
G01*
G37*
G36*
G01*
X158379216Y-74774214D02*
X158485282Y-74668148D01*
G75*
G02*
X158591348Y-74668148I53033J-53033D01*
G01*
X159528264Y-75605064D01*
G75*
G02*
X159528264Y-75711130I-53033J-53033D01*
G01*
X159422198Y-75817196D01*
G75*
G02*
X159316132Y-75817196I-53033J53033D01*
G01*
X158379216Y-74880280D01*
G75*
G02*
X158379216Y-74774214I53033J53033D01*
G01*
G37*
G36*
G01*
X158025662Y-75127767D02*
X158131728Y-75021701D01*
G75*
G02*
X158237794Y-75021701I53033J-53033D01*
G01*
X159174710Y-75958617D01*
G75*
G02*
X159174710Y-76064683I-53033J-53033D01*
G01*
X159068644Y-76170749D01*
G75*
G02*
X158962578Y-76170749I-53033J53033D01*
G01*
X158025662Y-75233833D01*
G75*
G02*
X158025662Y-75127767I53033J53033D01*
G01*
G37*
G36*
G01*
X157672109Y-75481321D02*
X157778175Y-75375255D01*
G75*
G02*
X157884241Y-75375255I53033J-53033D01*
G01*
X158821157Y-76312171D01*
G75*
G02*
X158821157Y-76418237I-53033J-53033D01*
G01*
X158715091Y-76524303D01*
G75*
G02*
X158609025Y-76524303I-53033J53033D01*
G01*
X157672109Y-75587387D01*
G75*
G02*
X157672109Y-75481321I53033J53033D01*
G01*
G37*
G36*
G01*
X157318555Y-75834874D02*
X157424621Y-75728808D01*
G75*
G02*
X157530687Y-75728808I53033J-53033D01*
G01*
X158467603Y-76665724D01*
G75*
G02*
X158467603Y-76771790I-53033J-53033D01*
G01*
X158361537Y-76877856D01*
G75*
G02*
X158255471Y-76877856I-53033J53033D01*
G01*
X157318555Y-75940940D01*
G75*
G02*
X157318555Y-75834874I53033J53033D01*
G01*
G37*
G36*
G01*
X156965002Y-76188427D02*
X157071068Y-76082361D01*
G75*
G02*
X157177134Y-76082361I53033J-53033D01*
G01*
X158114050Y-77019277D01*
G75*
G02*
X158114050Y-77125343I-53033J-53033D01*
G01*
X158007984Y-77231409D01*
G75*
G02*
X157901918Y-77231409I-53033J53033D01*
G01*
X156965002Y-76294493D01*
G75*
G02*
X156965002Y-76188427I53033J53033D01*
G01*
G37*
G36*
G01*
X156611449Y-76541981D02*
X156717515Y-76435915D01*
G75*
G02*
X156823581Y-76435915I53033J-53033D01*
G01*
X157760497Y-77372831D01*
G75*
G02*
X157760497Y-77478897I-53033J-53033D01*
G01*
X157654431Y-77584963D01*
G75*
G02*
X157548365Y-77584963I-53033J53033D01*
G01*
X156611449Y-76648047D01*
G75*
G02*
X156611449Y-76541981I53033J53033D01*
G01*
G37*
G36*
G01*
X156257895Y-76895534D02*
X156363961Y-76789468D01*
G75*
G02*
X156470027Y-76789468I53033J-53033D01*
G01*
X157406943Y-77726384D01*
G75*
G02*
X157406943Y-77832450I-53033J-53033D01*
G01*
X157300877Y-77938516D01*
G75*
G02*
X157194811Y-77938516I-53033J53033D01*
G01*
X156257895Y-77001600D01*
G75*
G02*
X156257895Y-76895534I53033J53033D01*
G01*
G37*
G36*
G01*
X155904342Y-77249088D02*
X156010408Y-77143022D01*
G75*
G02*
X156116474Y-77143022I53033J-53033D01*
G01*
X157053390Y-78079938D01*
G75*
G02*
X157053390Y-78186004I-53033J-53033D01*
G01*
X156947324Y-78292070D01*
G75*
G02*
X156841258Y-78292070I-53033J53033D01*
G01*
X155904342Y-77355154D01*
G75*
G02*
X155904342Y-77249088I53033J53033D01*
G01*
G37*
G36*
G01*
X155550788Y-77602641D02*
X155656854Y-77496575D01*
G75*
G02*
X155762920Y-77496575I53033J-53033D01*
G01*
X156699836Y-78433491D01*
G75*
G02*
X156699836Y-78539557I-53033J-53033D01*
G01*
X156593770Y-78645623D01*
G75*
G02*
X156487704Y-78645623I-53033J53033D01*
G01*
X155550788Y-77708707D01*
G75*
G02*
X155550788Y-77602641I53033J53033D01*
G01*
G37*
G36*
G01*
X155197235Y-77956194D02*
X155303301Y-77850128D01*
G75*
G02*
X155409367Y-77850128I53033J-53033D01*
G01*
X156346283Y-78787044D01*
G75*
G02*
X156346283Y-78893110I-53033J-53033D01*
G01*
X156240217Y-78999176D01*
G75*
G02*
X156134151Y-78999176I-53033J53033D01*
G01*
X155197235Y-78062260D01*
G75*
G02*
X155197235Y-77956194I53033J53033D01*
G01*
G37*
G36*
G01*
X154843682Y-78309748D02*
X154949748Y-78203682D01*
G75*
G02*
X155055814Y-78203682I53033J-53033D01*
G01*
X155992730Y-79140598D01*
G75*
G02*
X155992730Y-79246664I-53033J-53033D01*
G01*
X155886664Y-79352730D01*
G75*
G02*
X155780598Y-79352730I-53033J53033D01*
G01*
X154843682Y-78415814D01*
G75*
G02*
X154843682Y-78309748I53033J53033D01*
G01*
G37*
G36*
G01*
X154490128Y-78663301D02*
X154596194Y-78557235D01*
G75*
G02*
X154702260Y-78557235I53033J-53033D01*
G01*
X155639176Y-79494151D01*
G75*
G02*
X155639176Y-79600217I-53033J-53033D01*
G01*
X155533110Y-79706283D01*
G75*
G02*
X155427044Y-79706283I-53033J53033D01*
G01*
X154490128Y-78769367D01*
G75*
G02*
X154490128Y-78663301I53033J53033D01*
G01*
G37*
G36*
G01*
X154136575Y-79016854D02*
X154242641Y-78910788D01*
G75*
G02*
X154348707Y-78910788I53033J-53033D01*
G01*
X155285623Y-79847704D01*
G75*
G02*
X155285623Y-79953770I-53033J-53033D01*
G01*
X155179557Y-80059836D01*
G75*
G02*
X155073491Y-80059836I-53033J53033D01*
G01*
X154136575Y-79122920D01*
G75*
G02*
X154136575Y-79016854I53033J53033D01*
G01*
G37*
G36*
G01*
X153783022Y-79370408D02*
X153889088Y-79264342D01*
G75*
G02*
X153995154Y-79264342I53033J-53033D01*
G01*
X154932070Y-80201258D01*
G75*
G02*
X154932070Y-80307324I-53033J-53033D01*
G01*
X154826004Y-80413390D01*
G75*
G02*
X154719938Y-80413390I-53033J53033D01*
G01*
X153783022Y-79476474D01*
G75*
G02*
X153783022Y-79370408I53033J53033D01*
G01*
G37*
G36*
G01*
X153429468Y-79723961D02*
X153535534Y-79617895D01*
G75*
G02*
X153641600Y-79617895I53033J-53033D01*
G01*
X154578516Y-80554811D01*
G75*
G02*
X154578516Y-80660877I-53033J-53033D01*
G01*
X154472450Y-80766943D01*
G75*
G02*
X154366384Y-80766943I-53033J53033D01*
G01*
X153429468Y-79830027D01*
G75*
G02*
X153429468Y-79723961I53033J53033D01*
G01*
G37*
G36*
G01*
X153075915Y-80077515D02*
X153181981Y-79971449D01*
G75*
G02*
X153288047Y-79971449I53033J-53033D01*
G01*
X154224963Y-80908365D01*
G75*
G02*
X154224963Y-81014431I-53033J-53033D01*
G01*
X154118897Y-81120497D01*
G75*
G02*
X154012831Y-81120497I-53033J53033D01*
G01*
X153075915Y-80183581D01*
G75*
G02*
X153075915Y-80077515I53033J53033D01*
G01*
G37*
G36*
G01*
X152722361Y-80431068D02*
X152828427Y-80325002D01*
G75*
G02*
X152934493Y-80325002I53033J-53033D01*
G01*
X153871409Y-81261918D01*
G75*
G02*
X153871409Y-81367984I-53033J-53033D01*
G01*
X153765343Y-81474050D01*
G75*
G02*
X153659277Y-81474050I-53033J53033D01*
G01*
X152722361Y-80537134D01*
G75*
G02*
X152722361Y-80431068I53033J53033D01*
G01*
G37*
G36*
G01*
X152368808Y-80784621D02*
X152474874Y-80678555D01*
G75*
G02*
X152580940Y-80678555I53033J-53033D01*
G01*
X153517856Y-81615471D01*
G75*
G02*
X153517856Y-81721537I-53033J-53033D01*
G01*
X153411790Y-81827603D01*
G75*
G02*
X153305724Y-81827603I-53033J53033D01*
G01*
X152368808Y-80890687D01*
G75*
G02*
X152368808Y-80784621I53033J53033D01*
G01*
G37*
G36*
G01*
X152015255Y-81138175D02*
X152121321Y-81032109D01*
G75*
G02*
X152227387Y-81032109I53033J-53033D01*
G01*
X153164303Y-81969025D01*
G75*
G02*
X153164303Y-82075091I-53033J-53033D01*
G01*
X153058237Y-82181157D01*
G75*
G02*
X152952171Y-82181157I-53033J53033D01*
G01*
X152015255Y-81244241D01*
G75*
G02*
X152015255Y-81138175I53033J53033D01*
G01*
G37*
G36*
G01*
X151661701Y-81491728D02*
X151767767Y-81385662D01*
G75*
G02*
X151873833Y-81385662I53033J-53033D01*
G01*
X152810749Y-82322578D01*
G75*
G02*
X152810749Y-82428644I-53033J-53033D01*
G01*
X152704683Y-82534710D01*
G75*
G02*
X152598617Y-82534710I-53033J53033D01*
G01*
X151661701Y-81597794D01*
G75*
G02*
X151661701Y-81491728I53033J53033D01*
G01*
G37*
G36*
G01*
X151308148Y-81845282D02*
X151414214Y-81739216D01*
G75*
G02*
X151520280Y-81739216I53033J-53033D01*
G01*
X152457196Y-82676132D01*
G75*
G02*
X152457196Y-82782198I-53033J-53033D01*
G01*
X152351130Y-82888264D01*
G75*
G02*
X152245064Y-82888264I-53033J53033D01*
G01*
X151308148Y-81951348D01*
G75*
G02*
X151308148Y-81845282I53033J53033D01*
G01*
G37*
G36*
G01*
X150954594Y-82198835D02*
X151060660Y-82092769D01*
G75*
G02*
X151166726Y-82092769I53033J-53033D01*
G01*
X152103642Y-83029685D01*
G75*
G02*
X152103642Y-83135751I-53033J-53033D01*
G01*
X151997576Y-83241817D01*
G75*
G02*
X151891510Y-83241817I-53033J53033D01*
G01*
X150954594Y-82304901D01*
G75*
G02*
X150954594Y-82198835I53033J53033D01*
G01*
G37*
G36*
G01*
X150601041Y-82552388D02*
X150707107Y-82446322D01*
G75*
G02*
X150813173Y-82446322I53033J-53033D01*
G01*
X151750089Y-83383238D01*
G75*
G02*
X151750089Y-83489304I-53033J-53033D01*
G01*
X151644023Y-83595370D01*
G75*
G02*
X151537957Y-83595370I-53033J53033D01*
G01*
X150601041Y-82658454D01*
G75*
G02*
X150601041Y-82552388I53033J53033D01*
G01*
G37*
G36*
G01*
X148249911Y-83383238D02*
X149186827Y-82446322D01*
G75*
G02*
X149292893Y-82446322I53033J-53033D01*
G01*
X149398959Y-82552388D01*
G75*
G02*
X149398959Y-82658454I-53033J-53033D01*
G01*
X148462043Y-83595370D01*
G75*
G02*
X148355977Y-83595370I-53033J53033D01*
G01*
X148249911Y-83489304D01*
G75*
G02*
X148249911Y-83383238I53033J53033D01*
G01*
G37*
G36*
G01*
X147896358Y-83029685D02*
X148833274Y-82092769D01*
G75*
G02*
X148939340Y-82092769I53033J-53033D01*
G01*
X149045406Y-82198835D01*
G75*
G02*
X149045406Y-82304901I-53033J-53033D01*
G01*
X148108490Y-83241817D01*
G75*
G02*
X148002424Y-83241817I-53033J53033D01*
G01*
X147896358Y-83135751D01*
G75*
G02*
X147896358Y-83029685I53033J53033D01*
G01*
G37*
G36*
G01*
X147542804Y-82676132D02*
X148479720Y-81739216D01*
G75*
G02*
X148585786Y-81739216I53033J-53033D01*
G01*
X148691852Y-81845282D01*
G75*
G02*
X148691852Y-81951348I-53033J-53033D01*
G01*
X147754936Y-82888264D01*
G75*
G02*
X147648870Y-82888264I-53033J53033D01*
G01*
X147542804Y-82782198D01*
G75*
G02*
X147542804Y-82676132I53033J53033D01*
G01*
G37*
G36*
G01*
X147189251Y-82322578D02*
X148126167Y-81385662D01*
G75*
G02*
X148232233Y-81385662I53033J-53033D01*
G01*
X148338299Y-81491728D01*
G75*
G02*
X148338299Y-81597794I-53033J-53033D01*
G01*
X147401383Y-82534710D01*
G75*
G02*
X147295317Y-82534710I-53033J53033D01*
G01*
X147189251Y-82428644D01*
G75*
G02*
X147189251Y-82322578I53033J53033D01*
G01*
G37*
G36*
G01*
X146835697Y-81969025D02*
X147772613Y-81032109D01*
G75*
G02*
X147878679Y-81032109I53033J-53033D01*
G01*
X147984745Y-81138175D01*
G75*
G02*
X147984745Y-81244241I-53033J-53033D01*
G01*
X147047829Y-82181157D01*
G75*
G02*
X146941763Y-82181157I-53033J53033D01*
G01*
X146835697Y-82075091D01*
G75*
G02*
X146835697Y-81969025I53033J53033D01*
G01*
G37*
G36*
G01*
X146482144Y-81615471D02*
X147419060Y-80678555D01*
G75*
G02*
X147525126Y-80678555I53033J-53033D01*
G01*
X147631192Y-80784621D01*
G75*
G02*
X147631192Y-80890687I-53033J-53033D01*
G01*
X146694276Y-81827603D01*
G75*
G02*
X146588210Y-81827603I-53033J53033D01*
G01*
X146482144Y-81721537D01*
G75*
G02*
X146482144Y-81615471I53033J53033D01*
G01*
G37*
G36*
G01*
X146128591Y-81261918D02*
X147065507Y-80325002D01*
G75*
G02*
X147171573Y-80325002I53033J-53033D01*
G01*
X147277639Y-80431068D01*
G75*
G02*
X147277639Y-80537134I-53033J-53033D01*
G01*
X146340723Y-81474050D01*
G75*
G02*
X146234657Y-81474050I-53033J53033D01*
G01*
X146128591Y-81367984D01*
G75*
G02*
X146128591Y-81261918I53033J53033D01*
G01*
G37*
G36*
G01*
X145775037Y-80908365D02*
X146711953Y-79971449D01*
G75*
G02*
X146818019Y-79971449I53033J-53033D01*
G01*
X146924085Y-80077515D01*
G75*
G02*
X146924085Y-80183581I-53033J-53033D01*
G01*
X145987169Y-81120497D01*
G75*
G02*
X145881103Y-81120497I-53033J53033D01*
G01*
X145775037Y-81014431D01*
G75*
G02*
X145775037Y-80908365I53033J53033D01*
G01*
G37*
G36*
G01*
X145421484Y-80554811D02*
X146358400Y-79617895D01*
G75*
G02*
X146464466Y-79617895I53033J-53033D01*
G01*
X146570532Y-79723961D01*
G75*
G02*
X146570532Y-79830027I-53033J-53033D01*
G01*
X145633616Y-80766943D01*
G75*
G02*
X145527550Y-80766943I-53033J53033D01*
G01*
X145421484Y-80660877D01*
G75*
G02*
X145421484Y-80554811I53033J53033D01*
G01*
G37*
G36*
G01*
X145067930Y-80201258D02*
X146004846Y-79264342D01*
G75*
G02*
X146110912Y-79264342I53033J-53033D01*
G01*
X146216978Y-79370408D01*
G75*
G02*
X146216978Y-79476474I-53033J-53033D01*
G01*
X145280062Y-80413390D01*
G75*
G02*
X145173996Y-80413390I-53033J53033D01*
G01*
X145067930Y-80307324D01*
G75*
G02*
X145067930Y-80201258I53033J53033D01*
G01*
G37*
G36*
G01*
X144714377Y-79847704D02*
X145651293Y-78910788D01*
G75*
G02*
X145757359Y-78910788I53033J-53033D01*
G01*
X145863425Y-79016854D01*
G75*
G02*
X145863425Y-79122920I-53033J-53033D01*
G01*
X144926509Y-80059836D01*
G75*
G02*
X144820443Y-80059836I-53033J53033D01*
G01*
X144714377Y-79953770D01*
G75*
G02*
X144714377Y-79847704I53033J53033D01*
G01*
G37*
G36*
G01*
X144360824Y-79494151D02*
X145297740Y-78557235D01*
G75*
G02*
X145403806Y-78557235I53033J-53033D01*
G01*
X145509872Y-78663301D01*
G75*
G02*
X145509872Y-78769367I-53033J-53033D01*
G01*
X144572956Y-79706283D01*
G75*
G02*
X144466890Y-79706283I-53033J53033D01*
G01*
X144360824Y-79600217D01*
G75*
G02*
X144360824Y-79494151I53033J53033D01*
G01*
G37*
G36*
G01*
X144007270Y-79140598D02*
X144944186Y-78203682D01*
G75*
G02*
X145050252Y-78203682I53033J-53033D01*
G01*
X145156318Y-78309748D01*
G75*
G02*
X145156318Y-78415814I-53033J-53033D01*
G01*
X144219402Y-79352730D01*
G75*
G02*
X144113336Y-79352730I-53033J53033D01*
G01*
X144007270Y-79246664D01*
G75*
G02*
X144007270Y-79140598I53033J53033D01*
G01*
G37*
G36*
G01*
X143653717Y-78787044D02*
X144590633Y-77850128D01*
G75*
G02*
X144696699Y-77850128I53033J-53033D01*
G01*
X144802765Y-77956194D01*
G75*
G02*
X144802765Y-78062260I-53033J-53033D01*
G01*
X143865849Y-78999176D01*
G75*
G02*
X143759783Y-78999176I-53033J53033D01*
G01*
X143653717Y-78893110D01*
G75*
G02*
X143653717Y-78787044I53033J53033D01*
G01*
G37*
G36*
G01*
X143300164Y-78433491D02*
X144237080Y-77496575D01*
G75*
G02*
X144343146Y-77496575I53033J-53033D01*
G01*
X144449212Y-77602641D01*
G75*
G02*
X144449212Y-77708707I-53033J-53033D01*
G01*
X143512296Y-78645623D01*
G75*
G02*
X143406230Y-78645623I-53033J53033D01*
G01*
X143300164Y-78539557D01*
G75*
G02*
X143300164Y-78433491I53033J53033D01*
G01*
G37*
G36*
G01*
X142946610Y-78079938D02*
X143883526Y-77143022D01*
G75*
G02*
X143989592Y-77143022I53033J-53033D01*
G01*
X144095658Y-77249088D01*
G75*
G02*
X144095658Y-77355154I-53033J-53033D01*
G01*
X143158742Y-78292070D01*
G75*
G02*
X143052676Y-78292070I-53033J53033D01*
G01*
X142946610Y-78186004D01*
G75*
G02*
X142946610Y-78079938I53033J53033D01*
G01*
G37*
G36*
G01*
X142593057Y-77726384D02*
X143529973Y-76789468D01*
G75*
G02*
X143636039Y-76789468I53033J-53033D01*
G01*
X143742105Y-76895534D01*
G75*
G02*
X143742105Y-77001600I-53033J-53033D01*
G01*
X142805189Y-77938516D01*
G75*
G02*
X142699123Y-77938516I-53033J53033D01*
G01*
X142593057Y-77832450D01*
G75*
G02*
X142593057Y-77726384I53033J53033D01*
G01*
G37*
G36*
G01*
X142239503Y-77372831D02*
X143176419Y-76435915D01*
G75*
G02*
X143282485Y-76435915I53033J-53033D01*
G01*
X143388551Y-76541981D01*
G75*
G02*
X143388551Y-76648047I-53033J-53033D01*
G01*
X142451635Y-77584963D01*
G75*
G02*
X142345569Y-77584963I-53033J53033D01*
G01*
X142239503Y-77478897D01*
G75*
G02*
X142239503Y-77372831I53033J53033D01*
G01*
G37*
G36*
G01*
X141885950Y-77019277D02*
X142822866Y-76082361D01*
G75*
G02*
X142928932Y-76082361I53033J-53033D01*
G01*
X143034998Y-76188427D01*
G75*
G02*
X143034998Y-76294493I-53033J-53033D01*
G01*
X142098082Y-77231409D01*
G75*
G02*
X141992016Y-77231409I-53033J53033D01*
G01*
X141885950Y-77125343D01*
G75*
G02*
X141885950Y-77019277I53033J53033D01*
G01*
G37*
G36*
G01*
X141532397Y-76665724D02*
X142469313Y-75728808D01*
G75*
G02*
X142575379Y-75728808I53033J-53033D01*
G01*
X142681445Y-75834874D01*
G75*
G02*
X142681445Y-75940940I-53033J-53033D01*
G01*
X141744529Y-76877856D01*
G75*
G02*
X141638463Y-76877856I-53033J53033D01*
G01*
X141532397Y-76771790D01*
G75*
G02*
X141532397Y-76665724I53033J53033D01*
G01*
G37*
G36*
G01*
X141178843Y-76312171D02*
X142115759Y-75375255D01*
G75*
G02*
X142221825Y-75375255I53033J-53033D01*
G01*
X142327891Y-75481321D01*
G75*
G02*
X142327891Y-75587387I-53033J-53033D01*
G01*
X141390975Y-76524303D01*
G75*
G02*
X141284909Y-76524303I-53033J53033D01*
G01*
X141178843Y-76418237D01*
G75*
G02*
X141178843Y-76312171I53033J53033D01*
G01*
G37*
G36*
G01*
X140825290Y-75958617D02*
X141762206Y-75021701D01*
G75*
G02*
X141868272Y-75021701I53033J-53033D01*
G01*
X141974338Y-75127767D01*
G75*
G02*
X141974338Y-75233833I-53033J-53033D01*
G01*
X141037422Y-76170749D01*
G75*
G02*
X140931356Y-76170749I-53033J53033D01*
G01*
X140825290Y-76064683D01*
G75*
G02*
X140825290Y-75958617I53033J53033D01*
G01*
G37*
G36*
G01*
X140471736Y-75605064D02*
X141408652Y-74668148D01*
G75*
G02*
X141514718Y-74668148I53033J-53033D01*
G01*
X141620784Y-74774214D01*
G75*
G02*
X141620784Y-74880280I-53033J-53033D01*
G01*
X140683868Y-75817196D01*
G75*
G02*
X140577802Y-75817196I-53033J53033D01*
G01*
X140471736Y-75711130D01*
G75*
G02*
X140471736Y-75605064I53033J53033D01*
G01*
G37*
G36*
G01*
X140118183Y-75251510D02*
X141055099Y-74314594D01*
G75*
G02*
X141161165Y-74314594I53033J-53033D01*
G01*
X141267231Y-74420660D01*
G75*
G02*
X141267231Y-74526726I-53033J-53033D01*
G01*
X140330315Y-75463642D01*
G75*
G02*
X140224249Y-75463642I-53033J53033D01*
G01*
X140118183Y-75357576D01*
G75*
G02*
X140118183Y-75251510I53033J53033D01*
G01*
G37*
G36*
G01*
X139764630Y-74897957D02*
X140701546Y-73961041D01*
G75*
G02*
X140807612Y-73961041I53033J-53033D01*
G01*
X140913678Y-74067107D01*
G75*
G02*
X140913678Y-74173173I-53033J-53033D01*
G01*
X139976762Y-75110089D01*
G75*
G02*
X139870696Y-75110089I-53033J53033D01*
G01*
X139764630Y-75004023D01*
G75*
G02*
X139764630Y-74897957I53033J53033D01*
G01*
G37*
G36*
G01*
X139764630Y-71715977D02*
X139870696Y-71609911D01*
G75*
G02*
X139976762Y-71609911I53033J-53033D01*
G01*
X140913678Y-72546827D01*
G75*
G02*
X140913678Y-72652893I-53033J-53033D01*
G01*
X140807612Y-72758959D01*
G75*
G02*
X140701546Y-72758959I-53033J53033D01*
G01*
X139764630Y-71822043D01*
G75*
G02*
X139764630Y-71715977I53033J53033D01*
G01*
G37*
G36*
G01*
X140118183Y-71362424D02*
X140224249Y-71256358D01*
G75*
G02*
X140330315Y-71256358I53033J-53033D01*
G01*
X141267231Y-72193274D01*
G75*
G02*
X141267231Y-72299340I-53033J-53033D01*
G01*
X141161165Y-72405406D01*
G75*
G02*
X141055099Y-72405406I-53033J53033D01*
G01*
X140118183Y-71468490D01*
G75*
G02*
X140118183Y-71362424I53033J53033D01*
G01*
G37*
G36*
G01*
X140471736Y-71008870D02*
X140577802Y-70902804D01*
G75*
G02*
X140683868Y-70902804I53033J-53033D01*
G01*
X141620784Y-71839720D01*
G75*
G02*
X141620784Y-71945786I-53033J-53033D01*
G01*
X141514718Y-72051852D01*
G75*
G02*
X141408652Y-72051852I-53033J53033D01*
G01*
X140471736Y-71114936D01*
G75*
G02*
X140471736Y-71008870I53033J53033D01*
G01*
G37*
G36*
G01*
X140825290Y-70655317D02*
X140931356Y-70549251D01*
G75*
G02*
X141037422Y-70549251I53033J-53033D01*
G01*
X141974338Y-71486167D01*
G75*
G02*
X141974338Y-71592233I-53033J-53033D01*
G01*
X141868272Y-71698299D01*
G75*
G02*
X141762206Y-71698299I-53033J53033D01*
G01*
X140825290Y-70761383D01*
G75*
G02*
X140825290Y-70655317I53033J53033D01*
G01*
G37*
G36*
G01*
X141178843Y-70301763D02*
X141284909Y-70195697D01*
G75*
G02*
X141390975Y-70195697I53033J-53033D01*
G01*
X142327891Y-71132613D01*
G75*
G02*
X142327891Y-71238679I-53033J-53033D01*
G01*
X142221825Y-71344745D01*
G75*
G02*
X142115759Y-71344745I-53033J53033D01*
G01*
X141178843Y-70407829D01*
G75*
G02*
X141178843Y-70301763I53033J53033D01*
G01*
G37*
G36*
G01*
X141532397Y-69948210D02*
X141638463Y-69842144D01*
G75*
G02*
X141744529Y-69842144I53033J-53033D01*
G01*
X142681445Y-70779060D01*
G75*
G02*
X142681445Y-70885126I-53033J-53033D01*
G01*
X142575379Y-70991192D01*
G75*
G02*
X142469313Y-70991192I-53033J53033D01*
G01*
X141532397Y-70054276D01*
G75*
G02*
X141532397Y-69948210I53033J53033D01*
G01*
G37*
G36*
G01*
X141885950Y-69594657D02*
X141992016Y-69488591D01*
G75*
G02*
X142098082Y-69488591I53033J-53033D01*
G01*
X143034998Y-70425507D01*
G75*
G02*
X143034998Y-70531573I-53033J-53033D01*
G01*
X142928932Y-70637639D01*
G75*
G02*
X142822866Y-70637639I-53033J53033D01*
G01*
X141885950Y-69700723D01*
G75*
G02*
X141885950Y-69594657I53033J53033D01*
G01*
G37*
G36*
G01*
X142239503Y-69241103D02*
X142345569Y-69135037D01*
G75*
G02*
X142451635Y-69135037I53033J-53033D01*
G01*
X143388551Y-70071953D01*
G75*
G02*
X143388551Y-70178019I-53033J-53033D01*
G01*
X143282485Y-70284085D01*
G75*
G02*
X143176419Y-70284085I-53033J53033D01*
G01*
X142239503Y-69347169D01*
G75*
G02*
X142239503Y-69241103I53033J53033D01*
G01*
G37*
G36*
G01*
X142593057Y-68887550D02*
X142699123Y-68781484D01*
G75*
G02*
X142805189Y-68781484I53033J-53033D01*
G01*
X143742105Y-69718400D01*
G75*
G02*
X143742105Y-69824466I-53033J-53033D01*
G01*
X143636039Y-69930532D01*
G75*
G02*
X143529973Y-69930532I-53033J53033D01*
G01*
X142593057Y-68993616D01*
G75*
G02*
X142593057Y-68887550I53033J53033D01*
G01*
G37*
G36*
G01*
X142946610Y-68533996D02*
X143052676Y-68427930D01*
G75*
G02*
X143158742Y-68427930I53033J-53033D01*
G01*
X144095658Y-69364846D01*
G75*
G02*
X144095658Y-69470912I-53033J-53033D01*
G01*
X143989592Y-69576978D01*
G75*
G02*
X143883526Y-69576978I-53033J53033D01*
G01*
X142946610Y-68640062D01*
G75*
G02*
X142946610Y-68533996I53033J53033D01*
G01*
G37*
G36*
G01*
X143300164Y-68180443D02*
X143406230Y-68074377D01*
G75*
G02*
X143512296Y-68074377I53033J-53033D01*
G01*
X144449212Y-69011293D01*
G75*
G02*
X144449212Y-69117359I-53033J-53033D01*
G01*
X144343146Y-69223425D01*
G75*
G02*
X144237080Y-69223425I-53033J53033D01*
G01*
X143300164Y-68286509D01*
G75*
G02*
X143300164Y-68180443I53033J53033D01*
G01*
G37*
G36*
G01*
X143653717Y-67826890D02*
X143759783Y-67720824D01*
G75*
G02*
X143865849Y-67720824I53033J-53033D01*
G01*
X144802765Y-68657740D01*
G75*
G02*
X144802765Y-68763806I-53033J-53033D01*
G01*
X144696699Y-68869872D01*
G75*
G02*
X144590633Y-68869872I-53033J53033D01*
G01*
X143653717Y-67932956D01*
G75*
G02*
X143653717Y-67826890I53033J53033D01*
G01*
G37*
G36*
G01*
X144007270Y-67473336D02*
X144113336Y-67367270D01*
G75*
G02*
X144219402Y-67367270I53033J-53033D01*
G01*
X145156318Y-68304186D01*
G75*
G02*
X145156318Y-68410252I-53033J-53033D01*
G01*
X145050252Y-68516318D01*
G75*
G02*
X144944186Y-68516318I-53033J53033D01*
G01*
X144007270Y-67579402D01*
G75*
G02*
X144007270Y-67473336I53033J53033D01*
G01*
G37*
G36*
G01*
X144360824Y-67119783D02*
X144466890Y-67013717D01*
G75*
G02*
X144572956Y-67013717I53033J-53033D01*
G01*
X145509872Y-67950633D01*
G75*
G02*
X145509872Y-68056699I-53033J-53033D01*
G01*
X145403806Y-68162765D01*
G75*
G02*
X145297740Y-68162765I-53033J53033D01*
G01*
X144360824Y-67225849D01*
G75*
G02*
X144360824Y-67119783I53033J53033D01*
G01*
G37*
G36*
G01*
X144714377Y-66766230D02*
X144820443Y-66660164D01*
G75*
G02*
X144926509Y-66660164I53033J-53033D01*
G01*
X145863425Y-67597080D01*
G75*
G02*
X145863425Y-67703146I-53033J-53033D01*
G01*
X145757359Y-67809212D01*
G75*
G02*
X145651293Y-67809212I-53033J53033D01*
G01*
X144714377Y-66872296D01*
G75*
G02*
X144714377Y-66766230I53033J53033D01*
G01*
G37*
G36*
G01*
X145067930Y-66412676D02*
X145173996Y-66306610D01*
G75*
G02*
X145280062Y-66306610I53033J-53033D01*
G01*
X146216978Y-67243526D01*
G75*
G02*
X146216978Y-67349592I-53033J-53033D01*
G01*
X146110912Y-67455658D01*
G75*
G02*
X146004846Y-67455658I-53033J53033D01*
G01*
X145067930Y-66518742D01*
G75*
G02*
X145067930Y-66412676I53033J53033D01*
G01*
G37*
G36*
G01*
X145421484Y-66059123D02*
X145527550Y-65953057D01*
G75*
G02*
X145633616Y-65953057I53033J-53033D01*
G01*
X146570532Y-66889973D01*
G75*
G02*
X146570532Y-66996039I-53033J-53033D01*
G01*
X146464466Y-67102105D01*
G75*
G02*
X146358400Y-67102105I-53033J53033D01*
G01*
X145421484Y-66165189D01*
G75*
G02*
X145421484Y-66059123I53033J53033D01*
G01*
G37*
G36*
G01*
X145775037Y-65705569D02*
X145881103Y-65599503D01*
G75*
G02*
X145987169Y-65599503I53033J-53033D01*
G01*
X146924085Y-66536419D01*
G75*
G02*
X146924085Y-66642485I-53033J-53033D01*
G01*
X146818019Y-66748551D01*
G75*
G02*
X146711953Y-66748551I-53033J53033D01*
G01*
X145775037Y-65811635D01*
G75*
G02*
X145775037Y-65705569I53033J53033D01*
G01*
G37*
G36*
G01*
X146128591Y-65352016D02*
X146234657Y-65245950D01*
G75*
G02*
X146340723Y-65245950I53033J-53033D01*
G01*
X147277639Y-66182866D01*
G75*
G02*
X147277639Y-66288932I-53033J-53033D01*
G01*
X147171573Y-66394998D01*
G75*
G02*
X147065507Y-66394998I-53033J53033D01*
G01*
X146128591Y-65458082D01*
G75*
G02*
X146128591Y-65352016I53033J53033D01*
G01*
G37*
G36*
G01*
X146482144Y-64998463D02*
X146588210Y-64892397D01*
G75*
G02*
X146694276Y-64892397I53033J-53033D01*
G01*
X147631192Y-65829313D01*
G75*
G02*
X147631192Y-65935379I-53033J-53033D01*
G01*
X147525126Y-66041445D01*
G75*
G02*
X147419060Y-66041445I-53033J53033D01*
G01*
X146482144Y-65104529D01*
G75*
G02*
X146482144Y-64998463I53033J53033D01*
G01*
G37*
G36*
G01*
X146835697Y-64644909D02*
X146941763Y-64538843D01*
G75*
G02*
X147047829Y-64538843I53033J-53033D01*
G01*
X147984745Y-65475759D01*
G75*
G02*
X147984745Y-65581825I-53033J-53033D01*
G01*
X147878679Y-65687891D01*
G75*
G02*
X147772613Y-65687891I-53033J53033D01*
G01*
X146835697Y-64750975D01*
G75*
G02*
X146835697Y-64644909I53033J53033D01*
G01*
G37*
G36*
G01*
X147189251Y-64291356D02*
X147295317Y-64185290D01*
G75*
G02*
X147401383Y-64185290I53033J-53033D01*
G01*
X148338299Y-65122206D01*
G75*
G02*
X148338299Y-65228272I-53033J-53033D01*
G01*
X148232233Y-65334338D01*
G75*
G02*
X148126167Y-65334338I-53033J53033D01*
G01*
X147189251Y-64397422D01*
G75*
G02*
X147189251Y-64291356I53033J53033D01*
G01*
G37*
G36*
G01*
X147542804Y-63937802D02*
X147648870Y-63831736D01*
G75*
G02*
X147754936Y-63831736I53033J-53033D01*
G01*
X148691852Y-64768652D01*
G75*
G02*
X148691852Y-64874718I-53033J-53033D01*
G01*
X148585786Y-64980784D01*
G75*
G02*
X148479720Y-64980784I-53033J53033D01*
G01*
X147542804Y-64043868D01*
G75*
G02*
X147542804Y-63937802I53033J53033D01*
G01*
G37*
G36*
G01*
X147896358Y-63584249D02*
X148002424Y-63478183D01*
G75*
G02*
X148108490Y-63478183I53033J-53033D01*
G01*
X149045406Y-64415099D01*
G75*
G02*
X149045406Y-64521165I-53033J-53033D01*
G01*
X148939340Y-64627231D01*
G75*
G02*
X148833274Y-64627231I-53033J53033D01*
G01*
X147896358Y-63690315D01*
G75*
G02*
X147896358Y-63584249I53033J53033D01*
G01*
G37*
G36*
G01*
X148249911Y-63230696D02*
X148355977Y-63124630D01*
G75*
G02*
X148462043Y-63124630I53033J-53033D01*
G01*
X149398959Y-64061546D01*
G75*
G02*
X149398959Y-64167612I-53033J-53033D01*
G01*
X149292893Y-64273678D01*
G75*
G02*
X149186827Y-64273678I-53033J53033D01*
G01*
X148249911Y-63336762D01*
G75*
G02*
X148249911Y-63230696I53033J53033D01*
G01*
G37*
%TD*%
%TO.C,U2*%
G36*
G01*
X166930000Y-54855000D02*
X166930000Y-46145000D01*
G75*
G02*
X167355000Y-45720000I425000J0D01*
G01*
X168205000Y-45720000D01*
G75*
G02*
X168630000Y-46145000I0J-425000D01*
G01*
X168630000Y-54855000D01*
G75*
G02*
X168205000Y-55280000I-425000J0D01*
G01*
X167355000Y-55280000D01*
G75*
G02*
X166930000Y-54855000I0J425000D01*
G01*
G37*
G36*
G01*
X164390000Y-54855000D02*
X164390000Y-46145000D01*
G75*
G02*
X164815000Y-45720000I425000J0D01*
G01*
X165665000Y-45720000D01*
G75*
G02*
X166090000Y-46145000I0J-425000D01*
G01*
X166090000Y-54855000D01*
G75*
G02*
X165665000Y-55280000I-425000J0D01*
G01*
X164815000Y-55280000D01*
G75*
G02*
X164390000Y-54855000I0J425000D01*
G01*
G37*
G36*
G01*
X161850000Y-54855000D02*
X161850000Y-46145000D01*
G75*
G02*
X162275000Y-45720000I425000J0D01*
G01*
X163125000Y-45720000D01*
G75*
G02*
X163550000Y-46145000I0J-425000D01*
G01*
X163550000Y-54855000D01*
G75*
G02*
X163125000Y-55280000I-425000J0D01*
G01*
X162275000Y-55280000D01*
G75*
G02*
X161850000Y-54855000I0J425000D01*
G01*
G37*
G36*
G01*
X159310000Y-54855000D02*
X159310000Y-46145000D01*
G75*
G02*
X159735000Y-45720000I425000J0D01*
G01*
X160585000Y-45720000D01*
G75*
G02*
X161010000Y-46145000I0J-425000D01*
G01*
X161010000Y-54855000D01*
G75*
G02*
X160585000Y-55280000I-425000J0D01*
G01*
X159735000Y-55280000D01*
G75*
G02*
X159310000Y-54855000I0J425000D01*
G01*
G37*
G36*
G01*
X156770000Y-54855000D02*
X156770000Y-46145000D01*
G75*
G02*
X157195000Y-45720000I425000J0D01*
G01*
X158045000Y-45720000D01*
G75*
G02*
X158470000Y-46145000I0J-425000D01*
G01*
X158470000Y-54855000D01*
G75*
G02*
X158045000Y-55280000I-425000J0D01*
G01*
X157195000Y-55280000D01*
G75*
G02*
X156770000Y-54855000I0J425000D01*
G01*
G37*
G36*
G01*
X154230000Y-54855000D02*
X154230000Y-46145000D01*
G75*
G02*
X154655000Y-45720000I425000J0D01*
G01*
X155505000Y-45720000D01*
G75*
G02*
X155930000Y-46145000I0J-425000D01*
G01*
X155930000Y-54855000D01*
G75*
G02*
X155505000Y-55280000I-425000J0D01*
G01*
X154655000Y-55280000D01*
G75*
G02*
X154230000Y-54855000I0J425000D01*
G01*
G37*
G36*
G01*
X151690000Y-54855000D02*
X151690000Y-46145000D01*
G75*
G02*
X152115000Y-45720000I425000J0D01*
G01*
X152965000Y-45720000D01*
G75*
G02*
X153390000Y-46145000I0J-425000D01*
G01*
X153390000Y-54855000D01*
G75*
G02*
X152965000Y-55280000I-425000J0D01*
G01*
X152115000Y-55280000D01*
G75*
G02*
X151690000Y-54855000I0J425000D01*
G01*
G37*
G36*
G01*
X149150000Y-54855000D02*
X149150000Y-46145000D01*
G75*
G02*
X149575000Y-45720000I425000J0D01*
G01*
X150425000Y-45720000D01*
G75*
G02*
X150850000Y-46145000I0J-425000D01*
G01*
X150850000Y-54855000D01*
G75*
G02*
X150425000Y-55280000I-425000J0D01*
G01*
X149575000Y-55280000D01*
G75*
G02*
X149150000Y-54855000I0J425000D01*
G01*
G37*
G36*
G01*
X146610000Y-54855000D02*
X146610000Y-46145000D01*
G75*
G02*
X147035000Y-45720000I425000J0D01*
G01*
X147885000Y-45720000D01*
G75*
G02*
X148310000Y-46145000I0J-425000D01*
G01*
X148310000Y-54855000D01*
G75*
G02*
X147885000Y-55280000I-425000J0D01*
G01*
X147035000Y-55280000D01*
G75*
G02*
X146610000Y-54855000I0J425000D01*
G01*
G37*
G36*
G01*
X144070000Y-54855000D02*
X144070000Y-46145000D01*
G75*
G02*
X144495000Y-45720000I425000J0D01*
G01*
X145345000Y-45720000D01*
G75*
G02*
X145770000Y-46145000I0J-425000D01*
G01*
X145770000Y-54855000D01*
G75*
G02*
X145345000Y-55280000I-425000J0D01*
G01*
X144495000Y-55280000D01*
G75*
G02*
X144070000Y-54855000I0J425000D01*
G01*
G37*
G36*
G01*
X141530000Y-54855000D02*
X141530000Y-46145000D01*
G75*
G02*
X141955000Y-45720000I425000J0D01*
G01*
X142805000Y-45720000D01*
G75*
G02*
X143230000Y-46145000I0J-425000D01*
G01*
X143230000Y-54855000D01*
G75*
G02*
X142805000Y-55280000I-425000J0D01*
G01*
X141955000Y-55280000D01*
G75*
G02*
X141530000Y-54855000I0J425000D01*
G01*
G37*
G36*
G01*
X138990000Y-54855000D02*
X138990000Y-46145000D01*
G75*
G02*
X139415000Y-45720000I425000J0D01*
G01*
X140265000Y-45720000D01*
G75*
G02*
X140690000Y-46145000I0J-425000D01*
G01*
X140690000Y-54855000D01*
G75*
G02*
X140265000Y-55280000I-425000J0D01*
G01*
X139415000Y-55280000D01*
G75*
G02*
X138990000Y-54855000I0J425000D01*
G01*
G37*
G36*
G01*
X136450000Y-54855000D02*
X136450000Y-46145000D01*
G75*
G02*
X136875000Y-45720000I425000J0D01*
G01*
X137725000Y-45720000D01*
G75*
G02*
X138150000Y-46145000I0J-425000D01*
G01*
X138150000Y-54855000D01*
G75*
G02*
X137725000Y-55280000I-425000J0D01*
G01*
X136875000Y-55280000D01*
G75*
G02*
X136450000Y-54855000I0J425000D01*
G01*
G37*
G36*
G01*
X133910000Y-54855000D02*
X133910000Y-46145000D01*
G75*
G02*
X134335000Y-45720000I425000J0D01*
G01*
X135185000Y-45720000D01*
G75*
G02*
X135610000Y-46145000I0J-425000D01*
G01*
X135610000Y-54855000D01*
G75*
G02*
X135185000Y-55280000I-425000J0D01*
G01*
X134335000Y-55280000D01*
G75*
G02*
X133910000Y-54855000I0J425000D01*
G01*
G37*
G36*
G01*
X131370000Y-54855000D02*
X131370000Y-46145000D01*
G75*
G02*
X131795000Y-45720000I425000J0D01*
G01*
X132645000Y-45720000D01*
G75*
G02*
X133070000Y-46145000I0J-425000D01*
G01*
X133070000Y-54855000D01*
G75*
G02*
X132645000Y-55280000I-425000J0D01*
G01*
X131795000Y-55280000D01*
G75*
G02*
X131370000Y-54855000I0J425000D01*
G01*
G37*
%TD*%
D14*
%TO.C,H1*%
X150000000Y-92174000D03*
%TD*%
%TO.C,C1*%
G36*
G01*
X132870001Y-67662500D02*
X131569999Y-67662500D01*
G75*
G02*
X131320000Y-67412501I0J249999D01*
G01*
X131320000Y-66587499D01*
G75*
G02*
X131569999Y-66337500I249999J0D01*
G01*
X132870001Y-66337500D01*
G75*
G02*
X133120000Y-66587499I0J-249999D01*
G01*
X133120000Y-67412501D01*
G75*
G02*
X132870001Y-67662500I-249999J0D01*
G01*
G37*
G36*
G01*
X132870001Y-64537500D02*
X131569999Y-64537500D01*
G75*
G02*
X131320000Y-64287501I0J249999D01*
G01*
X131320000Y-63462499D01*
G75*
G02*
X131569999Y-63212500I249999J0D01*
G01*
X132870001Y-63212500D01*
G75*
G02*
X133120000Y-63462499I0J-249999D01*
G01*
X133120000Y-64287501D01*
G75*
G02*
X132870001Y-64537500I-249999J0D01*
G01*
G37*
%TD*%
%TO.C,C2*%
G36*
G01*
X123537500Y-70804999D02*
X123537500Y-72105001D01*
G75*
G02*
X123287501Y-72355000I-249999J0D01*
G01*
X122462499Y-72355000D01*
G75*
G02*
X122212500Y-72105001I0J249999D01*
G01*
X122212500Y-70804999D01*
G75*
G02*
X122462499Y-70555000I249999J0D01*
G01*
X123287501Y-70555000D01*
G75*
G02*
X123537500Y-70804999I0J-249999D01*
G01*
G37*
G36*
G01*
X126662500Y-70804999D02*
X126662500Y-72105001D01*
G75*
G02*
X126412501Y-72355000I-249999J0D01*
G01*
X125587499Y-72355000D01*
G75*
G02*
X125337500Y-72105001I0J249999D01*
G01*
X125337500Y-70804999D01*
G75*
G02*
X125587499Y-70555000I249999J0D01*
G01*
X126412501Y-70555000D01*
G75*
G02*
X126662500Y-70804999I0J-249999D01*
G01*
G37*
%TD*%
D15*
%TO.C,U1*%
X125912500Y-65500000D03*
X125912500Y-68500000D03*
D16*
G36*
X129862500Y-67866500D02*
G01*
X126737500Y-67866500D01*
X126737500Y-67450000D01*
X125262500Y-67450000D01*
X125262500Y-66550000D01*
X126737500Y-66550000D01*
X126737500Y-66133500D01*
X129862500Y-66133500D01*
X129862500Y-67866500D01*
G37*
%TD*%
%TO.C,D1*%
G36*
G01*
X118875000Y-68450001D02*
X118875000Y-67549999D01*
G75*
G02*
X119124999Y-67300000I249999J0D01*
G01*
X119775001Y-67300000D01*
G75*
G02*
X120025000Y-67549999I0J-249999D01*
G01*
X120025000Y-68450001D01*
G75*
G02*
X119775001Y-68700000I-249999J0D01*
G01*
X119124999Y-68700000D01*
G75*
G02*
X118875000Y-68450001I0J249999D01*
G01*
G37*
G36*
G01*
X120925000Y-68450001D02*
X120925000Y-67549999D01*
G75*
G02*
X121174999Y-67300000I249999J0D01*
G01*
X121825001Y-67300000D01*
G75*
G02*
X122075000Y-67549999I0J-249999D01*
G01*
X122075000Y-68450001D01*
G75*
G02*
X121825001Y-68700000I-249999J0D01*
G01*
X121174999Y-68700000D01*
G75*
G02*
X120925000Y-68450001I0J249999D01*
G01*
G37*
%TD*%
%TO.C,R1*%
G36*
G01*
X118900000Y-65950001D02*
X118900000Y-65049999D01*
G75*
G02*
X119149999Y-64800000I249999J0D01*
G01*
X119850001Y-64800000D01*
G75*
G02*
X120100000Y-65049999I0J-249999D01*
G01*
X120100000Y-65950001D01*
G75*
G02*
X119850001Y-66200000I-249999J0D01*
G01*
X119149999Y-66200000D01*
G75*
G02*
X118900000Y-65950001I0J249999D01*
G01*
G37*
G36*
G01*
X120900000Y-65950001D02*
X120900000Y-65049999D01*
G75*
G02*
X121149999Y-64800000I249999J0D01*
G01*
X121850001Y-64800000D01*
G75*
G02*
X122100000Y-65049999I0J-249999D01*
G01*
X122100000Y-65950001D01*
G75*
G02*
X121850001Y-66200000I-249999J0D01*
G01*
X121149999Y-66200000D01*
G75*
G02*
X120900000Y-65950001I0J249999D01*
G01*
G37*
%TD*%
M02*
