M48
; DRILL file {KiCad 5.1.10-6.fc33} date Sun Sep 12 19:05:24 2021
; FORMAT={-:-/ absolute / inch / decimal}
; #@! TF.CreationDate,2021-09-12T19:05:24+02:00
; #@! TF.GenerationSoftware,Kicad,Pcbnew,5.1.10-6.fc33
; #@! TF.FileFunction,Plated,1,2,PTH
FMAT,2
INCH
T1C0.0197
T2C0.0315
T3C0.0394
%
G90
G05
T1
X4.74Y-4.495
X4.74Y-4.835
X4.7625Y-4.0175
X4.77Y-3.62
X4.795Y-5.21
X4.88Y-3.1325
X5.06Y-4.77
X5.075Y-2.725
X5.0925Y-2.8775
X5.175Y-4.5025
X5.2305Y-2.3132
X5.37Y-4.15
X5.38Y-3.91
X5.3805Y-2.3132
X5.3805Y-2.3682
X5.3805Y-2.4332
X5.3875Y-3.6025
X5.42Y-3.81
X5.4225Y-3.525
X5.425Y-2.875
X5.4455Y-2.3132
X5.4475Y-3.0725
X5.485Y-4.645
X5.5Y-4.44
X5.5255Y-2.7532
X5.5555Y-2.3132
X5.5867Y-2.8996
X5.625Y-3.995
X5.6375Y-2.9625
X5.6458Y-4.915
X5.6555Y-2.3132
X5.6925Y-3.27
X5.695Y-4.445
X5.7025Y-3.825
X5.7145Y-3.2192
X5.715Y-5.205
X5.7305Y-3.0632
X5.7375Y-3.4525
X5.74Y-4.64
X5.7425Y-3.365
X5.7555Y-2.3132
X5.78Y-3.315
X5.7905Y-2.9532
X5.815Y-3.465
X5.83Y-4.22
X5.8405Y-2.6005
X5.8555Y-2.3132
X5.885Y-4.64
X5.885Y-4.825
X5.9Y-2.875
X5.905Y-4.015
X5.9188Y-2.4749
X5.9205Y-3.2082
X5.9355Y-2.5782
X5.9555Y-2.3132
X5.97Y-5.175
X5.9955Y-3.1432
X6.05Y-2.875
X6.055Y-3.85
X6.0555Y-2.2882
X6.0605Y-2.7032
X6.0645Y-3.0762
X6.1555Y-2.2882
X6.1605Y-2.9782
X6.2Y-4.51
X6.2385Y-2.6832
X6.2555Y-2.2882
X6.3415Y-2.9622
X6.355Y-4.16
X6.3555Y-2.2882
X6.375Y-4.89
X6.4805Y-2.2882
X6.575Y-2.525
X6.6055Y-2.2882
X6.69Y-4.16
X6.7Y-2.675
X6.925Y-2.625
X7.05Y-2.75
X7.05Y-3.0
X7.06Y-4.535
X7.06Y-4.935
X7.065Y-4.115
T2
X4.7555Y-2.8132
X4.8819Y-2.5787
X5.4155Y-2.6382
X5.5555Y-2.6882
X5.65Y-4.225
X5.6805Y-2.8132
X5.99Y-4.5508
X6.093Y-2.7807
X6.355Y-2.885
X6.425Y-3.705
X6.78Y-3.805
X6.94Y-3.35
T3
X4.9975Y-3.5638
X4.9975Y-3.6638
X4.9975Y-3.7638
X4.9975Y-3.8638
X4.9975Y-3.9638
X4.9975Y-4.0638
X5.0Y-4.59
X5.0Y-4.69
X5.0Y-4.79
X5.0Y-4.89
X5.0Y-4.99
X5.0Y-5.09
X5.005Y-4.29
X5.005Y-4.39
X5.1075Y-3.1775
X5.1075Y-3.2775
X5.1075Y-3.3775
X5.2075Y-3.1775
X5.2075Y-3.2775
X5.2075Y-3.3775
X5.305Y-5.16
X5.405Y-5.16
X5.505Y-5.16
X5.605Y-5.16
T0
M30
