%TF.GenerationSoftware,KiCad,Pcbnew,5.1.10-1.fc33*%
%TF.CreationDate,2021-06-14T19:53:07+02:00*%
%TF.ProjectId,xecar524,78656361-7235-4323-942e-6b696361645f,rev?*%
%TF.SameCoordinates,Original*%
%TF.FileFunction,Copper,L2,Bot*%
%TF.FilePolarity,Positive*%
%FSLAX46Y46*%
G04 Gerber Fmt 4.6, Leading zero omitted, Abs format (unit mm)*
G04 Created by KiCad (PCBNEW 5.1.10-1.fc33) date 2021-06-14 19:53:07*
%MOMM*%
%LPD*%
G01*
G04 APERTURE LIST*
%TA.AperFunction,ComponentPad*%
%ADD10O,1.700000X1.700000*%
%TD*%
%TA.AperFunction,ComponentPad*%
%ADD11R,1.700000X1.700000*%
%TD*%
%TA.AperFunction,ComponentPad*%
%ADD12C,1.422400*%
%TD*%
%TA.AperFunction,ComponentPad*%
%ADD13R,1.422400X1.422400*%
%TD*%
%TA.AperFunction,ViaPad*%
%ADD14C,1.500000*%
%TD*%
%TA.AperFunction,ViaPad*%
%ADD15C,1.000000*%
%TD*%
%TA.AperFunction,Conductor*%
%ADD16C,1.000000*%
%TD*%
%TA.AperFunction,Conductor*%
%ADD17C,0.254000*%
%TD*%
%TA.AperFunction,Conductor*%
%ADD18C,0.800000*%
%TD*%
%TA.AperFunction,Conductor*%
%ADD19C,0.100000*%
%TD*%
G04 APERTURE END LIST*
D10*
%TO.P,J3,4*%
%TO.N,GND*%
X129540000Y-121920000D03*
%TO.P,J3,3*%
%TO.N,CFG1*%
X132080000Y-121920000D03*
%TO.P,J3,2*%
%TO.N,GND*%
X129540000Y-124460000D03*
D11*
%TO.P,J3,1*%
%TO.N,CFG0*%
X132080000Y-124460000D03*
%TD*%
D12*
%TO.P,U4,29*%
%TO.N,ROM_A14*%
X171590000Y-108920000D03*
%TO.P,U4,27*%
%TO.N,ROM_A8*%
X169050000Y-108920000D03*
%TO.P,U4,25*%
%TO.N,ROM_A11*%
X166510000Y-108920000D03*
%TO.P,U4,23*%
%TO.N,ROM_A10*%
X163970000Y-108920000D03*
%TO.P,U4,28*%
%TO.N,ROM_A13*%
X169050000Y-106380000D03*
%TO.P,U4,26*%
%TO.N,ROM_A9*%
X166510000Y-106380000D03*
%TO.P,U4,24*%
%TO.N,OE#*%
X163970000Y-106380000D03*
%TO.P,U4,22*%
%TO.N,CE#*%
X161430000Y-106380000D03*
%TO.P,U4,20*%
%TO.N,ROM_D6*%
X158890000Y-106380000D03*
%TO.P,U4,18*%
%TO.N,ROM_D4*%
X158890000Y-103840000D03*
%TO.P,U4,16*%
%TO.N,GND*%
X158890000Y-101300000D03*
%TO.P,U4,14*%
%TO.N,ROM_D1*%
X158890000Y-98760000D03*
%TO.P,U4,21*%
%TO.N,ROM_D7*%
X161430000Y-108920000D03*
%TO.P,U4,19*%
%TO.N,ROM_D5*%
X161430000Y-103840000D03*
%TO.P,U4,17*%
%TO.N,ROM_D3*%
X161430000Y-101300000D03*
%TO.P,U4,15*%
%TO.N,ROM_D2*%
X161430000Y-98760000D03*
%TO.P,U4,13*%
%TO.N,ROM_D0*%
X161430000Y-96220000D03*
%TO.P,U4,11*%
%TO.N,ROM_A1*%
X163970000Y-96220000D03*
%TO.P,U4,9*%
%TO.N,ROM_A3*%
X166510000Y-96220000D03*
%TO.P,U4,7*%
%TO.N,ROM_A5*%
X169050000Y-96220000D03*
%TO.P,U4,5*%
%TO.N,ROM_A7*%
X171590000Y-96220000D03*
%TO.P,U4,12*%
%TO.N,ROM_A0*%
X163970000Y-98760000D03*
%TO.P,U4,10*%
%TO.N,ROM_A2*%
X166510000Y-98760000D03*
%TO.P,U4,8*%
%TO.N,ROM_A4*%
X169050000Y-98760000D03*
%TO.P,U4,6*%
%TO.N,ROM_A6*%
X171590000Y-98760000D03*
%TO.P,U4,30*%
%TO.N,ROM_A17*%
X174130000Y-106380000D03*
%TO.P,U4,32*%
%TO.N,+3V3*%
X174130000Y-103840000D03*
%TO.P,U4,4*%
%TO.N,ROM_A12*%
X174130000Y-98760000D03*
%TO.P,U4,2*%
%TO.N,ROM_A16*%
X174130000Y-101300000D03*
%TO.P,U4,31*%
%TO.N,WE#*%
X171590000Y-106380000D03*
%TO.P,U4,3*%
%TO.N,ROM_A15*%
X171590000Y-101300000D03*
D13*
%TO.P,U4,1*%
%TO.N,ROM_A18*%
X171590000Y-103840000D03*
%TD*%
D10*
%TO.P,J2,8*%
%TO.N,Net-(J2-Pad8)*%
X126505000Y-82265000D03*
%TO.P,J2,7*%
%TO.N,Net-(J2-Pad7)*%
X126505000Y-84805000D03*
%TO.P,J2,6*%
%TO.N,Net-(J2-Pad6)*%
X126505000Y-87345000D03*
%TO.P,J2,5*%
%TO.N,Net-(J2-Pad5)*%
X126505000Y-89885000D03*
%TO.P,J2,4*%
%TO.N,Net-(J2-Pad4)*%
X126505000Y-92425000D03*
%TO.P,J2,3*%
%TO.N,Net-(J2-Pad3)*%
X126505000Y-94965000D03*
%TO.P,J2,2*%
%TO.N,GND*%
X126505000Y-97505000D03*
D11*
%TO.P,J2,1*%
%TO.N,+3V3*%
X126505000Y-100045000D03*
%TD*%
%TO.P,C10,2*%
%TO.N,GND*%
%TA.AperFunction,SMDPad,CuDef*%
G36*
G01*
X149906000Y-84372500D02*
X150856000Y-84372500D01*
G75*
G02*
X151106000Y-84622500I0J-250000D01*
G01*
X151106000Y-85297500D01*
G75*
G02*
X150856000Y-85547500I-250000J0D01*
G01*
X149906000Y-85547500D01*
G75*
G02*
X149656000Y-85297500I0J250000D01*
G01*
X149656000Y-84622500D01*
G75*
G02*
X149906000Y-84372500I250000J0D01*
G01*
G37*
%TD.AperFunction*%
%TO.P,C10,1*%
%TO.N,+3V3*%
%TA.AperFunction,SMDPad,CuDef*%
G36*
G01*
X149906000Y-82297500D02*
X150856000Y-82297500D01*
G75*
G02*
X151106000Y-82547500I0J-250000D01*
G01*
X151106000Y-83222500D01*
G75*
G02*
X150856000Y-83472500I-250000J0D01*
G01*
X149906000Y-83472500D01*
G75*
G02*
X149656000Y-83222500I0J250000D01*
G01*
X149656000Y-82547500D01*
G75*
G02*
X149906000Y-82297500I250000J0D01*
G01*
G37*
%TD.AperFunction*%
%TD*%
%TO.P,C9,2*%
%TO.N,GND*%
%TA.AperFunction,SMDPad,CuDef*%
G36*
G01*
X177755000Y-104315000D02*
X177755000Y-103365000D01*
G75*
G02*
X178005000Y-103115000I250000J0D01*
G01*
X178680000Y-103115000D01*
G75*
G02*
X178930000Y-103365000I0J-250000D01*
G01*
X178930000Y-104315000D01*
G75*
G02*
X178680000Y-104565000I-250000J0D01*
G01*
X178005000Y-104565000D01*
G75*
G02*
X177755000Y-104315000I0J250000D01*
G01*
G37*
%TD.AperFunction*%
%TO.P,C9,1*%
%TO.N,+3V3*%
%TA.AperFunction,SMDPad,CuDef*%
G36*
G01*
X175680000Y-104315000D02*
X175680000Y-103365000D01*
G75*
G02*
X175930000Y-103115000I250000J0D01*
G01*
X176605000Y-103115000D01*
G75*
G02*
X176855000Y-103365000I0J-250000D01*
G01*
X176855000Y-104315000D01*
G75*
G02*
X176605000Y-104565000I-250000J0D01*
G01*
X175930000Y-104565000D01*
G75*
G02*
X175680000Y-104315000I0J250000D01*
G01*
G37*
%TD.AperFunction*%
%TD*%
%TO.P,C8,2*%
%TO.N,GND*%
%TA.AperFunction,SMDPad,CuDef*%
G36*
G01*
X139873000Y-75228500D02*
X140823000Y-75228500D01*
G75*
G02*
X141073000Y-75478500I0J-250000D01*
G01*
X141073000Y-76153500D01*
G75*
G02*
X140823000Y-76403500I-250000J0D01*
G01*
X139873000Y-76403500D01*
G75*
G02*
X139623000Y-76153500I0J250000D01*
G01*
X139623000Y-75478500D01*
G75*
G02*
X139873000Y-75228500I250000J0D01*
G01*
G37*
%TD.AperFunction*%
%TO.P,C8,1*%
%TO.N,+3V3*%
%TA.AperFunction,SMDPad,CuDef*%
G36*
G01*
X139873000Y-73153500D02*
X140823000Y-73153500D01*
G75*
G02*
X141073000Y-73403500I0J-250000D01*
G01*
X141073000Y-74078500D01*
G75*
G02*
X140823000Y-74328500I-250000J0D01*
G01*
X139873000Y-74328500D01*
G75*
G02*
X139623000Y-74078500I0J250000D01*
G01*
X139623000Y-73403500D01*
G75*
G02*
X139873000Y-73153500I250000J0D01*
G01*
G37*
%TD.AperFunction*%
%TD*%
%TO.P,C7,2*%
%TO.N,GND*%
%TA.AperFunction,SMDPad,CuDef*%
G36*
G01*
X153015000Y-63998500D02*
X152065000Y-63998500D01*
G75*
G02*
X151815000Y-63748500I0J250000D01*
G01*
X151815000Y-63073500D01*
G75*
G02*
X152065000Y-62823500I250000J0D01*
G01*
X153015000Y-62823500D01*
G75*
G02*
X153265000Y-63073500I0J-250000D01*
G01*
X153265000Y-63748500D01*
G75*
G02*
X153015000Y-63998500I-250000J0D01*
G01*
G37*
%TD.AperFunction*%
%TO.P,C7,1*%
%TO.N,+3V3*%
%TA.AperFunction,SMDPad,CuDef*%
G36*
G01*
X153015000Y-66073500D02*
X152065000Y-66073500D01*
G75*
G02*
X151815000Y-65823500I0J250000D01*
G01*
X151815000Y-65148500D01*
G75*
G02*
X152065000Y-64898500I250000J0D01*
G01*
X153015000Y-64898500D01*
G75*
G02*
X153265000Y-65148500I0J-250000D01*
G01*
X153265000Y-65823500D01*
G75*
G02*
X153015000Y-66073500I-250000J0D01*
G01*
G37*
%TD.AperFunction*%
%TD*%
D10*
%TO.P,J1,6*%
%TO.N,Net-(J1-Pad6)*%
X126505000Y-104490000D03*
%TO.P,J1,5*%
%TO.N,Net-(J1-Pad5)*%
X126505000Y-107030000D03*
%TO.P,J1,4*%
%TO.N,Net-(J1-Pad4)*%
X126505000Y-109570000D03*
%TO.P,J1,3*%
%TO.N,Net-(J1-Pad3)*%
X126505000Y-112110000D03*
%TO.P,J1,2*%
%TO.N,GND*%
X126505000Y-114650000D03*
D11*
%TO.P,J1,1*%
%TO.N,+3V3*%
X126505000Y-117190000D03*
%TD*%
%TO.P,U2,15*%
%TO.N,CCTL#*%
%TA.AperFunction,SMDPad,CuDef*%
G36*
G01*
X166930000Y-54855000D02*
X166930000Y-46145000D01*
G75*
G02*
X167355000Y-45720000I425000J0D01*
G01*
X168205000Y-45720000D01*
G75*
G02*
X168630000Y-46145000I0J-425000D01*
G01*
X168630000Y-54855000D01*
G75*
G02*
X168205000Y-55280000I-425000J0D01*
G01*
X167355000Y-55280000D01*
G75*
G02*
X166930000Y-54855000I0J425000D01*
G01*
G37*
%TD.AperFunction*%
%TO.P,U2,14*%
%TO.N,RD5*%
%TA.AperFunction,SMDPad,CuDef*%
G36*
G01*
X164390000Y-54855000D02*
X164390000Y-46145000D01*
G75*
G02*
X164815000Y-45720000I425000J0D01*
G01*
X165665000Y-45720000D01*
G75*
G02*
X166090000Y-46145000I0J-425000D01*
G01*
X166090000Y-54855000D01*
G75*
G02*
X165665000Y-55280000I-425000J0D01*
G01*
X164815000Y-55280000D01*
G75*
G02*
X164390000Y-54855000I0J425000D01*
G01*
G37*
%TD.AperFunction*%
%TO.P,U2,13*%
%TO.N,+5V*%
%TA.AperFunction,SMDPad,CuDef*%
G36*
G01*
X161850000Y-54855000D02*
X161850000Y-46145000D01*
G75*
G02*
X162275000Y-45720000I425000J0D01*
G01*
X163125000Y-45720000D01*
G75*
G02*
X163550000Y-46145000I0J-425000D01*
G01*
X163550000Y-54855000D01*
G75*
G02*
X163125000Y-55280000I-425000J0D01*
G01*
X162275000Y-55280000D01*
G75*
G02*
X161850000Y-54855000I0J425000D01*
G01*
G37*
%TD.AperFunction*%
%TO.P,U2,12*%
%TO.N,S5#*%
%TA.AperFunction,SMDPad,CuDef*%
G36*
G01*
X159310000Y-54855000D02*
X159310000Y-46145000D01*
G75*
G02*
X159735000Y-45720000I425000J0D01*
G01*
X160585000Y-45720000D01*
G75*
G02*
X161010000Y-46145000I0J-425000D01*
G01*
X161010000Y-54855000D01*
G75*
G02*
X160585000Y-55280000I-425000J0D01*
G01*
X159735000Y-55280000D01*
G75*
G02*
X159310000Y-54855000I0J425000D01*
G01*
G37*
%TD.AperFunction*%
%TO.P,U2,11*%
%TO.N,CART_D6*%
%TA.AperFunction,SMDPad,CuDef*%
G36*
G01*
X156770000Y-54855000D02*
X156770000Y-46145000D01*
G75*
G02*
X157195000Y-45720000I425000J0D01*
G01*
X158045000Y-45720000D01*
G75*
G02*
X158470000Y-46145000I0J-425000D01*
G01*
X158470000Y-54855000D01*
G75*
G02*
X158045000Y-55280000I-425000J0D01*
G01*
X157195000Y-55280000D01*
G75*
G02*
X156770000Y-54855000I0J425000D01*
G01*
G37*
%TD.AperFunction*%
%TO.P,U2,10*%
%TO.N,CART_D0*%
%TA.AperFunction,SMDPad,CuDef*%
G36*
G01*
X154230000Y-54855000D02*
X154230000Y-46145000D01*
G75*
G02*
X154655000Y-45720000I425000J0D01*
G01*
X155505000Y-45720000D01*
G75*
G02*
X155930000Y-46145000I0J-425000D01*
G01*
X155930000Y-54855000D01*
G75*
G02*
X155505000Y-55280000I-425000J0D01*
G01*
X154655000Y-55280000D01*
G75*
G02*
X154230000Y-54855000I0J425000D01*
G01*
G37*
%TD.AperFunction*%
%TO.P,U2,9*%
%TO.N,CART_D1*%
%TA.AperFunction,SMDPad,CuDef*%
G36*
G01*
X151690000Y-54855000D02*
X151690000Y-46145000D01*
G75*
G02*
X152115000Y-45720000I425000J0D01*
G01*
X152965000Y-45720000D01*
G75*
G02*
X153390000Y-46145000I0J-425000D01*
G01*
X153390000Y-54855000D01*
G75*
G02*
X152965000Y-55280000I-425000J0D01*
G01*
X152115000Y-55280000D01*
G75*
G02*
X151690000Y-54855000I0J425000D01*
G01*
G37*
%TD.AperFunction*%
%TO.P,U2,8*%
%TO.N,CART_D2*%
%TA.AperFunction,SMDPad,CuDef*%
G36*
G01*
X149150000Y-54855000D02*
X149150000Y-46145000D01*
G75*
G02*
X149575000Y-45720000I425000J0D01*
G01*
X150425000Y-45720000D01*
G75*
G02*
X150850000Y-46145000I0J-425000D01*
G01*
X150850000Y-54855000D01*
G75*
G02*
X150425000Y-55280000I-425000J0D01*
G01*
X149575000Y-55280000D01*
G75*
G02*
X149150000Y-54855000I0J425000D01*
G01*
G37*
%TD.AperFunction*%
%TO.P,U2,7*%
%TO.N,CART_D5*%
%TA.AperFunction,SMDPad,CuDef*%
G36*
G01*
X146610000Y-54855000D02*
X146610000Y-46145000D01*
G75*
G02*
X147035000Y-45720000I425000J0D01*
G01*
X147885000Y-45720000D01*
G75*
G02*
X148310000Y-46145000I0J-425000D01*
G01*
X148310000Y-54855000D01*
G75*
G02*
X147885000Y-55280000I-425000J0D01*
G01*
X147035000Y-55280000D01*
G75*
G02*
X146610000Y-54855000I0J425000D01*
G01*
G37*
%TD.AperFunction*%
%TO.P,U2,6*%
%TO.N,CART_D4*%
%TA.AperFunction,SMDPad,CuDef*%
G36*
G01*
X144070000Y-54855000D02*
X144070000Y-46145000D01*
G75*
G02*
X144495000Y-45720000I425000J0D01*
G01*
X145345000Y-45720000D01*
G75*
G02*
X145770000Y-46145000I0J-425000D01*
G01*
X145770000Y-54855000D01*
G75*
G02*
X145345000Y-55280000I-425000J0D01*
G01*
X144495000Y-55280000D01*
G75*
G02*
X144070000Y-54855000I0J425000D01*
G01*
G37*
%TD.AperFunction*%
%TO.P,U2,5*%
%TO.N,CART_A0*%
%TA.AperFunction,SMDPad,CuDef*%
G36*
G01*
X141530000Y-54855000D02*
X141530000Y-46145000D01*
G75*
G02*
X141955000Y-45720000I425000J0D01*
G01*
X142805000Y-45720000D01*
G75*
G02*
X143230000Y-46145000I0J-425000D01*
G01*
X143230000Y-54855000D01*
G75*
G02*
X142805000Y-55280000I-425000J0D01*
G01*
X141955000Y-55280000D01*
G75*
G02*
X141530000Y-54855000I0J425000D01*
G01*
G37*
%TD.AperFunction*%
%TO.P,U2,4*%
%TO.N,CART_A1*%
%TA.AperFunction,SMDPad,CuDef*%
G36*
G01*
X138990000Y-54855000D02*
X138990000Y-46145000D01*
G75*
G02*
X139415000Y-45720000I425000J0D01*
G01*
X140265000Y-45720000D01*
G75*
G02*
X140690000Y-46145000I0J-425000D01*
G01*
X140690000Y-54855000D01*
G75*
G02*
X140265000Y-55280000I-425000J0D01*
G01*
X139415000Y-55280000D01*
G75*
G02*
X138990000Y-54855000I0J425000D01*
G01*
G37*
%TD.AperFunction*%
%TO.P,U2,3*%
%TO.N,CART_A2*%
%TA.AperFunction,SMDPad,CuDef*%
G36*
G01*
X136450000Y-54855000D02*
X136450000Y-46145000D01*
G75*
G02*
X136875000Y-45720000I425000J0D01*
G01*
X137725000Y-45720000D01*
G75*
G02*
X138150000Y-46145000I0J-425000D01*
G01*
X138150000Y-54855000D01*
G75*
G02*
X137725000Y-55280000I-425000J0D01*
G01*
X136875000Y-55280000D01*
G75*
G02*
X136450000Y-54855000I0J425000D01*
G01*
G37*
%TD.AperFunction*%
%TO.P,U2,2*%
%TO.N,CART_A3*%
%TA.AperFunction,SMDPad,CuDef*%
G36*
G01*
X133910000Y-54855000D02*
X133910000Y-46145000D01*
G75*
G02*
X134335000Y-45720000I425000J0D01*
G01*
X135185000Y-45720000D01*
G75*
G02*
X135610000Y-46145000I0J-425000D01*
G01*
X135610000Y-54855000D01*
G75*
G02*
X135185000Y-55280000I-425000J0D01*
G01*
X134335000Y-55280000D01*
G75*
G02*
X133910000Y-54855000I0J425000D01*
G01*
G37*
%TD.AperFunction*%
%TO.P,U2,1*%
%TO.N,S4#*%
%TA.AperFunction,SMDPad,CuDef*%
G36*
G01*
X131370000Y-54855000D02*
X131370000Y-46145000D01*
G75*
G02*
X131795000Y-45720000I425000J0D01*
G01*
X132645000Y-45720000D01*
G75*
G02*
X133070000Y-46145000I0J-425000D01*
G01*
X133070000Y-54855000D01*
G75*
G02*
X132645000Y-55280000I-425000J0D01*
G01*
X131795000Y-55280000D01*
G75*
G02*
X131370000Y-54855000I0J425000D01*
G01*
G37*
%TD.AperFunction*%
%TD*%
%TO.P,C6,2*%
%TO.N,GND*%
%TA.AperFunction,SMDPad,CuDef*%
G36*
G01*
X153335000Y-81324500D02*
X154285000Y-81324500D01*
G75*
G02*
X154535000Y-81574500I0J-250000D01*
G01*
X154535000Y-82249500D01*
G75*
G02*
X154285000Y-82499500I-250000J0D01*
G01*
X153335000Y-82499500D01*
G75*
G02*
X153085000Y-82249500I0J250000D01*
G01*
X153085000Y-81574500D01*
G75*
G02*
X153335000Y-81324500I250000J0D01*
G01*
G37*
%TD.AperFunction*%
%TO.P,C6,1*%
%TO.N,+3V3*%
%TA.AperFunction,SMDPad,CuDef*%
G36*
G01*
X153335000Y-79249500D02*
X154285000Y-79249500D01*
G75*
G02*
X154535000Y-79499500I0J-250000D01*
G01*
X154535000Y-80174500D01*
G75*
G02*
X154285000Y-80424500I-250000J0D01*
G01*
X153335000Y-80424500D01*
G75*
G02*
X153085000Y-80174500I0J250000D01*
G01*
X153085000Y-79499500D01*
G75*
G02*
X153335000Y-79249500I250000J0D01*
G01*
G37*
%TD.AperFunction*%
%TD*%
%TO.P,C5,2*%
%TO.N,GND*%
%TA.AperFunction,SMDPad,CuDef*%
G36*
G01*
X146604000Y-79292500D02*
X147554000Y-79292500D01*
G75*
G02*
X147804000Y-79542500I0J-250000D01*
G01*
X147804000Y-80217500D01*
G75*
G02*
X147554000Y-80467500I-250000J0D01*
G01*
X146604000Y-80467500D01*
G75*
G02*
X146354000Y-80217500I0J250000D01*
G01*
X146354000Y-79542500D01*
G75*
G02*
X146604000Y-79292500I250000J0D01*
G01*
G37*
%TD.AperFunction*%
%TO.P,C5,1*%
%TO.N,+3V3*%
%TA.AperFunction,SMDPad,CuDef*%
G36*
G01*
X146604000Y-77217500D02*
X147554000Y-77217500D01*
G75*
G02*
X147804000Y-77467500I0J-250000D01*
G01*
X147804000Y-78142500D01*
G75*
G02*
X147554000Y-78392500I-250000J0D01*
G01*
X146604000Y-78392500D01*
G75*
G02*
X146354000Y-78142500I0J250000D01*
G01*
X146354000Y-77467500D01*
G75*
G02*
X146604000Y-77217500I250000J0D01*
G01*
G37*
%TD.AperFunction*%
%TD*%
%TO.P,C4,2*%
%TO.N,GND*%
%TA.AperFunction,SMDPad,CuDef*%
G36*
G01*
X147300000Y-64506500D02*
X146350000Y-64506500D01*
G75*
G02*
X146100000Y-64256500I0J250000D01*
G01*
X146100000Y-63581500D01*
G75*
G02*
X146350000Y-63331500I250000J0D01*
G01*
X147300000Y-63331500D01*
G75*
G02*
X147550000Y-63581500I0J-250000D01*
G01*
X147550000Y-64256500D01*
G75*
G02*
X147300000Y-64506500I-250000J0D01*
G01*
G37*
%TD.AperFunction*%
%TO.P,C4,1*%
%TO.N,+3V3*%
%TA.AperFunction,SMDPad,CuDef*%
G36*
G01*
X147300000Y-66581500D02*
X146350000Y-66581500D01*
G75*
G02*
X146100000Y-66331500I0J250000D01*
G01*
X146100000Y-65656500D01*
G75*
G02*
X146350000Y-65406500I250000J0D01*
G01*
X147300000Y-65406500D01*
G75*
G02*
X147550000Y-65656500I0J-250000D01*
G01*
X147550000Y-66331500D01*
G75*
G02*
X147300000Y-66581500I-250000J0D01*
G01*
G37*
%TD.AperFunction*%
%TD*%
%TO.P,C3,2*%
%TO.N,GND*%
%TA.AperFunction,SMDPad,CuDef*%
G36*
G01*
X151684000Y-70148500D02*
X152634000Y-70148500D01*
G75*
G02*
X152884000Y-70398500I0J-250000D01*
G01*
X152884000Y-71073500D01*
G75*
G02*
X152634000Y-71323500I-250000J0D01*
G01*
X151684000Y-71323500D01*
G75*
G02*
X151434000Y-71073500I0J250000D01*
G01*
X151434000Y-70398500D01*
G75*
G02*
X151684000Y-70148500I250000J0D01*
G01*
G37*
%TD.AperFunction*%
%TO.P,C3,1*%
%TO.N,+3V3*%
%TA.AperFunction,SMDPad,CuDef*%
G36*
G01*
X151684000Y-68073500D02*
X152634000Y-68073500D01*
G75*
G02*
X152884000Y-68323500I0J-250000D01*
G01*
X152884000Y-68998500D01*
G75*
G02*
X152634000Y-69248500I-250000J0D01*
G01*
X151684000Y-69248500D01*
G75*
G02*
X151434000Y-68998500I0J250000D01*
G01*
X151434000Y-68323500D01*
G75*
G02*
X151684000Y-68073500I250000J0D01*
G01*
G37*
%TD.AperFunction*%
%TD*%
D14*
%TO.N,+5V*%
X137554000Y-67010000D03*
%TO.N,GND*%
X123330000Y-65500000D03*
X120790000Y-71455000D03*
D15*
X150338206Y-62861795D03*
X161074400Y-75239600D03*
X158458200Y-68153000D03*
X154038600Y-78135200D03*
X156477000Y-75646000D03*
X145148600Y-81767400D03*
X141237000Y-77805000D03*
X140348000Y-69931000D03*
X139446000Y-117221000D03*
X137541000Y-114808000D03*
X140843000Y-110807500D03*
X153035000Y-106680000D03*
X152400000Y-100330000D03*
X149225000Y-102235000D03*
X146050000Y-97790000D03*
X145415000Y-88265000D03*
X179070000Y-76200000D03*
X179070000Y-69850000D03*
X175895000Y-66675000D03*
X173355000Y-71120000D03*
X170180000Y-67945000D03*
X167005000Y-64135000D03*
X149860000Y-73025000D03*
X153670000Y-73025000D03*
X137795000Y-73025000D03*
X128270000Y-73025000D03*
X128905000Y-69215000D03*
X130175000Y-102235000D03*
X136525000Y-97790000D03*
X136525000Y-89535000D03*
X165735000Y-77470000D03*
X172085000Y-83820000D03*
X120650000Y-86360000D03*
X120650000Y-93980000D03*
X132207000Y-97409000D03*
X133985000Y-93345000D03*
X121285000Y-102235000D03*
X132207000Y-114681000D03*
X120650000Y-118745000D03*
X120650000Y-125730000D03*
X120650000Y-130175000D03*
X125730000Y-130175000D03*
X132080000Y-130175000D03*
X138430000Y-130175000D03*
X144780000Y-130175000D03*
X150495000Y-130175000D03*
X155575000Y-130175000D03*
X161925000Y-130175000D03*
X168275000Y-130175000D03*
X175260000Y-130175000D03*
X179705000Y-126365000D03*
X179705000Y-119380000D03*
X179705000Y-111760000D03*
X162560000Y-115570000D03*
X155575000Y-115570000D03*
X147320000Y-115570000D03*
X147320000Y-123190000D03*
X146685000Y-109855000D03*
X123825000Y-79375000D03*
%TO.N,+3V3*%
X152286000Y-79837000D03*
X145555000Y-77805000D03*
X141901045Y-73650113D03*
X153937000Y-68661000D03*
X148349000Y-66052146D03*
X150381000Y-81488000D03*
X150762000Y-65486000D03*
D14*
X162192000Y-71455000D03*
X176289000Y-89997000D03*
X141110000Y-68280000D03*
X144285000Y-71455000D03*
X154762500Y-70629500D03*
D15*
%TO.N,TCK*%
X146825000Y-86360000D03*
X140970000Y-86360000D03*
%TO.N,TDO*%
X147079000Y-75011000D03*
X140970000Y-81280000D03*
%TO.N,TDI*%
X140221000Y-82885000D03*
X144048043Y-82885000D03*
%TO.N,TMS*%
X145555000Y-85090000D03*
X138303000Y-85090000D03*
%TO.N,S4#*%
X136665000Y-61803000D03*
%TO.N,RD4*%
X132855000Y-58755000D03*
X136665000Y-60152000D03*
%TO.N,S5#*%
X161430000Y-58120000D03*
%TO.N,RD5*%
X164605000Y-58120000D03*
%TO.N,CCTL#*%
X167780000Y-58120000D03*
%TO.N,CART_D6*%
X158890000Y-58120000D03*
%TO.N,CART_D0*%
X156350000Y-58120000D03*
%TO.N,CART_D1*%
X153810000Y-58120000D03*
%TO.N,CART_D2*%
X151270000Y-58755000D03*
%TO.N,CART_D5*%
X148730000Y-58755000D03*
%TO.N,CART_D4*%
X146190000Y-58755000D03*
%TO.N,CART_A0*%
X143650000Y-58755000D03*
%TO.N,CART_A1*%
X141110000Y-58755000D03*
%TO.N,CART_A2*%
X138316000Y-58755000D03*
%TO.N,CART_A3*%
X136665000Y-58755000D03*
%TO.N,MODE*%
X141618000Y-79964000D03*
X145809000Y-74249000D03*
%TO.N,SEL#*%
X140602000Y-79075000D03*
X144539000Y-73360000D03*
%TD*%
D16*
%TO.N,+5V*%
X162700000Y-59390000D02*
X161430000Y-60660000D01*
X162700000Y-50500000D02*
X162700000Y-59390000D01*
X137554000Y-63327000D02*
X140221000Y-60660000D01*
X161430000Y-60660000D02*
X140221000Y-60660000D01*
X137554000Y-67010000D02*
X137554000Y-63327000D01*
%TO.N,GND*%
X123330000Y-65500000D02*
X123330000Y-67010000D01*
X120790000Y-69550000D02*
X120790000Y-71455000D01*
X123330000Y-67010000D02*
X120790000Y-69550000D01*
%TO.N,+3V3*%
X174130000Y-103840000D02*
X176267500Y-103840000D01*
D17*
X141810158Y-73741000D02*
X141901045Y-73650113D01*
X140348000Y-73741000D02*
X141810158Y-73741000D01*
X152159000Y-68661000D02*
X153937000Y-68661000D01*
X145555000Y-77805000D02*
X147079000Y-77805000D01*
X146883146Y-66052146D02*
X146825000Y-65994000D01*
X148349000Y-66052146D02*
X146883146Y-66052146D01*
X153810000Y-79837000D02*
X152286000Y-79837000D01*
X150381000Y-82885000D02*
X150381000Y-81488000D01*
X152286000Y-65486000D02*
X152540000Y-65359000D01*
X150762000Y-65486000D02*
X152286000Y-65486000D01*
D18*
X150762000Y-65486000D02*
X149746000Y-65486000D01*
X149179854Y-66052146D02*
X148349000Y-66052146D01*
X149746000Y-65486000D02*
X149179854Y-66052146D01*
D16*
X176267500Y-103840000D02*
X176289000Y-89997000D01*
X141110000Y-68280000D02*
X144285000Y-71455000D01*
D18*
X143207158Y-72344000D02*
X141901045Y-73650113D01*
X143396000Y-72344000D02*
X143207158Y-72344000D01*
X144285000Y-71455000D02*
X143396000Y-72344000D01*
D16*
X155588000Y-71455000D02*
X154762500Y-70629500D01*
X162192000Y-71455000D02*
X155588000Y-71455000D01*
D17*
%TO.N,TCK*%
X140970000Y-86360000D02*
X146825000Y-86360000D01*
%TO.N,TDO*%
X147079000Y-75011000D02*
X143142000Y-78948000D01*
X140970000Y-81280000D02*
X141605000Y-81280000D01*
X143142000Y-79743000D02*
X143142000Y-78948000D01*
X141605000Y-81280000D02*
X143142000Y-79743000D01*
%TO.N,TDI*%
X140221000Y-82885000D02*
X144048043Y-82885000D01*
%TO.N,TMS*%
X140335000Y-85090000D02*
X145555000Y-85090000D01*
X138303000Y-85090000D02*
X140335000Y-85090000D01*
%TO.N,S4#*%
X133998000Y-61803000D02*
X131370000Y-59175000D01*
X136665000Y-61803000D02*
X133998000Y-61803000D01*
X131370000Y-59175000D02*
X131370000Y-58114000D01*
X132220000Y-57264000D02*
X131370000Y-58114000D01*
X132220000Y-50500000D02*
X132220000Y-57264000D01*
%TO.N,RD4*%
X135268000Y-58755000D02*
X136665000Y-60152000D01*
X132855000Y-58755000D02*
X135268000Y-58755000D01*
%TO.N,S5#*%
X160160000Y-50500000D02*
X160160000Y-56850000D01*
X160160000Y-56850000D02*
X161430000Y-58120000D01*
%TO.N,RD5*%
X165240000Y-57485000D02*
X164605000Y-58120000D01*
X165240000Y-50500000D02*
X165240000Y-57485000D01*
%TO.N,CCTL#*%
X167780000Y-56850000D02*
X167780000Y-50500000D01*
X167780000Y-58120000D02*
X167780000Y-56850000D01*
%TO.N,CART_D6*%
X157620000Y-50500000D02*
X157620000Y-56850000D01*
X157620000Y-56850000D02*
X158890000Y-58120000D01*
%TO.N,CART_D0*%
X155080000Y-50500000D02*
X155080000Y-56850000D01*
X155080000Y-56850000D02*
X156350000Y-58120000D01*
%TO.N,CART_D1*%
X153810000Y-58120000D02*
X152540000Y-56850000D01*
X152540000Y-56850000D02*
X152540000Y-50500000D01*
%TO.N,CART_D2*%
X150000000Y-50500000D02*
X150000000Y-57485000D01*
X150000000Y-57485000D02*
X151270000Y-58755000D01*
%TO.N,CART_D5*%
X147460000Y-57485000D02*
X147460000Y-50500000D01*
X148730000Y-58755000D02*
X147460000Y-57485000D01*
%TO.N,CART_D4*%
X144920000Y-57485000D02*
X144920000Y-50500000D01*
X146190000Y-58755000D02*
X144920000Y-57485000D01*
%TO.N,CART_A0*%
X142380000Y-57485000D02*
X142380000Y-50500000D01*
X143650000Y-58755000D02*
X142380000Y-57485000D01*
%TO.N,CART_A1*%
X139840000Y-57485000D02*
X139840000Y-50500000D01*
X141110000Y-58755000D02*
X139840000Y-57485000D01*
%TO.N,CART_A2*%
X137300000Y-57739000D02*
X138316000Y-58755000D01*
X137300000Y-50500000D02*
X137300000Y-57739000D01*
%TO.N,CART_A3*%
X136665000Y-57993000D02*
X134760000Y-56088000D01*
X136665000Y-58755000D02*
X136665000Y-57993000D01*
X134760000Y-56088000D02*
X134760000Y-50500000D01*
%TO.N,MODE*%
X141618000Y-79964000D02*
X142634000Y-78948000D01*
X142634000Y-78948000D02*
X142634000Y-77424000D01*
X142634000Y-77424000D02*
X145809000Y-74249000D01*
%TO.N,SEL#*%
X140602000Y-79075000D02*
X141618000Y-79075000D01*
X141618000Y-79075000D02*
X142126000Y-78567000D01*
X142126000Y-78567000D02*
X142126000Y-76535000D01*
X142126000Y-76535000D02*
X144539000Y-74122000D01*
X144539000Y-74122000D02*
X144539000Y-73360000D01*
%TD*%
%TO.N,GND*%
X130857649Y-57548721D02*
X130828579Y-57572578D01*
X130804722Y-57601648D01*
X130804721Y-57601649D01*
X130733355Y-57688608D01*
X130662599Y-57820985D01*
X130619027Y-57964622D01*
X130604314Y-58114000D01*
X130608001Y-58151433D01*
X130608000Y-59137576D01*
X130604314Y-59175000D01*
X130608000Y-59212423D01*
X130608000Y-59212425D01*
X130619026Y-59324377D01*
X130662598Y-59468014D01*
X130662599Y-59468015D01*
X130733355Y-59600392D01*
X130763080Y-59636612D01*
X130828578Y-59716422D01*
X130857654Y-59740284D01*
X133432721Y-62315352D01*
X133456578Y-62344422D01*
X133572608Y-62439645D01*
X133704985Y-62510402D01*
X133848622Y-62553974D01*
X133960574Y-62565000D01*
X133960576Y-62565000D01*
X133997999Y-62568686D01*
X134035422Y-62565000D01*
X135821868Y-62565000D01*
X135941480Y-62684612D01*
X136127376Y-62808824D01*
X136333933Y-62894383D01*
X136489760Y-62925379D01*
X136435423Y-63104502D01*
X136413509Y-63327000D01*
X136419001Y-63382761D01*
X136419000Y-66215714D01*
X136326629Y-66353957D01*
X136222225Y-66606011D01*
X136169000Y-66873589D01*
X136169000Y-67146411D01*
X136222225Y-67413989D01*
X136326629Y-67666043D01*
X136478201Y-67892886D01*
X136671114Y-68085799D01*
X136897957Y-68237371D01*
X137150011Y-68341775D01*
X137417589Y-68395000D01*
X137690411Y-68395000D01*
X137957989Y-68341775D01*
X138210043Y-68237371D01*
X138436886Y-68085799D01*
X138629799Y-67892886D01*
X138781371Y-67666043D01*
X138885775Y-67413989D01*
X138939000Y-67146411D01*
X138939000Y-66873589D01*
X138885775Y-66606011D01*
X138781371Y-66353957D01*
X138689000Y-66215714D01*
X138689000Y-64506500D01*
X145461928Y-64506500D01*
X145474188Y-64630982D01*
X145510498Y-64750680D01*
X145569463Y-64860994D01*
X145648815Y-64957685D01*
X145728594Y-65023158D01*
X145722038Y-65028538D01*
X145611595Y-65163114D01*
X145529528Y-65316650D01*
X145478992Y-65483246D01*
X145461928Y-65656500D01*
X145461928Y-66331500D01*
X145478992Y-66504754D01*
X145529528Y-66671350D01*
X145611595Y-66824886D01*
X145722038Y-66959462D01*
X145856614Y-67069905D01*
X146010150Y-67151972D01*
X146176746Y-67202508D01*
X146350000Y-67219572D01*
X147300000Y-67219572D01*
X147473254Y-67202508D01*
X147639850Y-67151972D01*
X147793386Y-67069905D01*
X147809476Y-67056700D01*
X147811376Y-67057970D01*
X148017933Y-67143529D01*
X148237212Y-67187146D01*
X148460788Y-67187146D01*
X148680067Y-67143529D01*
X148816187Y-67087146D01*
X149129026Y-67087146D01*
X149179854Y-67092152D01*
X149230682Y-67087146D01*
X149230692Y-67087146D01*
X149382749Y-67072170D01*
X149577847Y-67012987D01*
X149757651Y-66916880D01*
X149915250Y-66787542D01*
X149947661Y-66748049D01*
X150174710Y-66521000D01*
X150294813Y-66521000D01*
X150430933Y-66577383D01*
X150650212Y-66621000D01*
X150873788Y-66621000D01*
X151093067Y-66577383D01*
X151299624Y-66491824D01*
X151409765Y-66418230D01*
X151437038Y-66451462D01*
X151571614Y-66561905D01*
X151725150Y-66643972D01*
X151891746Y-66694508D01*
X152065000Y-66711572D01*
X153015000Y-66711572D01*
X153188254Y-66694508D01*
X153354850Y-66643972D01*
X153508386Y-66561905D01*
X153642962Y-66451462D01*
X153753405Y-66316886D01*
X153835472Y-66163350D01*
X153886008Y-65996754D01*
X153903072Y-65823500D01*
X153903072Y-65148500D01*
X153886008Y-64975246D01*
X153835472Y-64808650D01*
X153753405Y-64655114D01*
X153642962Y-64520538D01*
X153636406Y-64515158D01*
X153716185Y-64449685D01*
X153795537Y-64352994D01*
X153854502Y-64242680D01*
X153890812Y-64122982D01*
X153903072Y-63998500D01*
X153900000Y-63696750D01*
X153741250Y-63538000D01*
X152667000Y-63538000D01*
X152667000Y-63558000D01*
X152413000Y-63558000D01*
X152413000Y-63538000D01*
X151338750Y-63538000D01*
X151180000Y-63696750D01*
X151176928Y-63998500D01*
X151189188Y-64122982D01*
X151225498Y-64242680D01*
X151284463Y-64352994D01*
X151363815Y-64449685D01*
X151443594Y-64515158D01*
X151437038Y-64520538D01*
X151409765Y-64553770D01*
X151299624Y-64480176D01*
X151093067Y-64394617D01*
X150873788Y-64351000D01*
X150650212Y-64351000D01*
X150430933Y-64394617D01*
X150294813Y-64451000D01*
X149796827Y-64451000D01*
X149745999Y-64445994D01*
X149695171Y-64451000D01*
X149695162Y-64451000D01*
X149543105Y-64465976D01*
X149348007Y-64525159D01*
X149168203Y-64621266D01*
X149010604Y-64750604D01*
X148978193Y-64790097D01*
X148770195Y-64998095D01*
X148680067Y-64960763D01*
X148460788Y-64917146D01*
X148237212Y-64917146D01*
X148017933Y-64960763D01*
X147976545Y-64977907D01*
X148001185Y-64957685D01*
X148080537Y-64860994D01*
X148139502Y-64750680D01*
X148175812Y-64630982D01*
X148188072Y-64506500D01*
X148185000Y-64204750D01*
X148026250Y-64046000D01*
X146952000Y-64046000D01*
X146952000Y-64066000D01*
X146698000Y-64066000D01*
X146698000Y-64046000D01*
X145623750Y-64046000D01*
X145465000Y-64204750D01*
X145461928Y-64506500D01*
X138689000Y-64506500D01*
X138689000Y-63797131D01*
X139154631Y-63331500D01*
X145461928Y-63331500D01*
X145465000Y-63633250D01*
X145623750Y-63792000D01*
X146698000Y-63792000D01*
X146698000Y-62855250D01*
X146952000Y-62855250D01*
X146952000Y-63792000D01*
X148026250Y-63792000D01*
X148185000Y-63633250D01*
X148188072Y-63331500D01*
X148175812Y-63207018D01*
X148139502Y-63087320D01*
X148080537Y-62977006D01*
X148001185Y-62880315D01*
X147931956Y-62823500D01*
X151176928Y-62823500D01*
X151180000Y-63125250D01*
X151338750Y-63284000D01*
X152413000Y-63284000D01*
X152413000Y-62347250D01*
X152667000Y-62347250D01*
X152667000Y-63284000D01*
X153741250Y-63284000D01*
X153900000Y-63125250D01*
X153903072Y-62823500D01*
X153890812Y-62699018D01*
X153854502Y-62579320D01*
X153795537Y-62469006D01*
X153716185Y-62372315D01*
X153619494Y-62292963D01*
X153509180Y-62233998D01*
X153389482Y-62197688D01*
X153265000Y-62185428D01*
X152825750Y-62188500D01*
X152667000Y-62347250D01*
X152413000Y-62347250D01*
X152254250Y-62188500D01*
X151815000Y-62185428D01*
X151690518Y-62197688D01*
X151570820Y-62233998D01*
X151460506Y-62292963D01*
X151363815Y-62372315D01*
X151284463Y-62469006D01*
X151225498Y-62579320D01*
X151189188Y-62699018D01*
X151176928Y-62823500D01*
X147931956Y-62823500D01*
X147904494Y-62800963D01*
X147794180Y-62741998D01*
X147674482Y-62705688D01*
X147550000Y-62693428D01*
X147110750Y-62696500D01*
X146952000Y-62855250D01*
X146698000Y-62855250D01*
X146539250Y-62696500D01*
X146100000Y-62693428D01*
X145975518Y-62705688D01*
X145855820Y-62741998D01*
X145745506Y-62800963D01*
X145648815Y-62880315D01*
X145569463Y-62977006D01*
X145510498Y-63087320D01*
X145474188Y-63207018D01*
X145461928Y-63331500D01*
X139154631Y-63331500D01*
X140691133Y-61795000D01*
X161374249Y-61795000D01*
X161430000Y-61800491D01*
X161485751Y-61795000D01*
X161485752Y-61795000D01*
X161652499Y-61778577D01*
X161866447Y-61713676D01*
X162063623Y-61608284D01*
X162236449Y-61466449D01*
X162271996Y-61423135D01*
X163463140Y-60231992D01*
X163506449Y-60196449D01*
X163648284Y-60023623D01*
X163753676Y-59826447D01*
X163803471Y-59662295D01*
X163818577Y-59612500D01*
X163827195Y-59525000D01*
X163835000Y-59445752D01*
X163835000Y-59445745D01*
X163840490Y-59390001D01*
X163835000Y-59334257D01*
X163835000Y-58955132D01*
X163881480Y-59001612D01*
X164067376Y-59125824D01*
X164273933Y-59211383D01*
X164493212Y-59255000D01*
X164716788Y-59255000D01*
X164936067Y-59211383D01*
X165142624Y-59125824D01*
X165328520Y-59001612D01*
X165486612Y-58843520D01*
X165610824Y-58657624D01*
X165696383Y-58451067D01*
X165740000Y-58231788D01*
X165740000Y-58062630D01*
X165752346Y-58050284D01*
X165781422Y-58026422D01*
X165841857Y-57952781D01*
X165876645Y-57910393D01*
X165924434Y-57820985D01*
X165947402Y-57778015D01*
X165990974Y-57634378D01*
X166002000Y-57522426D01*
X166002000Y-57522423D01*
X166005686Y-57485000D01*
X166002000Y-57447577D01*
X166002000Y-56977000D01*
X167018001Y-56977000D01*
X167018001Y-57276867D01*
X166898388Y-57396480D01*
X166774176Y-57582376D01*
X166688617Y-57788933D01*
X166645000Y-58008212D01*
X166645000Y-58231788D01*
X166688617Y-58451067D01*
X166774176Y-58657624D01*
X166898388Y-58843520D01*
X167056480Y-59001612D01*
X167242376Y-59125824D01*
X167448933Y-59211383D01*
X167668212Y-59255000D01*
X167891788Y-59255000D01*
X168111067Y-59211383D01*
X168317624Y-59125824D01*
X168503520Y-59001612D01*
X168661612Y-58843520D01*
X168785824Y-58657624D01*
X168871383Y-58451067D01*
X168915000Y-58231788D01*
X168915000Y-58008212D01*
X168871383Y-57788933D01*
X168785824Y-57582376D01*
X168661612Y-57396480D01*
X168542000Y-57276868D01*
X168542000Y-56977000D01*
X169275008Y-56977000D01*
X169368871Y-56991866D01*
X169444533Y-57030418D01*
X169504582Y-57090467D01*
X169543134Y-57166129D01*
X169558000Y-57259992D01*
X169558000Y-64070000D01*
X169559564Y-64089867D01*
X169579141Y-64213474D01*
X169585427Y-64237563D01*
X169591419Y-64251264D01*
X169648235Y-64362771D01*
X169661658Y-64383739D01*
X169671590Y-64394917D01*
X169760083Y-64483410D01*
X169779329Y-64499204D01*
X169792229Y-64506765D01*
X169903736Y-64563581D01*
X169926920Y-64572655D01*
X169941526Y-64575859D01*
X170065133Y-64595436D01*
X170085000Y-64597000D01*
X180705008Y-64597000D01*
X180798871Y-64611866D01*
X180874533Y-64650418D01*
X180934582Y-64710467D01*
X180973134Y-64786129D01*
X180988000Y-64879992D01*
X180988000Y-132005008D01*
X180973134Y-132098871D01*
X180934582Y-132174533D01*
X180874533Y-132234582D01*
X180798871Y-132273134D01*
X180705008Y-132288000D01*
X119294992Y-132288000D01*
X119201129Y-132273134D01*
X119125467Y-132234582D01*
X119065418Y-132174533D01*
X119026866Y-132098871D01*
X119012000Y-132005008D01*
X119012000Y-124816890D01*
X128098524Y-124816890D01*
X128143175Y-124964099D01*
X128268359Y-125226920D01*
X128442412Y-125460269D01*
X128658645Y-125655178D01*
X128908748Y-125804157D01*
X129183109Y-125901481D01*
X129413000Y-125780814D01*
X129413000Y-124587000D01*
X128219845Y-124587000D01*
X128098524Y-124816890D01*
X119012000Y-124816890D01*
X119012000Y-122276890D01*
X128098524Y-122276890D01*
X128143175Y-122424099D01*
X128268359Y-122686920D01*
X128442412Y-122920269D01*
X128658645Y-123115178D01*
X128784255Y-123190000D01*
X128658645Y-123264822D01*
X128442412Y-123459731D01*
X128268359Y-123693080D01*
X128143175Y-123955901D01*
X128098524Y-124103110D01*
X128219845Y-124333000D01*
X129413000Y-124333000D01*
X129413000Y-122047000D01*
X128219845Y-122047000D01*
X128098524Y-122276890D01*
X119012000Y-122276890D01*
X119012000Y-121563110D01*
X128098524Y-121563110D01*
X128219845Y-121793000D01*
X129413000Y-121793000D01*
X129413000Y-120599186D01*
X129667000Y-120599186D01*
X129667000Y-121793000D01*
X129687000Y-121793000D01*
X129687000Y-122047000D01*
X129667000Y-122047000D01*
X129667000Y-124333000D01*
X129687000Y-124333000D01*
X129687000Y-124587000D01*
X129667000Y-124587000D01*
X129667000Y-125780814D01*
X129896891Y-125901481D01*
X130171252Y-125804157D01*
X130421355Y-125655178D01*
X130617502Y-125478374D01*
X130640498Y-125554180D01*
X130699463Y-125664494D01*
X130778815Y-125761185D01*
X130875506Y-125840537D01*
X130985820Y-125899502D01*
X131105518Y-125935812D01*
X131230000Y-125948072D01*
X132930000Y-125948072D01*
X133054482Y-125935812D01*
X133174180Y-125899502D01*
X133284494Y-125840537D01*
X133381185Y-125761185D01*
X133460537Y-125664494D01*
X133519502Y-125554180D01*
X133555812Y-125434482D01*
X133568072Y-125310000D01*
X133568072Y-123610000D01*
X133555812Y-123485518D01*
X133519502Y-123365820D01*
X133460537Y-123255506D01*
X133381185Y-123158815D01*
X133284494Y-123079463D01*
X133174180Y-123020498D01*
X133101620Y-122998487D01*
X133233475Y-122866632D01*
X133395990Y-122623411D01*
X133507932Y-122353158D01*
X133565000Y-122066260D01*
X133565000Y-121773740D01*
X133507932Y-121486842D01*
X133395990Y-121216589D01*
X133233475Y-120973368D01*
X133026632Y-120766525D01*
X132783411Y-120604010D01*
X132513158Y-120492068D01*
X132226260Y-120435000D01*
X131933740Y-120435000D01*
X131646842Y-120492068D01*
X131376589Y-120604010D01*
X131133368Y-120766525D01*
X130926525Y-120973368D01*
X130808900Y-121149406D01*
X130637588Y-120919731D01*
X130421355Y-120724822D01*
X130171252Y-120575843D01*
X129896891Y-120478519D01*
X129667000Y-120599186D01*
X129413000Y-120599186D01*
X129183109Y-120478519D01*
X128908748Y-120575843D01*
X128658645Y-120724822D01*
X128442412Y-120919731D01*
X128268359Y-121153080D01*
X128143175Y-121415901D01*
X128098524Y-121563110D01*
X119012000Y-121563110D01*
X119012000Y-116340000D01*
X125016928Y-116340000D01*
X125016928Y-118040000D01*
X125029188Y-118164482D01*
X125065498Y-118284180D01*
X125124463Y-118394494D01*
X125203815Y-118491185D01*
X125300506Y-118570537D01*
X125410820Y-118629502D01*
X125530518Y-118665812D01*
X125655000Y-118678072D01*
X127355000Y-118678072D01*
X127479482Y-118665812D01*
X127599180Y-118629502D01*
X127709494Y-118570537D01*
X127806185Y-118491185D01*
X127885537Y-118394494D01*
X127944502Y-118284180D01*
X127980812Y-118164482D01*
X127993072Y-118040000D01*
X127993072Y-116340000D01*
X127980812Y-116215518D01*
X127944502Y-116095820D01*
X127885537Y-115985506D01*
X127806185Y-115888815D01*
X127709494Y-115809463D01*
X127599180Y-115750498D01*
X127518534Y-115726034D01*
X127602588Y-115650269D01*
X127776641Y-115416920D01*
X127901825Y-115154099D01*
X127946476Y-115006890D01*
X127825155Y-114777000D01*
X126632000Y-114777000D01*
X126632000Y-114797000D01*
X126378000Y-114797000D01*
X126378000Y-114777000D01*
X125184845Y-114777000D01*
X125063524Y-115006890D01*
X125108175Y-115154099D01*
X125233359Y-115416920D01*
X125407412Y-115650269D01*
X125491466Y-115726034D01*
X125410820Y-115750498D01*
X125300506Y-115809463D01*
X125203815Y-115888815D01*
X125124463Y-115985506D01*
X125065498Y-116095820D01*
X125029188Y-116215518D01*
X125016928Y-116340000D01*
X119012000Y-116340000D01*
X119012000Y-104343740D01*
X125020000Y-104343740D01*
X125020000Y-104636260D01*
X125077068Y-104923158D01*
X125189010Y-105193411D01*
X125351525Y-105436632D01*
X125558368Y-105643475D01*
X125732760Y-105760000D01*
X125558368Y-105876525D01*
X125351525Y-106083368D01*
X125189010Y-106326589D01*
X125077068Y-106596842D01*
X125020000Y-106883740D01*
X125020000Y-107176260D01*
X125077068Y-107463158D01*
X125189010Y-107733411D01*
X125351525Y-107976632D01*
X125558368Y-108183475D01*
X125732760Y-108300000D01*
X125558368Y-108416525D01*
X125351525Y-108623368D01*
X125189010Y-108866589D01*
X125077068Y-109136842D01*
X125020000Y-109423740D01*
X125020000Y-109716260D01*
X125077068Y-110003158D01*
X125189010Y-110273411D01*
X125351525Y-110516632D01*
X125558368Y-110723475D01*
X125732760Y-110840000D01*
X125558368Y-110956525D01*
X125351525Y-111163368D01*
X125189010Y-111406589D01*
X125077068Y-111676842D01*
X125020000Y-111963740D01*
X125020000Y-112256260D01*
X125077068Y-112543158D01*
X125189010Y-112813411D01*
X125351525Y-113056632D01*
X125558368Y-113263475D01*
X125740534Y-113385195D01*
X125623645Y-113454822D01*
X125407412Y-113649731D01*
X125233359Y-113883080D01*
X125108175Y-114145901D01*
X125063524Y-114293110D01*
X125184845Y-114523000D01*
X126378000Y-114523000D01*
X126378000Y-114503000D01*
X126632000Y-114503000D01*
X126632000Y-114523000D01*
X127825155Y-114523000D01*
X127946476Y-114293110D01*
X127901825Y-114145901D01*
X127776641Y-113883080D01*
X127602588Y-113649731D01*
X127386355Y-113454822D01*
X127269466Y-113385195D01*
X127451632Y-113263475D01*
X127658475Y-113056632D01*
X127820990Y-112813411D01*
X127932932Y-112543158D01*
X127990000Y-112256260D01*
X127990000Y-111963740D01*
X127932932Y-111676842D01*
X127820990Y-111406589D01*
X127658475Y-111163368D01*
X127451632Y-110956525D01*
X127277240Y-110840000D01*
X127451632Y-110723475D01*
X127658475Y-110516632D01*
X127820990Y-110273411D01*
X127932932Y-110003158D01*
X127990000Y-109716260D01*
X127990000Y-109423740D01*
X127932932Y-109136842D01*
X127820990Y-108866589D01*
X127658475Y-108623368D01*
X127451632Y-108416525D01*
X127277240Y-108300000D01*
X127451632Y-108183475D01*
X127658475Y-107976632D01*
X127820990Y-107733411D01*
X127932932Y-107463158D01*
X127990000Y-107176260D01*
X127990000Y-106883740D01*
X127932932Y-106596842D01*
X127820990Y-106326589D01*
X127658475Y-106083368D01*
X127451632Y-105876525D01*
X127277240Y-105760000D01*
X127451632Y-105643475D01*
X127658475Y-105436632D01*
X127820990Y-105193411D01*
X127932932Y-104923158D01*
X127990000Y-104636260D01*
X127990000Y-104343740D01*
X127932932Y-104056842D01*
X127820990Y-103786589D01*
X127658475Y-103543368D01*
X127451632Y-103336525D01*
X127208411Y-103174010D01*
X126938158Y-103062068D01*
X126651260Y-103005000D01*
X126358740Y-103005000D01*
X126071842Y-103062068D01*
X125801589Y-103174010D01*
X125558368Y-103336525D01*
X125351525Y-103543368D01*
X125189010Y-103786589D01*
X125077068Y-104056842D01*
X125020000Y-104343740D01*
X119012000Y-104343740D01*
X119012000Y-99195000D01*
X125016928Y-99195000D01*
X125016928Y-100895000D01*
X125029188Y-101019482D01*
X125065498Y-101139180D01*
X125124463Y-101249494D01*
X125203815Y-101346185D01*
X125300506Y-101425537D01*
X125410820Y-101484502D01*
X125530518Y-101520812D01*
X125655000Y-101533072D01*
X127355000Y-101533072D01*
X127479482Y-101520812D01*
X127599180Y-101484502D01*
X127709494Y-101425537D01*
X127772255Y-101374030D01*
X157539313Y-101374030D01*
X157579709Y-101636113D01*
X157670458Y-101885280D01*
X157725817Y-101988848D01*
X157960727Y-102049668D01*
X158710395Y-101300000D01*
X157960727Y-100550332D01*
X157725817Y-100611152D01*
X157613798Y-100851509D01*
X157550824Y-101109102D01*
X157539313Y-101374030D01*
X127772255Y-101374030D01*
X127806185Y-101346185D01*
X127885537Y-101249494D01*
X127944502Y-101139180D01*
X127980812Y-101019482D01*
X127993072Y-100895000D01*
X127993072Y-99195000D01*
X127980812Y-99070518D01*
X127944502Y-98950820D01*
X127885537Y-98840506D01*
X127806185Y-98743815D01*
X127709494Y-98664463D01*
X127640176Y-98627411D01*
X157543800Y-98627411D01*
X157543800Y-98892589D01*
X157595533Y-99152672D01*
X157697013Y-99397665D01*
X157844338Y-99618153D01*
X158031847Y-99805662D01*
X158252335Y-99952987D01*
X158440600Y-100030969D01*
X158304720Y-100080458D01*
X158201152Y-100135817D01*
X158140332Y-100370727D01*
X158890000Y-101120395D01*
X159639668Y-100370727D01*
X159578848Y-100135817D01*
X159347066Y-100027794D01*
X159527665Y-99952987D01*
X159748153Y-99805662D01*
X159935662Y-99618153D01*
X160082987Y-99397665D01*
X160160000Y-99211740D01*
X160237013Y-99397665D01*
X160384338Y-99618153D01*
X160571847Y-99805662D01*
X160792335Y-99952987D01*
X160978260Y-100030000D01*
X160792335Y-100107013D01*
X160571847Y-100254338D01*
X160384338Y-100441847D01*
X160237013Y-100662335D01*
X160159031Y-100850600D01*
X160109542Y-100714720D01*
X160054183Y-100611152D01*
X159819273Y-100550332D01*
X159069605Y-101300000D01*
X159819273Y-102049668D01*
X160054183Y-101988848D01*
X160162206Y-101757066D01*
X160237013Y-101937665D01*
X160384338Y-102158153D01*
X160571847Y-102345662D01*
X160792335Y-102492987D01*
X160978260Y-102570000D01*
X160792335Y-102647013D01*
X160571847Y-102794338D01*
X160384338Y-102981847D01*
X160237013Y-103202335D01*
X160160000Y-103388260D01*
X160082987Y-103202335D01*
X159935662Y-102981847D01*
X159748153Y-102794338D01*
X159527665Y-102647013D01*
X159339400Y-102569031D01*
X159475280Y-102519542D01*
X159578848Y-102464183D01*
X159639668Y-102229273D01*
X158890000Y-101479605D01*
X158140332Y-102229273D01*
X158201152Y-102464183D01*
X158432934Y-102572206D01*
X158252335Y-102647013D01*
X158031847Y-102794338D01*
X157844338Y-102981847D01*
X157697013Y-103202335D01*
X157595533Y-103447328D01*
X157543800Y-103707411D01*
X157543800Y-103972589D01*
X157595533Y-104232672D01*
X157697013Y-104477665D01*
X157844338Y-104698153D01*
X158031847Y-104885662D01*
X158252335Y-105032987D01*
X158438260Y-105110000D01*
X158252335Y-105187013D01*
X158031847Y-105334338D01*
X157844338Y-105521847D01*
X157697013Y-105742335D01*
X157595533Y-105987328D01*
X157543800Y-106247411D01*
X157543800Y-106512589D01*
X157595533Y-106772672D01*
X157697013Y-107017665D01*
X157844338Y-107238153D01*
X158031847Y-107425662D01*
X158252335Y-107572987D01*
X158497328Y-107674467D01*
X158757411Y-107726200D01*
X159022589Y-107726200D01*
X159282672Y-107674467D01*
X159527665Y-107572987D01*
X159748153Y-107425662D01*
X159935662Y-107238153D01*
X160082987Y-107017665D01*
X160160000Y-106831740D01*
X160237013Y-107017665D01*
X160384338Y-107238153D01*
X160571847Y-107425662D01*
X160792335Y-107572987D01*
X160978260Y-107650000D01*
X160792335Y-107727013D01*
X160571847Y-107874338D01*
X160384338Y-108061847D01*
X160237013Y-108282335D01*
X160135533Y-108527328D01*
X160083800Y-108787411D01*
X160083800Y-109052589D01*
X160135533Y-109312672D01*
X160237013Y-109557665D01*
X160384338Y-109778153D01*
X160571847Y-109965662D01*
X160792335Y-110112987D01*
X161037328Y-110214467D01*
X161297411Y-110266200D01*
X161562589Y-110266200D01*
X161822672Y-110214467D01*
X162067665Y-110112987D01*
X162288153Y-109965662D01*
X162475662Y-109778153D01*
X162622987Y-109557665D01*
X162700000Y-109371740D01*
X162777013Y-109557665D01*
X162924338Y-109778153D01*
X163111847Y-109965662D01*
X163332335Y-110112987D01*
X163577328Y-110214467D01*
X163837411Y-110266200D01*
X164102589Y-110266200D01*
X164362672Y-110214467D01*
X164607665Y-110112987D01*
X164828153Y-109965662D01*
X165015662Y-109778153D01*
X165162987Y-109557665D01*
X165240000Y-109371740D01*
X165317013Y-109557665D01*
X165464338Y-109778153D01*
X165651847Y-109965662D01*
X165872335Y-110112987D01*
X166117328Y-110214467D01*
X166377411Y-110266200D01*
X166642589Y-110266200D01*
X166902672Y-110214467D01*
X167147665Y-110112987D01*
X167368153Y-109965662D01*
X167555662Y-109778153D01*
X167702987Y-109557665D01*
X167780000Y-109371740D01*
X167857013Y-109557665D01*
X168004338Y-109778153D01*
X168191847Y-109965662D01*
X168412335Y-110112987D01*
X168657328Y-110214467D01*
X168917411Y-110266200D01*
X169182589Y-110266200D01*
X169442672Y-110214467D01*
X169687665Y-110112987D01*
X169908153Y-109965662D01*
X170095662Y-109778153D01*
X170242987Y-109557665D01*
X170320000Y-109371740D01*
X170397013Y-109557665D01*
X170544338Y-109778153D01*
X170731847Y-109965662D01*
X170952335Y-110112987D01*
X171197328Y-110214467D01*
X171457411Y-110266200D01*
X171722589Y-110266200D01*
X171982672Y-110214467D01*
X172227665Y-110112987D01*
X172448153Y-109965662D01*
X172635662Y-109778153D01*
X172782987Y-109557665D01*
X172884467Y-109312672D01*
X172936200Y-109052589D01*
X172936200Y-108787411D01*
X172884467Y-108527328D01*
X172782987Y-108282335D01*
X172635662Y-108061847D01*
X172448153Y-107874338D01*
X172227665Y-107727013D01*
X172041740Y-107650000D01*
X172227665Y-107572987D01*
X172448153Y-107425662D01*
X172635662Y-107238153D01*
X172782987Y-107017665D01*
X172860000Y-106831740D01*
X172937013Y-107017665D01*
X173084338Y-107238153D01*
X173271847Y-107425662D01*
X173492335Y-107572987D01*
X173737328Y-107674467D01*
X173997411Y-107726200D01*
X174262589Y-107726200D01*
X174522672Y-107674467D01*
X174767665Y-107572987D01*
X174988153Y-107425662D01*
X175175662Y-107238153D01*
X175322987Y-107017665D01*
X175424467Y-106772672D01*
X175476200Y-106512589D01*
X175476200Y-106247411D01*
X175424467Y-105987328D01*
X175322987Y-105742335D01*
X175175662Y-105521847D01*
X174988153Y-105334338D01*
X174767665Y-105187013D01*
X174581740Y-105110000D01*
X174767665Y-105032987D01*
X174854449Y-104975000D01*
X175341077Y-104975000D01*
X175436614Y-105053405D01*
X175590150Y-105135472D01*
X175756746Y-105186008D01*
X175930000Y-105203072D01*
X176605000Y-105203072D01*
X176778254Y-105186008D01*
X176944850Y-105135472D01*
X177098386Y-105053405D01*
X177232962Y-104942962D01*
X177238342Y-104936406D01*
X177303815Y-105016185D01*
X177400506Y-105095537D01*
X177510820Y-105154502D01*
X177630518Y-105190812D01*
X177755000Y-105203072D01*
X178056750Y-105200000D01*
X178215500Y-105041250D01*
X178215500Y-103967000D01*
X178469500Y-103967000D01*
X178469500Y-105041250D01*
X178628250Y-105200000D01*
X178930000Y-105203072D01*
X179054482Y-105190812D01*
X179174180Y-105154502D01*
X179284494Y-105095537D01*
X179381185Y-105016185D01*
X179460537Y-104919494D01*
X179519502Y-104809180D01*
X179555812Y-104689482D01*
X179568072Y-104565000D01*
X179565000Y-104125750D01*
X179406250Y-103967000D01*
X178469500Y-103967000D01*
X178215500Y-103967000D01*
X178195500Y-103967000D01*
X178195500Y-103713000D01*
X178215500Y-103713000D01*
X178215500Y-102638750D01*
X178469500Y-102638750D01*
X178469500Y-103713000D01*
X179406250Y-103713000D01*
X179565000Y-103554250D01*
X179568072Y-103115000D01*
X179555812Y-102990518D01*
X179519502Y-102870820D01*
X179460537Y-102760506D01*
X179381185Y-102663815D01*
X179284494Y-102584463D01*
X179174180Y-102525498D01*
X179054482Y-102489188D01*
X178930000Y-102476928D01*
X178628250Y-102480000D01*
X178469500Y-102638750D01*
X178215500Y-102638750D01*
X178056750Y-102480000D01*
X177755000Y-102476928D01*
X177630518Y-102489188D01*
X177510820Y-102525498D01*
X177404455Y-102582352D01*
X177422765Y-90793134D01*
X177516371Y-90653043D01*
X177620775Y-90400989D01*
X177674000Y-90133411D01*
X177674000Y-89860589D01*
X177620775Y-89593011D01*
X177516371Y-89340957D01*
X177364799Y-89114114D01*
X177171886Y-88921201D01*
X176945043Y-88769629D01*
X176692989Y-88665225D01*
X176425411Y-88612000D01*
X176152589Y-88612000D01*
X175885011Y-88665225D01*
X175632957Y-88769629D01*
X175406114Y-88921201D01*
X175213201Y-89114114D01*
X175061629Y-89340957D01*
X174957225Y-89593011D01*
X174904000Y-89860589D01*
X174904000Y-90133411D01*
X174957225Y-90400989D01*
X175061629Y-90653043D01*
X175152768Y-90789442D01*
X175141774Y-97867959D01*
X174988153Y-97714338D01*
X174767665Y-97567013D01*
X174522672Y-97465533D01*
X174262589Y-97413800D01*
X173997411Y-97413800D01*
X173737328Y-97465533D01*
X173492335Y-97567013D01*
X173271847Y-97714338D01*
X173084338Y-97901847D01*
X172937013Y-98122335D01*
X172860000Y-98308260D01*
X172782987Y-98122335D01*
X172635662Y-97901847D01*
X172448153Y-97714338D01*
X172227665Y-97567013D01*
X172041740Y-97490000D01*
X172227665Y-97412987D01*
X172448153Y-97265662D01*
X172635662Y-97078153D01*
X172782987Y-96857665D01*
X172884467Y-96612672D01*
X172936200Y-96352589D01*
X172936200Y-96087411D01*
X172884467Y-95827328D01*
X172782987Y-95582335D01*
X172635662Y-95361847D01*
X172448153Y-95174338D01*
X172227665Y-95027013D01*
X171982672Y-94925533D01*
X171722589Y-94873800D01*
X171457411Y-94873800D01*
X171197328Y-94925533D01*
X170952335Y-95027013D01*
X170731847Y-95174338D01*
X170544338Y-95361847D01*
X170397013Y-95582335D01*
X170320000Y-95768260D01*
X170242987Y-95582335D01*
X170095662Y-95361847D01*
X169908153Y-95174338D01*
X169687665Y-95027013D01*
X169442672Y-94925533D01*
X169182589Y-94873800D01*
X168917411Y-94873800D01*
X168657328Y-94925533D01*
X168412335Y-95027013D01*
X168191847Y-95174338D01*
X168004338Y-95361847D01*
X167857013Y-95582335D01*
X167780000Y-95768260D01*
X167702987Y-95582335D01*
X167555662Y-95361847D01*
X167368153Y-95174338D01*
X167147665Y-95027013D01*
X166902672Y-94925533D01*
X166642589Y-94873800D01*
X166377411Y-94873800D01*
X166117328Y-94925533D01*
X165872335Y-95027013D01*
X165651847Y-95174338D01*
X165464338Y-95361847D01*
X165317013Y-95582335D01*
X165240000Y-95768260D01*
X165162987Y-95582335D01*
X165015662Y-95361847D01*
X164828153Y-95174338D01*
X164607665Y-95027013D01*
X164362672Y-94925533D01*
X164102589Y-94873800D01*
X163837411Y-94873800D01*
X163577328Y-94925533D01*
X163332335Y-95027013D01*
X163111847Y-95174338D01*
X162924338Y-95361847D01*
X162777013Y-95582335D01*
X162700000Y-95768260D01*
X162622987Y-95582335D01*
X162475662Y-95361847D01*
X162288153Y-95174338D01*
X162067665Y-95027013D01*
X161822672Y-94925533D01*
X161562589Y-94873800D01*
X161297411Y-94873800D01*
X161037328Y-94925533D01*
X160792335Y-95027013D01*
X160571847Y-95174338D01*
X160384338Y-95361847D01*
X160237013Y-95582335D01*
X160135533Y-95827328D01*
X160083800Y-96087411D01*
X160083800Y-96352589D01*
X160135533Y-96612672D01*
X160237013Y-96857665D01*
X160384338Y-97078153D01*
X160571847Y-97265662D01*
X160792335Y-97412987D01*
X160978260Y-97490000D01*
X160792335Y-97567013D01*
X160571847Y-97714338D01*
X160384338Y-97901847D01*
X160237013Y-98122335D01*
X160160000Y-98308260D01*
X160082987Y-98122335D01*
X159935662Y-97901847D01*
X159748153Y-97714338D01*
X159527665Y-97567013D01*
X159282672Y-97465533D01*
X159022589Y-97413800D01*
X158757411Y-97413800D01*
X158497328Y-97465533D01*
X158252335Y-97567013D01*
X158031847Y-97714338D01*
X157844338Y-97901847D01*
X157697013Y-98122335D01*
X157595533Y-98367328D01*
X157543800Y-98627411D01*
X127640176Y-98627411D01*
X127599180Y-98605498D01*
X127518534Y-98581034D01*
X127602588Y-98505269D01*
X127776641Y-98271920D01*
X127901825Y-98009099D01*
X127946476Y-97861890D01*
X127825155Y-97632000D01*
X126632000Y-97632000D01*
X126632000Y-97652000D01*
X126378000Y-97652000D01*
X126378000Y-97632000D01*
X125184845Y-97632000D01*
X125063524Y-97861890D01*
X125108175Y-98009099D01*
X125233359Y-98271920D01*
X125407412Y-98505269D01*
X125491466Y-98581034D01*
X125410820Y-98605498D01*
X125300506Y-98664463D01*
X125203815Y-98743815D01*
X125124463Y-98840506D01*
X125065498Y-98950820D01*
X125029188Y-99070518D01*
X125016928Y-99195000D01*
X119012000Y-99195000D01*
X119012000Y-82118740D01*
X125020000Y-82118740D01*
X125020000Y-82411260D01*
X125077068Y-82698158D01*
X125189010Y-82968411D01*
X125351525Y-83211632D01*
X125558368Y-83418475D01*
X125732760Y-83535000D01*
X125558368Y-83651525D01*
X125351525Y-83858368D01*
X125189010Y-84101589D01*
X125077068Y-84371842D01*
X125020000Y-84658740D01*
X125020000Y-84951260D01*
X125077068Y-85238158D01*
X125189010Y-85508411D01*
X125351525Y-85751632D01*
X125558368Y-85958475D01*
X125732760Y-86075000D01*
X125558368Y-86191525D01*
X125351525Y-86398368D01*
X125189010Y-86641589D01*
X125077068Y-86911842D01*
X125020000Y-87198740D01*
X125020000Y-87491260D01*
X125077068Y-87778158D01*
X125189010Y-88048411D01*
X125351525Y-88291632D01*
X125558368Y-88498475D01*
X125732760Y-88615000D01*
X125558368Y-88731525D01*
X125351525Y-88938368D01*
X125189010Y-89181589D01*
X125077068Y-89451842D01*
X125020000Y-89738740D01*
X125020000Y-90031260D01*
X125077068Y-90318158D01*
X125189010Y-90588411D01*
X125351525Y-90831632D01*
X125558368Y-91038475D01*
X125732760Y-91155000D01*
X125558368Y-91271525D01*
X125351525Y-91478368D01*
X125189010Y-91721589D01*
X125077068Y-91991842D01*
X125020000Y-92278740D01*
X125020000Y-92571260D01*
X125077068Y-92858158D01*
X125189010Y-93128411D01*
X125351525Y-93371632D01*
X125558368Y-93578475D01*
X125732760Y-93695000D01*
X125558368Y-93811525D01*
X125351525Y-94018368D01*
X125189010Y-94261589D01*
X125077068Y-94531842D01*
X125020000Y-94818740D01*
X125020000Y-95111260D01*
X125077068Y-95398158D01*
X125189010Y-95668411D01*
X125351525Y-95911632D01*
X125558368Y-96118475D01*
X125740534Y-96240195D01*
X125623645Y-96309822D01*
X125407412Y-96504731D01*
X125233359Y-96738080D01*
X125108175Y-97000901D01*
X125063524Y-97148110D01*
X125184845Y-97378000D01*
X126378000Y-97378000D01*
X126378000Y-97358000D01*
X126632000Y-97358000D01*
X126632000Y-97378000D01*
X127825155Y-97378000D01*
X127946476Y-97148110D01*
X127901825Y-97000901D01*
X127776641Y-96738080D01*
X127602588Y-96504731D01*
X127386355Y-96309822D01*
X127269466Y-96240195D01*
X127451632Y-96118475D01*
X127658475Y-95911632D01*
X127820990Y-95668411D01*
X127932932Y-95398158D01*
X127990000Y-95111260D01*
X127990000Y-94818740D01*
X127932932Y-94531842D01*
X127820990Y-94261589D01*
X127658475Y-94018368D01*
X127451632Y-93811525D01*
X127277240Y-93695000D01*
X127451632Y-93578475D01*
X127658475Y-93371632D01*
X127820990Y-93128411D01*
X127932932Y-92858158D01*
X127990000Y-92571260D01*
X127990000Y-92278740D01*
X127932932Y-91991842D01*
X127880488Y-91865229D01*
X146865000Y-91865229D01*
X146865000Y-92482771D01*
X146985476Y-93088446D01*
X147221799Y-93658979D01*
X147564886Y-94172446D01*
X148001554Y-94609114D01*
X148515021Y-94952201D01*
X149085554Y-95188524D01*
X149691229Y-95309000D01*
X150308771Y-95309000D01*
X150914446Y-95188524D01*
X151484979Y-94952201D01*
X151998446Y-94609114D01*
X152435114Y-94172446D01*
X152778201Y-93658979D01*
X153014524Y-93088446D01*
X153135000Y-92482771D01*
X153135000Y-91865229D01*
X153014524Y-91259554D01*
X152778201Y-90689021D01*
X152435114Y-90175554D01*
X151998446Y-89738886D01*
X151484979Y-89395799D01*
X150914446Y-89159476D01*
X150308771Y-89039000D01*
X149691229Y-89039000D01*
X149085554Y-89159476D01*
X148515021Y-89395799D01*
X148001554Y-89738886D01*
X147564886Y-90175554D01*
X147221799Y-90689021D01*
X146985476Y-91259554D01*
X146865000Y-91865229D01*
X127880488Y-91865229D01*
X127820990Y-91721589D01*
X127658475Y-91478368D01*
X127451632Y-91271525D01*
X127277240Y-91155000D01*
X127451632Y-91038475D01*
X127658475Y-90831632D01*
X127820990Y-90588411D01*
X127932932Y-90318158D01*
X127990000Y-90031260D01*
X127990000Y-89738740D01*
X127932932Y-89451842D01*
X127820990Y-89181589D01*
X127658475Y-88938368D01*
X127451632Y-88731525D01*
X127277240Y-88615000D01*
X127451632Y-88498475D01*
X127658475Y-88291632D01*
X127820990Y-88048411D01*
X127932932Y-87778158D01*
X127990000Y-87491260D01*
X127990000Y-87198740D01*
X127932932Y-86911842D01*
X127820990Y-86641589D01*
X127658475Y-86398368D01*
X127451632Y-86191525D01*
X127277240Y-86075000D01*
X127451632Y-85958475D01*
X127658475Y-85751632D01*
X127820990Y-85508411D01*
X127932932Y-85238158D01*
X127984638Y-84978212D01*
X137168000Y-84978212D01*
X137168000Y-85201788D01*
X137211617Y-85421067D01*
X137297176Y-85627624D01*
X137421388Y-85813520D01*
X137579480Y-85971612D01*
X137765376Y-86095824D01*
X137971933Y-86181383D01*
X138191212Y-86225000D01*
X138414788Y-86225000D01*
X138634067Y-86181383D01*
X138840624Y-86095824D01*
X139026520Y-85971612D01*
X139146132Y-85852000D01*
X139951905Y-85852000D01*
X139878617Y-86028933D01*
X139835000Y-86248212D01*
X139835000Y-86471788D01*
X139878617Y-86691067D01*
X139964176Y-86897624D01*
X140088388Y-87083520D01*
X140246480Y-87241612D01*
X140432376Y-87365824D01*
X140638933Y-87451383D01*
X140858212Y-87495000D01*
X141081788Y-87495000D01*
X141301067Y-87451383D01*
X141507624Y-87365824D01*
X141693520Y-87241612D01*
X141813132Y-87122000D01*
X145981868Y-87122000D01*
X146101480Y-87241612D01*
X146287376Y-87365824D01*
X146493933Y-87451383D01*
X146713212Y-87495000D01*
X146936788Y-87495000D01*
X147156067Y-87451383D01*
X147362624Y-87365824D01*
X147548520Y-87241612D01*
X147706612Y-87083520D01*
X147830824Y-86897624D01*
X147916383Y-86691067D01*
X147960000Y-86471788D01*
X147960000Y-86248212D01*
X147916383Y-86028933D01*
X147830824Y-85822376D01*
X147706612Y-85636480D01*
X147617632Y-85547500D01*
X149017928Y-85547500D01*
X149030188Y-85671982D01*
X149066498Y-85791680D01*
X149125463Y-85901994D01*
X149204815Y-85998685D01*
X149301506Y-86078037D01*
X149411820Y-86137002D01*
X149531518Y-86173312D01*
X149656000Y-86185572D01*
X150095250Y-86182500D01*
X150254000Y-86023750D01*
X150254000Y-85087000D01*
X150508000Y-85087000D01*
X150508000Y-86023750D01*
X150666750Y-86182500D01*
X151106000Y-86185572D01*
X151230482Y-86173312D01*
X151350180Y-86137002D01*
X151460494Y-86078037D01*
X151557185Y-85998685D01*
X151636537Y-85901994D01*
X151695502Y-85791680D01*
X151731812Y-85671982D01*
X151744072Y-85547500D01*
X151741000Y-85245750D01*
X151582250Y-85087000D01*
X150508000Y-85087000D01*
X150254000Y-85087000D01*
X149179750Y-85087000D01*
X149021000Y-85245750D01*
X149017928Y-85547500D01*
X147617632Y-85547500D01*
X147548520Y-85478388D01*
X147362624Y-85354176D01*
X147156067Y-85268617D01*
X146936788Y-85225000D01*
X146713212Y-85225000D01*
X146684236Y-85230764D01*
X146690000Y-85201788D01*
X146690000Y-84978212D01*
X146646383Y-84758933D01*
X146560824Y-84552376D01*
X146436612Y-84366480D01*
X146278520Y-84208388D01*
X146092624Y-84084176D01*
X145886067Y-83998617D01*
X145666788Y-83955000D01*
X145443212Y-83955000D01*
X145223933Y-83998617D01*
X145017376Y-84084176D01*
X144831480Y-84208388D01*
X144711868Y-84328000D01*
X139146132Y-84328000D01*
X139026520Y-84208388D01*
X138840624Y-84084176D01*
X138634067Y-83998617D01*
X138414788Y-83955000D01*
X138191212Y-83955000D01*
X137971933Y-83998617D01*
X137765376Y-84084176D01*
X137579480Y-84208388D01*
X137421388Y-84366480D01*
X137297176Y-84552376D01*
X137211617Y-84758933D01*
X137168000Y-84978212D01*
X127984638Y-84978212D01*
X127990000Y-84951260D01*
X127990000Y-84658740D01*
X127932932Y-84371842D01*
X127820990Y-84101589D01*
X127658475Y-83858368D01*
X127451632Y-83651525D01*
X127277240Y-83535000D01*
X127451632Y-83418475D01*
X127658475Y-83211632D01*
X127820990Y-82968411D01*
X127932932Y-82698158D01*
X127990000Y-82411260D01*
X127990000Y-82118740D01*
X127932932Y-81831842D01*
X127820990Y-81561589D01*
X127658475Y-81318368D01*
X127451632Y-81111525D01*
X127208411Y-80949010D01*
X126938158Y-80837068D01*
X126651260Y-80780000D01*
X126358740Y-80780000D01*
X126071842Y-80837068D01*
X125801589Y-80949010D01*
X125558368Y-81111525D01*
X125351525Y-81318368D01*
X125189010Y-81561589D01*
X125077068Y-81831842D01*
X125020000Y-82118740D01*
X119012000Y-82118740D01*
X119012000Y-76403500D01*
X138984928Y-76403500D01*
X138997188Y-76527982D01*
X139033498Y-76647680D01*
X139092463Y-76757994D01*
X139171815Y-76854685D01*
X139268506Y-76934037D01*
X139378820Y-76993002D01*
X139498518Y-77029312D01*
X139623000Y-77041572D01*
X140062250Y-77038500D01*
X140221000Y-76879750D01*
X140221000Y-75943000D01*
X139146750Y-75943000D01*
X138988000Y-76101750D01*
X138984928Y-76403500D01*
X119012000Y-76403500D01*
X119012000Y-73403500D01*
X138984928Y-73403500D01*
X138984928Y-74078500D01*
X139001992Y-74251754D01*
X139052528Y-74418350D01*
X139134595Y-74571886D01*
X139245038Y-74706462D01*
X139251594Y-74711842D01*
X139171815Y-74777315D01*
X139092463Y-74874006D01*
X139033498Y-74984320D01*
X138997188Y-75104018D01*
X138984928Y-75228500D01*
X138988000Y-75530250D01*
X139146750Y-75689000D01*
X140221000Y-75689000D01*
X140221000Y-75669000D01*
X140475000Y-75669000D01*
X140475000Y-75689000D01*
X141549250Y-75689000D01*
X141708000Y-75530250D01*
X141711072Y-75228500D01*
X141698812Y-75104018D01*
X141662502Y-74984320D01*
X141603537Y-74874006D01*
X141524185Y-74777315D01*
X141444406Y-74711842D01*
X141450962Y-74706462D01*
X141459698Y-74695817D01*
X141569978Y-74741496D01*
X141789257Y-74785113D01*
X142012833Y-74785113D01*
X142232112Y-74741496D01*
X142438669Y-74655937D01*
X142624565Y-74531725D01*
X142782657Y-74373633D01*
X142906869Y-74187737D01*
X142963252Y-74051616D01*
X143427075Y-73587794D01*
X143447617Y-73691067D01*
X143533176Y-73897624D01*
X143594287Y-73989082D01*
X141613649Y-75969721D01*
X141592954Y-75986704D01*
X141549250Y-75943000D01*
X140475000Y-75943000D01*
X140475000Y-76879750D01*
X140633750Y-77038500D01*
X141073000Y-77041572D01*
X141197482Y-77029312D01*
X141317180Y-76993002D01*
X141364001Y-76967975D01*
X141364000Y-78231868D01*
X141325520Y-78193388D01*
X141139624Y-78069176D01*
X140933067Y-77983617D01*
X140713788Y-77940000D01*
X140490212Y-77940000D01*
X140270933Y-77983617D01*
X140064376Y-78069176D01*
X139878480Y-78193388D01*
X139720388Y-78351480D01*
X139596176Y-78537376D01*
X139510617Y-78743933D01*
X139467000Y-78963212D01*
X139467000Y-79186788D01*
X139510617Y-79406067D01*
X139596176Y-79612624D01*
X139720388Y-79798520D01*
X139878480Y-79956612D01*
X140064376Y-80080824D01*
X140270933Y-80166383D01*
X140490212Y-80210000D01*
X140509696Y-80210000D01*
X140515604Y-80239702D01*
X140432376Y-80274176D01*
X140246480Y-80398388D01*
X140088388Y-80556480D01*
X139964176Y-80742376D01*
X139878617Y-80948933D01*
X139835000Y-81168212D01*
X139835000Y-81391788D01*
X139878617Y-81611067D01*
X139949337Y-81781801D01*
X139889933Y-81793617D01*
X139683376Y-81879176D01*
X139497480Y-82003388D01*
X139339388Y-82161480D01*
X139215176Y-82347376D01*
X139129617Y-82553933D01*
X139086000Y-82773212D01*
X139086000Y-82996788D01*
X139129617Y-83216067D01*
X139215176Y-83422624D01*
X139339388Y-83608520D01*
X139497480Y-83766612D01*
X139683376Y-83890824D01*
X139889933Y-83976383D01*
X140109212Y-84020000D01*
X140332788Y-84020000D01*
X140552067Y-83976383D01*
X140758624Y-83890824D01*
X140944520Y-83766612D01*
X141064132Y-83647000D01*
X143204911Y-83647000D01*
X143324523Y-83766612D01*
X143510419Y-83890824D01*
X143716976Y-83976383D01*
X143936255Y-84020000D01*
X144159831Y-84020000D01*
X144379110Y-83976383D01*
X144585667Y-83890824D01*
X144771563Y-83766612D01*
X144929655Y-83608520D01*
X145053867Y-83422624D01*
X145139426Y-83216067D01*
X145183043Y-82996788D01*
X145183043Y-82773212D01*
X145139426Y-82553933D01*
X145136762Y-82547500D01*
X149017928Y-82547500D01*
X149017928Y-83222500D01*
X149034992Y-83395754D01*
X149085528Y-83562350D01*
X149167595Y-83715886D01*
X149278038Y-83850462D01*
X149284594Y-83855842D01*
X149204815Y-83921315D01*
X149125463Y-84018006D01*
X149066498Y-84128320D01*
X149030188Y-84248018D01*
X149017928Y-84372500D01*
X149021000Y-84674250D01*
X149179750Y-84833000D01*
X150254000Y-84833000D01*
X150254000Y-84813000D01*
X150508000Y-84813000D01*
X150508000Y-84833000D01*
X151582250Y-84833000D01*
X151741000Y-84674250D01*
X151744072Y-84372500D01*
X151731812Y-84248018D01*
X151695502Y-84128320D01*
X151636537Y-84018006D01*
X151557185Y-83921315D01*
X151477406Y-83855842D01*
X151483962Y-83850462D01*
X151594405Y-83715886D01*
X151676472Y-83562350D01*
X151727008Y-83395754D01*
X151744072Y-83222500D01*
X151744072Y-82547500D01*
X151739345Y-82499500D01*
X152446928Y-82499500D01*
X152459188Y-82623982D01*
X152495498Y-82743680D01*
X152554463Y-82853994D01*
X152633815Y-82950685D01*
X152730506Y-83030037D01*
X152840820Y-83089002D01*
X152960518Y-83125312D01*
X153085000Y-83137572D01*
X153524250Y-83134500D01*
X153683000Y-82975750D01*
X153683000Y-82039000D01*
X153937000Y-82039000D01*
X153937000Y-82975750D01*
X154095750Y-83134500D01*
X154535000Y-83137572D01*
X154659482Y-83125312D01*
X154779180Y-83089002D01*
X154889494Y-83030037D01*
X154986185Y-82950685D01*
X155065537Y-82853994D01*
X155124502Y-82743680D01*
X155160812Y-82623982D01*
X155173072Y-82499500D01*
X155170000Y-82197750D01*
X155011250Y-82039000D01*
X153937000Y-82039000D01*
X153683000Y-82039000D01*
X152608750Y-82039000D01*
X152450000Y-82197750D01*
X152446928Y-82499500D01*
X151739345Y-82499500D01*
X151727008Y-82374246D01*
X151676472Y-82207650D01*
X151594405Y-82054114D01*
X151483962Y-81919538D01*
X151444262Y-81886957D01*
X151472383Y-81819067D01*
X151516000Y-81599788D01*
X151516000Y-81376212D01*
X151472383Y-81156933D01*
X151386824Y-80950376D01*
X151262612Y-80764480D01*
X151104520Y-80606388D01*
X150918624Y-80482176D01*
X150712067Y-80396617D01*
X150492788Y-80353000D01*
X150269212Y-80353000D01*
X150049933Y-80396617D01*
X149843376Y-80482176D01*
X149657480Y-80606388D01*
X149499388Y-80764480D01*
X149375176Y-80950376D01*
X149289617Y-81156933D01*
X149246000Y-81376212D01*
X149246000Y-81599788D01*
X149289617Y-81819067D01*
X149317738Y-81886957D01*
X149278038Y-81919538D01*
X149167595Y-82054114D01*
X149085528Y-82207650D01*
X149034992Y-82374246D01*
X149017928Y-82547500D01*
X145136762Y-82547500D01*
X145053867Y-82347376D01*
X144929655Y-82161480D01*
X144771563Y-82003388D01*
X144585667Y-81879176D01*
X144379110Y-81793617D01*
X144159831Y-81750000D01*
X143936255Y-81750000D01*
X143716976Y-81793617D01*
X143510419Y-81879176D01*
X143324523Y-82003388D01*
X143204911Y-82123000D01*
X141732132Y-82123000D01*
X141851612Y-82003520D01*
X141853323Y-82000959D01*
X141898015Y-81987402D01*
X142030392Y-81916645D01*
X142146422Y-81821422D01*
X142170284Y-81792346D01*
X143495130Y-80467500D01*
X145715928Y-80467500D01*
X145728188Y-80591982D01*
X145764498Y-80711680D01*
X145823463Y-80821994D01*
X145902815Y-80918685D01*
X145999506Y-80998037D01*
X146109820Y-81057002D01*
X146229518Y-81093312D01*
X146354000Y-81105572D01*
X146793250Y-81102500D01*
X146952000Y-80943750D01*
X146952000Y-80007000D01*
X147206000Y-80007000D01*
X147206000Y-80943750D01*
X147364750Y-81102500D01*
X147804000Y-81105572D01*
X147928482Y-81093312D01*
X148048180Y-81057002D01*
X148158494Y-80998037D01*
X148255185Y-80918685D01*
X148334537Y-80821994D01*
X148393502Y-80711680D01*
X148429812Y-80591982D01*
X148442072Y-80467500D01*
X148439000Y-80165750D01*
X148280250Y-80007000D01*
X147206000Y-80007000D01*
X146952000Y-80007000D01*
X145877750Y-80007000D01*
X145719000Y-80165750D01*
X145715928Y-80467500D01*
X143495130Y-80467500D01*
X143654353Y-80308278D01*
X143683422Y-80284422D01*
X143778645Y-80168392D01*
X143849402Y-80036015D01*
X143892974Y-79892378D01*
X143904000Y-79780426D01*
X143904000Y-79780424D01*
X143907686Y-79743001D01*
X143904000Y-79705578D01*
X143904000Y-79263630D01*
X144659658Y-78507972D01*
X144673388Y-78528520D01*
X144831480Y-78686612D01*
X145017376Y-78810824D01*
X145223933Y-78896383D01*
X145443212Y-78940000D01*
X145666788Y-78940000D01*
X145852073Y-78903145D01*
X145823463Y-78938006D01*
X145764498Y-79048320D01*
X145728188Y-79168018D01*
X145715928Y-79292500D01*
X145719000Y-79594250D01*
X145877750Y-79753000D01*
X146952000Y-79753000D01*
X146952000Y-79733000D01*
X147206000Y-79733000D01*
X147206000Y-79753000D01*
X148280250Y-79753000D01*
X148308038Y-79725212D01*
X151151000Y-79725212D01*
X151151000Y-79948788D01*
X151194617Y-80168067D01*
X151280176Y-80374624D01*
X151404388Y-80560520D01*
X151562480Y-80718612D01*
X151748376Y-80842824D01*
X151954933Y-80928383D01*
X152174212Y-80972000D01*
X152397788Y-80972000D01*
X152583073Y-80935145D01*
X152554463Y-80970006D01*
X152495498Y-81080320D01*
X152459188Y-81200018D01*
X152446928Y-81324500D01*
X152450000Y-81626250D01*
X152608750Y-81785000D01*
X153683000Y-81785000D01*
X153683000Y-81765000D01*
X153937000Y-81765000D01*
X153937000Y-81785000D01*
X155011250Y-81785000D01*
X155170000Y-81626250D01*
X155173072Y-81324500D01*
X155160812Y-81200018D01*
X155124502Y-81080320D01*
X155065537Y-80970006D01*
X154986185Y-80873315D01*
X154906406Y-80807842D01*
X154912962Y-80802462D01*
X155023405Y-80667886D01*
X155105472Y-80514350D01*
X155156008Y-80347754D01*
X155173072Y-80174500D01*
X155173072Y-79499500D01*
X155156008Y-79326246D01*
X155105472Y-79159650D01*
X155023405Y-79006114D01*
X154912962Y-78871538D01*
X154778386Y-78761095D01*
X154624850Y-78679028D01*
X154458254Y-78628492D01*
X154285000Y-78611428D01*
X153335000Y-78611428D01*
X153161746Y-78628492D01*
X152995150Y-78679028D01*
X152841614Y-78761095D01*
X152778829Y-78812621D01*
X152617067Y-78745617D01*
X152397788Y-78702000D01*
X152174212Y-78702000D01*
X151954933Y-78745617D01*
X151748376Y-78831176D01*
X151562480Y-78955388D01*
X151404388Y-79113480D01*
X151280176Y-79299376D01*
X151194617Y-79505933D01*
X151151000Y-79725212D01*
X148308038Y-79725212D01*
X148439000Y-79594250D01*
X148442072Y-79292500D01*
X148429812Y-79168018D01*
X148393502Y-79048320D01*
X148334537Y-78938006D01*
X148255185Y-78841315D01*
X148175406Y-78775842D01*
X148181962Y-78770462D01*
X148292405Y-78635886D01*
X148374472Y-78482350D01*
X148425008Y-78315754D01*
X148442072Y-78142500D01*
X148442072Y-77467500D01*
X148425008Y-77294246D01*
X148374472Y-77127650D01*
X148292405Y-76974114D01*
X148181962Y-76839538D01*
X148047386Y-76729095D01*
X147893850Y-76647028D01*
X147727254Y-76596492D01*
X147554000Y-76579428D01*
X146604000Y-76579428D01*
X146586477Y-76581154D01*
X147021631Y-76146000D01*
X147190788Y-76146000D01*
X147410067Y-76102383D01*
X147616624Y-76016824D01*
X147802520Y-75892612D01*
X147960612Y-75734520D01*
X148084824Y-75548624D01*
X148170383Y-75342067D01*
X148214000Y-75122788D01*
X148214000Y-74899212D01*
X148170383Y-74679933D01*
X148084824Y-74473376D01*
X147960612Y-74287480D01*
X147802520Y-74129388D01*
X147616624Y-74005176D01*
X147410067Y-73919617D01*
X147190788Y-73876000D01*
X146967212Y-73876000D01*
X146889423Y-73891473D01*
X146814824Y-73711376D01*
X146690612Y-73525480D01*
X146532520Y-73367388D01*
X146346624Y-73243176D01*
X146140067Y-73157617D01*
X145920788Y-73114000D01*
X145697212Y-73114000D01*
X145649203Y-73123549D01*
X145630383Y-73028933D01*
X145544824Y-72822376D01*
X145420612Y-72636480D01*
X145262520Y-72478388D01*
X145237209Y-72461476D01*
X145360799Y-72337886D01*
X145512371Y-72111043D01*
X145616775Y-71858989D01*
X145670000Y-71591411D01*
X145670000Y-71323500D01*
X150795928Y-71323500D01*
X150808188Y-71447982D01*
X150844498Y-71567680D01*
X150903463Y-71677994D01*
X150982815Y-71774685D01*
X151079506Y-71854037D01*
X151189820Y-71913002D01*
X151309518Y-71949312D01*
X151434000Y-71961572D01*
X151873250Y-71958500D01*
X152032000Y-71799750D01*
X152032000Y-70863000D01*
X150957750Y-70863000D01*
X150799000Y-71021750D01*
X150795928Y-71323500D01*
X145670000Y-71323500D01*
X145670000Y-71318589D01*
X145616775Y-71051011D01*
X145512371Y-70798957D01*
X145360799Y-70572114D01*
X145167886Y-70379201D01*
X144941043Y-70227629D01*
X144688989Y-70123225D01*
X144525920Y-70090788D01*
X142758632Y-68323500D01*
X150795928Y-68323500D01*
X150795928Y-68998500D01*
X150812992Y-69171754D01*
X150863528Y-69338350D01*
X150945595Y-69491886D01*
X151056038Y-69626462D01*
X151062594Y-69631842D01*
X150982815Y-69697315D01*
X150903463Y-69794006D01*
X150844498Y-69904320D01*
X150808188Y-70024018D01*
X150795928Y-70148500D01*
X150799000Y-70450250D01*
X150957750Y-70609000D01*
X152032000Y-70609000D01*
X152032000Y-70589000D01*
X152286000Y-70589000D01*
X152286000Y-70609000D01*
X152306000Y-70609000D01*
X152306000Y-70863000D01*
X152286000Y-70863000D01*
X152286000Y-71799750D01*
X152444750Y-71958500D01*
X152884000Y-71961572D01*
X153008482Y-71949312D01*
X153128180Y-71913002D01*
X153238494Y-71854037D01*
X153335185Y-71774685D01*
X153414537Y-71677994D01*
X153473502Y-71567680D01*
X153509812Y-71447982D01*
X153522072Y-71323500D01*
X153521347Y-71252270D01*
X153535129Y-71285543D01*
X153686701Y-71512386D01*
X153879614Y-71705299D01*
X154106457Y-71856871D01*
X154358511Y-71961275D01*
X154521580Y-71993712D01*
X154746008Y-72218140D01*
X154781551Y-72261449D01*
X154954377Y-72403284D01*
X155151553Y-72508676D01*
X155365501Y-72573577D01*
X155532248Y-72590000D01*
X155532257Y-72590000D01*
X155587999Y-72595490D01*
X155643741Y-72590000D01*
X161397714Y-72590000D01*
X161535957Y-72682371D01*
X161788011Y-72786775D01*
X162055589Y-72840000D01*
X162328411Y-72840000D01*
X162595989Y-72786775D01*
X162848043Y-72682371D01*
X163074886Y-72530799D01*
X163267799Y-72337886D01*
X163419371Y-72111043D01*
X163523775Y-71858989D01*
X163577000Y-71591411D01*
X163577000Y-71318589D01*
X163523775Y-71051011D01*
X163419371Y-70798957D01*
X163267799Y-70572114D01*
X163074886Y-70379201D01*
X162848043Y-70227629D01*
X162595989Y-70123225D01*
X162328411Y-70070000D01*
X162055589Y-70070000D01*
X161788011Y-70123225D01*
X161535957Y-70227629D01*
X161397714Y-70320000D01*
X156113070Y-70320000D01*
X156094275Y-70225511D01*
X155989871Y-69973457D01*
X155838299Y-69746614D01*
X155645386Y-69553701D01*
X155418543Y-69402129D01*
X155166489Y-69297725D01*
X154910615Y-69246828D01*
X154942824Y-69198624D01*
X155028383Y-68992067D01*
X155072000Y-68772788D01*
X155072000Y-68549212D01*
X155028383Y-68329933D01*
X154942824Y-68123376D01*
X154818612Y-67937480D01*
X154660520Y-67779388D01*
X154474624Y-67655176D01*
X154268067Y-67569617D01*
X154048788Y-67526000D01*
X153825212Y-67526000D01*
X153605933Y-67569617D01*
X153399376Y-67655176D01*
X153289235Y-67728770D01*
X153261962Y-67695538D01*
X153127386Y-67585095D01*
X152973850Y-67503028D01*
X152807254Y-67452492D01*
X152634000Y-67435428D01*
X151684000Y-67435428D01*
X151510746Y-67452492D01*
X151344150Y-67503028D01*
X151190614Y-67585095D01*
X151056038Y-67695538D01*
X150945595Y-67830114D01*
X150863528Y-67983650D01*
X150812992Y-68150246D01*
X150795928Y-68323500D01*
X142758632Y-68323500D01*
X142474212Y-68039081D01*
X142441775Y-67876011D01*
X142337371Y-67623957D01*
X142185799Y-67397114D01*
X141992886Y-67204201D01*
X141766043Y-67052629D01*
X141513989Y-66948225D01*
X141246411Y-66895000D01*
X140973589Y-66895000D01*
X140706011Y-66948225D01*
X140453957Y-67052629D01*
X140227114Y-67204201D01*
X140034201Y-67397114D01*
X139882629Y-67623957D01*
X139778225Y-67876011D01*
X139725000Y-68143589D01*
X139725000Y-68416411D01*
X139778225Y-68683989D01*
X139882629Y-68936043D01*
X140034201Y-69162886D01*
X140227114Y-69355799D01*
X140453957Y-69507371D01*
X140706011Y-69611775D01*
X140869081Y-69644212D01*
X142678089Y-71453220D01*
X142629360Y-71479266D01*
X142521628Y-71567680D01*
X142471762Y-71608604D01*
X142439355Y-71648092D01*
X141499542Y-72587906D01*
X141363421Y-72644289D01*
X141323520Y-72670950D01*
X141316386Y-72665095D01*
X141162850Y-72583028D01*
X140996254Y-72532492D01*
X140823000Y-72515428D01*
X139873000Y-72515428D01*
X139699746Y-72532492D01*
X139533150Y-72583028D01*
X139379614Y-72665095D01*
X139245038Y-72775538D01*
X139134595Y-72910114D01*
X139052528Y-73063650D01*
X139001992Y-73230246D01*
X138984928Y-73403500D01*
X119012000Y-73403500D01*
X119012000Y-64879992D01*
X119026866Y-64786129D01*
X119065418Y-64710467D01*
X119125467Y-64650418D01*
X119201129Y-64611866D01*
X119294992Y-64597000D01*
X129915000Y-64597000D01*
X129934867Y-64595436D01*
X130058474Y-64575859D01*
X130082563Y-64569573D01*
X130096264Y-64563581D01*
X130207771Y-64506765D01*
X130228739Y-64493342D01*
X130239917Y-64483410D01*
X130328410Y-64394917D01*
X130344204Y-64375671D01*
X130351765Y-64362771D01*
X130408581Y-64251264D01*
X130417655Y-64228080D01*
X130420859Y-64213474D01*
X130440436Y-64089867D01*
X130442000Y-64070000D01*
X130442000Y-57259992D01*
X130456866Y-57166129D01*
X130495418Y-57090467D01*
X130555467Y-57030418D01*
X130631129Y-56991866D01*
X130724992Y-56977000D01*
X131429370Y-56977000D01*
X130857649Y-57548721D01*
%TA.AperFunction,Conductor*%
D19*
G36*
X130857649Y-57548721D02*
G01*
X130828579Y-57572578D01*
X130804722Y-57601648D01*
X130804721Y-57601649D01*
X130733355Y-57688608D01*
X130662599Y-57820985D01*
X130619027Y-57964622D01*
X130604314Y-58114000D01*
X130608001Y-58151433D01*
X130608000Y-59137576D01*
X130604314Y-59175000D01*
X130608000Y-59212423D01*
X130608000Y-59212425D01*
X130619026Y-59324377D01*
X130662598Y-59468014D01*
X130662599Y-59468015D01*
X130733355Y-59600392D01*
X130763080Y-59636612D01*
X130828578Y-59716422D01*
X130857654Y-59740284D01*
X133432721Y-62315352D01*
X133456578Y-62344422D01*
X133572608Y-62439645D01*
X133704985Y-62510402D01*
X133848622Y-62553974D01*
X133960574Y-62565000D01*
X133960576Y-62565000D01*
X133997999Y-62568686D01*
X134035422Y-62565000D01*
X135821868Y-62565000D01*
X135941480Y-62684612D01*
X136127376Y-62808824D01*
X136333933Y-62894383D01*
X136489760Y-62925379D01*
X136435423Y-63104502D01*
X136413509Y-63327000D01*
X136419001Y-63382761D01*
X136419000Y-66215714D01*
X136326629Y-66353957D01*
X136222225Y-66606011D01*
X136169000Y-66873589D01*
X136169000Y-67146411D01*
X136222225Y-67413989D01*
X136326629Y-67666043D01*
X136478201Y-67892886D01*
X136671114Y-68085799D01*
X136897957Y-68237371D01*
X137150011Y-68341775D01*
X137417589Y-68395000D01*
X137690411Y-68395000D01*
X137957989Y-68341775D01*
X138210043Y-68237371D01*
X138436886Y-68085799D01*
X138629799Y-67892886D01*
X138781371Y-67666043D01*
X138885775Y-67413989D01*
X138939000Y-67146411D01*
X138939000Y-66873589D01*
X138885775Y-66606011D01*
X138781371Y-66353957D01*
X138689000Y-66215714D01*
X138689000Y-64506500D01*
X145461928Y-64506500D01*
X145474188Y-64630982D01*
X145510498Y-64750680D01*
X145569463Y-64860994D01*
X145648815Y-64957685D01*
X145728594Y-65023158D01*
X145722038Y-65028538D01*
X145611595Y-65163114D01*
X145529528Y-65316650D01*
X145478992Y-65483246D01*
X145461928Y-65656500D01*
X145461928Y-66331500D01*
X145478992Y-66504754D01*
X145529528Y-66671350D01*
X145611595Y-66824886D01*
X145722038Y-66959462D01*
X145856614Y-67069905D01*
X146010150Y-67151972D01*
X146176746Y-67202508D01*
X146350000Y-67219572D01*
X147300000Y-67219572D01*
X147473254Y-67202508D01*
X147639850Y-67151972D01*
X147793386Y-67069905D01*
X147809476Y-67056700D01*
X147811376Y-67057970D01*
X148017933Y-67143529D01*
X148237212Y-67187146D01*
X148460788Y-67187146D01*
X148680067Y-67143529D01*
X148816187Y-67087146D01*
X149129026Y-67087146D01*
X149179854Y-67092152D01*
X149230682Y-67087146D01*
X149230692Y-67087146D01*
X149382749Y-67072170D01*
X149577847Y-67012987D01*
X149757651Y-66916880D01*
X149915250Y-66787542D01*
X149947661Y-66748049D01*
X150174710Y-66521000D01*
X150294813Y-66521000D01*
X150430933Y-66577383D01*
X150650212Y-66621000D01*
X150873788Y-66621000D01*
X151093067Y-66577383D01*
X151299624Y-66491824D01*
X151409765Y-66418230D01*
X151437038Y-66451462D01*
X151571614Y-66561905D01*
X151725150Y-66643972D01*
X151891746Y-66694508D01*
X152065000Y-66711572D01*
X153015000Y-66711572D01*
X153188254Y-66694508D01*
X153354850Y-66643972D01*
X153508386Y-66561905D01*
X153642962Y-66451462D01*
X153753405Y-66316886D01*
X153835472Y-66163350D01*
X153886008Y-65996754D01*
X153903072Y-65823500D01*
X153903072Y-65148500D01*
X153886008Y-64975246D01*
X153835472Y-64808650D01*
X153753405Y-64655114D01*
X153642962Y-64520538D01*
X153636406Y-64515158D01*
X153716185Y-64449685D01*
X153795537Y-64352994D01*
X153854502Y-64242680D01*
X153890812Y-64122982D01*
X153903072Y-63998500D01*
X153900000Y-63696750D01*
X153741250Y-63538000D01*
X152667000Y-63538000D01*
X152667000Y-63558000D01*
X152413000Y-63558000D01*
X152413000Y-63538000D01*
X151338750Y-63538000D01*
X151180000Y-63696750D01*
X151176928Y-63998500D01*
X151189188Y-64122982D01*
X151225498Y-64242680D01*
X151284463Y-64352994D01*
X151363815Y-64449685D01*
X151443594Y-64515158D01*
X151437038Y-64520538D01*
X151409765Y-64553770D01*
X151299624Y-64480176D01*
X151093067Y-64394617D01*
X150873788Y-64351000D01*
X150650212Y-64351000D01*
X150430933Y-64394617D01*
X150294813Y-64451000D01*
X149796827Y-64451000D01*
X149745999Y-64445994D01*
X149695171Y-64451000D01*
X149695162Y-64451000D01*
X149543105Y-64465976D01*
X149348007Y-64525159D01*
X149168203Y-64621266D01*
X149010604Y-64750604D01*
X148978193Y-64790097D01*
X148770195Y-64998095D01*
X148680067Y-64960763D01*
X148460788Y-64917146D01*
X148237212Y-64917146D01*
X148017933Y-64960763D01*
X147976545Y-64977907D01*
X148001185Y-64957685D01*
X148080537Y-64860994D01*
X148139502Y-64750680D01*
X148175812Y-64630982D01*
X148188072Y-64506500D01*
X148185000Y-64204750D01*
X148026250Y-64046000D01*
X146952000Y-64046000D01*
X146952000Y-64066000D01*
X146698000Y-64066000D01*
X146698000Y-64046000D01*
X145623750Y-64046000D01*
X145465000Y-64204750D01*
X145461928Y-64506500D01*
X138689000Y-64506500D01*
X138689000Y-63797131D01*
X139154631Y-63331500D01*
X145461928Y-63331500D01*
X145465000Y-63633250D01*
X145623750Y-63792000D01*
X146698000Y-63792000D01*
X146698000Y-62855250D01*
X146952000Y-62855250D01*
X146952000Y-63792000D01*
X148026250Y-63792000D01*
X148185000Y-63633250D01*
X148188072Y-63331500D01*
X148175812Y-63207018D01*
X148139502Y-63087320D01*
X148080537Y-62977006D01*
X148001185Y-62880315D01*
X147931956Y-62823500D01*
X151176928Y-62823500D01*
X151180000Y-63125250D01*
X151338750Y-63284000D01*
X152413000Y-63284000D01*
X152413000Y-62347250D01*
X152667000Y-62347250D01*
X152667000Y-63284000D01*
X153741250Y-63284000D01*
X153900000Y-63125250D01*
X153903072Y-62823500D01*
X153890812Y-62699018D01*
X153854502Y-62579320D01*
X153795537Y-62469006D01*
X153716185Y-62372315D01*
X153619494Y-62292963D01*
X153509180Y-62233998D01*
X153389482Y-62197688D01*
X153265000Y-62185428D01*
X152825750Y-62188500D01*
X152667000Y-62347250D01*
X152413000Y-62347250D01*
X152254250Y-62188500D01*
X151815000Y-62185428D01*
X151690518Y-62197688D01*
X151570820Y-62233998D01*
X151460506Y-62292963D01*
X151363815Y-62372315D01*
X151284463Y-62469006D01*
X151225498Y-62579320D01*
X151189188Y-62699018D01*
X151176928Y-62823500D01*
X147931956Y-62823500D01*
X147904494Y-62800963D01*
X147794180Y-62741998D01*
X147674482Y-62705688D01*
X147550000Y-62693428D01*
X147110750Y-62696500D01*
X146952000Y-62855250D01*
X146698000Y-62855250D01*
X146539250Y-62696500D01*
X146100000Y-62693428D01*
X145975518Y-62705688D01*
X145855820Y-62741998D01*
X145745506Y-62800963D01*
X145648815Y-62880315D01*
X145569463Y-62977006D01*
X145510498Y-63087320D01*
X145474188Y-63207018D01*
X145461928Y-63331500D01*
X139154631Y-63331500D01*
X140691133Y-61795000D01*
X161374249Y-61795000D01*
X161430000Y-61800491D01*
X161485751Y-61795000D01*
X161485752Y-61795000D01*
X161652499Y-61778577D01*
X161866447Y-61713676D01*
X162063623Y-61608284D01*
X162236449Y-61466449D01*
X162271996Y-61423135D01*
X163463140Y-60231992D01*
X163506449Y-60196449D01*
X163648284Y-60023623D01*
X163753676Y-59826447D01*
X163803471Y-59662295D01*
X163818577Y-59612500D01*
X163827195Y-59525000D01*
X163835000Y-59445752D01*
X163835000Y-59445745D01*
X163840490Y-59390001D01*
X163835000Y-59334257D01*
X163835000Y-58955132D01*
X163881480Y-59001612D01*
X164067376Y-59125824D01*
X164273933Y-59211383D01*
X164493212Y-59255000D01*
X164716788Y-59255000D01*
X164936067Y-59211383D01*
X165142624Y-59125824D01*
X165328520Y-59001612D01*
X165486612Y-58843520D01*
X165610824Y-58657624D01*
X165696383Y-58451067D01*
X165740000Y-58231788D01*
X165740000Y-58062630D01*
X165752346Y-58050284D01*
X165781422Y-58026422D01*
X165841857Y-57952781D01*
X165876645Y-57910393D01*
X165924434Y-57820985D01*
X165947402Y-57778015D01*
X165990974Y-57634378D01*
X166002000Y-57522426D01*
X166002000Y-57522423D01*
X166005686Y-57485000D01*
X166002000Y-57447577D01*
X166002000Y-56977000D01*
X167018001Y-56977000D01*
X167018001Y-57276867D01*
X166898388Y-57396480D01*
X166774176Y-57582376D01*
X166688617Y-57788933D01*
X166645000Y-58008212D01*
X166645000Y-58231788D01*
X166688617Y-58451067D01*
X166774176Y-58657624D01*
X166898388Y-58843520D01*
X167056480Y-59001612D01*
X167242376Y-59125824D01*
X167448933Y-59211383D01*
X167668212Y-59255000D01*
X167891788Y-59255000D01*
X168111067Y-59211383D01*
X168317624Y-59125824D01*
X168503520Y-59001612D01*
X168661612Y-58843520D01*
X168785824Y-58657624D01*
X168871383Y-58451067D01*
X168915000Y-58231788D01*
X168915000Y-58008212D01*
X168871383Y-57788933D01*
X168785824Y-57582376D01*
X168661612Y-57396480D01*
X168542000Y-57276868D01*
X168542000Y-56977000D01*
X169275008Y-56977000D01*
X169368871Y-56991866D01*
X169444533Y-57030418D01*
X169504582Y-57090467D01*
X169543134Y-57166129D01*
X169558000Y-57259992D01*
X169558000Y-64070000D01*
X169559564Y-64089867D01*
X169579141Y-64213474D01*
X169585427Y-64237563D01*
X169591419Y-64251264D01*
X169648235Y-64362771D01*
X169661658Y-64383739D01*
X169671590Y-64394917D01*
X169760083Y-64483410D01*
X169779329Y-64499204D01*
X169792229Y-64506765D01*
X169903736Y-64563581D01*
X169926920Y-64572655D01*
X169941526Y-64575859D01*
X170065133Y-64595436D01*
X170085000Y-64597000D01*
X180705008Y-64597000D01*
X180798871Y-64611866D01*
X180874533Y-64650418D01*
X180934582Y-64710467D01*
X180973134Y-64786129D01*
X180988000Y-64879992D01*
X180988000Y-132005008D01*
X180973134Y-132098871D01*
X180934582Y-132174533D01*
X180874533Y-132234582D01*
X180798871Y-132273134D01*
X180705008Y-132288000D01*
X119294992Y-132288000D01*
X119201129Y-132273134D01*
X119125467Y-132234582D01*
X119065418Y-132174533D01*
X119026866Y-132098871D01*
X119012000Y-132005008D01*
X119012000Y-124816890D01*
X128098524Y-124816890D01*
X128143175Y-124964099D01*
X128268359Y-125226920D01*
X128442412Y-125460269D01*
X128658645Y-125655178D01*
X128908748Y-125804157D01*
X129183109Y-125901481D01*
X129413000Y-125780814D01*
X129413000Y-124587000D01*
X128219845Y-124587000D01*
X128098524Y-124816890D01*
X119012000Y-124816890D01*
X119012000Y-122276890D01*
X128098524Y-122276890D01*
X128143175Y-122424099D01*
X128268359Y-122686920D01*
X128442412Y-122920269D01*
X128658645Y-123115178D01*
X128784255Y-123190000D01*
X128658645Y-123264822D01*
X128442412Y-123459731D01*
X128268359Y-123693080D01*
X128143175Y-123955901D01*
X128098524Y-124103110D01*
X128219845Y-124333000D01*
X129413000Y-124333000D01*
X129413000Y-122047000D01*
X128219845Y-122047000D01*
X128098524Y-122276890D01*
X119012000Y-122276890D01*
X119012000Y-121563110D01*
X128098524Y-121563110D01*
X128219845Y-121793000D01*
X129413000Y-121793000D01*
X129413000Y-120599186D01*
X129667000Y-120599186D01*
X129667000Y-121793000D01*
X129687000Y-121793000D01*
X129687000Y-122047000D01*
X129667000Y-122047000D01*
X129667000Y-124333000D01*
X129687000Y-124333000D01*
X129687000Y-124587000D01*
X129667000Y-124587000D01*
X129667000Y-125780814D01*
X129896891Y-125901481D01*
X130171252Y-125804157D01*
X130421355Y-125655178D01*
X130617502Y-125478374D01*
X130640498Y-125554180D01*
X130699463Y-125664494D01*
X130778815Y-125761185D01*
X130875506Y-125840537D01*
X130985820Y-125899502D01*
X131105518Y-125935812D01*
X131230000Y-125948072D01*
X132930000Y-125948072D01*
X133054482Y-125935812D01*
X133174180Y-125899502D01*
X133284494Y-125840537D01*
X133381185Y-125761185D01*
X133460537Y-125664494D01*
X133519502Y-125554180D01*
X133555812Y-125434482D01*
X133568072Y-125310000D01*
X133568072Y-123610000D01*
X133555812Y-123485518D01*
X133519502Y-123365820D01*
X133460537Y-123255506D01*
X133381185Y-123158815D01*
X133284494Y-123079463D01*
X133174180Y-123020498D01*
X133101620Y-122998487D01*
X133233475Y-122866632D01*
X133395990Y-122623411D01*
X133507932Y-122353158D01*
X133565000Y-122066260D01*
X133565000Y-121773740D01*
X133507932Y-121486842D01*
X133395990Y-121216589D01*
X133233475Y-120973368D01*
X133026632Y-120766525D01*
X132783411Y-120604010D01*
X132513158Y-120492068D01*
X132226260Y-120435000D01*
X131933740Y-120435000D01*
X131646842Y-120492068D01*
X131376589Y-120604010D01*
X131133368Y-120766525D01*
X130926525Y-120973368D01*
X130808900Y-121149406D01*
X130637588Y-120919731D01*
X130421355Y-120724822D01*
X130171252Y-120575843D01*
X129896891Y-120478519D01*
X129667000Y-120599186D01*
X129413000Y-120599186D01*
X129183109Y-120478519D01*
X128908748Y-120575843D01*
X128658645Y-120724822D01*
X128442412Y-120919731D01*
X128268359Y-121153080D01*
X128143175Y-121415901D01*
X128098524Y-121563110D01*
X119012000Y-121563110D01*
X119012000Y-116340000D01*
X125016928Y-116340000D01*
X125016928Y-118040000D01*
X125029188Y-118164482D01*
X125065498Y-118284180D01*
X125124463Y-118394494D01*
X125203815Y-118491185D01*
X125300506Y-118570537D01*
X125410820Y-118629502D01*
X125530518Y-118665812D01*
X125655000Y-118678072D01*
X127355000Y-118678072D01*
X127479482Y-118665812D01*
X127599180Y-118629502D01*
X127709494Y-118570537D01*
X127806185Y-118491185D01*
X127885537Y-118394494D01*
X127944502Y-118284180D01*
X127980812Y-118164482D01*
X127993072Y-118040000D01*
X127993072Y-116340000D01*
X127980812Y-116215518D01*
X127944502Y-116095820D01*
X127885537Y-115985506D01*
X127806185Y-115888815D01*
X127709494Y-115809463D01*
X127599180Y-115750498D01*
X127518534Y-115726034D01*
X127602588Y-115650269D01*
X127776641Y-115416920D01*
X127901825Y-115154099D01*
X127946476Y-115006890D01*
X127825155Y-114777000D01*
X126632000Y-114777000D01*
X126632000Y-114797000D01*
X126378000Y-114797000D01*
X126378000Y-114777000D01*
X125184845Y-114777000D01*
X125063524Y-115006890D01*
X125108175Y-115154099D01*
X125233359Y-115416920D01*
X125407412Y-115650269D01*
X125491466Y-115726034D01*
X125410820Y-115750498D01*
X125300506Y-115809463D01*
X125203815Y-115888815D01*
X125124463Y-115985506D01*
X125065498Y-116095820D01*
X125029188Y-116215518D01*
X125016928Y-116340000D01*
X119012000Y-116340000D01*
X119012000Y-104343740D01*
X125020000Y-104343740D01*
X125020000Y-104636260D01*
X125077068Y-104923158D01*
X125189010Y-105193411D01*
X125351525Y-105436632D01*
X125558368Y-105643475D01*
X125732760Y-105760000D01*
X125558368Y-105876525D01*
X125351525Y-106083368D01*
X125189010Y-106326589D01*
X125077068Y-106596842D01*
X125020000Y-106883740D01*
X125020000Y-107176260D01*
X125077068Y-107463158D01*
X125189010Y-107733411D01*
X125351525Y-107976632D01*
X125558368Y-108183475D01*
X125732760Y-108300000D01*
X125558368Y-108416525D01*
X125351525Y-108623368D01*
X125189010Y-108866589D01*
X125077068Y-109136842D01*
X125020000Y-109423740D01*
X125020000Y-109716260D01*
X125077068Y-110003158D01*
X125189010Y-110273411D01*
X125351525Y-110516632D01*
X125558368Y-110723475D01*
X125732760Y-110840000D01*
X125558368Y-110956525D01*
X125351525Y-111163368D01*
X125189010Y-111406589D01*
X125077068Y-111676842D01*
X125020000Y-111963740D01*
X125020000Y-112256260D01*
X125077068Y-112543158D01*
X125189010Y-112813411D01*
X125351525Y-113056632D01*
X125558368Y-113263475D01*
X125740534Y-113385195D01*
X125623645Y-113454822D01*
X125407412Y-113649731D01*
X125233359Y-113883080D01*
X125108175Y-114145901D01*
X125063524Y-114293110D01*
X125184845Y-114523000D01*
X126378000Y-114523000D01*
X126378000Y-114503000D01*
X126632000Y-114503000D01*
X126632000Y-114523000D01*
X127825155Y-114523000D01*
X127946476Y-114293110D01*
X127901825Y-114145901D01*
X127776641Y-113883080D01*
X127602588Y-113649731D01*
X127386355Y-113454822D01*
X127269466Y-113385195D01*
X127451632Y-113263475D01*
X127658475Y-113056632D01*
X127820990Y-112813411D01*
X127932932Y-112543158D01*
X127990000Y-112256260D01*
X127990000Y-111963740D01*
X127932932Y-111676842D01*
X127820990Y-111406589D01*
X127658475Y-111163368D01*
X127451632Y-110956525D01*
X127277240Y-110840000D01*
X127451632Y-110723475D01*
X127658475Y-110516632D01*
X127820990Y-110273411D01*
X127932932Y-110003158D01*
X127990000Y-109716260D01*
X127990000Y-109423740D01*
X127932932Y-109136842D01*
X127820990Y-108866589D01*
X127658475Y-108623368D01*
X127451632Y-108416525D01*
X127277240Y-108300000D01*
X127451632Y-108183475D01*
X127658475Y-107976632D01*
X127820990Y-107733411D01*
X127932932Y-107463158D01*
X127990000Y-107176260D01*
X127990000Y-106883740D01*
X127932932Y-106596842D01*
X127820990Y-106326589D01*
X127658475Y-106083368D01*
X127451632Y-105876525D01*
X127277240Y-105760000D01*
X127451632Y-105643475D01*
X127658475Y-105436632D01*
X127820990Y-105193411D01*
X127932932Y-104923158D01*
X127990000Y-104636260D01*
X127990000Y-104343740D01*
X127932932Y-104056842D01*
X127820990Y-103786589D01*
X127658475Y-103543368D01*
X127451632Y-103336525D01*
X127208411Y-103174010D01*
X126938158Y-103062068D01*
X126651260Y-103005000D01*
X126358740Y-103005000D01*
X126071842Y-103062068D01*
X125801589Y-103174010D01*
X125558368Y-103336525D01*
X125351525Y-103543368D01*
X125189010Y-103786589D01*
X125077068Y-104056842D01*
X125020000Y-104343740D01*
X119012000Y-104343740D01*
X119012000Y-99195000D01*
X125016928Y-99195000D01*
X125016928Y-100895000D01*
X125029188Y-101019482D01*
X125065498Y-101139180D01*
X125124463Y-101249494D01*
X125203815Y-101346185D01*
X125300506Y-101425537D01*
X125410820Y-101484502D01*
X125530518Y-101520812D01*
X125655000Y-101533072D01*
X127355000Y-101533072D01*
X127479482Y-101520812D01*
X127599180Y-101484502D01*
X127709494Y-101425537D01*
X127772255Y-101374030D01*
X157539313Y-101374030D01*
X157579709Y-101636113D01*
X157670458Y-101885280D01*
X157725817Y-101988848D01*
X157960727Y-102049668D01*
X158710395Y-101300000D01*
X157960727Y-100550332D01*
X157725817Y-100611152D01*
X157613798Y-100851509D01*
X157550824Y-101109102D01*
X157539313Y-101374030D01*
X127772255Y-101374030D01*
X127806185Y-101346185D01*
X127885537Y-101249494D01*
X127944502Y-101139180D01*
X127980812Y-101019482D01*
X127993072Y-100895000D01*
X127993072Y-99195000D01*
X127980812Y-99070518D01*
X127944502Y-98950820D01*
X127885537Y-98840506D01*
X127806185Y-98743815D01*
X127709494Y-98664463D01*
X127640176Y-98627411D01*
X157543800Y-98627411D01*
X157543800Y-98892589D01*
X157595533Y-99152672D01*
X157697013Y-99397665D01*
X157844338Y-99618153D01*
X158031847Y-99805662D01*
X158252335Y-99952987D01*
X158440600Y-100030969D01*
X158304720Y-100080458D01*
X158201152Y-100135817D01*
X158140332Y-100370727D01*
X158890000Y-101120395D01*
X159639668Y-100370727D01*
X159578848Y-100135817D01*
X159347066Y-100027794D01*
X159527665Y-99952987D01*
X159748153Y-99805662D01*
X159935662Y-99618153D01*
X160082987Y-99397665D01*
X160160000Y-99211740D01*
X160237013Y-99397665D01*
X160384338Y-99618153D01*
X160571847Y-99805662D01*
X160792335Y-99952987D01*
X160978260Y-100030000D01*
X160792335Y-100107013D01*
X160571847Y-100254338D01*
X160384338Y-100441847D01*
X160237013Y-100662335D01*
X160159031Y-100850600D01*
X160109542Y-100714720D01*
X160054183Y-100611152D01*
X159819273Y-100550332D01*
X159069605Y-101300000D01*
X159819273Y-102049668D01*
X160054183Y-101988848D01*
X160162206Y-101757066D01*
X160237013Y-101937665D01*
X160384338Y-102158153D01*
X160571847Y-102345662D01*
X160792335Y-102492987D01*
X160978260Y-102570000D01*
X160792335Y-102647013D01*
X160571847Y-102794338D01*
X160384338Y-102981847D01*
X160237013Y-103202335D01*
X160160000Y-103388260D01*
X160082987Y-103202335D01*
X159935662Y-102981847D01*
X159748153Y-102794338D01*
X159527665Y-102647013D01*
X159339400Y-102569031D01*
X159475280Y-102519542D01*
X159578848Y-102464183D01*
X159639668Y-102229273D01*
X158890000Y-101479605D01*
X158140332Y-102229273D01*
X158201152Y-102464183D01*
X158432934Y-102572206D01*
X158252335Y-102647013D01*
X158031847Y-102794338D01*
X157844338Y-102981847D01*
X157697013Y-103202335D01*
X157595533Y-103447328D01*
X157543800Y-103707411D01*
X157543800Y-103972589D01*
X157595533Y-104232672D01*
X157697013Y-104477665D01*
X157844338Y-104698153D01*
X158031847Y-104885662D01*
X158252335Y-105032987D01*
X158438260Y-105110000D01*
X158252335Y-105187013D01*
X158031847Y-105334338D01*
X157844338Y-105521847D01*
X157697013Y-105742335D01*
X157595533Y-105987328D01*
X157543800Y-106247411D01*
X157543800Y-106512589D01*
X157595533Y-106772672D01*
X157697013Y-107017665D01*
X157844338Y-107238153D01*
X158031847Y-107425662D01*
X158252335Y-107572987D01*
X158497328Y-107674467D01*
X158757411Y-107726200D01*
X159022589Y-107726200D01*
X159282672Y-107674467D01*
X159527665Y-107572987D01*
X159748153Y-107425662D01*
X159935662Y-107238153D01*
X160082987Y-107017665D01*
X160160000Y-106831740D01*
X160237013Y-107017665D01*
X160384338Y-107238153D01*
X160571847Y-107425662D01*
X160792335Y-107572987D01*
X160978260Y-107650000D01*
X160792335Y-107727013D01*
X160571847Y-107874338D01*
X160384338Y-108061847D01*
X160237013Y-108282335D01*
X160135533Y-108527328D01*
X160083800Y-108787411D01*
X160083800Y-109052589D01*
X160135533Y-109312672D01*
X160237013Y-109557665D01*
X160384338Y-109778153D01*
X160571847Y-109965662D01*
X160792335Y-110112987D01*
X161037328Y-110214467D01*
X161297411Y-110266200D01*
X161562589Y-110266200D01*
X161822672Y-110214467D01*
X162067665Y-110112987D01*
X162288153Y-109965662D01*
X162475662Y-109778153D01*
X162622987Y-109557665D01*
X162700000Y-109371740D01*
X162777013Y-109557665D01*
X162924338Y-109778153D01*
X163111847Y-109965662D01*
X163332335Y-110112987D01*
X163577328Y-110214467D01*
X163837411Y-110266200D01*
X164102589Y-110266200D01*
X164362672Y-110214467D01*
X164607665Y-110112987D01*
X164828153Y-109965662D01*
X165015662Y-109778153D01*
X165162987Y-109557665D01*
X165240000Y-109371740D01*
X165317013Y-109557665D01*
X165464338Y-109778153D01*
X165651847Y-109965662D01*
X165872335Y-110112987D01*
X166117328Y-110214467D01*
X166377411Y-110266200D01*
X166642589Y-110266200D01*
X166902672Y-110214467D01*
X167147665Y-110112987D01*
X167368153Y-109965662D01*
X167555662Y-109778153D01*
X167702987Y-109557665D01*
X167780000Y-109371740D01*
X167857013Y-109557665D01*
X168004338Y-109778153D01*
X168191847Y-109965662D01*
X168412335Y-110112987D01*
X168657328Y-110214467D01*
X168917411Y-110266200D01*
X169182589Y-110266200D01*
X169442672Y-110214467D01*
X169687665Y-110112987D01*
X169908153Y-109965662D01*
X170095662Y-109778153D01*
X170242987Y-109557665D01*
X170320000Y-109371740D01*
X170397013Y-109557665D01*
X170544338Y-109778153D01*
X170731847Y-109965662D01*
X170952335Y-110112987D01*
X171197328Y-110214467D01*
X171457411Y-110266200D01*
X171722589Y-110266200D01*
X171982672Y-110214467D01*
X172227665Y-110112987D01*
X172448153Y-109965662D01*
X172635662Y-109778153D01*
X172782987Y-109557665D01*
X172884467Y-109312672D01*
X172936200Y-109052589D01*
X172936200Y-108787411D01*
X172884467Y-108527328D01*
X172782987Y-108282335D01*
X172635662Y-108061847D01*
X172448153Y-107874338D01*
X172227665Y-107727013D01*
X172041740Y-107650000D01*
X172227665Y-107572987D01*
X172448153Y-107425662D01*
X172635662Y-107238153D01*
X172782987Y-107017665D01*
X172860000Y-106831740D01*
X172937013Y-107017665D01*
X173084338Y-107238153D01*
X173271847Y-107425662D01*
X173492335Y-107572987D01*
X173737328Y-107674467D01*
X173997411Y-107726200D01*
X174262589Y-107726200D01*
X174522672Y-107674467D01*
X174767665Y-107572987D01*
X174988153Y-107425662D01*
X175175662Y-107238153D01*
X175322987Y-107017665D01*
X175424467Y-106772672D01*
X175476200Y-106512589D01*
X175476200Y-106247411D01*
X175424467Y-105987328D01*
X175322987Y-105742335D01*
X175175662Y-105521847D01*
X174988153Y-105334338D01*
X174767665Y-105187013D01*
X174581740Y-105110000D01*
X174767665Y-105032987D01*
X174854449Y-104975000D01*
X175341077Y-104975000D01*
X175436614Y-105053405D01*
X175590150Y-105135472D01*
X175756746Y-105186008D01*
X175930000Y-105203072D01*
X176605000Y-105203072D01*
X176778254Y-105186008D01*
X176944850Y-105135472D01*
X177098386Y-105053405D01*
X177232962Y-104942962D01*
X177238342Y-104936406D01*
X177303815Y-105016185D01*
X177400506Y-105095537D01*
X177510820Y-105154502D01*
X177630518Y-105190812D01*
X177755000Y-105203072D01*
X178056750Y-105200000D01*
X178215500Y-105041250D01*
X178215500Y-103967000D01*
X178469500Y-103967000D01*
X178469500Y-105041250D01*
X178628250Y-105200000D01*
X178930000Y-105203072D01*
X179054482Y-105190812D01*
X179174180Y-105154502D01*
X179284494Y-105095537D01*
X179381185Y-105016185D01*
X179460537Y-104919494D01*
X179519502Y-104809180D01*
X179555812Y-104689482D01*
X179568072Y-104565000D01*
X179565000Y-104125750D01*
X179406250Y-103967000D01*
X178469500Y-103967000D01*
X178215500Y-103967000D01*
X178195500Y-103967000D01*
X178195500Y-103713000D01*
X178215500Y-103713000D01*
X178215500Y-102638750D01*
X178469500Y-102638750D01*
X178469500Y-103713000D01*
X179406250Y-103713000D01*
X179565000Y-103554250D01*
X179568072Y-103115000D01*
X179555812Y-102990518D01*
X179519502Y-102870820D01*
X179460537Y-102760506D01*
X179381185Y-102663815D01*
X179284494Y-102584463D01*
X179174180Y-102525498D01*
X179054482Y-102489188D01*
X178930000Y-102476928D01*
X178628250Y-102480000D01*
X178469500Y-102638750D01*
X178215500Y-102638750D01*
X178056750Y-102480000D01*
X177755000Y-102476928D01*
X177630518Y-102489188D01*
X177510820Y-102525498D01*
X177404455Y-102582352D01*
X177422765Y-90793134D01*
X177516371Y-90653043D01*
X177620775Y-90400989D01*
X177674000Y-90133411D01*
X177674000Y-89860589D01*
X177620775Y-89593011D01*
X177516371Y-89340957D01*
X177364799Y-89114114D01*
X177171886Y-88921201D01*
X176945043Y-88769629D01*
X176692989Y-88665225D01*
X176425411Y-88612000D01*
X176152589Y-88612000D01*
X175885011Y-88665225D01*
X175632957Y-88769629D01*
X175406114Y-88921201D01*
X175213201Y-89114114D01*
X175061629Y-89340957D01*
X174957225Y-89593011D01*
X174904000Y-89860589D01*
X174904000Y-90133411D01*
X174957225Y-90400989D01*
X175061629Y-90653043D01*
X175152768Y-90789442D01*
X175141774Y-97867959D01*
X174988153Y-97714338D01*
X174767665Y-97567013D01*
X174522672Y-97465533D01*
X174262589Y-97413800D01*
X173997411Y-97413800D01*
X173737328Y-97465533D01*
X173492335Y-97567013D01*
X173271847Y-97714338D01*
X173084338Y-97901847D01*
X172937013Y-98122335D01*
X172860000Y-98308260D01*
X172782987Y-98122335D01*
X172635662Y-97901847D01*
X172448153Y-97714338D01*
X172227665Y-97567013D01*
X172041740Y-97490000D01*
X172227665Y-97412987D01*
X172448153Y-97265662D01*
X172635662Y-97078153D01*
X172782987Y-96857665D01*
X172884467Y-96612672D01*
X172936200Y-96352589D01*
X172936200Y-96087411D01*
X172884467Y-95827328D01*
X172782987Y-95582335D01*
X172635662Y-95361847D01*
X172448153Y-95174338D01*
X172227665Y-95027013D01*
X171982672Y-94925533D01*
X171722589Y-94873800D01*
X171457411Y-94873800D01*
X171197328Y-94925533D01*
X170952335Y-95027013D01*
X170731847Y-95174338D01*
X170544338Y-95361847D01*
X170397013Y-95582335D01*
X170320000Y-95768260D01*
X170242987Y-95582335D01*
X170095662Y-95361847D01*
X169908153Y-95174338D01*
X169687665Y-95027013D01*
X169442672Y-94925533D01*
X169182589Y-94873800D01*
X168917411Y-94873800D01*
X168657328Y-94925533D01*
X168412335Y-95027013D01*
X168191847Y-95174338D01*
X168004338Y-95361847D01*
X167857013Y-95582335D01*
X167780000Y-95768260D01*
X167702987Y-95582335D01*
X167555662Y-95361847D01*
X167368153Y-95174338D01*
X167147665Y-95027013D01*
X166902672Y-94925533D01*
X166642589Y-94873800D01*
X166377411Y-94873800D01*
X166117328Y-94925533D01*
X165872335Y-95027013D01*
X165651847Y-95174338D01*
X165464338Y-95361847D01*
X165317013Y-95582335D01*
X165240000Y-95768260D01*
X165162987Y-95582335D01*
X165015662Y-95361847D01*
X164828153Y-95174338D01*
X164607665Y-95027013D01*
X164362672Y-94925533D01*
X164102589Y-94873800D01*
X163837411Y-94873800D01*
X163577328Y-94925533D01*
X163332335Y-95027013D01*
X163111847Y-95174338D01*
X162924338Y-95361847D01*
X162777013Y-95582335D01*
X162700000Y-95768260D01*
X162622987Y-95582335D01*
X162475662Y-95361847D01*
X162288153Y-95174338D01*
X162067665Y-95027013D01*
X161822672Y-94925533D01*
X161562589Y-94873800D01*
X161297411Y-94873800D01*
X161037328Y-94925533D01*
X160792335Y-95027013D01*
X160571847Y-95174338D01*
X160384338Y-95361847D01*
X160237013Y-95582335D01*
X160135533Y-95827328D01*
X160083800Y-96087411D01*
X160083800Y-96352589D01*
X160135533Y-96612672D01*
X160237013Y-96857665D01*
X160384338Y-97078153D01*
X160571847Y-97265662D01*
X160792335Y-97412987D01*
X160978260Y-97490000D01*
X160792335Y-97567013D01*
X160571847Y-97714338D01*
X160384338Y-97901847D01*
X160237013Y-98122335D01*
X160160000Y-98308260D01*
X160082987Y-98122335D01*
X159935662Y-97901847D01*
X159748153Y-97714338D01*
X159527665Y-97567013D01*
X159282672Y-97465533D01*
X159022589Y-97413800D01*
X158757411Y-97413800D01*
X158497328Y-97465533D01*
X158252335Y-97567013D01*
X158031847Y-97714338D01*
X157844338Y-97901847D01*
X157697013Y-98122335D01*
X157595533Y-98367328D01*
X157543800Y-98627411D01*
X127640176Y-98627411D01*
X127599180Y-98605498D01*
X127518534Y-98581034D01*
X127602588Y-98505269D01*
X127776641Y-98271920D01*
X127901825Y-98009099D01*
X127946476Y-97861890D01*
X127825155Y-97632000D01*
X126632000Y-97632000D01*
X126632000Y-97652000D01*
X126378000Y-97652000D01*
X126378000Y-97632000D01*
X125184845Y-97632000D01*
X125063524Y-97861890D01*
X125108175Y-98009099D01*
X125233359Y-98271920D01*
X125407412Y-98505269D01*
X125491466Y-98581034D01*
X125410820Y-98605498D01*
X125300506Y-98664463D01*
X125203815Y-98743815D01*
X125124463Y-98840506D01*
X125065498Y-98950820D01*
X125029188Y-99070518D01*
X125016928Y-99195000D01*
X119012000Y-99195000D01*
X119012000Y-82118740D01*
X125020000Y-82118740D01*
X125020000Y-82411260D01*
X125077068Y-82698158D01*
X125189010Y-82968411D01*
X125351525Y-83211632D01*
X125558368Y-83418475D01*
X125732760Y-83535000D01*
X125558368Y-83651525D01*
X125351525Y-83858368D01*
X125189010Y-84101589D01*
X125077068Y-84371842D01*
X125020000Y-84658740D01*
X125020000Y-84951260D01*
X125077068Y-85238158D01*
X125189010Y-85508411D01*
X125351525Y-85751632D01*
X125558368Y-85958475D01*
X125732760Y-86075000D01*
X125558368Y-86191525D01*
X125351525Y-86398368D01*
X125189010Y-86641589D01*
X125077068Y-86911842D01*
X125020000Y-87198740D01*
X125020000Y-87491260D01*
X125077068Y-87778158D01*
X125189010Y-88048411D01*
X125351525Y-88291632D01*
X125558368Y-88498475D01*
X125732760Y-88615000D01*
X125558368Y-88731525D01*
X125351525Y-88938368D01*
X125189010Y-89181589D01*
X125077068Y-89451842D01*
X125020000Y-89738740D01*
X125020000Y-90031260D01*
X125077068Y-90318158D01*
X125189010Y-90588411D01*
X125351525Y-90831632D01*
X125558368Y-91038475D01*
X125732760Y-91155000D01*
X125558368Y-91271525D01*
X125351525Y-91478368D01*
X125189010Y-91721589D01*
X125077068Y-91991842D01*
X125020000Y-92278740D01*
X125020000Y-92571260D01*
X125077068Y-92858158D01*
X125189010Y-93128411D01*
X125351525Y-93371632D01*
X125558368Y-93578475D01*
X125732760Y-93695000D01*
X125558368Y-93811525D01*
X125351525Y-94018368D01*
X125189010Y-94261589D01*
X125077068Y-94531842D01*
X125020000Y-94818740D01*
X125020000Y-95111260D01*
X125077068Y-95398158D01*
X125189010Y-95668411D01*
X125351525Y-95911632D01*
X125558368Y-96118475D01*
X125740534Y-96240195D01*
X125623645Y-96309822D01*
X125407412Y-96504731D01*
X125233359Y-96738080D01*
X125108175Y-97000901D01*
X125063524Y-97148110D01*
X125184845Y-97378000D01*
X126378000Y-97378000D01*
X126378000Y-97358000D01*
X126632000Y-97358000D01*
X126632000Y-97378000D01*
X127825155Y-97378000D01*
X127946476Y-97148110D01*
X127901825Y-97000901D01*
X127776641Y-96738080D01*
X127602588Y-96504731D01*
X127386355Y-96309822D01*
X127269466Y-96240195D01*
X127451632Y-96118475D01*
X127658475Y-95911632D01*
X127820990Y-95668411D01*
X127932932Y-95398158D01*
X127990000Y-95111260D01*
X127990000Y-94818740D01*
X127932932Y-94531842D01*
X127820990Y-94261589D01*
X127658475Y-94018368D01*
X127451632Y-93811525D01*
X127277240Y-93695000D01*
X127451632Y-93578475D01*
X127658475Y-93371632D01*
X127820990Y-93128411D01*
X127932932Y-92858158D01*
X127990000Y-92571260D01*
X127990000Y-92278740D01*
X127932932Y-91991842D01*
X127880488Y-91865229D01*
X146865000Y-91865229D01*
X146865000Y-92482771D01*
X146985476Y-93088446D01*
X147221799Y-93658979D01*
X147564886Y-94172446D01*
X148001554Y-94609114D01*
X148515021Y-94952201D01*
X149085554Y-95188524D01*
X149691229Y-95309000D01*
X150308771Y-95309000D01*
X150914446Y-95188524D01*
X151484979Y-94952201D01*
X151998446Y-94609114D01*
X152435114Y-94172446D01*
X152778201Y-93658979D01*
X153014524Y-93088446D01*
X153135000Y-92482771D01*
X153135000Y-91865229D01*
X153014524Y-91259554D01*
X152778201Y-90689021D01*
X152435114Y-90175554D01*
X151998446Y-89738886D01*
X151484979Y-89395799D01*
X150914446Y-89159476D01*
X150308771Y-89039000D01*
X149691229Y-89039000D01*
X149085554Y-89159476D01*
X148515021Y-89395799D01*
X148001554Y-89738886D01*
X147564886Y-90175554D01*
X147221799Y-90689021D01*
X146985476Y-91259554D01*
X146865000Y-91865229D01*
X127880488Y-91865229D01*
X127820990Y-91721589D01*
X127658475Y-91478368D01*
X127451632Y-91271525D01*
X127277240Y-91155000D01*
X127451632Y-91038475D01*
X127658475Y-90831632D01*
X127820990Y-90588411D01*
X127932932Y-90318158D01*
X127990000Y-90031260D01*
X127990000Y-89738740D01*
X127932932Y-89451842D01*
X127820990Y-89181589D01*
X127658475Y-88938368D01*
X127451632Y-88731525D01*
X127277240Y-88615000D01*
X127451632Y-88498475D01*
X127658475Y-88291632D01*
X127820990Y-88048411D01*
X127932932Y-87778158D01*
X127990000Y-87491260D01*
X127990000Y-87198740D01*
X127932932Y-86911842D01*
X127820990Y-86641589D01*
X127658475Y-86398368D01*
X127451632Y-86191525D01*
X127277240Y-86075000D01*
X127451632Y-85958475D01*
X127658475Y-85751632D01*
X127820990Y-85508411D01*
X127932932Y-85238158D01*
X127984638Y-84978212D01*
X137168000Y-84978212D01*
X137168000Y-85201788D01*
X137211617Y-85421067D01*
X137297176Y-85627624D01*
X137421388Y-85813520D01*
X137579480Y-85971612D01*
X137765376Y-86095824D01*
X137971933Y-86181383D01*
X138191212Y-86225000D01*
X138414788Y-86225000D01*
X138634067Y-86181383D01*
X138840624Y-86095824D01*
X139026520Y-85971612D01*
X139146132Y-85852000D01*
X139951905Y-85852000D01*
X139878617Y-86028933D01*
X139835000Y-86248212D01*
X139835000Y-86471788D01*
X139878617Y-86691067D01*
X139964176Y-86897624D01*
X140088388Y-87083520D01*
X140246480Y-87241612D01*
X140432376Y-87365824D01*
X140638933Y-87451383D01*
X140858212Y-87495000D01*
X141081788Y-87495000D01*
X141301067Y-87451383D01*
X141507624Y-87365824D01*
X141693520Y-87241612D01*
X141813132Y-87122000D01*
X145981868Y-87122000D01*
X146101480Y-87241612D01*
X146287376Y-87365824D01*
X146493933Y-87451383D01*
X146713212Y-87495000D01*
X146936788Y-87495000D01*
X147156067Y-87451383D01*
X147362624Y-87365824D01*
X147548520Y-87241612D01*
X147706612Y-87083520D01*
X147830824Y-86897624D01*
X147916383Y-86691067D01*
X147960000Y-86471788D01*
X147960000Y-86248212D01*
X147916383Y-86028933D01*
X147830824Y-85822376D01*
X147706612Y-85636480D01*
X147617632Y-85547500D01*
X149017928Y-85547500D01*
X149030188Y-85671982D01*
X149066498Y-85791680D01*
X149125463Y-85901994D01*
X149204815Y-85998685D01*
X149301506Y-86078037D01*
X149411820Y-86137002D01*
X149531518Y-86173312D01*
X149656000Y-86185572D01*
X150095250Y-86182500D01*
X150254000Y-86023750D01*
X150254000Y-85087000D01*
X150508000Y-85087000D01*
X150508000Y-86023750D01*
X150666750Y-86182500D01*
X151106000Y-86185572D01*
X151230482Y-86173312D01*
X151350180Y-86137002D01*
X151460494Y-86078037D01*
X151557185Y-85998685D01*
X151636537Y-85901994D01*
X151695502Y-85791680D01*
X151731812Y-85671982D01*
X151744072Y-85547500D01*
X151741000Y-85245750D01*
X151582250Y-85087000D01*
X150508000Y-85087000D01*
X150254000Y-85087000D01*
X149179750Y-85087000D01*
X149021000Y-85245750D01*
X149017928Y-85547500D01*
X147617632Y-85547500D01*
X147548520Y-85478388D01*
X147362624Y-85354176D01*
X147156067Y-85268617D01*
X146936788Y-85225000D01*
X146713212Y-85225000D01*
X146684236Y-85230764D01*
X146690000Y-85201788D01*
X146690000Y-84978212D01*
X146646383Y-84758933D01*
X146560824Y-84552376D01*
X146436612Y-84366480D01*
X146278520Y-84208388D01*
X146092624Y-84084176D01*
X145886067Y-83998617D01*
X145666788Y-83955000D01*
X145443212Y-83955000D01*
X145223933Y-83998617D01*
X145017376Y-84084176D01*
X144831480Y-84208388D01*
X144711868Y-84328000D01*
X139146132Y-84328000D01*
X139026520Y-84208388D01*
X138840624Y-84084176D01*
X138634067Y-83998617D01*
X138414788Y-83955000D01*
X138191212Y-83955000D01*
X137971933Y-83998617D01*
X137765376Y-84084176D01*
X137579480Y-84208388D01*
X137421388Y-84366480D01*
X137297176Y-84552376D01*
X137211617Y-84758933D01*
X137168000Y-84978212D01*
X127984638Y-84978212D01*
X127990000Y-84951260D01*
X127990000Y-84658740D01*
X127932932Y-84371842D01*
X127820990Y-84101589D01*
X127658475Y-83858368D01*
X127451632Y-83651525D01*
X127277240Y-83535000D01*
X127451632Y-83418475D01*
X127658475Y-83211632D01*
X127820990Y-82968411D01*
X127932932Y-82698158D01*
X127990000Y-82411260D01*
X127990000Y-82118740D01*
X127932932Y-81831842D01*
X127820990Y-81561589D01*
X127658475Y-81318368D01*
X127451632Y-81111525D01*
X127208411Y-80949010D01*
X126938158Y-80837068D01*
X126651260Y-80780000D01*
X126358740Y-80780000D01*
X126071842Y-80837068D01*
X125801589Y-80949010D01*
X125558368Y-81111525D01*
X125351525Y-81318368D01*
X125189010Y-81561589D01*
X125077068Y-81831842D01*
X125020000Y-82118740D01*
X119012000Y-82118740D01*
X119012000Y-76403500D01*
X138984928Y-76403500D01*
X138997188Y-76527982D01*
X139033498Y-76647680D01*
X139092463Y-76757994D01*
X139171815Y-76854685D01*
X139268506Y-76934037D01*
X139378820Y-76993002D01*
X139498518Y-77029312D01*
X139623000Y-77041572D01*
X140062250Y-77038500D01*
X140221000Y-76879750D01*
X140221000Y-75943000D01*
X139146750Y-75943000D01*
X138988000Y-76101750D01*
X138984928Y-76403500D01*
X119012000Y-76403500D01*
X119012000Y-73403500D01*
X138984928Y-73403500D01*
X138984928Y-74078500D01*
X139001992Y-74251754D01*
X139052528Y-74418350D01*
X139134595Y-74571886D01*
X139245038Y-74706462D01*
X139251594Y-74711842D01*
X139171815Y-74777315D01*
X139092463Y-74874006D01*
X139033498Y-74984320D01*
X138997188Y-75104018D01*
X138984928Y-75228500D01*
X138988000Y-75530250D01*
X139146750Y-75689000D01*
X140221000Y-75689000D01*
X140221000Y-75669000D01*
X140475000Y-75669000D01*
X140475000Y-75689000D01*
X141549250Y-75689000D01*
X141708000Y-75530250D01*
X141711072Y-75228500D01*
X141698812Y-75104018D01*
X141662502Y-74984320D01*
X141603537Y-74874006D01*
X141524185Y-74777315D01*
X141444406Y-74711842D01*
X141450962Y-74706462D01*
X141459698Y-74695817D01*
X141569978Y-74741496D01*
X141789257Y-74785113D01*
X142012833Y-74785113D01*
X142232112Y-74741496D01*
X142438669Y-74655937D01*
X142624565Y-74531725D01*
X142782657Y-74373633D01*
X142906869Y-74187737D01*
X142963252Y-74051616D01*
X143427075Y-73587794D01*
X143447617Y-73691067D01*
X143533176Y-73897624D01*
X143594287Y-73989082D01*
X141613649Y-75969721D01*
X141592954Y-75986704D01*
X141549250Y-75943000D01*
X140475000Y-75943000D01*
X140475000Y-76879750D01*
X140633750Y-77038500D01*
X141073000Y-77041572D01*
X141197482Y-77029312D01*
X141317180Y-76993002D01*
X141364001Y-76967975D01*
X141364000Y-78231868D01*
X141325520Y-78193388D01*
X141139624Y-78069176D01*
X140933067Y-77983617D01*
X140713788Y-77940000D01*
X140490212Y-77940000D01*
X140270933Y-77983617D01*
X140064376Y-78069176D01*
X139878480Y-78193388D01*
X139720388Y-78351480D01*
X139596176Y-78537376D01*
X139510617Y-78743933D01*
X139467000Y-78963212D01*
X139467000Y-79186788D01*
X139510617Y-79406067D01*
X139596176Y-79612624D01*
X139720388Y-79798520D01*
X139878480Y-79956612D01*
X140064376Y-80080824D01*
X140270933Y-80166383D01*
X140490212Y-80210000D01*
X140509696Y-80210000D01*
X140515604Y-80239702D01*
X140432376Y-80274176D01*
X140246480Y-80398388D01*
X140088388Y-80556480D01*
X139964176Y-80742376D01*
X139878617Y-80948933D01*
X139835000Y-81168212D01*
X139835000Y-81391788D01*
X139878617Y-81611067D01*
X139949337Y-81781801D01*
X139889933Y-81793617D01*
X139683376Y-81879176D01*
X139497480Y-82003388D01*
X139339388Y-82161480D01*
X139215176Y-82347376D01*
X139129617Y-82553933D01*
X139086000Y-82773212D01*
X139086000Y-82996788D01*
X139129617Y-83216067D01*
X139215176Y-83422624D01*
X139339388Y-83608520D01*
X139497480Y-83766612D01*
X139683376Y-83890824D01*
X139889933Y-83976383D01*
X140109212Y-84020000D01*
X140332788Y-84020000D01*
X140552067Y-83976383D01*
X140758624Y-83890824D01*
X140944520Y-83766612D01*
X141064132Y-83647000D01*
X143204911Y-83647000D01*
X143324523Y-83766612D01*
X143510419Y-83890824D01*
X143716976Y-83976383D01*
X143936255Y-84020000D01*
X144159831Y-84020000D01*
X144379110Y-83976383D01*
X144585667Y-83890824D01*
X144771563Y-83766612D01*
X144929655Y-83608520D01*
X145053867Y-83422624D01*
X145139426Y-83216067D01*
X145183043Y-82996788D01*
X145183043Y-82773212D01*
X145139426Y-82553933D01*
X145136762Y-82547500D01*
X149017928Y-82547500D01*
X149017928Y-83222500D01*
X149034992Y-83395754D01*
X149085528Y-83562350D01*
X149167595Y-83715886D01*
X149278038Y-83850462D01*
X149284594Y-83855842D01*
X149204815Y-83921315D01*
X149125463Y-84018006D01*
X149066498Y-84128320D01*
X149030188Y-84248018D01*
X149017928Y-84372500D01*
X149021000Y-84674250D01*
X149179750Y-84833000D01*
X150254000Y-84833000D01*
X150254000Y-84813000D01*
X150508000Y-84813000D01*
X150508000Y-84833000D01*
X151582250Y-84833000D01*
X151741000Y-84674250D01*
X151744072Y-84372500D01*
X151731812Y-84248018D01*
X151695502Y-84128320D01*
X151636537Y-84018006D01*
X151557185Y-83921315D01*
X151477406Y-83855842D01*
X151483962Y-83850462D01*
X151594405Y-83715886D01*
X151676472Y-83562350D01*
X151727008Y-83395754D01*
X151744072Y-83222500D01*
X151744072Y-82547500D01*
X151739345Y-82499500D01*
X152446928Y-82499500D01*
X152459188Y-82623982D01*
X152495498Y-82743680D01*
X152554463Y-82853994D01*
X152633815Y-82950685D01*
X152730506Y-83030037D01*
X152840820Y-83089002D01*
X152960518Y-83125312D01*
X153085000Y-83137572D01*
X153524250Y-83134500D01*
X153683000Y-82975750D01*
X153683000Y-82039000D01*
X153937000Y-82039000D01*
X153937000Y-82975750D01*
X154095750Y-83134500D01*
X154535000Y-83137572D01*
X154659482Y-83125312D01*
X154779180Y-83089002D01*
X154889494Y-83030037D01*
X154986185Y-82950685D01*
X155065537Y-82853994D01*
X155124502Y-82743680D01*
X155160812Y-82623982D01*
X155173072Y-82499500D01*
X155170000Y-82197750D01*
X155011250Y-82039000D01*
X153937000Y-82039000D01*
X153683000Y-82039000D01*
X152608750Y-82039000D01*
X152450000Y-82197750D01*
X152446928Y-82499500D01*
X151739345Y-82499500D01*
X151727008Y-82374246D01*
X151676472Y-82207650D01*
X151594405Y-82054114D01*
X151483962Y-81919538D01*
X151444262Y-81886957D01*
X151472383Y-81819067D01*
X151516000Y-81599788D01*
X151516000Y-81376212D01*
X151472383Y-81156933D01*
X151386824Y-80950376D01*
X151262612Y-80764480D01*
X151104520Y-80606388D01*
X150918624Y-80482176D01*
X150712067Y-80396617D01*
X150492788Y-80353000D01*
X150269212Y-80353000D01*
X150049933Y-80396617D01*
X149843376Y-80482176D01*
X149657480Y-80606388D01*
X149499388Y-80764480D01*
X149375176Y-80950376D01*
X149289617Y-81156933D01*
X149246000Y-81376212D01*
X149246000Y-81599788D01*
X149289617Y-81819067D01*
X149317738Y-81886957D01*
X149278038Y-81919538D01*
X149167595Y-82054114D01*
X149085528Y-82207650D01*
X149034992Y-82374246D01*
X149017928Y-82547500D01*
X145136762Y-82547500D01*
X145053867Y-82347376D01*
X144929655Y-82161480D01*
X144771563Y-82003388D01*
X144585667Y-81879176D01*
X144379110Y-81793617D01*
X144159831Y-81750000D01*
X143936255Y-81750000D01*
X143716976Y-81793617D01*
X143510419Y-81879176D01*
X143324523Y-82003388D01*
X143204911Y-82123000D01*
X141732132Y-82123000D01*
X141851612Y-82003520D01*
X141853323Y-82000959D01*
X141898015Y-81987402D01*
X142030392Y-81916645D01*
X142146422Y-81821422D01*
X142170284Y-81792346D01*
X143495130Y-80467500D01*
X145715928Y-80467500D01*
X145728188Y-80591982D01*
X145764498Y-80711680D01*
X145823463Y-80821994D01*
X145902815Y-80918685D01*
X145999506Y-80998037D01*
X146109820Y-81057002D01*
X146229518Y-81093312D01*
X146354000Y-81105572D01*
X146793250Y-81102500D01*
X146952000Y-80943750D01*
X146952000Y-80007000D01*
X147206000Y-80007000D01*
X147206000Y-80943750D01*
X147364750Y-81102500D01*
X147804000Y-81105572D01*
X147928482Y-81093312D01*
X148048180Y-81057002D01*
X148158494Y-80998037D01*
X148255185Y-80918685D01*
X148334537Y-80821994D01*
X148393502Y-80711680D01*
X148429812Y-80591982D01*
X148442072Y-80467500D01*
X148439000Y-80165750D01*
X148280250Y-80007000D01*
X147206000Y-80007000D01*
X146952000Y-80007000D01*
X145877750Y-80007000D01*
X145719000Y-80165750D01*
X145715928Y-80467500D01*
X143495130Y-80467500D01*
X143654353Y-80308278D01*
X143683422Y-80284422D01*
X143778645Y-80168392D01*
X143849402Y-80036015D01*
X143892974Y-79892378D01*
X143904000Y-79780426D01*
X143904000Y-79780424D01*
X143907686Y-79743001D01*
X143904000Y-79705578D01*
X143904000Y-79263630D01*
X144659658Y-78507972D01*
X144673388Y-78528520D01*
X144831480Y-78686612D01*
X145017376Y-78810824D01*
X145223933Y-78896383D01*
X145443212Y-78940000D01*
X145666788Y-78940000D01*
X145852073Y-78903145D01*
X145823463Y-78938006D01*
X145764498Y-79048320D01*
X145728188Y-79168018D01*
X145715928Y-79292500D01*
X145719000Y-79594250D01*
X145877750Y-79753000D01*
X146952000Y-79753000D01*
X146952000Y-79733000D01*
X147206000Y-79733000D01*
X147206000Y-79753000D01*
X148280250Y-79753000D01*
X148308038Y-79725212D01*
X151151000Y-79725212D01*
X151151000Y-79948788D01*
X151194617Y-80168067D01*
X151280176Y-80374624D01*
X151404388Y-80560520D01*
X151562480Y-80718612D01*
X151748376Y-80842824D01*
X151954933Y-80928383D01*
X152174212Y-80972000D01*
X152397788Y-80972000D01*
X152583073Y-80935145D01*
X152554463Y-80970006D01*
X152495498Y-81080320D01*
X152459188Y-81200018D01*
X152446928Y-81324500D01*
X152450000Y-81626250D01*
X152608750Y-81785000D01*
X153683000Y-81785000D01*
X153683000Y-81765000D01*
X153937000Y-81765000D01*
X153937000Y-81785000D01*
X155011250Y-81785000D01*
X155170000Y-81626250D01*
X155173072Y-81324500D01*
X155160812Y-81200018D01*
X155124502Y-81080320D01*
X155065537Y-80970006D01*
X154986185Y-80873315D01*
X154906406Y-80807842D01*
X154912962Y-80802462D01*
X155023405Y-80667886D01*
X155105472Y-80514350D01*
X155156008Y-80347754D01*
X155173072Y-80174500D01*
X155173072Y-79499500D01*
X155156008Y-79326246D01*
X155105472Y-79159650D01*
X155023405Y-79006114D01*
X154912962Y-78871538D01*
X154778386Y-78761095D01*
X154624850Y-78679028D01*
X154458254Y-78628492D01*
X154285000Y-78611428D01*
X153335000Y-78611428D01*
X153161746Y-78628492D01*
X152995150Y-78679028D01*
X152841614Y-78761095D01*
X152778829Y-78812621D01*
X152617067Y-78745617D01*
X152397788Y-78702000D01*
X152174212Y-78702000D01*
X151954933Y-78745617D01*
X151748376Y-78831176D01*
X151562480Y-78955388D01*
X151404388Y-79113480D01*
X151280176Y-79299376D01*
X151194617Y-79505933D01*
X151151000Y-79725212D01*
X148308038Y-79725212D01*
X148439000Y-79594250D01*
X148442072Y-79292500D01*
X148429812Y-79168018D01*
X148393502Y-79048320D01*
X148334537Y-78938006D01*
X148255185Y-78841315D01*
X148175406Y-78775842D01*
X148181962Y-78770462D01*
X148292405Y-78635886D01*
X148374472Y-78482350D01*
X148425008Y-78315754D01*
X148442072Y-78142500D01*
X148442072Y-77467500D01*
X148425008Y-77294246D01*
X148374472Y-77127650D01*
X148292405Y-76974114D01*
X148181962Y-76839538D01*
X148047386Y-76729095D01*
X147893850Y-76647028D01*
X147727254Y-76596492D01*
X147554000Y-76579428D01*
X146604000Y-76579428D01*
X146586477Y-76581154D01*
X147021631Y-76146000D01*
X147190788Y-76146000D01*
X147410067Y-76102383D01*
X147616624Y-76016824D01*
X147802520Y-75892612D01*
X147960612Y-75734520D01*
X148084824Y-75548624D01*
X148170383Y-75342067D01*
X148214000Y-75122788D01*
X148214000Y-74899212D01*
X148170383Y-74679933D01*
X148084824Y-74473376D01*
X147960612Y-74287480D01*
X147802520Y-74129388D01*
X147616624Y-74005176D01*
X147410067Y-73919617D01*
X147190788Y-73876000D01*
X146967212Y-73876000D01*
X146889423Y-73891473D01*
X146814824Y-73711376D01*
X146690612Y-73525480D01*
X146532520Y-73367388D01*
X146346624Y-73243176D01*
X146140067Y-73157617D01*
X145920788Y-73114000D01*
X145697212Y-73114000D01*
X145649203Y-73123549D01*
X145630383Y-73028933D01*
X145544824Y-72822376D01*
X145420612Y-72636480D01*
X145262520Y-72478388D01*
X145237209Y-72461476D01*
X145360799Y-72337886D01*
X145512371Y-72111043D01*
X145616775Y-71858989D01*
X145670000Y-71591411D01*
X145670000Y-71323500D01*
X150795928Y-71323500D01*
X150808188Y-71447982D01*
X150844498Y-71567680D01*
X150903463Y-71677994D01*
X150982815Y-71774685D01*
X151079506Y-71854037D01*
X151189820Y-71913002D01*
X151309518Y-71949312D01*
X151434000Y-71961572D01*
X151873250Y-71958500D01*
X152032000Y-71799750D01*
X152032000Y-70863000D01*
X150957750Y-70863000D01*
X150799000Y-71021750D01*
X150795928Y-71323500D01*
X145670000Y-71323500D01*
X145670000Y-71318589D01*
X145616775Y-71051011D01*
X145512371Y-70798957D01*
X145360799Y-70572114D01*
X145167886Y-70379201D01*
X144941043Y-70227629D01*
X144688989Y-70123225D01*
X144525920Y-70090788D01*
X142758632Y-68323500D01*
X150795928Y-68323500D01*
X150795928Y-68998500D01*
X150812992Y-69171754D01*
X150863528Y-69338350D01*
X150945595Y-69491886D01*
X151056038Y-69626462D01*
X151062594Y-69631842D01*
X150982815Y-69697315D01*
X150903463Y-69794006D01*
X150844498Y-69904320D01*
X150808188Y-70024018D01*
X150795928Y-70148500D01*
X150799000Y-70450250D01*
X150957750Y-70609000D01*
X152032000Y-70609000D01*
X152032000Y-70589000D01*
X152286000Y-70589000D01*
X152286000Y-70609000D01*
X152306000Y-70609000D01*
X152306000Y-70863000D01*
X152286000Y-70863000D01*
X152286000Y-71799750D01*
X152444750Y-71958500D01*
X152884000Y-71961572D01*
X153008482Y-71949312D01*
X153128180Y-71913002D01*
X153238494Y-71854037D01*
X153335185Y-71774685D01*
X153414537Y-71677994D01*
X153473502Y-71567680D01*
X153509812Y-71447982D01*
X153522072Y-71323500D01*
X153521347Y-71252270D01*
X153535129Y-71285543D01*
X153686701Y-71512386D01*
X153879614Y-71705299D01*
X154106457Y-71856871D01*
X154358511Y-71961275D01*
X154521580Y-71993712D01*
X154746008Y-72218140D01*
X154781551Y-72261449D01*
X154954377Y-72403284D01*
X155151553Y-72508676D01*
X155365501Y-72573577D01*
X155532248Y-72590000D01*
X155532257Y-72590000D01*
X155587999Y-72595490D01*
X155643741Y-72590000D01*
X161397714Y-72590000D01*
X161535957Y-72682371D01*
X161788011Y-72786775D01*
X162055589Y-72840000D01*
X162328411Y-72840000D01*
X162595989Y-72786775D01*
X162848043Y-72682371D01*
X163074886Y-72530799D01*
X163267799Y-72337886D01*
X163419371Y-72111043D01*
X163523775Y-71858989D01*
X163577000Y-71591411D01*
X163577000Y-71318589D01*
X163523775Y-71051011D01*
X163419371Y-70798957D01*
X163267799Y-70572114D01*
X163074886Y-70379201D01*
X162848043Y-70227629D01*
X162595989Y-70123225D01*
X162328411Y-70070000D01*
X162055589Y-70070000D01*
X161788011Y-70123225D01*
X161535957Y-70227629D01*
X161397714Y-70320000D01*
X156113070Y-70320000D01*
X156094275Y-70225511D01*
X155989871Y-69973457D01*
X155838299Y-69746614D01*
X155645386Y-69553701D01*
X155418543Y-69402129D01*
X155166489Y-69297725D01*
X154910615Y-69246828D01*
X154942824Y-69198624D01*
X155028383Y-68992067D01*
X155072000Y-68772788D01*
X155072000Y-68549212D01*
X155028383Y-68329933D01*
X154942824Y-68123376D01*
X154818612Y-67937480D01*
X154660520Y-67779388D01*
X154474624Y-67655176D01*
X154268067Y-67569617D01*
X154048788Y-67526000D01*
X153825212Y-67526000D01*
X153605933Y-67569617D01*
X153399376Y-67655176D01*
X153289235Y-67728770D01*
X153261962Y-67695538D01*
X153127386Y-67585095D01*
X152973850Y-67503028D01*
X152807254Y-67452492D01*
X152634000Y-67435428D01*
X151684000Y-67435428D01*
X151510746Y-67452492D01*
X151344150Y-67503028D01*
X151190614Y-67585095D01*
X151056038Y-67695538D01*
X150945595Y-67830114D01*
X150863528Y-67983650D01*
X150812992Y-68150246D01*
X150795928Y-68323500D01*
X142758632Y-68323500D01*
X142474212Y-68039081D01*
X142441775Y-67876011D01*
X142337371Y-67623957D01*
X142185799Y-67397114D01*
X141992886Y-67204201D01*
X141766043Y-67052629D01*
X141513989Y-66948225D01*
X141246411Y-66895000D01*
X140973589Y-66895000D01*
X140706011Y-66948225D01*
X140453957Y-67052629D01*
X140227114Y-67204201D01*
X140034201Y-67397114D01*
X139882629Y-67623957D01*
X139778225Y-67876011D01*
X139725000Y-68143589D01*
X139725000Y-68416411D01*
X139778225Y-68683989D01*
X139882629Y-68936043D01*
X140034201Y-69162886D01*
X140227114Y-69355799D01*
X140453957Y-69507371D01*
X140706011Y-69611775D01*
X140869081Y-69644212D01*
X142678089Y-71453220D01*
X142629360Y-71479266D01*
X142521628Y-71567680D01*
X142471762Y-71608604D01*
X142439355Y-71648092D01*
X141499542Y-72587906D01*
X141363421Y-72644289D01*
X141323520Y-72670950D01*
X141316386Y-72665095D01*
X141162850Y-72583028D01*
X140996254Y-72532492D01*
X140823000Y-72515428D01*
X139873000Y-72515428D01*
X139699746Y-72532492D01*
X139533150Y-72583028D01*
X139379614Y-72665095D01*
X139245038Y-72775538D01*
X139134595Y-72910114D01*
X139052528Y-73063650D01*
X139001992Y-73230246D01*
X138984928Y-73403500D01*
X119012000Y-73403500D01*
X119012000Y-64879992D01*
X119026866Y-64786129D01*
X119065418Y-64710467D01*
X119125467Y-64650418D01*
X119201129Y-64611866D01*
X119294992Y-64597000D01*
X129915000Y-64597000D01*
X129934867Y-64595436D01*
X130058474Y-64575859D01*
X130082563Y-64569573D01*
X130096264Y-64563581D01*
X130207771Y-64506765D01*
X130228739Y-64493342D01*
X130239917Y-64483410D01*
X130328410Y-64394917D01*
X130344204Y-64375671D01*
X130351765Y-64362771D01*
X130408581Y-64251264D01*
X130417655Y-64228080D01*
X130420859Y-64213474D01*
X130440436Y-64089867D01*
X130442000Y-64070000D01*
X130442000Y-57259992D01*
X130456866Y-57166129D01*
X130495418Y-57090467D01*
X130555467Y-57030418D01*
X130631129Y-56991866D01*
X130724992Y-56977000D01*
X131429370Y-56977000D01*
X130857649Y-57548721D01*
G37*
%TD.AperFunction*%
%TD*%
M02*
