%TF.GenerationSoftware,KiCad,Pcbnew,5.1.10-1.fc33*%
%TF.CreationDate,2021-06-14T19:53:07+02:00*%
%TF.ProjectId,xecar524,78656361-7235-4323-942e-6b696361645f,rev?*%
%TF.SameCoordinates,Original*%
%TF.FileFunction,Legend,Top*%
%TF.FilePolarity,Positive*%
%FSLAX46Y46*%
G04 Gerber Fmt 4.6, Leading zero omitted, Abs format (unit mm)*
G04 Created by KiCad (PCBNEW 5.1.10-1.fc33) date 2021-06-14 19:53:07*
%MOMM*%
%LPD*%
G01*
G04 APERTURE LIST*
%ADD10C,0.150000*%
%ADD11C,0.120000*%
G04 APERTURE END LIST*
D10*
X134892023Y-124817142D02*
X134844404Y-124864761D01*
X134701547Y-124912380D01*
X134606309Y-124912380D01*
X134463452Y-124864761D01*
X134368214Y-124769523D01*
X134320595Y-124674285D01*
X134272976Y-124483809D01*
X134272976Y-124340952D01*
X134320595Y-124150476D01*
X134368214Y-124055238D01*
X134463452Y-123960000D01*
X134606309Y-123912380D01*
X134701547Y-123912380D01*
X134844404Y-123960000D01*
X134892023Y-124007619D01*
X135653928Y-124388571D02*
X135320595Y-124388571D01*
X135320595Y-124912380D02*
X135320595Y-123912380D01*
X135796785Y-123912380D01*
X136701547Y-123960000D02*
X136606309Y-123912380D01*
X136463452Y-123912380D01*
X136320595Y-123960000D01*
X136225357Y-124055238D01*
X136177738Y-124150476D01*
X136130119Y-124340952D01*
X136130119Y-124483809D01*
X136177738Y-124674285D01*
X136225357Y-124769523D01*
X136320595Y-124864761D01*
X136463452Y-124912380D01*
X136558690Y-124912380D01*
X136701547Y-124864761D01*
X136749166Y-124817142D01*
X136749166Y-124483809D01*
X136558690Y-124483809D01*
X137701547Y-124912380D02*
X137130119Y-124912380D01*
X137415833Y-124912380D02*
X137415833Y-123912380D01*
X137320595Y-124055238D01*
X137225357Y-124150476D01*
X137130119Y-124198095D01*
X134892023Y-122277142D02*
X134844404Y-122324761D01*
X134701547Y-122372380D01*
X134606309Y-122372380D01*
X134463452Y-122324761D01*
X134368214Y-122229523D01*
X134320595Y-122134285D01*
X134272976Y-121943809D01*
X134272976Y-121800952D01*
X134320595Y-121610476D01*
X134368214Y-121515238D01*
X134463452Y-121420000D01*
X134606309Y-121372380D01*
X134701547Y-121372380D01*
X134844404Y-121420000D01*
X134892023Y-121467619D01*
X135653928Y-121848571D02*
X135320595Y-121848571D01*
X135320595Y-122372380D02*
X135320595Y-121372380D01*
X135796785Y-121372380D01*
X136701547Y-121420000D02*
X136606309Y-121372380D01*
X136463452Y-121372380D01*
X136320595Y-121420000D01*
X136225357Y-121515238D01*
X136177738Y-121610476D01*
X136130119Y-121800952D01*
X136130119Y-121943809D01*
X136177738Y-122134285D01*
X136225357Y-122229523D01*
X136320595Y-122324761D01*
X136463452Y-122372380D01*
X136558690Y-122372380D01*
X136701547Y-122324761D01*
X136749166Y-122277142D01*
X136749166Y-121943809D01*
X136558690Y-121943809D01*
X137368214Y-121372380D02*
X137463452Y-121372380D01*
X137558690Y-121420000D01*
X137606309Y-121467619D01*
X137653928Y-121562857D01*
X137701547Y-121753333D01*
X137701547Y-121991428D01*
X137653928Y-122181904D01*
X137606309Y-122277142D01*
X137558690Y-122324761D01*
X137463452Y-122372380D01*
X137368214Y-122372380D01*
X137272976Y-122324761D01*
X137225357Y-122277142D01*
X137177738Y-122181904D01*
X137130119Y-121991428D01*
X137130119Y-121753333D01*
X137177738Y-121562857D01*
X137225357Y-121467619D01*
X137272976Y-121420000D01*
X137368214Y-121372380D01*
X128745595Y-85257380D02*
X128745595Y-84257380D01*
X129078928Y-84971666D01*
X129412261Y-84257380D01*
X129412261Y-85257380D01*
X129888452Y-85257380D02*
X129888452Y-84257380D01*
X130317023Y-85209761D02*
X130459880Y-85257380D01*
X130697976Y-85257380D01*
X130793214Y-85209761D01*
X130840833Y-85162142D01*
X130888452Y-85066904D01*
X130888452Y-84971666D01*
X130840833Y-84876428D01*
X130793214Y-84828809D01*
X130697976Y-84781190D01*
X130507500Y-84733571D01*
X130412261Y-84685952D01*
X130364642Y-84638333D01*
X130317023Y-84543095D01*
X130317023Y-84447857D01*
X130364642Y-84352619D01*
X130412261Y-84305000D01*
X130507500Y-84257380D01*
X130745595Y-84257380D01*
X130888452Y-84305000D01*
X131507500Y-84257380D02*
X131697976Y-84257380D01*
X131793214Y-84305000D01*
X131888452Y-84400238D01*
X131936071Y-84590714D01*
X131936071Y-84924047D01*
X131888452Y-85114523D01*
X131793214Y-85209761D01*
X131697976Y-85257380D01*
X131507500Y-85257380D01*
X131412261Y-85209761D01*
X131317023Y-85114523D01*
X131269404Y-84924047D01*
X131269404Y-84590714D01*
X131317023Y-84400238D01*
X131412261Y-84305000D01*
X131507500Y-84257380D01*
X128697976Y-90051666D02*
X129174166Y-90051666D01*
X128602738Y-90337380D02*
X128936071Y-89337380D01*
X129269404Y-90337380D01*
X129602738Y-89337380D02*
X129602738Y-90146904D01*
X129650357Y-90242142D01*
X129697976Y-90289761D01*
X129793214Y-90337380D01*
X129983690Y-90337380D01*
X130078928Y-90289761D01*
X130126547Y-90242142D01*
X130174166Y-90146904D01*
X130174166Y-89337380D01*
X130555119Y-89337380D02*
X131221785Y-90337380D01*
X131221785Y-89337380D02*
X130555119Y-90337380D01*
X128697976Y-82669761D02*
X128840833Y-82717380D01*
X129078928Y-82717380D01*
X129174166Y-82669761D01*
X129221785Y-82622142D01*
X129269404Y-82526904D01*
X129269404Y-82431666D01*
X129221785Y-82336428D01*
X129174166Y-82288809D01*
X129078928Y-82241190D01*
X128888452Y-82193571D01*
X128793214Y-82145952D01*
X128745595Y-82098333D01*
X128697976Y-82003095D01*
X128697976Y-81907857D01*
X128745595Y-81812619D01*
X128793214Y-81765000D01*
X128888452Y-81717380D01*
X129126547Y-81717380D01*
X129269404Y-81765000D01*
X130269404Y-82622142D02*
X130221785Y-82669761D01*
X130078928Y-82717380D01*
X129983690Y-82717380D01*
X129840833Y-82669761D01*
X129745595Y-82574523D01*
X129697976Y-82479285D01*
X129650357Y-82288809D01*
X129650357Y-82145952D01*
X129697976Y-81955476D01*
X129745595Y-81860238D01*
X129840833Y-81765000D01*
X129983690Y-81717380D01*
X130078928Y-81717380D01*
X130221785Y-81765000D01*
X130269404Y-81812619D01*
X130697976Y-82717380D02*
X130697976Y-81717380D01*
X131269404Y-82717380D02*
X130840833Y-82145952D01*
X131269404Y-81717380D02*
X130697976Y-82288809D01*
X128507500Y-91510000D02*
X129459880Y-91510000D01*
X128697976Y-92829761D02*
X128840833Y-92877380D01*
X129078928Y-92877380D01*
X129174166Y-92829761D01*
X129221785Y-92782142D01*
X129269404Y-92686904D01*
X129269404Y-92591666D01*
X129221785Y-92496428D01*
X129174166Y-92448809D01*
X129078928Y-92401190D01*
X128888452Y-92353571D01*
X128793214Y-92305952D01*
X128745595Y-92258333D01*
X128697976Y-92163095D01*
X128697976Y-92067857D01*
X128745595Y-91972619D01*
X128793214Y-91925000D01*
X128888452Y-91877380D01*
X129126547Y-91877380D01*
X129269404Y-91925000D01*
X129459880Y-91510000D02*
X130364642Y-91510000D01*
X129697976Y-92353571D02*
X130031309Y-92353571D01*
X130174166Y-92877380D02*
X129697976Y-92877380D01*
X129697976Y-91877380D01*
X130174166Y-91877380D01*
X130364642Y-91510000D02*
X131174166Y-91510000D01*
X131078928Y-92877380D02*
X130602738Y-92877380D01*
X130602738Y-91877380D01*
X128745595Y-87797380D02*
X128745595Y-86797380D01*
X129078928Y-87511666D01*
X129412261Y-86797380D01*
X129412261Y-87797380D01*
X130078928Y-86797380D02*
X130269404Y-86797380D01*
X130364642Y-86845000D01*
X130459880Y-86940238D01*
X130507500Y-87130714D01*
X130507500Y-87464047D01*
X130459880Y-87654523D01*
X130364642Y-87749761D01*
X130269404Y-87797380D01*
X130078928Y-87797380D01*
X129983690Y-87749761D01*
X129888452Y-87654523D01*
X129840833Y-87464047D01*
X129840833Y-87130714D01*
X129888452Y-86940238D01*
X129983690Y-86845000D01*
X130078928Y-86797380D01*
X130888452Y-87749761D02*
X131031309Y-87797380D01*
X131269404Y-87797380D01*
X131364642Y-87749761D01*
X131412261Y-87702142D01*
X131459880Y-87606904D01*
X131459880Y-87511666D01*
X131412261Y-87416428D01*
X131364642Y-87368809D01*
X131269404Y-87321190D01*
X131078928Y-87273571D01*
X130983690Y-87225952D01*
X130936071Y-87178333D01*
X130888452Y-87083095D01*
X130888452Y-86987857D01*
X130936071Y-86892619D01*
X130983690Y-86845000D01*
X131078928Y-86797380D01*
X131317023Y-86797380D01*
X131459880Y-86845000D01*
X131888452Y-87797380D02*
X131888452Y-86797380D01*
X128650357Y-99497380D02*
X129269404Y-99497380D01*
X128936071Y-99878333D01*
X129078928Y-99878333D01*
X129174166Y-99925952D01*
X129221785Y-99973571D01*
X129269404Y-100068809D01*
X129269404Y-100306904D01*
X129221785Y-100402142D01*
X129174166Y-100449761D01*
X129078928Y-100497380D01*
X128793214Y-100497380D01*
X128697976Y-100449761D01*
X128650357Y-100402142D01*
X129555119Y-99497380D02*
X129888452Y-100497380D01*
X130221785Y-99497380D01*
X130459880Y-99497380D02*
X131078928Y-99497380D01*
X130745595Y-99878333D01*
X130888452Y-99878333D01*
X130983690Y-99925952D01*
X131031309Y-99973571D01*
X131078928Y-100068809D01*
X131078928Y-100306904D01*
X131031309Y-100402142D01*
X130983690Y-100449761D01*
X130888452Y-100497380D01*
X130602738Y-100497380D01*
X130507500Y-100449761D01*
X130459880Y-100402142D01*
X129269404Y-97005000D02*
X129174166Y-96957380D01*
X129031309Y-96957380D01*
X128888452Y-97005000D01*
X128793214Y-97100238D01*
X128745595Y-97195476D01*
X128697976Y-97385952D01*
X128697976Y-97528809D01*
X128745595Y-97719285D01*
X128793214Y-97814523D01*
X128888452Y-97909761D01*
X129031309Y-97957380D01*
X129126547Y-97957380D01*
X129269404Y-97909761D01*
X129317023Y-97862142D01*
X129317023Y-97528809D01*
X129126547Y-97528809D01*
X129745595Y-97957380D02*
X129745595Y-96957380D01*
X130317023Y-97957380D01*
X130317023Y-96957380D01*
X130793214Y-97957380D02*
X130793214Y-96957380D01*
X131031309Y-96957380D01*
X131174166Y-97005000D01*
X131269404Y-97100238D01*
X131317023Y-97195476D01*
X131364642Y-97385952D01*
X131364642Y-97528809D01*
X131317023Y-97719285D01*
X131269404Y-97814523D01*
X131174166Y-97909761D01*
X131031309Y-97957380D01*
X130793214Y-97957380D01*
X128745595Y-95417380D02*
X128745595Y-94417380D01*
X129078928Y-95131666D01*
X129412261Y-94417380D01*
X129412261Y-95417380D01*
X130078928Y-94417380D02*
X130269404Y-94417380D01*
X130364642Y-94465000D01*
X130459880Y-94560238D01*
X130507500Y-94750714D01*
X130507500Y-95084047D01*
X130459880Y-95274523D01*
X130364642Y-95369761D01*
X130269404Y-95417380D01*
X130078928Y-95417380D01*
X129983690Y-95369761D01*
X129888452Y-95274523D01*
X129840833Y-95084047D01*
X129840833Y-94750714D01*
X129888452Y-94560238D01*
X129983690Y-94465000D01*
X130078928Y-94417380D01*
X130936071Y-95417380D02*
X130936071Y-94417380D01*
X131174166Y-94417380D01*
X131317023Y-94465000D01*
X131412261Y-94560238D01*
X131459880Y-94655476D01*
X131507500Y-94845952D01*
X131507500Y-94988809D01*
X131459880Y-95179285D01*
X131412261Y-95274523D01*
X131317023Y-95369761D01*
X131174166Y-95417380D01*
X130936071Y-95417380D01*
X131936071Y-94893571D02*
X132269404Y-94893571D01*
X132412261Y-95417380D02*
X131936071Y-95417380D01*
X131936071Y-94417380D01*
X132412261Y-94417380D01*
X128602738Y-103942380D02*
X129174166Y-103942380D01*
X128888452Y-104942380D02*
X128888452Y-103942380D01*
X129507500Y-104942380D02*
X129507500Y-103942380D01*
X129840833Y-104656666D01*
X130174166Y-103942380D01*
X130174166Y-104942380D01*
X130602738Y-104894761D02*
X130745595Y-104942380D01*
X130983690Y-104942380D01*
X131078928Y-104894761D01*
X131126547Y-104847142D01*
X131174166Y-104751904D01*
X131174166Y-104656666D01*
X131126547Y-104561428D01*
X131078928Y-104513809D01*
X130983690Y-104466190D01*
X130793214Y-104418571D01*
X130697976Y-104370952D01*
X130650357Y-104323333D01*
X130602738Y-104228095D01*
X130602738Y-104132857D01*
X130650357Y-104037619D01*
X130697976Y-103990000D01*
X130793214Y-103942380D01*
X131031309Y-103942380D01*
X131174166Y-103990000D01*
X128602738Y-106482380D02*
X129174166Y-106482380D01*
X128888452Y-107482380D02*
X128888452Y-106482380D01*
X129507500Y-107482380D02*
X129507500Y-106482380D01*
X129745595Y-106482380D01*
X129888452Y-106530000D01*
X129983690Y-106625238D01*
X130031309Y-106720476D01*
X130078928Y-106910952D01*
X130078928Y-107053809D01*
X130031309Y-107244285D01*
X129983690Y-107339523D01*
X129888452Y-107434761D01*
X129745595Y-107482380D01*
X129507500Y-107482380D01*
X130507500Y-107482380D02*
X130507500Y-106482380D01*
X128602738Y-109022380D02*
X129174166Y-109022380D01*
X128888452Y-110022380D02*
X128888452Y-109022380D01*
X129507500Y-110022380D02*
X129507500Y-109022380D01*
X129745595Y-109022380D01*
X129888452Y-109070000D01*
X129983690Y-109165238D01*
X130031309Y-109260476D01*
X130078928Y-109450952D01*
X130078928Y-109593809D01*
X130031309Y-109784285D01*
X129983690Y-109879523D01*
X129888452Y-109974761D01*
X129745595Y-110022380D01*
X129507500Y-110022380D01*
X130697976Y-109022380D02*
X130888452Y-109022380D01*
X130983690Y-109070000D01*
X131078928Y-109165238D01*
X131126547Y-109355714D01*
X131126547Y-109689047D01*
X131078928Y-109879523D01*
X130983690Y-109974761D01*
X130888452Y-110022380D01*
X130697976Y-110022380D01*
X130602738Y-109974761D01*
X130507500Y-109879523D01*
X130459880Y-109689047D01*
X130459880Y-109355714D01*
X130507500Y-109165238D01*
X130602738Y-109070000D01*
X130697976Y-109022380D01*
X128602738Y-111562380D02*
X129174166Y-111562380D01*
X128888452Y-112562380D02*
X128888452Y-111562380D01*
X130078928Y-112467142D02*
X130031309Y-112514761D01*
X129888452Y-112562380D01*
X129793214Y-112562380D01*
X129650357Y-112514761D01*
X129555119Y-112419523D01*
X129507500Y-112324285D01*
X129459880Y-112133809D01*
X129459880Y-111990952D01*
X129507500Y-111800476D01*
X129555119Y-111705238D01*
X129650357Y-111610000D01*
X129793214Y-111562380D01*
X129888452Y-111562380D01*
X130031309Y-111610000D01*
X130078928Y-111657619D01*
X130507500Y-112562380D02*
X130507500Y-111562380D01*
X131078928Y-112562380D02*
X130650357Y-111990952D01*
X131078928Y-111562380D02*
X130507500Y-112133809D01*
X129269404Y-114150000D02*
X129174166Y-114102380D01*
X129031309Y-114102380D01*
X128888452Y-114150000D01*
X128793214Y-114245238D01*
X128745595Y-114340476D01*
X128697976Y-114530952D01*
X128697976Y-114673809D01*
X128745595Y-114864285D01*
X128793214Y-114959523D01*
X128888452Y-115054761D01*
X129031309Y-115102380D01*
X129126547Y-115102380D01*
X129269404Y-115054761D01*
X129317023Y-115007142D01*
X129317023Y-114673809D01*
X129126547Y-114673809D01*
X129745595Y-115102380D02*
X129745595Y-114102380D01*
X130317023Y-115102380D01*
X130317023Y-114102380D01*
X130793214Y-115102380D02*
X130793214Y-114102380D01*
X131031309Y-114102380D01*
X131174166Y-114150000D01*
X131269404Y-114245238D01*
X131317023Y-114340476D01*
X131364642Y-114530952D01*
X131364642Y-114673809D01*
X131317023Y-114864285D01*
X131269404Y-114959523D01*
X131174166Y-115054761D01*
X131031309Y-115102380D01*
X130793214Y-115102380D01*
X128650357Y-116642380D02*
X129269404Y-116642380D01*
X128936071Y-117023333D01*
X129078928Y-117023333D01*
X129174166Y-117070952D01*
X129221785Y-117118571D01*
X129269404Y-117213809D01*
X129269404Y-117451904D01*
X129221785Y-117547142D01*
X129174166Y-117594761D01*
X129078928Y-117642380D01*
X128793214Y-117642380D01*
X128697976Y-117594761D01*
X128650357Y-117547142D01*
X129555119Y-116642380D02*
X129888452Y-117642380D01*
X130221785Y-116642380D01*
X130459880Y-116642380D02*
X131078928Y-116642380D01*
X130745595Y-117023333D01*
X130888452Y-117023333D01*
X130983690Y-117070952D01*
X131031309Y-117118571D01*
X131078928Y-117213809D01*
X131078928Y-117451904D01*
X131031309Y-117547142D01*
X130983690Y-117594761D01*
X130888452Y-117642380D01*
X130602738Y-117642380D01*
X130507500Y-117594761D01*
X130459880Y-117547142D01*
D11*
%TO.C,J3*%
X133350000Y-125730000D02*
X132080000Y-125730000D01*
X133350000Y-124460000D02*
X133350000Y-125730000D01*
X131037071Y-121540000D02*
X130582929Y-121540000D01*
X131037071Y-122300000D02*
X130582929Y-122300000D01*
X128497071Y-121540000D02*
X128100000Y-121540000D01*
X128497071Y-122300000D02*
X128100000Y-122300000D01*
X119440000Y-121540000D02*
X125440000Y-121540000D01*
X119440000Y-122300000D02*
X119440000Y-121540000D01*
X125440000Y-122300000D02*
X119440000Y-122300000D01*
X128100000Y-123190000D02*
X125440000Y-123190000D01*
X130970000Y-124080000D02*
X130582929Y-124080000D01*
X130970000Y-124840000D02*
X130582929Y-124840000D01*
X128497071Y-124080000D02*
X128100000Y-124080000D01*
X128497071Y-124840000D02*
X128100000Y-124840000D01*
X125440000Y-124180000D02*
X119440000Y-124180000D01*
X125440000Y-124300000D02*
X119440000Y-124300000D01*
X125440000Y-124420000D02*
X119440000Y-124420000D01*
X125440000Y-124540000D02*
X119440000Y-124540000D01*
X125440000Y-124660000D02*
X119440000Y-124660000D01*
X125440000Y-124780000D02*
X119440000Y-124780000D01*
X119440000Y-124080000D02*
X125440000Y-124080000D01*
X119440000Y-124840000D02*
X119440000Y-124080000D01*
X125440000Y-124840000D02*
X119440000Y-124840000D01*
X125440000Y-125790000D02*
X128100000Y-125790000D01*
X125440000Y-120590000D02*
X125440000Y-125790000D01*
X128100000Y-120590000D02*
X125440000Y-120590000D01*
X128100000Y-125790000D02*
X128100000Y-120590000D01*
%TO.C,R17*%
X140292064Y-121185000D02*
X139837936Y-121185000D01*
X140292064Y-122655000D02*
X139837936Y-122655000D01*
%TO.C,R16*%
X140292064Y-123725000D02*
X139837936Y-123725000D01*
X140292064Y-125195000D02*
X139837936Y-125195000D01*
%TO.C,R15*%
X124684064Y-76308000D02*
X124229936Y-76308000D01*
X124684064Y-77778000D02*
X124229936Y-77778000D01*
%TO.C,R14*%
X124684064Y-74149000D02*
X124229936Y-74149000D01*
X124684064Y-75619000D02*
X124229936Y-75619000D01*
%TO.C,D3*%
X122405000Y-76083000D02*
X119545000Y-76083000D01*
X122405000Y-78003000D02*
X122405000Y-76083000D01*
X119545000Y-78003000D02*
X122405000Y-78003000D01*
%TO.C,D2*%
X122405000Y-73924000D02*
X119545000Y-73924000D01*
X122405000Y-75844000D02*
X122405000Y-73924000D01*
X119545000Y-75844000D02*
X122405000Y-75844000D01*
%TO.C,C11*%
X136778000Y-68020000D02*
X136778000Y-63635000D01*
X133758000Y-68020000D02*
X136778000Y-68020000D01*
X133758000Y-63635000D02*
X133758000Y-68020000D01*
%TO.C,U4*%
X176910000Y-101570000D02*
X176910000Y-94445000D01*
X176910000Y-94445000D02*
X175910000Y-93445000D01*
X175910000Y-93445000D02*
X156110000Y-93445000D01*
X156110000Y-93445000D02*
X156110000Y-111695000D01*
X156110000Y-111695000D02*
X176910000Y-111695000D01*
X176910000Y-111695000D02*
X176910000Y-103570000D01*
%TO.C,R13*%
X134717064Y-75165000D02*
X134262936Y-75165000D01*
X134717064Y-76635000D02*
X134262936Y-76635000D01*
%TO.C,R12*%
X134717064Y-77197000D02*
X134262936Y-77197000D01*
X134717064Y-78667000D02*
X134262936Y-78667000D01*
%TO.C,R11*%
X134749064Y-79229000D02*
X134294936Y-79229000D01*
X134749064Y-80699000D02*
X134294936Y-80699000D01*
%TO.C,R10*%
X134717064Y-81261000D02*
X134262936Y-81261000D01*
X134717064Y-82731000D02*
X134262936Y-82731000D01*
%TO.C,R9*%
X134717064Y-83293000D02*
X134262936Y-83293000D01*
X134717064Y-84763000D02*
X134262936Y-84763000D01*
%TO.C,R8*%
X134717064Y-85325000D02*
X134262936Y-85325000D01*
X134717064Y-86795000D02*
X134262936Y-86795000D01*
%TO.C,R7*%
X134717064Y-99310000D02*
X134262936Y-99310000D01*
X134717064Y-100780000D02*
X134262936Y-100780000D01*
%TO.C,R6*%
X133447064Y-103755000D02*
X132992936Y-103755000D01*
X133447064Y-105225000D02*
X132992936Y-105225000D01*
%TO.C,R5*%
X133447064Y-106295000D02*
X132992936Y-106295000D01*
X133447064Y-107765000D02*
X132992936Y-107765000D01*
%TO.C,R4*%
X133447064Y-108835000D02*
X132992936Y-108835000D01*
X133447064Y-110305000D02*
X132992936Y-110305000D01*
%TO.C,R3*%
X133447064Y-111375000D02*
X132992936Y-111375000D01*
X133447064Y-112845000D02*
X132992936Y-112845000D01*
%TO.C,R2*%
X133447064Y-116455000D02*
X132992936Y-116455000D01*
X133447064Y-117925000D02*
X132992936Y-117925000D01*
%TO.C,J2*%
X125195000Y-81885000D02*
X119195000Y-81885000D01*
X125195000Y-82645000D02*
X119195000Y-82645000D01*
X119195000Y-82645000D02*
X119195000Y-81885000D01*
X127815000Y-80955000D02*
X125195000Y-80955000D01*
X125195000Y-83535000D02*
X125195000Y-80955000D01*
X127815000Y-83535000D02*
X127815000Y-80955000D01*
X125195000Y-84425000D02*
X119195000Y-84425000D01*
X125195000Y-85185000D02*
X119195000Y-85185000D01*
X119195000Y-85185000D02*
X119195000Y-84425000D01*
X127815000Y-83535000D02*
X125195000Y-83535000D01*
X125195000Y-86075000D02*
X125195000Y-83535000D01*
X127815000Y-86075000D02*
X127815000Y-83535000D01*
X125195000Y-86965000D02*
X119195000Y-86965000D01*
X125195000Y-87725000D02*
X119195000Y-87725000D01*
X119195000Y-87725000D02*
X119195000Y-86965000D01*
X127815000Y-86075000D02*
X125195000Y-86075000D01*
X125195000Y-88615000D02*
X125195000Y-86075000D01*
X127815000Y-88615000D02*
X127815000Y-86075000D01*
X125195000Y-89505000D02*
X119195000Y-89505000D01*
X125195000Y-90265000D02*
X119195000Y-90265000D01*
X119195000Y-90265000D02*
X119195000Y-89505000D01*
X127815000Y-88615000D02*
X125195000Y-88615000D01*
X125195000Y-91155000D02*
X125195000Y-88615000D01*
X127815000Y-91155000D02*
X127815000Y-88615000D01*
X125195000Y-92045000D02*
X119195000Y-92045000D01*
X125195000Y-92805000D02*
X119195000Y-92805000D01*
X119195000Y-92805000D02*
X119195000Y-92045000D01*
X127815000Y-91155000D02*
X125195000Y-91155000D01*
X125195000Y-93695000D02*
X125195000Y-91155000D01*
X127815000Y-93695000D02*
X127815000Y-91155000D01*
X125195000Y-94585000D02*
X119195000Y-94585000D01*
X125195000Y-95345000D02*
X119195000Y-95345000D01*
X119195000Y-95345000D02*
X119195000Y-94585000D01*
X127815000Y-93695000D02*
X125195000Y-93695000D01*
X125195000Y-96235000D02*
X125195000Y-93695000D01*
X127815000Y-96235000D02*
X127815000Y-93695000D01*
X125195000Y-97125000D02*
X119195000Y-97125000D01*
X125195000Y-97885000D02*
X119195000Y-97885000D01*
X119195000Y-97885000D02*
X119195000Y-97125000D01*
X127815000Y-96235000D02*
X125195000Y-96235000D01*
X125195000Y-98775000D02*
X125195000Y-96235000D01*
X127815000Y-98775000D02*
X127815000Y-96235000D01*
X125195000Y-99705000D02*
X119195000Y-99705000D01*
X125195000Y-99825000D02*
X119195000Y-99825000D01*
X125195000Y-99945000D02*
X119195000Y-99945000D01*
X125195000Y-100065000D02*
X119195000Y-100065000D01*
X125195000Y-100185000D02*
X119195000Y-100185000D01*
X125195000Y-100305000D02*
X119195000Y-100305000D01*
X125195000Y-99665000D02*
X119195000Y-99665000D01*
X125195000Y-100425000D02*
X119195000Y-100425000D01*
X119195000Y-100425000D02*
X119195000Y-99665000D01*
X127815000Y-98775000D02*
X125195000Y-98775000D01*
X127875000Y-101415000D02*
X126505000Y-101415000D01*
X125395000Y-101355000D02*
X125195000Y-101355000D01*
X125195000Y-101355000D02*
X125195000Y-98775000D01*
X127875000Y-101415000D02*
X127875000Y-100045000D01*
X127815000Y-98775000D02*
X127815000Y-98975000D01*
%TO.C,J1*%
X127815000Y-115920000D02*
X127815000Y-116120000D01*
X127875000Y-118560000D02*
X127875000Y-117190000D01*
X125195000Y-118500000D02*
X125195000Y-115920000D01*
X125395000Y-118500000D02*
X125195000Y-118500000D01*
X127875000Y-118560000D02*
X126505000Y-118560000D01*
X127815000Y-115920000D02*
X125195000Y-115920000D01*
X119195000Y-117570000D02*
X119195000Y-116810000D01*
X125195000Y-117570000D02*
X119195000Y-117570000D01*
X125195000Y-116810000D02*
X119195000Y-116810000D01*
X125195000Y-117450000D02*
X119195000Y-117450000D01*
X125195000Y-117330000D02*
X119195000Y-117330000D01*
X125195000Y-117210000D02*
X119195000Y-117210000D01*
X125195000Y-117090000D02*
X119195000Y-117090000D01*
X125195000Y-116970000D02*
X119195000Y-116970000D01*
X125195000Y-116850000D02*
X119195000Y-116850000D01*
X127815000Y-115920000D02*
X127815000Y-113380000D01*
X125195000Y-115920000D02*
X125195000Y-113380000D01*
X127815000Y-113380000D02*
X125195000Y-113380000D01*
X119195000Y-115030000D02*
X119195000Y-114270000D01*
X125195000Y-115030000D02*
X119195000Y-115030000D01*
X125195000Y-114270000D02*
X119195000Y-114270000D01*
X127815000Y-113380000D02*
X127815000Y-110840000D01*
X125195000Y-113380000D02*
X125195000Y-110840000D01*
X127815000Y-110840000D02*
X125195000Y-110840000D01*
X119195000Y-112490000D02*
X119195000Y-111730000D01*
X125195000Y-112490000D02*
X119195000Y-112490000D01*
X125195000Y-111730000D02*
X119195000Y-111730000D01*
X127815000Y-110840000D02*
X127815000Y-108300000D01*
X125195000Y-110840000D02*
X125195000Y-108300000D01*
X127815000Y-108300000D02*
X125195000Y-108300000D01*
X119195000Y-109950000D02*
X119195000Y-109190000D01*
X125195000Y-109950000D02*
X119195000Y-109950000D01*
X125195000Y-109190000D02*
X119195000Y-109190000D01*
X127815000Y-108300000D02*
X127815000Y-105760000D01*
X125195000Y-108300000D02*
X125195000Y-105760000D01*
X127815000Y-105760000D02*
X125195000Y-105760000D01*
X119195000Y-107410000D02*
X119195000Y-106650000D01*
X125195000Y-107410000D02*
X119195000Y-107410000D01*
X125195000Y-106650000D02*
X119195000Y-106650000D01*
X127815000Y-105760000D02*
X127815000Y-103180000D01*
X125195000Y-105760000D02*
X125195000Y-103180000D01*
X127815000Y-103180000D02*
X125195000Y-103180000D01*
X119195000Y-104870000D02*
X119195000Y-104110000D01*
X125195000Y-104870000D02*
X119195000Y-104870000D01*
X125195000Y-104110000D02*
X119195000Y-104110000D01*
%TO.C,U3*%
X149505025Y-82920084D02*
X150000000Y-83415058D01*
X150000000Y-83415058D02*
X150494975Y-82920084D01*
X140439916Y-73854975D02*
X139944942Y-73360000D01*
X139944942Y-73360000D02*
X140439916Y-72865025D01*
X159560084Y-72865025D02*
X160055058Y-73360000D01*
X160055058Y-73360000D02*
X159560084Y-73854975D01*
X150494975Y-63799916D02*
X150000000Y-63304942D01*
X150000000Y-63304942D02*
X149505025Y-63799916D01*
X149505025Y-63799916D02*
X148592858Y-62887749D01*
%TO.C,C1*%
X131310000Y-66148752D02*
X131310000Y-64726248D01*
X133130000Y-66148752D02*
X133130000Y-64726248D01*
%TO.C,C2*%
X125148752Y-70545000D02*
X123726248Y-70545000D01*
X125148752Y-72365000D02*
X123726248Y-72365000D01*
%TO.C,U1*%
X129222500Y-68050000D02*
X129222500Y-69360000D01*
X129222500Y-69360000D02*
X126502500Y-69360000D01*
X125362500Y-64870000D02*
X126502500Y-64870000D01*
X129222500Y-64640000D02*
X129222500Y-65950000D01*
X126502500Y-64640000D02*
X129222500Y-64640000D01*
X126502500Y-64640000D02*
X126502500Y-64870000D01*
X126502500Y-69360000D02*
X126502500Y-69130000D01*
%TO.C,D1*%
X121475000Y-67040000D02*
X118615000Y-67040000D01*
X118615000Y-67040000D02*
X118615000Y-68960000D01*
X118615000Y-68960000D02*
X121475000Y-68960000D01*
%TO.C,R1*%
X120272936Y-64765000D02*
X120727064Y-64765000D01*
X120272936Y-66235000D02*
X120727064Y-66235000D01*
%TO.C,R17*%
D10*
X142867142Y-122372380D02*
X142533809Y-121896190D01*
X142295714Y-122372380D02*
X142295714Y-121372380D01*
X142676666Y-121372380D01*
X142771904Y-121420000D01*
X142819523Y-121467619D01*
X142867142Y-121562857D01*
X142867142Y-121705714D01*
X142819523Y-121800952D01*
X142771904Y-121848571D01*
X142676666Y-121896190D01*
X142295714Y-121896190D01*
X143819523Y-122372380D02*
X143248095Y-122372380D01*
X143533809Y-122372380D02*
X143533809Y-121372380D01*
X143438571Y-121515238D01*
X143343333Y-121610476D01*
X143248095Y-121658095D01*
X144152857Y-121372380D02*
X144819523Y-121372380D01*
X144390952Y-122372380D01*
%TO.C,R16*%
X142867142Y-124912380D02*
X142533809Y-124436190D01*
X142295714Y-124912380D02*
X142295714Y-123912380D01*
X142676666Y-123912380D01*
X142771904Y-123960000D01*
X142819523Y-124007619D01*
X142867142Y-124102857D01*
X142867142Y-124245714D01*
X142819523Y-124340952D01*
X142771904Y-124388571D01*
X142676666Y-124436190D01*
X142295714Y-124436190D01*
X143819523Y-124912380D02*
X143248095Y-124912380D01*
X143533809Y-124912380D02*
X143533809Y-123912380D01*
X143438571Y-124055238D01*
X143343333Y-124150476D01*
X143248095Y-124198095D01*
X144676666Y-123912380D02*
X144486190Y-123912380D01*
X144390952Y-123960000D01*
X144343333Y-124007619D01*
X144248095Y-124150476D01*
X144200476Y-124340952D01*
X144200476Y-124721904D01*
X144248095Y-124817142D01*
X144295714Y-124864761D01*
X144390952Y-124912380D01*
X144581428Y-124912380D01*
X144676666Y-124864761D01*
X144724285Y-124817142D01*
X144771904Y-124721904D01*
X144771904Y-124483809D01*
X144724285Y-124388571D01*
X144676666Y-124340952D01*
X144581428Y-124293333D01*
X144390952Y-124293333D01*
X144295714Y-124340952D01*
X144248095Y-124388571D01*
X144200476Y-124483809D01*
%TO.C,R15*%
X127132142Y-77368380D02*
X126798809Y-76892190D01*
X126560714Y-77368380D02*
X126560714Y-76368380D01*
X126941666Y-76368380D01*
X127036904Y-76416000D01*
X127084523Y-76463619D01*
X127132142Y-76558857D01*
X127132142Y-76701714D01*
X127084523Y-76796952D01*
X127036904Y-76844571D01*
X126941666Y-76892190D01*
X126560714Y-76892190D01*
X128084523Y-77368380D02*
X127513095Y-77368380D01*
X127798809Y-77368380D02*
X127798809Y-76368380D01*
X127703571Y-76511238D01*
X127608333Y-76606476D01*
X127513095Y-76654095D01*
X128989285Y-76368380D02*
X128513095Y-76368380D01*
X128465476Y-76844571D01*
X128513095Y-76796952D01*
X128608333Y-76749333D01*
X128846428Y-76749333D01*
X128941666Y-76796952D01*
X128989285Y-76844571D01*
X129036904Y-76939809D01*
X129036904Y-77177904D01*
X128989285Y-77273142D01*
X128941666Y-77320761D01*
X128846428Y-77368380D01*
X128608333Y-77368380D01*
X128513095Y-77320761D01*
X128465476Y-77273142D01*
%TO.C,R14*%
X127132142Y-75463380D02*
X126798809Y-74987190D01*
X126560714Y-75463380D02*
X126560714Y-74463380D01*
X126941666Y-74463380D01*
X127036904Y-74511000D01*
X127084523Y-74558619D01*
X127132142Y-74653857D01*
X127132142Y-74796714D01*
X127084523Y-74891952D01*
X127036904Y-74939571D01*
X126941666Y-74987190D01*
X126560714Y-74987190D01*
X128084523Y-75463380D02*
X127513095Y-75463380D01*
X127798809Y-75463380D02*
X127798809Y-74463380D01*
X127703571Y-74606238D01*
X127608333Y-74701476D01*
X127513095Y-74749095D01*
X128941666Y-74796714D02*
X128941666Y-75463380D01*
X128703571Y-74415761D02*
X128465476Y-75130047D01*
X129084523Y-75130047D01*
%TO.C,D3*%
X119806904Y-79145380D02*
X119806904Y-78145380D01*
X120045000Y-78145380D01*
X120187857Y-78193000D01*
X120283095Y-78288238D01*
X120330714Y-78383476D01*
X120378333Y-78573952D01*
X120378333Y-78716809D01*
X120330714Y-78907285D01*
X120283095Y-79002523D01*
X120187857Y-79097761D01*
X120045000Y-79145380D01*
X119806904Y-79145380D01*
X120711666Y-78145380D02*
X121330714Y-78145380D01*
X120997380Y-78526333D01*
X121140238Y-78526333D01*
X121235476Y-78573952D01*
X121283095Y-78621571D01*
X121330714Y-78716809D01*
X121330714Y-78954904D01*
X121283095Y-79050142D01*
X121235476Y-79097761D01*
X121140238Y-79145380D01*
X120854523Y-79145380D01*
X120759285Y-79097761D01*
X120711666Y-79050142D01*
%TO.C,D2*%
X119797904Y-73685380D02*
X119797904Y-72685380D01*
X120036000Y-72685380D01*
X120178857Y-72733000D01*
X120274095Y-72828238D01*
X120321714Y-72923476D01*
X120369333Y-73113952D01*
X120369333Y-73256809D01*
X120321714Y-73447285D01*
X120274095Y-73542523D01*
X120178857Y-73637761D01*
X120036000Y-73685380D01*
X119797904Y-73685380D01*
X120750285Y-72780619D02*
X120797904Y-72733000D01*
X120893142Y-72685380D01*
X121131238Y-72685380D01*
X121226476Y-72733000D01*
X121274095Y-72780619D01*
X121321714Y-72875857D01*
X121321714Y-72971095D01*
X121274095Y-73113952D01*
X120702666Y-73685380D01*
X121321714Y-73685380D01*
%TO.C,C11*%
X134625142Y-69070142D02*
X134577523Y-69117761D01*
X134434666Y-69165380D01*
X134339428Y-69165380D01*
X134196571Y-69117761D01*
X134101333Y-69022523D01*
X134053714Y-68927285D01*
X134006095Y-68736809D01*
X134006095Y-68593952D01*
X134053714Y-68403476D01*
X134101333Y-68308238D01*
X134196571Y-68213000D01*
X134339428Y-68165380D01*
X134434666Y-68165380D01*
X134577523Y-68213000D01*
X134625142Y-68260619D01*
X135577523Y-69165380D02*
X135006095Y-69165380D01*
X135291809Y-69165380D02*
X135291809Y-68165380D01*
X135196571Y-68308238D01*
X135101333Y-68403476D01*
X135006095Y-68451095D01*
X136529904Y-69165380D02*
X135958476Y-69165380D01*
X136244190Y-69165380D02*
X136244190Y-68165380D01*
X136148952Y-68308238D01*
X136053714Y-68403476D01*
X135958476Y-68451095D01*
%TO.C,U4*%
X177262380Y-103331904D02*
X178071904Y-103331904D01*
X178167142Y-103284285D01*
X178214761Y-103236666D01*
X178262380Y-103141428D01*
X178262380Y-102950952D01*
X178214761Y-102855714D01*
X178167142Y-102808095D01*
X178071904Y-102760476D01*
X177262380Y-102760476D01*
X177595714Y-101855714D02*
X178262380Y-101855714D01*
X177214761Y-102093809D02*
X177929047Y-102331904D01*
X177929047Y-101712857D01*
%TO.C,R13*%
X137292142Y-76352380D02*
X136958809Y-75876190D01*
X136720714Y-76352380D02*
X136720714Y-75352380D01*
X137101666Y-75352380D01*
X137196904Y-75400000D01*
X137244523Y-75447619D01*
X137292142Y-75542857D01*
X137292142Y-75685714D01*
X137244523Y-75780952D01*
X137196904Y-75828571D01*
X137101666Y-75876190D01*
X136720714Y-75876190D01*
X138244523Y-76352380D02*
X137673095Y-76352380D01*
X137958809Y-76352380D02*
X137958809Y-75352380D01*
X137863571Y-75495238D01*
X137768333Y-75590476D01*
X137673095Y-75638095D01*
X138577857Y-75352380D02*
X139196904Y-75352380D01*
X138863571Y-75733333D01*
X139006428Y-75733333D01*
X139101666Y-75780952D01*
X139149285Y-75828571D01*
X139196904Y-75923809D01*
X139196904Y-76161904D01*
X139149285Y-76257142D01*
X139101666Y-76304761D01*
X139006428Y-76352380D01*
X138720714Y-76352380D01*
X138625476Y-76304761D01*
X138577857Y-76257142D01*
%TO.C,R12*%
X137292142Y-78384380D02*
X136958809Y-77908190D01*
X136720714Y-78384380D02*
X136720714Y-77384380D01*
X137101666Y-77384380D01*
X137196904Y-77432000D01*
X137244523Y-77479619D01*
X137292142Y-77574857D01*
X137292142Y-77717714D01*
X137244523Y-77812952D01*
X137196904Y-77860571D01*
X137101666Y-77908190D01*
X136720714Y-77908190D01*
X138244523Y-78384380D02*
X137673095Y-78384380D01*
X137958809Y-78384380D02*
X137958809Y-77384380D01*
X137863571Y-77527238D01*
X137768333Y-77622476D01*
X137673095Y-77670095D01*
X138625476Y-77479619D02*
X138673095Y-77432000D01*
X138768333Y-77384380D01*
X139006428Y-77384380D01*
X139101666Y-77432000D01*
X139149285Y-77479619D01*
X139196904Y-77574857D01*
X139196904Y-77670095D01*
X139149285Y-77812952D01*
X138577857Y-78384380D01*
X139196904Y-78384380D01*
%TO.C,R11*%
X137324142Y-80416380D02*
X136990809Y-79940190D01*
X136752714Y-80416380D02*
X136752714Y-79416380D01*
X137133666Y-79416380D01*
X137228904Y-79464000D01*
X137276523Y-79511619D01*
X137324142Y-79606857D01*
X137324142Y-79749714D01*
X137276523Y-79844952D01*
X137228904Y-79892571D01*
X137133666Y-79940190D01*
X136752714Y-79940190D01*
X138276523Y-80416380D02*
X137705095Y-80416380D01*
X137990809Y-80416380D02*
X137990809Y-79416380D01*
X137895571Y-79559238D01*
X137800333Y-79654476D01*
X137705095Y-79702095D01*
X139228904Y-80416380D02*
X138657476Y-80416380D01*
X138943190Y-80416380D02*
X138943190Y-79416380D01*
X138847952Y-79559238D01*
X138752714Y-79654476D01*
X138657476Y-79702095D01*
%TO.C,R10*%
X137292142Y-82448380D02*
X136958809Y-81972190D01*
X136720714Y-82448380D02*
X136720714Y-81448380D01*
X137101666Y-81448380D01*
X137196904Y-81496000D01*
X137244523Y-81543619D01*
X137292142Y-81638857D01*
X137292142Y-81781714D01*
X137244523Y-81876952D01*
X137196904Y-81924571D01*
X137101666Y-81972190D01*
X136720714Y-81972190D01*
X138244523Y-82448380D02*
X137673095Y-82448380D01*
X137958809Y-82448380D02*
X137958809Y-81448380D01*
X137863571Y-81591238D01*
X137768333Y-81686476D01*
X137673095Y-81734095D01*
X138863571Y-81448380D02*
X138958809Y-81448380D01*
X139054047Y-81496000D01*
X139101666Y-81543619D01*
X139149285Y-81638857D01*
X139196904Y-81829333D01*
X139196904Y-82067428D01*
X139149285Y-82257904D01*
X139101666Y-82353142D01*
X139054047Y-82400761D01*
X138958809Y-82448380D01*
X138863571Y-82448380D01*
X138768333Y-82400761D01*
X138720714Y-82353142D01*
X138673095Y-82257904D01*
X138625476Y-82067428D01*
X138625476Y-81829333D01*
X138673095Y-81638857D01*
X138720714Y-81543619D01*
X138768333Y-81496000D01*
X138863571Y-81448380D01*
%TO.C,R9*%
X137133333Y-84480380D02*
X136800000Y-84004190D01*
X136561904Y-84480380D02*
X136561904Y-83480380D01*
X136942857Y-83480380D01*
X137038095Y-83528000D01*
X137085714Y-83575619D01*
X137133333Y-83670857D01*
X137133333Y-83813714D01*
X137085714Y-83908952D01*
X137038095Y-83956571D01*
X136942857Y-84004190D01*
X136561904Y-84004190D01*
X137609523Y-84480380D02*
X137800000Y-84480380D01*
X137895238Y-84432761D01*
X137942857Y-84385142D01*
X138038095Y-84242285D01*
X138085714Y-84051809D01*
X138085714Y-83670857D01*
X138038095Y-83575619D01*
X137990476Y-83528000D01*
X137895238Y-83480380D01*
X137704761Y-83480380D01*
X137609523Y-83528000D01*
X137561904Y-83575619D01*
X137514285Y-83670857D01*
X137514285Y-83908952D01*
X137561904Y-84004190D01*
X137609523Y-84051809D01*
X137704761Y-84099428D01*
X137895238Y-84099428D01*
X137990476Y-84051809D01*
X138038095Y-84004190D01*
X138085714Y-83908952D01*
%TO.C,R8*%
X137133333Y-86512380D02*
X136800000Y-86036190D01*
X136561904Y-86512380D02*
X136561904Y-85512380D01*
X136942857Y-85512380D01*
X137038095Y-85560000D01*
X137085714Y-85607619D01*
X137133333Y-85702857D01*
X137133333Y-85845714D01*
X137085714Y-85940952D01*
X137038095Y-85988571D01*
X136942857Y-86036190D01*
X136561904Y-86036190D01*
X137704761Y-85940952D02*
X137609523Y-85893333D01*
X137561904Y-85845714D01*
X137514285Y-85750476D01*
X137514285Y-85702857D01*
X137561904Y-85607619D01*
X137609523Y-85560000D01*
X137704761Y-85512380D01*
X137895238Y-85512380D01*
X137990476Y-85560000D01*
X138038095Y-85607619D01*
X138085714Y-85702857D01*
X138085714Y-85750476D01*
X138038095Y-85845714D01*
X137990476Y-85893333D01*
X137895238Y-85940952D01*
X137704761Y-85940952D01*
X137609523Y-85988571D01*
X137561904Y-86036190D01*
X137514285Y-86131428D01*
X137514285Y-86321904D01*
X137561904Y-86417142D01*
X137609523Y-86464761D01*
X137704761Y-86512380D01*
X137895238Y-86512380D01*
X137990476Y-86464761D01*
X138038095Y-86417142D01*
X138085714Y-86321904D01*
X138085714Y-86131428D01*
X138038095Y-86036190D01*
X137990476Y-85988571D01*
X137895238Y-85940952D01*
%TO.C,R7*%
X137133333Y-100497380D02*
X136800000Y-100021190D01*
X136561904Y-100497380D02*
X136561904Y-99497380D01*
X136942857Y-99497380D01*
X137038095Y-99545000D01*
X137085714Y-99592619D01*
X137133333Y-99687857D01*
X137133333Y-99830714D01*
X137085714Y-99925952D01*
X137038095Y-99973571D01*
X136942857Y-100021190D01*
X136561904Y-100021190D01*
X137466666Y-99497380D02*
X138133333Y-99497380D01*
X137704761Y-100497380D01*
%TO.C,R6*%
X135863333Y-104942380D02*
X135530000Y-104466190D01*
X135291904Y-104942380D02*
X135291904Y-103942380D01*
X135672857Y-103942380D01*
X135768095Y-103990000D01*
X135815714Y-104037619D01*
X135863333Y-104132857D01*
X135863333Y-104275714D01*
X135815714Y-104370952D01*
X135768095Y-104418571D01*
X135672857Y-104466190D01*
X135291904Y-104466190D01*
X136720476Y-103942380D02*
X136530000Y-103942380D01*
X136434761Y-103990000D01*
X136387142Y-104037619D01*
X136291904Y-104180476D01*
X136244285Y-104370952D01*
X136244285Y-104751904D01*
X136291904Y-104847142D01*
X136339523Y-104894761D01*
X136434761Y-104942380D01*
X136625238Y-104942380D01*
X136720476Y-104894761D01*
X136768095Y-104847142D01*
X136815714Y-104751904D01*
X136815714Y-104513809D01*
X136768095Y-104418571D01*
X136720476Y-104370952D01*
X136625238Y-104323333D01*
X136434761Y-104323333D01*
X136339523Y-104370952D01*
X136291904Y-104418571D01*
X136244285Y-104513809D01*
%TO.C,R5*%
X135863333Y-107482380D02*
X135530000Y-107006190D01*
X135291904Y-107482380D02*
X135291904Y-106482380D01*
X135672857Y-106482380D01*
X135768095Y-106530000D01*
X135815714Y-106577619D01*
X135863333Y-106672857D01*
X135863333Y-106815714D01*
X135815714Y-106910952D01*
X135768095Y-106958571D01*
X135672857Y-107006190D01*
X135291904Y-107006190D01*
X136768095Y-106482380D02*
X136291904Y-106482380D01*
X136244285Y-106958571D01*
X136291904Y-106910952D01*
X136387142Y-106863333D01*
X136625238Y-106863333D01*
X136720476Y-106910952D01*
X136768095Y-106958571D01*
X136815714Y-107053809D01*
X136815714Y-107291904D01*
X136768095Y-107387142D01*
X136720476Y-107434761D01*
X136625238Y-107482380D01*
X136387142Y-107482380D01*
X136291904Y-107434761D01*
X136244285Y-107387142D01*
%TO.C,R4*%
X135863333Y-110022380D02*
X135530000Y-109546190D01*
X135291904Y-110022380D02*
X135291904Y-109022380D01*
X135672857Y-109022380D01*
X135768095Y-109070000D01*
X135815714Y-109117619D01*
X135863333Y-109212857D01*
X135863333Y-109355714D01*
X135815714Y-109450952D01*
X135768095Y-109498571D01*
X135672857Y-109546190D01*
X135291904Y-109546190D01*
X136720476Y-109355714D02*
X136720476Y-110022380D01*
X136482380Y-108974761D02*
X136244285Y-109689047D01*
X136863333Y-109689047D01*
%TO.C,R3*%
X135863333Y-112562380D02*
X135530000Y-112086190D01*
X135291904Y-112562380D02*
X135291904Y-111562380D01*
X135672857Y-111562380D01*
X135768095Y-111610000D01*
X135815714Y-111657619D01*
X135863333Y-111752857D01*
X135863333Y-111895714D01*
X135815714Y-111990952D01*
X135768095Y-112038571D01*
X135672857Y-112086190D01*
X135291904Y-112086190D01*
X136196666Y-111562380D02*
X136815714Y-111562380D01*
X136482380Y-111943333D01*
X136625238Y-111943333D01*
X136720476Y-111990952D01*
X136768095Y-112038571D01*
X136815714Y-112133809D01*
X136815714Y-112371904D01*
X136768095Y-112467142D01*
X136720476Y-112514761D01*
X136625238Y-112562380D01*
X136339523Y-112562380D01*
X136244285Y-112514761D01*
X136196666Y-112467142D01*
%TO.C,R2*%
X135863333Y-117642380D02*
X135530000Y-117166190D01*
X135291904Y-117642380D02*
X135291904Y-116642380D01*
X135672857Y-116642380D01*
X135768095Y-116690000D01*
X135815714Y-116737619D01*
X135863333Y-116832857D01*
X135863333Y-116975714D01*
X135815714Y-117070952D01*
X135768095Y-117118571D01*
X135672857Y-117166190D01*
X135291904Y-117166190D01*
X136244285Y-116737619D02*
X136291904Y-116690000D01*
X136387142Y-116642380D01*
X136625238Y-116642380D01*
X136720476Y-116690000D01*
X136768095Y-116737619D01*
X136815714Y-116832857D01*
X136815714Y-116928095D01*
X136768095Y-117070952D01*
X136196666Y-117642380D01*
X136815714Y-117642380D01*
%TO.C,U3*%
X156459925Y-65822578D02*
X155887505Y-66394998D01*
X155853833Y-66496013D01*
X155853833Y-66563357D01*
X155887505Y-66664372D01*
X156022192Y-66799059D01*
X156123207Y-66832731D01*
X156190551Y-66832731D01*
X156291566Y-66799059D01*
X156863986Y-66226639D01*
X157133360Y-66496013D02*
X157571092Y-66933746D01*
X157066016Y-66967418D01*
X157167031Y-67068433D01*
X157200703Y-67169448D01*
X157200703Y-67236792D01*
X157167031Y-67337807D01*
X156998673Y-67506166D01*
X156897657Y-67539838D01*
X156830314Y-67539838D01*
X156729299Y-67506166D01*
X156527268Y-67304135D01*
X156493596Y-67203120D01*
X156493596Y-67135777D01*
%TO.C,U2*%
X131958095Y-56452380D02*
X131958095Y-57261904D01*
X132005714Y-57357142D01*
X132053333Y-57404761D01*
X132148571Y-57452380D01*
X132339047Y-57452380D01*
X132434285Y-57404761D01*
X132481904Y-57357142D01*
X132529523Y-57261904D01*
X132529523Y-56452380D01*
X132958095Y-56547619D02*
X133005714Y-56500000D01*
X133100952Y-56452380D01*
X133339047Y-56452380D01*
X133434285Y-56500000D01*
X133481904Y-56547619D01*
X133529523Y-56642857D01*
X133529523Y-56738095D01*
X133481904Y-56880952D01*
X132910476Y-57452380D01*
X133529523Y-57452380D01*
%TO.C,C1*%
X132180333Y-69018142D02*
X132132714Y-69065761D01*
X131989857Y-69113380D01*
X131894619Y-69113380D01*
X131751761Y-69065761D01*
X131656523Y-68970523D01*
X131608904Y-68875285D01*
X131561285Y-68684809D01*
X131561285Y-68541952D01*
X131608904Y-68351476D01*
X131656523Y-68256238D01*
X131751761Y-68161000D01*
X131894619Y-68113380D01*
X131989857Y-68113380D01*
X132132714Y-68161000D01*
X132180333Y-68208619D01*
X133132714Y-69113380D02*
X132561285Y-69113380D01*
X132847000Y-69113380D02*
X132847000Y-68113380D01*
X132751761Y-68256238D01*
X132656523Y-68351476D01*
X132561285Y-68399095D01*
%TO.C,C2*%
X127608333Y-71812142D02*
X127560714Y-71859761D01*
X127417857Y-71907380D01*
X127322619Y-71907380D01*
X127179761Y-71859761D01*
X127084523Y-71764523D01*
X127036904Y-71669285D01*
X126989285Y-71478809D01*
X126989285Y-71335952D01*
X127036904Y-71145476D01*
X127084523Y-71050238D01*
X127179761Y-70955000D01*
X127322619Y-70907380D01*
X127417857Y-70907380D01*
X127560714Y-70955000D01*
X127608333Y-71002619D01*
X127989285Y-71002619D02*
X128036904Y-70955000D01*
X128132142Y-70907380D01*
X128370238Y-70907380D01*
X128465476Y-70955000D01*
X128513095Y-71002619D01*
X128560714Y-71097857D01*
X128560714Y-71193095D01*
X128513095Y-71335952D01*
X127941666Y-71907380D01*
X128560714Y-71907380D01*
%TO.C,U1*%
X129738095Y-68952380D02*
X129738095Y-69761904D01*
X129785714Y-69857142D01*
X129833333Y-69904761D01*
X129928571Y-69952380D01*
X130119047Y-69952380D01*
X130214285Y-69904761D01*
X130261904Y-69857142D01*
X130309523Y-69761904D01*
X130309523Y-68952380D01*
X131309523Y-69952380D02*
X130738095Y-69952380D01*
X131023809Y-69952380D02*
X131023809Y-68952380D01*
X130928571Y-69095238D01*
X130833333Y-69190476D01*
X130738095Y-69238095D01*
%TO.C,D1*%
X119761904Y-70452380D02*
X119761904Y-69452380D01*
X120000000Y-69452380D01*
X120142857Y-69500000D01*
X120238095Y-69595238D01*
X120285714Y-69690476D01*
X120333333Y-69880952D01*
X120333333Y-70023809D01*
X120285714Y-70214285D01*
X120238095Y-70309523D01*
X120142857Y-70404761D01*
X120000000Y-70452380D01*
X119761904Y-70452380D01*
X121285714Y-70452380D02*
X120714285Y-70452380D01*
X121000000Y-70452380D02*
X121000000Y-69452380D01*
X120904761Y-69595238D01*
X120809523Y-69690476D01*
X120714285Y-69738095D01*
%TO.C,R1*%
X123333333Y-67462380D02*
X123000000Y-66986190D01*
X122761904Y-67462380D02*
X122761904Y-66462380D01*
X123142857Y-66462380D01*
X123238095Y-66510000D01*
X123285714Y-66557619D01*
X123333333Y-66652857D01*
X123333333Y-66795714D01*
X123285714Y-66890952D01*
X123238095Y-66938571D01*
X123142857Y-66986190D01*
X122761904Y-66986190D01*
X124285714Y-67462380D02*
X123714285Y-67462380D01*
X124000000Y-67462380D02*
X124000000Y-66462380D01*
X123904761Y-66605238D01*
X123809523Y-66700476D01*
X123714285Y-66748095D01*
%TD*%
M02*
